<?xml version="1.0" standalone="no"?>
<!DOCTYPE svg PUBLIC "-//W3C//DTD SVG 1.1//EN" "http://www.w3.org/Graphics/SVG/1.1/DTD/svg11.dtd">
<svg width="143mm" height="108mm" viewBox="-4 -104 143 108" xmlns="http://www.w3.org/2000/svg" version="1.1">
<title>OpenSCAD Model</title>
<path d="
M 0.324036,-96.917 L 0.644516,-96.9677 L 0.957947,-97.0517 L 1.26088,-97.168 L 1.54999,-97.3153 L 1.82213,-97.492
 L 2.0743,-97.6962 L 2.30374,-97.9257 L 2.50795,-98.1779 L 2.68468,-98.45 L 2.83199,-98.7391 L 2.94827,-99.042
 L 3.03226,-99.3555 L 3.08301,-99.6759 L 3.09999,-100 L 3.08301,-100.324 L 3.03226,-100.645 L 2.94827,-100.958
 L 2.83199,-101.261 L 2.68468,-101.55 L 2.50795,-101.822 L 2.30374,-102.074 L 2.0743,-102.304 L 1.82213,-102.508
 L 1.54999,-102.685 L 1.26088,-102.832 L 0.957947,-102.948 L 0.644516,-103.032 L 0.324036,-103.083 L 0,-103.1
 L -0.324036,-103.083 L -0.644516,-103.032 L -0.957947,-102.948 L -1.26088,-102.832 L -1.54999,-102.685 L -1.82213,-102.508
 L -2.0743,-102.304 L -2.30374,-102.074 L -2.50795,-101.822 L -2.68468,-101.55 L -2.83199,-101.261 L -2.94827,-100.958
 L -3.03226,-100.645 L -3.08301,-100.324 L -3.09999,-100 L -3.08301,-99.6759 L -3.03226,-99.3555 L -2.94827,-99.042
 L -2.83199,-98.7391 L -2.68468,-98.45 L -2.50795,-98.1779 L -2.30374,-97.9257 L -2.0743,-97.6962 L -1.82213,-97.492
 L -1.54999,-97.3153 L -1.26088,-97.168 L -0.957947,-97.0517 L -0.644516,-96.9677 L -0.324036,-96.917 L 0,-96.9
 z
M 45.324,-96.917 L 45.6445,-96.9677 L 45.9579,-97.0517 L 46.2609,-97.168 L 46.55,-97.3153 L 46.8221,-97.492
 L 47.0743,-97.6962 L 47.3037,-97.9257 L 47.5079,-98.1779 L 47.6847,-98.45 L 47.832,-98.7391 L 47.9483,-99.042
 L 48.0323,-99.3555 L 48.083,-99.6759 L 48.1,-100 L 48.083,-100.324 L 48.0323,-100.645 L 47.9483,-100.958
 L 47.832,-101.261 L 47.6847,-101.55 L 47.5079,-101.822 L 47.3037,-102.074 L 47.0743,-102.304 L 46.8221,-102.508
 L 46.55,-102.685 L 46.2609,-102.832 L 45.9579,-102.948 L 45.6445,-103.032 L 45.324,-103.083 L 45,-103.1
 L 44.6759,-103.083 L 44.3555,-103.032 L 44.042,-102.948 L 43.7391,-102.832 L 43.45,-102.685 L 43.1779,-102.508
 L 42.9257,-102.304 L 42.6962,-102.074 L 42.492,-101.822 L 42.3153,-101.55 L 42.168,-101.261 L 42.0517,-100.958
 L 41.9677,-100.645 L 41.917,-100.324 L 41.9,-100 L 41.917,-99.6759 L 41.9677,-99.3555 L 42.0517,-99.042
 L 42.168,-98.7391 L 42.3153,-98.45 L 42.492,-98.1779 L 42.6962,-97.9257 L 42.9257,-97.6962 L 43.1779,-97.492
 L 43.45,-97.3153 L 43.7391,-97.168 L 44.042,-97.0517 L 44.3555,-96.9677 L 44.6759,-96.917 L 45,-96.9
 z
M 110.324,-96.917 L 110.645,-96.9677 L 110.958,-97.0517 L 111.261,-97.168 L 111.55,-97.3153 L 111.822,-97.492
 L 112.074,-97.6962 L 112.304,-97.9257 L 112.508,-98.1779 L 112.685,-98.45 L 112.832,-98.7391 L 112.948,-99.042
 L 113.032,-99.3555 L 113.083,-99.6759 L 113.1,-100 L 113.083,-100.324 L 113.032,-100.645 L 112.948,-100.958
 L 112.832,-101.261 L 112.685,-101.55 L 112.508,-101.822 L 112.304,-102.074 L 112.074,-102.304 L 111.822,-102.508
 L 111.55,-102.685 L 111.261,-102.832 L 110.958,-102.948 L 110.645,-103.032 L 110.324,-103.083 L 110,-103.1
 L 109.676,-103.083 L 109.355,-103.032 L 109.042,-102.948 L 108.739,-102.832 L 108.45,-102.685 L 108.178,-102.508
 L 107.926,-102.304 L 107.696,-102.074 L 107.492,-101.822 L 107.315,-101.55 L 107.168,-101.261 L 107.052,-100.958
 L 106.968,-100.645 L 106.917,-100.324 L 106.9,-100 L 106.917,-99.6759 L 106.968,-99.3555 L 107.052,-99.042
 L 107.168,-98.7391 L 107.315,-98.45 L 107.492,-98.1779 L 107.696,-97.9257 L 107.926,-97.6962 L 108.178,-97.492
 L 108.45,-97.3153 L 108.739,-97.168 L 109.042,-97.0517 L 109.355,-96.9677 L 109.676,-96.917 L 110,-96.9
 z
M 135.324,-96.917 L 135.645,-96.9677 L 135.958,-97.0517 L 136.261,-97.168 L 136.55,-97.3153 L 136.822,-97.492
 L 137.074,-97.6962 L 137.304,-97.9257 L 137.508,-98.1779 L 137.685,-98.45 L 137.832,-98.7391 L 137.948,-99.042
 L 138.032,-99.3555 L 138.083,-99.6759 L 138.1,-100 L 138.083,-100.324 L 138.032,-100.645 L 137.948,-100.958
 L 137.832,-101.261 L 137.685,-101.55 L 137.508,-101.822 L 137.304,-102.074 L 137.074,-102.304 L 136.822,-102.508
 L 136.55,-102.685 L 136.261,-102.832 L 135.958,-102.948 L 135.645,-103.032 L 135.324,-103.083 L 135,-103.1
 L 134.676,-103.083 L 134.355,-103.032 L 134.042,-102.948 L 133.739,-102.832 L 133.45,-102.685 L 133.178,-102.508
 L 132.926,-102.304 L 132.696,-102.074 L 132.492,-101.822 L 132.315,-101.55 L 132.168,-101.261 L 132.052,-100.958
 L 131.968,-100.645 L 131.917,-100.324 L 131.9,-100 L 131.917,-99.6759 L 131.968,-99.3555 L 132.052,-99.042
 L 132.168,-98.7391 L 132.315,-98.45 L 132.492,-98.1779 L 132.696,-97.9257 L 132.926,-97.6962 L 133.178,-97.492
 L 133.45,-97.3153 L 133.739,-97.168 L 134.042,-97.0517 L 134.355,-96.9677 L 134.676,-96.917 L 135,-96.9
 z
M 124.458,-34.9254 L 124.716,-34.9459 L 124.959,-34.9799 L 125.185,-35.0275 L 125.395,-35.0887 L 125.59,-35.1635
 L 125.769,-35.252 L 125.932,-35.354 L 126.077,-35.4684 L 126.203,-35.5941 L 126.31,-35.7309 L 126.397,-35.8789
 L 126.465,-36.038 L 126.514,-36.2084 L 126.543,-36.39 L 126.552,-36.5827 L 126.551,-36.6598 L 126.547,-36.7343
 L 126.54,-36.8063 L 126.531,-36.8757 L 126.518,-36.9426 L 126.503,-37.0069 L 126.486,-37.0687 L 126.465,-37.1279
 L 126.442,-37.185 L 126.417,-37.2401 L 126.39,-37.2933 L 126.361,-37.3446 L 126.329,-37.394 L 126.296,-37.4415
 L 126.261,-37.4871 L 126.223,-37.5307 L 126.183,-37.5726 L 126.142,-37.6129 L 126.099,-37.6515 L 126.055,-37.6884
 L 126.008,-37.7237 L 125.96,-37.7573 L 125.91,-37.7893 L 125.859,-37.8196 L 125.806,-37.8487 L 125.752,-37.8767
 L 125.697,-37.9039 L 125.642,-37.93 L 125.585,-37.9552 L 125.527,-37.9795 L 125.469,-38.0028 L 125.409,-38.0251
 L 125.349,-38.0466 L 125.288,-38.0674 L 125.226,-38.0873 L 125.163,-38.1065 L 125.1,-38.1249 L 125.036,-38.1426
 L 124.972,-38.1595 L 124.907,-38.1757 L 124.841,-38.1914 L 124.775,-38.2071 L 124.71,-38.2227 L 124.644,-38.2382
 L 124.578,-38.2537 L 124.512,-38.2691 L 124.446,-38.2845 L 124.38,-38.2998 L 124.191,-38.3426 L 124.018,-38.3838
 L 123.862,-38.4232 L 123.722,-38.461 L 123.598,-38.497 L 123.491,-38.5313 L 123.4,-38.5639 L 123.326,-38.5947
 L 123.262,-38.6255 L 123.201,-38.6581 L 123.145,-38.6922 L 123.092,-38.728 L 123.044,-38.7654 L 122.999,-38.8045
 L 122.958,-38.8453 L 122.921,-38.8877 L 122.888,-38.9324 L 122.86,-38.9799 L 122.836,-39.0303 L 122.816,-39.0835
 L 122.8,-39.1396 L 122.789,-39.1986 L 122.783,-39.2604 L 122.781,-39.3251 L 122.786,-39.4345 L 122.803,-39.5369
 L 122.832,-39.6323 L 122.871,-39.7208 L 122.922,-39.8022 L 122.984,-39.8766 L 123.058,-39.9441 L 123.143,-40.0045
 L 123.238,-40.0579 L 123.344,-40.1042 L 123.46,-40.1434 L 123.586,-40.1754 L 123.723,-40.2004 L 123.869,-40.2182
 L 124.026,-40.2289 L 124.193,-40.2324 L 124.345,-40.2292 L 124.489,-40.2196 L 124.624,-40.2035 L 124.751,-40.181
 L 124.869,-40.1521 L 124.979,-40.1168 L 125.08,-40.0751 L 125.173,-40.0269 L 125.258,-39.9716 L 125.336,-39.9086
 L 125.407,-39.8376 L 125.47,-39.7589 L 125.527,-39.6723 L 125.576,-39.578 L 125.618,-39.4758 L 125.653,-39.3658
 L 126.418,-39.5 L 126.361,-39.6735 L 126.295,-39.8338 L 126.219,-39.9809 L 126.133,-40.1149 L 126.038,-40.2357
 L 125.933,-40.3434 L 125.818,-40.4379 L 125.694,-40.5192 L 125.558,-40.5893 L 125.407,-40.6501 L 125.242,-40.7015
 L 125.062,-40.7435 L 124.868,-40.7762 L 124.66,-40.7996 L 124.438,-40.8136 L 124.201,-40.8183 L 123.946,-40.8121
 L 123.706,-40.7934 L 123.482,-40.7622 L 123.273,-40.7186 L 123.078,-40.6626 L 122.9,-40.594 L 122.736,-40.513
 L 122.587,-40.4196 L 122.455,-40.3146 L 122.341,-40.1991 L 122.244,-40.073 L 122.165,-39.9364 L 122.103,-39.7892
 L 122.059,-39.6315 L 122.033,-39.4632 L 122.024,-39.2844 L 122.026,-39.2052 L 122.031,-39.1283 L 122.039,-39.0536
 L 122.051,-38.9812 L 122.066,-38.9112 L 122.085,-38.8434 L 122.106,-38.7779 L 122.132,-38.7147 L 122.16,-38.6537
 L 122.192,-38.5946 L 122.226,-38.5374 L 122.263,-38.4823 L 122.304,-38.4291 L 122.347,-38.3779 L 122.394,-38.3287
 L 122.443,-38.2814 L 122.496,-38.2357 L 122.554,-38.191 L 122.617,-38.1474 L 122.684,-38.1049 L 122.755,-38.0635
 L 122.832,-38.0232 L 122.913,-37.9839 L 122.998,-37.9458 L 123.091,-37.9081 L 123.195,-37.8705 L 123.308,-37.8328
 L 123.432,-37.7952 L 123.566,-37.7576 L 123.711,-37.7199 L 123.865,-37.6823 L 124.03,-37.6447 L 124.126,-37.6225
 L 124.221,-37.6007 L 124.313,-37.5792 L 124.403,-37.5582 L 124.491,-37.5375 L 124.577,-37.5172 L 124.66,-37.4973
 L 124.742,-37.4778 L 124.821,-37.4579 L 124.897,-37.4369 L 124.97,-37.4147 L 125.041,-37.3914 L 125.109,-37.3669
 L 125.174,-37.3413 L 125.236,-37.3145 L 125.295,-37.2866 L 125.352,-37.2572 L 125.405,-37.2258 L 125.455,-37.1926
 L 125.501,-37.1574 L 125.545,-37.1204 L 125.585,-37.0814 L 125.622,-37.0405 L 125.655,-36.9978 L 125.685,-36.9524
 L 125.711,-36.9037 L 125.733,-36.8517 L 125.751,-36.7963 L 125.765,-36.7377 L 125.775,-36.6758 L 125.781,-36.6106
 L 125.783,-36.5421 L 125.777,-36.4207 L 125.758,-36.307 L 125.726,-36.2008 L 125.681,-36.1021 L 125.624,-36.011
 L 125.553,-35.9275 L 125.47,-35.8516 L 125.375,-35.7832 L 125.267,-35.7227 L 125.149,-35.6702 L 125.02,-35.6258
 L 124.88,-35.5895 L 124.729,-35.5612 L 124.568,-35.541 L 124.396,-35.5289 L 124.213,-35.5249 L 124.036,-35.5287
 L 123.868,-35.54 L 123.71,-35.5589 L 123.561,-35.5854 L 123.422,-35.6194 L 123.292,-35.6611 L 123.172,-35.7102
 L 123.061,-35.767 L 122.96,-35.8318 L 122.868,-35.9052 L 122.785,-35.9872 L 122.712,-36.0777 L 122.647,-36.1769
 L 122.592,-36.2846 L 122.545,-36.4009 L 122.508,-36.5258 L 121.755,-36.3753 L 121.866,-36.0339 L 122.032,-35.738
 L 122.253,-35.4876 L 122.529,-35.2828 L 122.861,-35.1235 L 123.247,-35.0097 L 123.688,-34.9414 L 124.184,-34.9186
 z
M 118.654,-34.9228 L 118.828,-34.9353 L 118.996,-34.9561 L 119.158,-34.9853 L 119.314,-35.0227 L 119.464,-35.0685
 L 119.608,-35.1226 L 119.746,-35.1851 L 119.877,-35.2554 L 120,-35.3332 L 120.116,-35.4185 L 120.224,-35.5111
 L 120.324,-35.6112 L 120.417,-35.7188 L 120.502,-35.8337 L 120.58,-35.9561 L 120.649,-36.0853 L 120.709,-36.2204
 L 120.76,-36.3615 L 120.801,-36.5085 L 120.833,-36.6615 L 120.856,-36.8205 L 120.87,-36.9855 L 120.875,-37.1564
 L 120.875,-40.7329 L 120.102,-40.7329 L 120.102,-37.2012 L 120.095,-37.0049 L 120.075,-36.8206 L 120.041,-36.6486
 L 119.994,-36.4886 L 119.934,-36.3409 L 119.86,-36.2052 L 119.773,-36.0817 L 119.673,-35.9704 L 119.56,-35.8717
 L 119.436,-35.7861 L 119.302,-35.7138 L 119.157,-35.6546 L 119.002,-35.6085 L 118.835,-35.5756 L 118.658,-35.5559
 L 118.47,-35.5493 L 118.288,-35.5556 L 118.116,-35.5747 L 117.955,-35.6065 L 117.806,-35.651 L 117.668,-35.7082
 L 117.54,-35.7782 L 117.424,-35.8608 L 117.319,-35.9561 L 117.225,-36.0638 L 117.144,-36.1832 L 117.076,-36.3145
 L 117.02,-36.4576 L 116.976,-36.6125 L 116.945,-36.7793 L 116.926,-36.9579 L 116.92,-37.1483 L 116.92,-40.7329
 L 116.143,-40.7329 L 116.143,-37.0832 L 116.147,-36.9173 L 116.161,-36.7572 L 116.183,-36.603 L 116.215,-36.4546
 L 116.256,-36.312 L 116.305,-36.1753 L 116.364,-36.0445 L 116.432,-35.9195 L 116.508,-35.8011 L 116.591,-35.6899
 L 116.682,-35.5859 L 116.78,-35.4892 L 116.885,-35.3998 L 116.998,-35.3176 L 117.118,-35.2427 L 117.245,-35.175
 L 117.379,-35.1149 L 117.519,-35.0628 L 117.664,-35.0188 L 117.815,-34.9827 L 117.971,-34.9547 L 118.133,-34.9347
 L 118.301,-34.9227 L 118.474,-34.9186 z
M 130.057,-35.0066 L 130.285,-35.0266 L 130.499,-35.0598 L 130.7,-35.1063 L 130.887,-35.1661 L 131.06,-35.2392
 L 131.22,-35.3255 L 131.366,-35.4252 L 131.497,-35.5368 L 131.61,-35.659 L 131.706,-35.7918 L 131.784,-35.9353
 L 131.845,-36.0894 L 131.889,-36.2541 L 131.915,-36.4294 L 131.923,-36.6153 L 131.918,-36.7556 L 131.9,-36.8898
 L 131.871,-37.0178 L 131.831,-37.1396 L 131.779,-37.2553 L 131.715,-37.3648 L 131.64,-37.4681 L 131.553,-37.5653
 L 131.456,-37.6548 L 131.349,-37.735 L 131.231,-37.8061 L 131.105,-37.8679 L 130.968,-37.9205 L 130.822,-37.9639
 L 130.665,-37.9981 L 130.499,-38.0231 L 130.626,-38.0561 L 130.745,-38.0963 L 130.857,-38.1436 L 130.961,-38.198
 L 131.058,-38.2596 L 131.148,-38.3282 L 131.23,-38.404 L 131.305,-38.4869 L 131.372,-38.5759 L 131.43,-38.67
 L 131.479,-38.7692 L 131.519,-38.8734 L 131.55,-38.9828 L 131.572,-39.0972 L 131.585,-39.2167 L 131.59,-39.3414
 L 131.558,-39.6675 L 131.464,-39.9501 L 131.306,-40.1893 L 131.085,-40.385 L 130.802,-40.5372 L 130.455,-40.6459
 L 130.045,-40.7111 L 129.572,-40.7329 L 127.489,-40.7329 L 127.489,-35 L 129.816,-35 z
M 128.266,-38.2957 L 128.266,-40.1104 L 129.572,-40.1104 L 129.718,-40.1073 L 129.855,-40.0979 L 129.983,-40.0823
 L 130.103,-40.0605 L 130.213,-40.0325 L 130.315,-39.9982 L 130.408,-39.9577 L 130.491,-39.911 L 130.566,-39.857
 L 130.63,-39.7948 L 130.685,-39.7243 L 130.729,-39.6455 L 130.764,-39.5585 L 130.789,-39.4632 L 130.804,-39.3596
 L 130.809,-39.2478 L 130.804,-39.1306 L 130.789,-39.0213 L 130.765,-38.9198 L 130.732,-38.8261 L 130.689,-38.7403
 L 130.636,-38.6622 L 130.573,-38.592 L 130.501,-38.5296 L 130.42,-38.4748 L 130.328,-38.4273 L 130.227,-38.3871
 L 130.115,-38.3542 L 129.994,-38.3286 L 129.863,-38.3103 L 129.722,-38.2993 L 129.572,-38.2957 z
M 128.266,-35.6225 L 128.266,-37.6894 L 129.714,-37.6894 L 130.048,-37.6736 L 130.337,-37.6261 L 130.582,-37.547
 L 130.782,-37.4362 L 130.938,-37.2937 L 131.049,-37.1196 L 131.116,-36.9138 L 131.138,-36.6763 L 131.133,-36.5492
 L 131.118,-36.4302 L 131.092,-36.3193 L 131.057,-36.2166 L 131.011,-36.1219 L 130.955,-36.0355 L 130.889,-35.9572
 L 130.813,-35.887 L 130.725,-35.825 L 130.626,-35.7713 L 130.514,-35.7258 L 130.391,-35.6886 L 130.255,-35.6597
 L 130.107,-35.639 L 129.947,-35.6266 L 129.775,-35.6225 z
M 27.5166,-33.0285 L 27.5223,-33.2008 L 27.5393,-33.364 L 27.5677,-33.5182 L 27.6074,-33.6634 L 27.6585,-33.7995
 L 27.7209,-33.9265 L 27.7946,-34.0445 L 27.8797,-34.1534 L 27.9743,-34.2514 L 28.0763,-34.3362 L 28.1858,-34.408
 L 28.3028,-34.4668 L 28.4273,-34.5125 L 28.5593,-34.5451 L 28.6988,-34.5647 L 28.8457,-34.5712 L 28.9439,-34.5693
 L 29.0365,-34.5635 L 29.1236,-34.5538 L 29.2053,-34.5403 L 29.2815,-34.523 L 29.3522,-34.5018 L 29.4174,-34.4767
 L 29.4771,-34.4478 L 29.532,-34.4147 L 29.583,-34.3773 L 29.6299,-34.3355 L 29.6729,-34.2894 L 29.7118,-34.2388
 L 29.7467,-34.1839 L 29.7777,-34.1246 L 29.8046,-34.0609 L 29.828,-33.9907 L 29.8482,-33.9118 L 29.8653,-33.8243
 L 29.8794,-33.7281 L 29.8903,-33.6231 L 29.898,-33.5096 L 29.9027,-33.3873 L 29.9043,-33.2563 L 29.9043,-30
 L 30.7635,-30 L 30.7635,-33.4225 L 30.7573,-33.6582 L 30.7387,-33.8763 L 30.7077,-34.0768 L 30.6644,-34.2597
 L 30.6086,-34.425 L 30.5405,-34.5728 L 30.46,-34.703 L 30.3671,-34.8156 L 30.2612,-34.913 L 30.1415,-34.9974
 L 30.0081,-35.0688 L 29.861,-35.1272 L 29.7002,-35.1726 L 29.5256,-35.2051 L 29.3373,-35.2245 L 29.1353,-35.231
 L 28.9902,-35.2274 L 28.8515,-35.2163 L 28.7193,-35.198 L 28.5936,-35.1723 L 28.4743,-35.1392 L 28.3614,-35.0988
 L 28.255,-35.0511 L 28.155,-34.996 L 28.0601,-34.9331 L 27.9686,-34.8618 L 27.8806,-34.7821 L 27.7961,-34.694
 L 27.7151,-34.5976 L 27.6375,-34.4928 L 27.5635,-34.3795 L 27.4929,-34.2579 L 27.4786,-34.2579 L 27.48,-34.2739
 L 27.4818,-34.298 L 27.4839,-34.3303 L 27.4864,-34.3707 L 27.4892,-34.4193 L 27.4924,-34.476 L 27.496,-34.5409
 L 27.5,-34.614 L 27.5039,-34.6908 L 27.5073,-34.7671 L 27.5101,-34.8427 L 27.5125,-34.9178 L 27.5143,-34.9922
 L 27.5156,-35.0661 L 27.5164,-35.1394 L 27.5166,-35.2121 L 27.5166,-37.0444 L 26.6622,-37.0444 L 26.6622,-30
 L 27.5166,-30 z
M 7.38,-31.0338 L 7.62988,-31.9421 L 7.84459,-32.7249 L 8.02415,-33.3821 L 8.16855,-33.9139 L 8.2778,-34.3202
 L 8.35188,-34.601 L 8.39081,-34.7563 L 8.41277,-34.8517 L 8.43591,-34.9528 L 8.46025,-35.0594 L 8.48576,-35.1717
 L 8.51247,-35.2897 L 8.54036,-35.4132 L 8.56943,-35.5424 L 8.59969,-35.6773 L 8.65266,-35.4296 L 8.70236,-35.2017
 L 8.74879,-34.9935 L 8.79196,-34.805 L 8.83186,-34.6363 L 8.8685,-34.4873 L 8.90187,-34.358 L 8.93198,-34.2484
 L 10.0902,-30 L 11.1725,-30 L 13.1425,-36.6884 L 12.1978,-36.6884 L 11.9029,-35.6305 L 11.6445,-34.7022
 L 11.4229,-33.9035 L 11.2378,-33.2344 L 11.0894,-32.6948 L 10.9776,-32.2848 L 10.9025,-32.0044 L 10.864,-31.8536
 L 10.6551,-30.9636 L 10.6124,-30.7975 L 10.5726,-30.9792 L 10.5293,-31.1707 L 10.4825,-31.372 L 10.432,-31.5831
 L 10.378,-31.804 L 10.3204,-32.0346 L 10.2593,-32.2751 L 10.1946,-32.5253 L 9.03166,-36.6884 L 8.16302,-36.6884
 L 7.88701,-35.7097 L 7.64281,-34.8409 L 7.43042,-34.0821 L 7.24985,-33.4332 L 7.1011,-32.8942 L 6.98418,-32.4651
 L 6.89906,-32.1459 L 6.84578,-31.9367 L 6.80894,-31.7839 L 6.77324,-31.6341 L 6.73863,-31.4872 L 6.70514,-31.3434
 L 6.67276,-31.2025 L 6.64149,-31.0645 L 6.61134,-30.9295 L 6.58229,-30.7975 L 6.53668,-31.008 L 6.49002,-31.217
 L 6.44234,-31.4245 L 6.3936,-31.6306 L 6.34384,-31.8351 L 6.29305,-32.0382 L 6.24121,-32.2398 L 6.18834,-32.4399
 L 4.98734,-36.6884 L 4.04269,-36.6884 L 6.0127,-30 L 7.09497,-30 z
M 25.2262,-29.9258 L 25.3356,-29.9312 L 25.4445,-29.9401 L 25.5528,-29.9525 L 25.6605,-29.9686 L 25.7676,-29.9882
 L 25.8741,-30.0113 L 25.98,-30.038 L 25.98,-30.6693 L 25.9017,-30.6537 L 25.8281,-30.6402 L 25.7593,-30.6288
 L 25.6952,-30.6195 L 25.6359,-30.6122 L 25.5813,-30.607 L 25.5315,-30.6039 L 25.4864,-30.6028 L 25.4144,-30.6052
 L 25.348,-30.6122 L 25.2871,-30.6239 L 25.2318,-30.6402 L 25.1821,-30.6612 L 25.1379,-30.6869 L 25.0993,-30.7173
 L 25.0663,-30.7523 L 25.0379,-30.7932 L 25.0133,-30.8409 L 24.9925,-30.8955 L 24.9755,-30.9571 L 24.9622,-31.0255
 L 24.9528,-31.1008 L 24.9471,-31.183 L 24.9452,-31.2722 L 24.9452,-34.5143 L 25.8946,-34.5143 L 25.8946,-35.1361
 L 24.9452,-35.1361 L 24.9452,-36.2849 L 24.3756,-36.2849 L 24.124,-35.1361 L 23.4974,-35.1361 L 23.4974,-34.5143
 L 24.0908,-34.5143 L 24.0908,-31.087 L 24.1068,-30.8145 L 24.1549,-30.5782 L 24.235,-30.3783 L 24.3471,-30.2148
 L 24.4913,-30.0876 L 24.6675,-29.9967 L 24.8758,-29.9422 L 25.1161,-29.9241 z
M 15.9233,-29.9241 L 16.2766,-29.981 L 16.5932,-30.076 L 16.8732,-30.2089 L 17.1166,-30.3798 L 17.3233,-30.5886
 L 17.4933,-30.8355 L 17.6268,-31.1203 L 16.8768,-31.3338 L 16.8438,-31.2503 L 16.8039,-31.1704 L 16.7574,-31.0942
 L 16.7041,-31.0217 L 16.644,-30.953 L 16.5772,-30.8879 L 16.5037,-30.8266 L 16.4234,-30.7689 L 16.3363,-30.7167
 L 16.2423,-30.6713 L 16.1414,-30.633 L 16.0336,-30.6016 L 15.9189,-30.5772 L 15.7973,-30.5598 L 15.6688,-30.5493
 L 15.5334,-30.5459 L 15.3631,-30.5533 L 15.2032,-30.5758 L 15.0539,-30.6133 L 14.9151,-30.6657 L 14.7868,-30.7331
 L 14.6691,-30.8155 L 14.562,-30.9129 L 14.4653,-31.0253 L 14.3796,-31.1515 L 14.3054,-31.2903 L 14.2426,-31.4416
 L 14.1912,-31.6056 L 14.1512,-31.7822 L 14.1227,-31.9715 L 14.1055,-32.1733 L 14.0998,-32.3877 L 17.7645,-32.3877
 L 17.7645,-32.5016 L 17.7291,-33.1413 L 17.623,-33.6957 L 17.4461,-34.1648 L 17.1984,-34.5487 L 16.88,-34.8472
 L 16.4908,-35.0604 L 16.0309,-35.1884 L 15.5002,-35.231 L 15.2317,-35.2204 L 14.9791,-35.1886 L 14.7424,-35.1356
 L 14.5217,-35.0613 L 14.317,-34.9659 L 14.1282,-34.8492 L 13.9553,-34.7113 L 13.7984,-34.5522 L 13.6588,-34.3733
 L 13.5378,-34.1758 L 13.4354,-33.9597 L 13.3516,-33.7251 L 13.2865,-33.472 L 13.2399,-33.2003 L 13.212,-32.91
 L 13.2027,-32.6013 L 13.212,-32.2769 L 13.2399,-31.9732 L 13.2865,-31.6901 L 13.3516,-31.4276 L 13.4354,-31.1857
 L 13.5378,-30.9645 L 13.6588,-30.7639 L 13.7984,-30.5839 L 13.9558,-30.4248 L 14.1303,-30.2869 L 14.3217,-30.1702
 L 14.53,-30.0748 L 14.7554,-30.0005 L 14.9978,-29.9475 L 15.2571,-29.9157 L 15.5334,-29.9051 z
M 14.1093,-33.0428 L 14.1217,-33.2195 L 14.1445,-33.3864 L 14.1778,-33.5437 L 14.2215,-33.6913 L 14.2757,-33.8291
 L 14.3403,-33.9572 L 14.4154,-34.0756 L 14.5009,-34.1843 L 14.5958,-34.2817 L 14.6987,-34.366 L 14.8097,-34.4374
 L 14.9288,-34.4958 L 15.0559,-34.5413 L 15.1912,-34.5737 L 15.3345,-34.5932 L 15.486,-34.5997 L 15.6415,-34.5939
 L 15.7877,-34.5764 L 15.9245,-34.5473 L 16.052,-34.5065 L 16.1701,-34.4541 L 16.2789,-34.3901 L 16.3784,-34.3144
 L 16.4685,-34.2271 L 16.5497,-34.1271 L 16.6225,-34.0133 L 16.6868,-33.8859 L 16.7426,-33.7447 L 16.79,-33.5898
 L 16.829,-33.4212 L 16.8595,-33.2388 L 16.8815,-33.0428 z
M 20.1877,-29.9089 L 20.3344,-29.9204 L 20.4752,-29.9395 L 20.6102,-29.9662 L 20.7393,-30.0005 L 20.8625,-30.0426
 L 20.9799,-30.0922 L 21.0914,-30.1495 L 21.1983,-30.216 L 21.3019,-30.2932 L 21.4021,-30.3812 L 21.4991,-30.48
 L 21.5926,-30.5895 L 21.6828,-30.7098 L 21.7697,-30.8408 L 21.8533,-30.9826 L 21.8817,-30.9826 L 21.8918,-30.8541
 L 21.9077,-30.7344 L 21.9294,-30.6236 L 21.9571,-30.5215 L 21.9905,-30.4283 L 22.0299,-30.344 L 22.0751,-30.2684
 L 22.1261,-30.2017 L 22.1842,-30.1433 L 22.2503,-30.0927 L 22.3245,-30.0499 L 22.4068,-30.0148 L 22.4972,-29.9876
 L 22.5957,-29.9681 L 22.7023,-29.9564 L 22.8169,-29.9525 L 22.9009,-29.9537 L 22.9845,-29.9573 L 23.0676,-29.9632
 L 23.1503,-29.9715 L 23.2326,-29.9822 L 23.3144,-29.9953 L 23.3957,-30.0107 L 23.4767,-30.0285 L 23.4767,-30.5601
 L 23.438,-30.5523 L 23.4004,-30.5456 L 23.3639,-30.5399 L 23.3284,-30.5352 L 23.2939,-30.5316 L 23.2604,-30.529
 L 23.228,-30.5274 L 23.1967,-30.5269 L 23.1295,-30.5299 L 23.0679,-30.5389 L 23.012,-30.5539 L 22.9617,-30.5749
 L 22.917,-30.602 L 22.878,-30.635 L 22.8446,-30.6741 L 22.8168,-30.7191 L 22.7935,-30.7701 L 22.7732,-30.827
 L 22.7561,-30.8897 L 22.7421,-30.9583 L 22.7312,-31.0327 L 22.7234,-31.113 L 22.7187,-31.1991 L 22.7171,-31.2911
 L 22.7171,-33.5032 L 22.7095,-33.7071 L 22.6866,-33.8985 L 22.6484,-34.0776 L 22.5949,-34.2443 L 22.5262,-34.3986
 L 22.4421,-34.5405 L 22.3428,-34.67 L 22.2282,-34.7872 L 22.0985,-34.8912 L 21.9538,-34.9813 L 21.7941,-35.0576
 L 21.6194,-35.1201 L 21.4298,-35.1686 L 21.2252,-35.2033 L 21.0055,-35.2241 L 20.7709,-35.231 L 20.3359,-35.2094
 L 19.9515,-35.1444 L 19.6179,-35.0361 L 19.335,-34.8845 L 19.1029,-34.6896 L 18.9215,-34.4514 L 18.7908,-34.1698
 L 18.7108,-33.845 L 19.6032,-33.7642 L 19.6195,-33.8674 L 19.6424,-33.9633 L 19.6717,-34.0519 L 19.7076,-34.1333
 L 19.7501,-34.2074 L 19.799,-34.2742 L 19.8545,-34.3338 L 19.9165,-34.386 L 19.9867,-34.4317 L 20.0667,-34.4712
 L 20.1564,-34.5047 L 20.2559,-34.5321 L 20.3653,-34.5533 L 20.4844,-34.5686 L 20.6133,-34.5777 L 20.752,-34.5807
 L 20.8896,-34.5765 L 21.0178,-34.5638 L 21.1365,-34.5427 L 21.2457,-34.5131 L 21.3454,-34.475 L 21.4355,-34.4285
 L 21.5162,-34.3735 L 21.5874,-34.3101 L 21.6497,-34.2369 L 21.7037,-34.1526 L 21.7494,-34.0571 L 21.7868,-33.9505
 L 21.8159,-33.8328 L 21.8367,-33.704 L 21.8491,-33.5641 L 21.8533,-33.413 L 21.8533,-33.1329 L 20.6998,-33.1139
 L 20.4179,-33.1006 L 20.1561,-33.0748 L 19.9144,-33.0365 L 19.6928,-32.9858 L 19.4913,-32.9226 L 19.31,-32.8469
 L 19.1487,-32.7588 L 19.0075,-32.6582 L 18.8846,-32.5457 L 18.778,-32.4215 L 18.6879,-32.2858 L 18.6141,-32.1385
 L 18.5567,-31.9796 L 18.5158,-31.8091 L 18.4912,-31.6271 L 18.483,-31.4335 L 18.4891,-31.2603 L 18.5073,-31.0965
 L 18.5377,-30.9423 L 18.5803,-30.7975 L 18.635,-30.6622 L 18.7019,-30.5364 L 18.781,-30.4201 L 18.8722,-30.3133
 L 18.9755,-30.2176 L 19.0909,-30.1347 L 19.2182,-30.0645 L 19.3576,-30.0071 L 19.509,-29.9625 L 19.6723,-29.9306
 L 19.8477,-29.9115 L 20.0352,-29.9051 z
M 20.1284,-30.5494 L 20.033,-30.5601 L 19.9436,-30.5779 L 19.8602,-30.6028 L 19.7828,-30.6349 L 19.7114,-30.674
 L 19.646,-30.7203 L 19.5866,-30.7737 L 19.5338,-30.8336 L 19.488,-30.8995 L 19.4492,-30.9713 L 19.4175,-31.049
 L 19.3929,-31.1327 L 19.3752,-31.2223 L 19.3647,-31.3178 L 19.3611,-31.4193 L 19.3637,-31.5131 L 19.3715,-31.6024
 L 19.3845,-31.687 L 19.4027,-31.767 L 19.426,-31.8425 L 19.4546,-31.9133 L 19.4883,-31.9795 L 19.5273,-32.0411
 L 19.5711,-32.0985 L 19.6194,-32.1521 L 19.6722,-32.2018 L 19.7296,-32.2476 L 19.7915,-32.2896 L 19.8579,-32.3277
 L 19.9288,-32.362 L 20.0043,-32.3924 L 20.0866,-32.4192 L 20.178,-32.4428 L 20.2786,-32.4632 L 20.3882,-32.4802
 L 20.507,-32.494 L 20.6349,-32.5046 L 20.772,-32.5119 L 20.9182,-32.5159 L 21.8533,-32.5348 L 21.8533,-32.1124
 L 21.85,-32.0142 L 21.8401,-31.9167 L 21.8236,-31.8199 L 21.8005,-31.7237 L 21.7708,-31.6282 L 21.7345,-31.5334
 L 21.6915,-31.4392 L 21.642,-31.3457 L 21.5868,-31.2551 L 21.5267,-31.1694 L 21.4619,-31.0886 L 21.3922,-31.0129
 L 21.3177,-30.9421 L 21.2383,-30.8763 L 21.1542,-30.8154 L 21.0652,-30.7595 L 20.9722,-30.7094 L 20.876,-30.666
 L 20.7764,-30.6293 L 20.6736,-30.5993 L 20.5676,-30.5759 L 20.4583,-30.5592 L 20.3457,-30.5492 L 20.2298,-30.5459
 z
M 34.402,-29.9241 L 34.7553,-29.981 L 35.0719,-30.076 L 35.3519,-30.2089 L 35.5953,-30.3798 L 35.802,-30.5886
 L 35.972,-30.8355 L 36.1055,-31.1203 L 35.3555,-31.3338 L 35.3224,-31.2503 L 35.2826,-31.1704 L 35.2361,-31.0942
 L 35.1828,-31.0217 L 35.1227,-30.953 L 35.056,-30.8879 L 34.9824,-30.8266 L 34.9021,-30.7689 L 34.815,-30.7167
 L 34.721,-30.6713 L 34.6201,-30.633 L 34.5123,-30.6016 L 34.3976,-30.5772 L 34.276,-30.5598 L 34.1475,-30.5493
 L 34.0121,-30.5459 L 33.8418,-30.5533 L 33.6819,-30.5758 L 33.5326,-30.6133 L 33.3938,-30.6657 L 33.2655,-30.7331
 L 33.1478,-30.8155 L 33.0406,-30.9129 L 32.944,-31.0253 L 32.8583,-31.1515 L 32.7841,-31.2903 L 32.7213,-31.4416
 L 32.6699,-31.6056 L 32.6299,-31.7822 L 32.6014,-31.9715 L 32.5842,-32.1733 L 32.5785,-32.3877 L 36.2432,-32.3877
 L 36.2432,-32.5016 L 36.2078,-33.1413 L 36.1017,-33.6957 L 35.9248,-34.1648 L 35.6771,-34.5487 L 35.3587,-34.8472
 L 34.9695,-35.0604 L 34.5096,-35.1884 L 33.9789,-35.231 L 33.7104,-35.2204 L 33.4578,-35.1886 L 33.2211,-35.1356
 L 33.0004,-35.0613 L 32.7957,-34.9659 L 32.6069,-34.8492 L 32.434,-34.7113 L 32.2771,-34.5522 L 32.1375,-34.3733
 L 32.0165,-34.1758 L 31.9141,-33.9597 L 31.8303,-33.7251 L 31.7652,-33.472 L 31.7186,-33.2003 L 31.6907,-32.91
 L 31.6814,-32.6013 L 31.6907,-32.2769 L 31.7186,-31.9732 L 31.7652,-31.6901 L 31.8303,-31.4276 L 31.9141,-31.1857
 L 32.0165,-30.9645 L 32.1375,-30.7639 L 32.2771,-30.5839 L 32.4345,-30.4248 L 32.609,-30.2869 L 32.8004,-30.1702
 L 33.0087,-30.0748 L 33.2341,-30.0005 L 33.4765,-29.9475 L 33.7358,-29.9157 L 34.0121,-29.9051 z
M 32.588,-33.0428 L 32.6004,-33.2195 L 32.6232,-33.3864 L 32.6565,-33.5437 L 32.7002,-33.6913 L 32.7544,-33.8291
 L 32.819,-33.9572 L 32.8941,-34.0756 L 32.9796,-34.1843 L 33.0745,-34.2817 L 33.1774,-34.366 L 33.2884,-34.4374
 L 33.4075,-34.4958 L 33.5346,-34.5413 L 33.6699,-34.5737 L 33.8132,-34.5932 L 33.9647,-34.5997 L 34.1202,-34.5939
 L 34.2664,-34.5764 L 34.4032,-34.5473 L 34.5307,-34.5065 L 34.6488,-34.4541 L 34.7576,-34.3901 L 34.8571,-34.3144
 L 34.9472,-34.2271 L 35.0284,-34.1271 L 35.1012,-34.0133 L 35.1655,-33.8859 L 35.2213,-33.7447 L 35.2687,-33.5898
 L 35.3077,-33.4212 L 35.3382,-33.2388 L 35.3602,-33.0428 z
M 38.0772,-32.6772 L 38.0816,-32.8846 L 38.0947,-33.0797 L 38.1166,-33.2623 L 38.1472,-33.4326 L 38.1866,-33.5905
 L 38.2348,-33.7359 L 38.2916,-33.869 L 38.3573,-33.9897 L 38.4312,-34.0971 L 38.513,-34.1901 L 38.6027,-34.2689
 L 38.7002,-34.3333 L 38.8056,-34.3834 L 38.9189,-34.4192 L 39.04,-34.4406 L 39.169,-34.4478 L 39.2384,-34.4471
 L 39.3043,-34.4448 L 39.3666,-34.4411 L 39.4253,-34.4359 L 39.4805,-34.4293 L 39.5321,-34.4211 L 39.5802,-34.4115
 L 39.6247,-34.4003 L 39.6247,-35.1836 L 39.5809,-35.1947 L 39.5372,-35.2043 L 39.4936,-35.2125 L 39.4502,-35.2192
 L 39.407,-35.2243 L 39.3639,-35.2281 L 39.3209,-35.2303 L 39.2781,-35.231 L 39.1605,-35.2272 L 39.0497,-35.2159
 L 38.9457,-35.197 L 38.8485,-35.1705 L 38.7582,-35.1365 L 38.6747,-35.0949 L 38.598,-35.0457 L 38.5281,-34.989
 L 38.4626,-34.9219 L 38.399,-34.8418 L 38.3374,-34.7487 L 38.2777,-34.6425 L 38.2199,-34.5232 L 38.1641,-34.3909
 L 38.1102,-34.2455 L 38.0582,-34.0871 L 38.0392,-34.0871 L 38.0386,-34.1419 L 38.0368,-34.2185 L 38.0339,-34.3169
 L 38.0297,-34.4371 L 38.0244,-34.5792 L 38.0179,-34.743 L 38.0102,-34.9286 L 38.0013,-35.1361 L 37.1943,-35.1361
 L 37.201,-34.9741 L 37.2067,-34.8157 L 37.2116,-34.6608 L 37.2156,-34.5095 L 37.2187,-34.3618 L 37.2209,-34.2176
 L 37.2223,-34.077 L 37.2227,-33.9399 L 37.2227,-30 L 38.0772,-30 z
M 19.7658,-26.038 L 19.0334,-26.038 L 19.0334,-25.3382 L 19.7658,-25.3382 z
M 7.0813,-19.9254 L 7.33931,-19.9459 L 7.5815,-19.9799 L 7.80785,-20.0275 L 8.01837,-20.0887 L 8.21306,-20.1635
 L 8.39192,-20.252 L 8.55495,-20.354 L 8.70039,-20.4684 L 8.82643,-20.5941 L 8.93307,-20.7309 L 9.02034,-20.8789
 L 9.08821,-21.038 L 9.13669,-21.2084 L 9.16577,-21.39 L 9.17548,-21.5827 L 9.1741,-21.6598 L 9.17,-21.7343
 L 9.16318,-21.8063 L 9.15359,-21.8757 L 9.1413,-21.9426 L 9.12627,-22.0069 L 9.10849,-22.0687 L 9.088,-22.1279
 L 9.06508,-22.185 L 9.04005,-22.2401 L 9.01294,-22.2933 L 8.98373,-22.3446 L 8.95242,-22.394 L 8.91901,-22.4415
 L 8.8835,-22.4871 L 8.84589,-22.5307 L 8.80638,-22.5726 L 8.76515,-22.6129 L 8.7222,-22.6515 L 8.67754,-22.6884
 L 8.63115,-22.7237 L 8.58305,-22.7573 L 8.53323,-22.7893 L 8.48169,-22.8196 L 8.42883,-22.8487 L 8.37503,-22.8767
 L 8.32025,-22.9039 L 8.26454,-22.93 L 8.20786,-22.9552 L 8.15024,-22.9795 L 8.09164,-23.0028 L 8.03212,-23.0251
 L 7.97174,-23.0466 L 7.91069,-23.0674 L 7.84892,-23.0873 L 7.78645,-23.1065 L 7.7233,-23.1249 L 7.65944,-23.1426
 L 7.59488,-23.1595 L 7.52962,-23.1757 L 7.46397,-23.1914 L 7.39827,-23.2071 L 7.3325,-23.2227 L 7.26668,-23.2382
 L 7.20079,-23.2537 L 7.13484,-23.2691 L 7.06883,-23.2845 L 7.00275,-23.2998 L 6.81361,-23.3426 L 6.64088,-23.3838
 L 6.48454,-23.4232 L 6.34462,-23.461 L 6.22108,-23.497 L 6.11395,-23.5313 L 6.02324,-23.5639 L 5.94891,-23.5947
 L 5.88474,-23.6255 L 5.82443,-23.6581 L 5.76801,-23.6922 L 5.71545,-23.728 L 5.66678,-23.7654 L 5.62199,-23.8045
 L 5.58107,-23.8453 L 5.54404,-23.8877 L 5.51114,-23.9324 L 5.48264,-23.9799 L 5.45851,-24.0303 L 5.43878,-24.0835
 L 5.42343,-24.1396 L 5.41246,-24.1986 L 5.40588,-24.2604 L 5.40369,-24.3251 L 5.40935,-24.4345 L 5.42633,-24.5369
 L 5.45461,-24.6323 L 5.49422,-24.7208 L 5.54514,-24.8022 L 5.60738,-24.8766 L 5.68092,-24.9441 L 5.76579,-25.0045
 L 5.86142,-25.0579 L 5.96721,-25.1042 L 6.08318,-25.1434 L 6.2093,-25.1754 L 6.34561,-25.2004 L 6.4921,-25.2182
 L 6.64874,-25.2289 L 6.81555,-25.2324 L 6.96794,-25.2292 L 7.1118,-25.2196 L 7.24716,-25.2035 L 7.37399,-25.181
 L 7.49229,-25.1521 L 7.6021,-25.1168 L 7.70337,-25.0751 L 7.79613,-25.0269 L 7.88107,-24.9716 L 7.95889,-24.9086
 L 8.02959,-24.8376 L 8.09315,-24.7589 L 8.14961,-24.6723 L 8.19894,-24.578 L 8.24117,-24.4758 L 8.27625,-24.3658
 L 9.0412,-24.5 L 8.98448,-24.6735 L 8.91811,-24.8338 L 8.84206,-24.9809 L 8.75636,-25.1149 L 8.661,-25.2357
 L 8.55597,-25.3434 L 8.44128,-25.4379 L 8.31693,-25.5192 L 8.18057,-25.5893 L 8.02983,-25.6501 L 7.86473,-25.7015
 L 7.68527,-25.7435 L 7.49142,-25.7762 L 7.28323,-25.7996 L 7.06065,-25.8136 L 6.82372,-25.8183 L 6.56886,-25.8121
 L 6.32922,-25.7934 L 6.10477,-25.7622 L 5.89551,-25.7186 L 5.70145,-25.6626 L 5.52258,-25.594 L 5.35892,-25.513
 L 5.21043,-25.4196 L 5.07835,-25.3146 L 4.9639,-25.1991 L 4.86703,-25.073 L 4.7878,-24.9364 L 4.72615,-24.7892
 L 4.68213,-24.6315 L 4.65572,-24.4632 L 4.64691,-24.2844 L 4.64859,-24.2052 L 4.65366,-24.1283 L 4.66208,-24.0536
 L 4.67387,-23.9812 L 4.68903,-23.9112 L 4.70757,-23.8434 L 4.72946,-23.7779 L 4.75473,-23.7147 L 4.78319,-23.6537
 L 4.81462,-23.5946 L 4.84904,-23.5374 L 4.88646,-23.4823 L 4.92686,-23.4291 L 4.97026,-23.3779 L 5.01665,-23.3287
 L 5.06601,-23.2814 L 5.1192,-23.2357 L 5.17702,-23.191 L 5.23949,-23.1474 L 5.30658,-23.1049 L 5.37833,-23.0635
 L 5.4547,-23.0232 L 5.53572,-22.9839 L 5.62137,-22.9458 L 5.71448,-22.9081 L 5.81783,-22.8705 L 5.9314,-22.8328
 L 6.05522,-22.7952 L 6.18927,-22.7576 L 6.33356,-22.7199 L 6.48807,-22.6823 L 6.65283,-22.6447 L 6.7494,-22.6225
 L 6.84381,-22.6007 L 6.93605,-22.5792 L 7.02614,-22.5582 L 7.11406,-22.5375 L 7.19981,-22.5172 L 7.28342,-22.4973
 L 7.36485,-22.4778 L 7.4438,-22.4579 L 7.51997,-22.4369 L 7.59332,-22.4147 L 7.66389,-22.3914 L 7.73166,-22.3669
 L 7.79663,-22.3413 L 7.8588,-22.3145 L 7.91817,-22.2866 L 7.97453,-22.2572 L 8.02766,-22.2258 L 8.07755,-22.1926
 L 8.12418,-22.1574 L 8.16757,-22.1204 L 8.20772,-22.0814 L 8.24463,-22.0405 L 8.27829,-21.9978 L 8.30833,-21.9524
 L 8.33437,-21.9037 L 8.35638,-21.8517 L 8.3744,-21.7963 L 8.38843,-21.7377 L 8.39844,-21.6758 L 8.40445,-21.6106
 L 8.40645,-21.5421 L 8.40007,-21.4207 L 8.38089,-21.307 L 8.34895,-21.2008 L 8.30423,-21.1021 L 8.24672,-21.011
 L 8.17645,-20.9275 L 8.09338,-20.8516 L 7.99756,-20.7832 L 7.88995,-20.7227 L 7.77161,-20.6702 L 7.64252,-20.6258
 L 7.50269,-20.5895 L 7.35211,-20.5612 L 7.19078,-20.541 L 7.01871,-20.5289 L 6.83589,-20.5249 L 6.65858,-20.5287
 L 6.49081,-20.54 L 6.33258,-20.5589 L 6.18388,-20.5854 L 6.04472,-20.6194 L 5.91508,-20.6611 L 5.795,-20.7102
 L 5.68443,-20.767 L 5.58324,-20.8318 L 5.49118,-20.9052 L 5.40828,-20.9872 L 5.33455,-21.0777 L 5.26996,-21.1769
 L 5.21452,-21.2846 L 5.16824,-21.4009 L 5.13112,-21.5258 L 4.37842,-21.3753 L 4.48933,-21.0339 L 4.65533,-20.738
 L 4.87637,-20.4876 L 5.15247,-20.2828 L 5.48363,-20.1235 L 5.86984,-20.0097 L 6.31113,-19.9414 L 6.80745,-19.9186
 z
M 11.0359,-19.9364 L 11.1297,-19.941 L 11.2231,-19.9486 L 11.3159,-19.9593 L 11.4082,-19.9731 L 11.5,-19.9899
 L 11.5913,-20.0097 L 11.6821,-20.0326 L 11.6821,-20.5737 L 11.6149,-20.5603 L 11.5519,-20.5488 L 11.4929,-20.539
 L 11.438,-20.531 L 11.3871,-20.5247 L 11.3403,-20.5203 L 11.2976,-20.5176 L 11.259,-20.5167 L 11.1973,-20.5187
 L 11.1403,-20.5247 L 11.0881,-20.5347 L 11.0407,-20.5488 L 10.9981,-20.5668 L 10.9603,-20.5888 L 10.9272,-20.6148
 L 10.8988,-20.6449 L 10.8745,-20.6799 L 10.8535,-20.7208 L 10.8356,-20.7676 L 10.821,-20.8203 L 10.8097,-20.879
 L 10.8016,-20.9436 L 10.7967,-21.014 L 10.7951,-21.0904 L 10.7951,-23.8694 L 11.6089,-23.8694 L 11.6089,-24.4024
 L 10.7951,-24.4024 L 10.7951,-25.387 L 10.3069,-25.387 L 10.0912,-24.4024 L 9.55412,-24.4024 L 9.55412,-23.8694
 L 10.0627,-23.8694 L 10.0627,-20.9317 L 10.0765,-20.6981 L 10.1177,-20.4956 L 10.1863,-20.3243 L 10.2824,-20.1841
 L 10.406,-20.0751 L 10.5571,-19.9972 L 10.7356,-19.9505 L 10.9416,-19.9349 z
M 17.8229,-19.9364 L 17.9167,-19.941 L 18.0101,-19.9486 L 18.1029,-19.9593 L 18.1952,-19.9731 L 18.287,-19.9899
 L 18.3783,-20.0097 L 18.4691,-20.0326 L 18.4691,-20.5737 L 18.4019,-20.5603 L 18.3389,-20.5488 L 18.2799,-20.539
 L 18.2249,-20.531 L 18.1741,-20.5247 L 18.1273,-20.5203 L 18.0846,-20.5176 L 18.0459,-20.5167 L 17.9842,-20.5187
 L 17.9273,-20.5247 L 17.8751,-20.5347 L 17.8277,-20.5488 L 17.7851,-20.5668 L 17.7472,-20.5888 L 17.7141,-20.6148
 L 17.6858,-20.6449 L 17.6615,-20.6799 L 17.6404,-20.7208 L 17.6226,-20.7676 L 17.608,-20.8203 L 17.5967,-20.879
 L 17.5886,-20.9436 L 17.5837,-21.014 L 17.5821,-21.0904 L 17.5821,-23.8694 L 18.3959,-23.8694 L 18.3959,-24.4024
 L 17.5821,-24.4024 L 17.5821,-25.387 L 17.0939,-25.387 L 16.8782,-24.4024 L 16.3411,-24.4024 L 16.3411,-23.8694
 L 16.8497,-23.8694 L 16.8497,-20.9317 L 16.8634,-20.6981 L 16.9046,-20.4956 L 16.9733,-20.3243 L 17.0694,-20.1841
 L 17.193,-20.0751 L 17.3441,-19.9972 L 17.5226,-19.9505 L 17.7285,-19.9349 z
M 22.8178,-19.9275 L 23.0383,-19.954 L 23.2445,-19.9982 L 23.4363,-20.06 L 23.6137,-20.1396 L 23.7768,-20.2368
 L 23.9255,-20.3516 L 24.0598,-20.4842 L 24.179,-20.6348 L 24.2823,-20.8038 L 24.3698,-20.9913 L 24.4413,-21.1972
 L 24.4969,-21.4216 L 24.5367,-21.6644 L 24.5605,-21.9256 L 24.5684,-22.2052 L 24.561,-22.4876 L 24.5387,-22.7508
 L 24.5015,-22.9949 L 24.4494,-23.2199 L 24.3825,-23.4257 L 24.3006,-23.6124 L 24.2039,-23.78 L 24.0923,-23.9284
 L 23.965,-24.0585 L 23.821,-24.1713 L 23.6604,-24.2668 L 23.483,-24.3449 L 23.2891,-24.4056 L 23.0785,-24.449
 L 22.8512,-24.4751 L 22.6073,-24.4837 L 22.1448,-24.4481 L 21.7439,-24.3413 L 21.4048,-24.1633 L 21.1273,-23.9141
 L 20.9114,-23.5937 L 20.7573,-23.2021 L 20.6648,-22.7393 L 20.6339,-22.2052 L 20.6416,-21.9357 L 20.6647,-21.6825
 L 20.7032,-21.4457 L 20.757,-21.2252 L 20.8262,-21.021 L 20.9109,-20.8332 L 21.0108,-20.6617 L 21.1262,-20.5066
 L 21.2567,-20.3688 L 21.4019,-20.2493 L 21.5619,-20.1483 L 21.7366,-20.0656 L 21.926,-20.0013 L 22.1302,-19.9554
 L 22.3492,-19.9278 L 22.5829,-19.9186 z
M 22.4282,-20.4666 L 22.2918,-20.4871 L 22.1655,-20.5213 L 22.0493,-20.5691 L 21.9433,-20.6306 L 21.8473,-20.7058
 L 21.7614,-20.7947 L 21.6857,-20.8972 L 21.6194,-21.0133 L 21.562,-21.1429 L 21.5134,-21.2861 L 21.4736,-21.4429
 L 21.4427,-21.6132 L 21.4206,-21.797 L 21.4073,-21.9943 L 21.4029,-22.2052 L 21.4074,-22.4216 L 21.4208,-22.6232
 L 21.4432,-22.8099 L 21.4746,-22.9819 L 21.515,-23.139 L 21.5643,-23.2813 L 21.6225,-23.4088 L 21.6898,-23.5215
 L 21.767,-23.6202 L 21.8554,-23.7057 L 21.955,-23.7781 L 22.0656,-23.8373 L 22.1874,-23.8834 L 22.3203,-23.9163
 L 22.4643,-23.936 L 22.6195,-23.9426 L 22.7734,-23.9361 L 22.9158,-23.9168 L 23.0468,-23.8845 L 23.1662,-23.8393
 L 23.2741,-23.7813 L 23.3705,-23.7103 L 23.4554,-23.6264 L 23.5288,-23.5296 L 23.5922,-23.4186 L 23.6472,-23.292
 L 23.6937,-23.1498 L 23.7318,-22.992 L 23.7614,-22.8187 L 23.7825,-22.6298 L 23.7952,-22.4253 L 23.7994,-22.2052
 L 23.795,-21.9879 L 23.7817,-21.7854 L 23.7596,-21.5978 L 23.7287,-21.4251 L 23.6889,-21.2672 L 23.6404,-21.1242
 L 23.5829,-20.9961 L 23.5166,-20.8829 L 23.4401,-20.7837 L 23.3517,-20.6978 L 23.2516,-20.6251 L 23.1398,-20.5656
 L 23.0161,-20.5193 L 22.8808,-20.4862 L 22.7336,-20.4664 L 22.5747,-20.4598 z
M 26.1201,-22.5511 L 26.1249,-22.7074 L 26.1392,-22.855 L 26.163,-22.9938 L 26.1964,-23.1238 L 26.2393,-23.245
 L 26.2918,-23.3575 L 26.3538,-23.4612 L 26.4253,-23.5561 L 26.5051,-23.6409 L 26.5919,-23.7145 L 26.6856,-23.7767
 L 26.7864,-23.8277 L 26.8941,-23.8672 L 27.0089,-23.8955 L 27.1306,-23.9125 L 27.2594,-23.9182 L 27.3471,-23.9165
 L 27.4295,-23.9116 L 27.5063,-23.9033 L 27.5777,-23.8917 L 27.6436,-23.8768 L 27.7041,-23.8587 L 27.7591,-23.8372
 L 27.8086,-23.8124 L 27.8538,-23.7838 L 27.8958,-23.7511 L 27.9347,-23.7142 L 27.9704,-23.673 L 28.0028,-23.6277
 L 28.0322,-23.5782 L 28.0583,-23.5245 L 28.0812,-23.4666 L 28.1013,-23.4035 L 28.1186,-23.3343 L 28.1333,-23.259
 L 28.1453,-23.1777 L 28.1547,-23.0902 L 28.1613,-22.9966 L 28.1653,-22.8969 L 28.1667,-22.7911 L 28.1667,-20
 L 28.9031,-20 L 28.9031,-22.9336 L 28.8979,-23.1337 L 28.8821,-23.3192 L 28.8559,-23.49 L 28.8192,-23.6461
 L 28.772,-23.7875 L 28.7143,-23.9143 L 28.6461,-24.0263 L 28.5674,-24.1237 L 28.4774,-24.2081 L 28.3753,-24.2812
 L 28.261,-24.3431 L 28.1346,-24.3937 L 27.9961,-24.4331 L 27.8454,-24.4612 L 27.6826,-24.4781 L 27.5076,-24.4837
 L 27.387,-24.4808 L 27.2714,-24.4719 L 27.1609,-24.4571 L 27.0554,-24.4364 L 26.9549,-24.4098 L 26.8595,-24.3773
 L 26.769,-24.3389 L 26.6836,-24.2946 L 26.6019,-24.2431 L 26.5228,-24.1833 L 26.4461,-24.1152 L 26.3719,-24.0387
 L 26.3001,-23.954 L 26.2309,-23.8609 L 26.1641,-23.7594 L 26.0998,-23.6497 L 26.0876,-23.6497 L 26.0856,-23.7268
 L 26.0836,-23.7975 L 26.0818,-23.8618 L 26.0799,-23.9197 L 26.0782,-23.9712 L 26.0765,-24.0162 L 26.0749,-24.0548
 L 26.0733,-24.087 L 26.069,-24.1703 L 26.0665,-24.2216 L 26.0642,-24.2697 L 26.0621,-24.3138 L 26.0611,-24.3329
 L 26.0601,-24.3499 L 26.0591,-24.3647 L 26.0581,-24.3774 L 26.0571,-24.3879 L 26.056,-24.3962 L 26.055,-24.4024
 L 25.3634,-24.4024 L 25.3691,-24.3503 L 25.374,-24.2795 L 25.3782,-24.1901 L 25.3816,-24.082 L 25.3843,-23.9551
 L 25.3862,-23.8096 L 25.3873,-23.6454 L 25.3877,-23.4625 L 25.3877,-20 L 26.1201,-20 z
M 13.5042,-19.9219 L 13.6299,-19.9317 L 13.7506,-19.9481 L 13.8663,-19.971 L 13.977,-20.0005 L 14.0826,-20.0365
 L 14.1832,-20.079 L 14.2788,-20.1282 L 14.3704,-20.1851 L 14.4592,-20.2514 L 14.5452,-20.3268 L 14.6282,-20.4114
 L 14.7084,-20.5053 L 14.7857,-20.6084 L 14.8602,-20.7207 L 14.9318,-20.8422 L 14.9562,-20.8422 L 14.9648,-20.7321
 L 14.9785,-20.6295 L 14.9971,-20.5345 L 15.0208,-20.447 L 15.0495,-20.3672 L 15.0832,-20.2948 L 15.1219,-20.2301
 L 15.1657,-20.1729 L 15.2155,-20.1228 L 15.2722,-20.0795 L 15.3358,-20.0428 L 15.4063,-20.0127 L 15.4838,-19.9894
 L 15.5682,-19.9727 L 15.6595,-19.9627 L 15.7578,-19.9593 L 15.8298,-19.9603 L 15.9015,-19.9634 L 15.9727,-19.9685
 L 16.0436,-19.9756 L 16.1141,-19.9848 L 16.1842,-19.9959 L 16.2539,-20.0092 L 16.3233,-20.0244 L 16.3233,-20.4801
 L 16.2902,-20.4734 L 16.258,-20.4676 L 16.2266,-20.4627 L 16.1962,-20.4587 L 16.1666,-20.4556 L 16.138,-20.4534
 L 16.1102,-20.4521 L 16.0833,-20.4516 L 16.0257,-20.4542 L 15.9729,-20.4619 L 15.925,-20.4748 L 15.8819,-20.4928
 L 15.8436,-20.516 L 15.8102,-20.5443 L 15.7815,-20.5778 L 15.7577,-20.6164 L 15.7377,-20.6601 L 15.7204,-20.7088
 L 15.7057,-20.7626 L 15.6936,-20.8214 L 15.6843,-20.8852 L 15.6776,-20.954 L 15.6736,-21.0278 L 15.6723,-21.1067
 L 15.6723,-23.0027 L 15.6657,-23.1775 L 15.6461,-23.3416 L 15.6134,-23.4951 L 15.5675,-23.6379 L 15.5086,-23.7702
 L 15.4366,-23.8918 L 15.3514,-24.0029 L 15.2532,-24.1033 L 15.142,-24.1924 L 15.018,-24.2697 L 14.8811,-24.3351
 L 14.7314,-24.3886 L 14.5688,-24.4302 L 14.3934,-24.46 L 14.2052,-24.4778 L 14.0041,-24.4837 L 13.6312,-24.4652
 L 13.3018,-24.4095 L 13.0158,-24.3167 L 12.7733,-24.1867 L 12.5744,-24.0197 L 12.4189,-23.8154 L 12.3068,-23.5741
 L 12.2383,-23.2957 L 13.0032,-23.2265 L 13.0172,-23.3149 L 13.0368,-23.3971 L 13.062,-23.4731 L 13.0927,-23.5428
 L 13.1291,-23.6063 L 13.1711,-23.6636 L 13.2186,-23.7147 L 13.2718,-23.7595 L 13.3319,-23.7986 L 13.4004,-23.8325
 L 13.4774,-23.8612 L 13.5627,-23.8846 L 13.6564,-23.9029 L 13.7585,-23.9159 L 13.869,-23.9237 L 13.9879,-23.9263
 L 14.1059,-23.9227 L 14.2157,-23.9118 L 14.3174,-23.8937 L 14.411,-23.8683 L 14.4965,-23.8357 L 14.5738,-23.7959
 L 14.6429,-23.7487 L 14.7039,-23.6944 L 14.7574,-23.6316 L 14.8036,-23.5594 L 14.8428,-23.4775 L 14.8749,-23.3862
 L 14.8998,-23.2853 L 14.9176,-23.1749 L 14.9283,-23.0549 L 14.9318,-22.9254 L 14.9318,-22.6853 L 13.9431,-22.6691
 L 13.7015,-22.6577 L 13.4771,-22.6355 L 13.2699,-22.6027 L 13.08,-22.5592 L 12.9073,-22.5051 L 12.7518,-22.4402
 L 12.6136,-22.3647 L 12.4926,-22.2785 L 12.3872,-22.182 L 12.2959,-22.0756 L 12.2186,-21.9592 L 12.1554,-21.833
 L 12.1062,-21.6968 L 12.0711,-21.5507 L 12.05,-21.3947 L 12.043,-21.2287 L 12.0482,-21.0802 L 12.0639,-20.9399
 L 12.0899,-20.8076 L 12.1264,-20.6836 L 12.1733,-20.5676 L 12.2307,-20.4598 L 12.2984,-20.3601 L 12.3766,-20.2686
 L 12.4652,-20.1865 L 12.564,-20.1155 L 12.6732,-20.0553 L 12.7926,-20.0061 L 12.9224,-19.9678 L 13.0625,-19.9405
 L 13.2128,-19.9241 L 13.3735,-19.9186 z
M 13.4534,-20.4709 L 13.3716,-20.4801 L 13.2949,-20.4953 L 13.2234,-20.5167 L 13.1571,-20.5442 L 13.0959,-20.5777
 L 13.0399,-20.6174 L 12.989,-20.6632 L 12.9437,-20.7145 L 12.9044,-20.771 L 12.8712,-20.8325 L 12.844,-20.8992
 L 12.8229,-20.9709 L 12.8078,-21.0477 L 12.7987,-21.1296 L 12.7957,-21.2166 L 12.7979,-21.297 L 12.8046,-21.3735
 L 12.8157,-21.446 L 12.8313,-21.5146 L 12.8513,-21.5792 L 12.8758,-21.64 L 12.9047,-21.6967 L 12.9381,-21.7495
 L 12.9756,-21.7987 L 13.0171,-21.8447 L 13.0624,-21.8872 L 13.1115,-21.9265 L 13.1646,-21.9625 L 13.2215,-21.9952
 L 13.2823,-22.0246 L 13.347,-22.0506 L 13.4175,-22.0736 L 13.4959,-22.0939 L 13.5821,-22.1113 L 13.6761,-22.1259
 L 13.7779,-22.1377 L 13.8875,-22.1468 L 14.005,-22.153 L 14.1303,-22.1564 L 14.9318,-22.1727 L 14.9318,-21.8106
 L 14.929,-21.7265 L 14.9205,-21.6429 L 14.9064,-21.5599 L 14.8866,-21.4775 L 14.8611,-21.3956 L 14.83,-21.3143
 L 14.7932,-21.2336 L 14.7508,-21.1535 L 14.7034,-21.0758 L 14.6519,-21.0023 L 14.5963,-20.9331 L 14.5366,-20.8682
 L 14.4727,-20.8075 L 14.4048,-20.7511 L 14.3326,-20.6989 L 14.2564,-20.651 L 14.1766,-20.6081 L 14.0941,-20.5709
 L 14.0088,-20.5394 L 13.9207,-20.5137 L 13.8298,-20.4936 L 13.7361,-20.4793 L 13.6396,-20.4707 L 13.5403,-20.4679
 z
M 19.7658,-24.4024 L 19.0334,-24.4024 L 19.0334,-20 L 19.7658,-20 z
M 6.87477,-5.93692 L 7.04796,-5.95107 L 7.2151,-5.97464 L 7.37622,-6.00763 L 7.53128,-6.05006 L 7.68031,-6.10193
 L 7.8233,-6.16322 L 7.96024,-6.23395 L 8.09027,-6.31346 L 8.21252,-6.40114 L 8.32698,-6.49698 L 8.43364,-6.60097
 L 8.53252,-6.71312 L 8.62361,-6.83344 L 8.70692,-6.96191 L 8.78244,-7.09854 L 8.84961,-7.24217 L 8.90781,-7.39162
 L 8.95706,-7.54691 L 8.99736,-7.70802 L 9.0287,-7.87495 L 9.05109,-8.04773 L 9.06451,-8.22632 L 9.06898,-8.41074
 L 9.06458,-8.59579 L 9.0513,-8.77458 L 9.02917,-8.94713 L 8.9982,-9.11343 L 8.95839,-9.27347 L 8.90971,-9.42726
 L 8.8522,-9.5748 L 8.78584,-9.71609 L 8.71112,-9.85016 L 8.62849,-9.97601 L 8.53799,-10.0937 L 8.43958,-10.2031
 L 8.33328,-10.3043 L 8.21907,-10.3973 L 8.09698,-10.4821 L 7.967,-10.5587 L 7.83005,-10.6266 L 7.68706,-10.6855
 L 7.53804,-10.7354 L 7.38298,-10.7761 L 7.22188,-10.8078 L 7.05473,-10.8305 L 6.88156,-10.8441 L 6.70235,-10.8486
 L 6.43028,-10.8385 L 6.1736,-10.8082 L 5.93228,-10.7578 L 5.70631,-10.6871 L 5.49573,-10.5963 L 5.30049,-10.4852
 L 5.12064,-10.354 L 4.95615,-10.2026 L 4.80913,-10.0334 L 4.68172,-9.84843 L 4.57391,-9.64789 L 4.4857,-9.43172
 L 4.4171,-9.19992 L 4.3681,-8.95248 L 4.3387,-8.68942 L 4.32889,-8.41074 L 4.33328,-8.22549 L 4.34648,-8.04613
 L 4.36847,-7.87265 L 4.39925,-7.70505 L 4.43881,-7.54332 L 4.48718,-7.38748 L 4.54434,-7.23752 L 4.61029,-7.09344
 L 4.6846,-6.95648 L 4.7668,-6.82782 L 4.85689,-6.70749 L 4.95488,-6.59547 L 5.06076,-6.49176 L 5.17453,-6.39638
 L 5.29619,-6.3093 L 5.42574,-6.23055 L 5.56241,-6.16061 L 5.70537,-6.10002 L 5.85464,-6.04874 L 6.01022,-6.00677
 L 6.17209,-5.97417 L 6.34027,-5.95085 L 6.51476,-5.93687 L 6.69554,-5.93221 z
M 6.50012,-6.46597 L 6.31567,-6.49069 L 6.1422,-6.53188 L 5.97968,-6.58954 L 5.82812,-6.66368 L 5.68755,-6.75429
 L 5.55794,-6.86137 L 5.43929,-6.98494 L 5.33321,-7.12256 L 5.24126,-7.27177 L 5.16345,-7.43259 L 5.09981,-7.60501
 L 5.05029,-7.78905 L 5.01494,-7.98468 L 4.99371,-8.19191 L 4.98665,-8.41074 L 4.99364,-8.63077 L 5.01462,-8.83818
 L 5.04958,-9.03297 L 5.09853,-9.21516 L 5.16147,-9.38475 L 5.23839,-9.54172 L 5.3293,-9.68608 L 5.43419,-9.81784
 L 5.55193,-9.93546 L 5.6813,-10.0374 L 5.82234,-10.1236 L 5.97504,-10.1942 L 6.13937,-10.2491 L 6.31538,-10.2883
 L 6.50304,-10.3118 L 6.70235,-10.3196 L 6.90002,-10.3117 L 7.08623,-10.2879 L 7.26093,-10.2481 L 7.42412,-10.1925
 L 7.57582,-10.121 L 7.71602,-10.0336 L 7.84473,-9.93025 L 7.96194,-9.81104 L 8.06644,-9.6779 L 8.157,-9.53279
 L 8.23363,-9.37572 L 8.29633,-9.20667 L 8.34509,-9.02565 L 8.37993,-8.83264 L 8.40083,-8.62769 L 8.40779,-8.41074
 L 8.40088,-8.18422 L 8.38014,-7.9709 L 8.34557,-7.77077 L 8.29716,-7.58383 L 8.23494,-7.41008 L 8.15889,-7.24953
 L 8.069,-7.10216 L 7.96529,-6.96799 L 7.84866,-6.8484 L 7.72002,-6.74475 L 7.57933,-6.65706 L 7.42664,-6.58531
 L 7.2619,-6.5295 L 7.08514,-6.48964 L 6.89635,-6.46571 L 6.69554,-6.45775 z
M 13.2996,-6.52895 L 10.2311,-6.52895 L 13.1403,-10.3061 L 13.1403,-10.7774 L 9.74289,-10.7774 L 9.74289,-10.2484
 L 12.4045,-10.2484 L 9.49539,-6.48485 L 9.49539,-6 L 13.2996,-6 z
M 16.9404,-6.51874 L 15.7774,-6.51874 L 15.7774,-10.7774 L 15.2146,-10.7774 L 14.0855,-10.0009 L 14.0855,-9.42455
 L 15.1637,-10.1942 L 15.1637,-6.51874 L 13.9465,-6.51874 L 13.9465,-6 L 16.9404,-6 z
M 18.4234,-7.39694 L 20.6001,-7.39694 L 21.146,-6 L 22.3974,-6 L 22.9467,-7.39694 L 25.1234,-7.39694
 L 25.6693,-6 L 26.3305,-6 L 24.4114,-10.7774 L 23.6756,-10.7774 L 21.7669,-6.10022 L 19.8881,-10.7774
 L 19.1523,-10.7774 L 17.2027,-6 L 17.8741,-6 z
M 18.62,-7.90215 L 19.2303,-9.47198 L 19.2706,-9.5797 L 19.3083,-9.68243 L 19.3435,-9.78018 L 19.3761,-9.87294
 L 19.4062,-9.96072 L 19.4337,-10.0435 L 19.4587,-10.1214 L 19.4812,-10.1942 L 19.5117,-10.2891 L 19.6033,-10.0077
 L 19.627,-9.93491 L 19.6508,-9.86403 L 19.6745,-9.79506 L 19.6982,-9.728 L 19.722,-9.66283 L 19.7457,-9.59958
 L 19.7694,-9.53824 L 19.7932,-9.47879 L 20.4068,-7.90215 z
M 23.1433,-7.90215 L 23.7536,-9.47198 L 23.7939,-9.5797 L 23.8316,-9.68243 L 23.8668,-9.78018 L 23.8994,-9.87294
 L 23.9295,-9.96072 L 23.9571,-10.0435 L 23.9821,-10.1214 L 24.0045,-10.1942 L 24.0351,-10.2891 L 24.1266,-10.0077
 L 24.1504,-9.93491 L 24.1741,-9.86403 L 24.1978,-9.79506 L 24.2216,-9.728 L 24.2453,-9.66283 L 24.269,-9.59958
 L 24.2928,-9.53824 L 24.3165,-9.47879 L 24.9302,-7.90215 z
M 28.946,-6.00552 L 29.1359,-6.02214 L 29.3144,-6.04982 L 29.4815,-6.08856 L 29.6373,-6.1384 L 29.7818,-6.19928
 L 29.9149,-6.27126 L 30.0367,-6.35429 L 30.1456,-6.4473 L 30.2399,-6.54916 L 30.3198,-6.65987 L 30.3851,-6.77942
 L 30.4359,-6.90782 L 30.4722,-7.04506 L 30.494,-7.19115 L 30.5012,-7.3461 L 30.4964,-7.46303 L 30.4819,-7.57484
 L 30.4578,-7.6815 L 30.4241,-7.78304 L 30.3807,-7.87941 L 30.3277,-7.97066 L 30.265,-8.05678 L 30.1927,-8.13774
 L 30.1115,-8.21231 L 30.0221,-8.27921 L 29.9246,-8.33841 L 29.8189,-8.38994 L 29.705,-8.43379 L 29.583,-8.46996
 L 29.4529,-8.49844 L 29.3145,-8.51924 L 29.42,-8.54678 L 29.5192,-8.58026 L 29.6124,-8.61967 L 29.6994,-8.66502
 L 29.7802,-8.71629 L 29.8549,-8.77351 L 29.9235,-8.83665 L 29.9859,-8.90575 L 30.0415,-8.97992 L 30.0897,-9.05832
 L 30.1305,-9.14096 L 30.1639,-9.22786 L 30.1898,-9.31898 L 30.2084,-9.41435 L 30.2195,-9.51395 L 30.2232,-9.6178
 L 30.197,-9.88957 L 30.1181,-10.1251 L 29.9867,-10.3244 L 29.8028,-10.4875 L 29.5663,-10.6143 L 29.2773,-10.7049
 L 28.9356,-10.7593 L 28.5415,-10.7774 L 26.8055,-10.7774 L 26.8055,-6 L 28.7449,-6 z
M 27.4531,-8.7464 L 27.4531,-10.2586 L 28.5415,-10.2586 L 28.6632,-10.256 L 28.7775,-10.2483 L 28.8845,-10.2353
 L 28.9839,-10.2171 L 29.076,-10.1937 L 29.1607,-10.1652 L 29.2379,-10.1314 L 29.3077,-10.0925 L 29.3697,-10.0475
 L 29.4234,-9.99564 L 29.4689,-9.93689 L 29.5061,-9.87125 L 29.535,-9.79871 L 29.5557,-9.7193 L 29.5681,-9.63298
 L 29.5722,-9.53979 L 29.5682,-9.44218 L 29.5562,-9.35109 L 29.5362,-9.26653 L 29.5082,-9.18846 L 29.4722,-9.11691
 L 29.4282,-9.05186 L 29.3762,-8.99335 L 29.3162,-8.94135 L 29.2481,-8.89565 L 29.1718,-8.85605 L 29.0873,-8.82254
 L 28.9945,-8.79514 L 28.8936,-8.7738 L 28.7844,-8.75858 L 28.6671,-8.74944 L 28.5415,-8.7464 z
M 27.4531,-6.51874 L 27.4531,-8.2412 L 28.6601,-8.2412 L 28.9383,-8.228 L 29.1793,-8.18843 L 29.3833,-8.12247
 L 29.5502,-8.03014 L 29.6799,-7.91141 L 29.7727,-7.7663 L 29.8283,-7.59482 L 29.8468,-7.39694 L 29.8426,-7.29099
 L 29.8299,-7.1918 L 29.8087,-7.09941 L 29.779,-7.01379 L 29.7409,-6.93495 L 29.6943,-6.8629 L 29.6392,-6.79764
 L 29.5756,-6.73914 L 29.5027,-6.68748 L 29.4198,-6.64272 L 29.3268,-6.60484 L 29.2238,-6.57384 L 29.1107,-6.54974
 L 28.9875,-6.53252 L 28.8543,-6.52219 L 28.711,-6.51874 z
M 0.324036,3.08301 L 0.644516,3.03226 L 0.957947,2.94827 L 1.26088,2.83199 L 1.54999,2.68468 L 1.82213,2.50795
 L 2.0743,2.30374 L 2.30374,2.0743 L 2.50795,1.82213 L 2.68468,1.54999 L 2.83199,1.26088 L 2.94827,0.957947
 L 3.03226,0.644516 L 3.08301,0.324036 L 3.09999,-0 L 3.08301,-0.324036 L 3.03226,-0.644516 L 2.94827,-0.957947
 L 2.83199,-1.26088 L 2.68468,-1.54999 L 2.50795,-1.82213 L 2.30374,-2.0743 L 2.0743,-2.30374 L 1.82213,-2.50795
 L 1.54999,-2.68468 L 1.26088,-2.83199 L 0.957947,-2.94827 L 0.644516,-3.03226 L 0.324036,-3.08301 L 0,-3.09999
 L -0.324036,-3.08301 L -0.644516,-3.03226 L -0.957947,-2.94827 L -1.26088,-2.83199 L -1.54999,-2.68468 L -1.82213,-2.50795
 L -2.0743,-2.30374 L -2.30374,-2.0743 L -2.50795,-1.82213 L -2.68468,-1.54999 L -2.83199,-1.26088 L -2.94827,-0.957947
 L -3.03226,-0.644516 L -3.08301,-0.324036 L -3.09999,-0 L -3.08301,0.324036 L -3.03226,0.644516 L -2.94827,0.957947
 L -2.83199,1.26088 L -2.68468,1.54999 L -2.50795,1.82213 L -2.30374,2.0743 L -2.0743,2.30374 L -1.82213,2.50795
 L -1.54999,2.68468 L -1.26088,2.83199 L -0.957947,2.94827 L -0.644516,3.03226 L -0.324036,3.08301 L 0,3.09999
 z
M 45.324,3.08301 L 45.6445,3.03226 L 45.9579,2.94827 L 46.2609,2.83199 L 46.55,2.68468 L 46.8221,2.50795
 L 47.0743,2.30374 L 47.3037,2.0743 L 47.5079,1.82213 L 47.6847,1.54999 L 47.832,1.26088 L 47.9483,0.957947
 L 48.0323,0.644516 L 48.083,0.324036 L 48.1,-0 L 48.083,-0.324036 L 48.0323,-0.644516 L 47.9483,-0.957947
 L 47.832,-1.26088 L 47.6847,-1.54999 L 47.5079,-1.82213 L 47.3037,-2.0743 L 47.0743,-2.30374 L 46.8221,-2.50795
 L 46.55,-2.68468 L 46.2609,-2.83199 L 45.9579,-2.94827 L 45.6445,-3.03226 L 45.324,-3.08301 L 45,-3.09999
 L 44.6759,-3.08301 L 44.3555,-3.03226 L 44.042,-2.94827 L 43.7391,-2.83199 L 43.45,-2.68468 L 43.1779,-2.50795
 L 42.9257,-2.30374 L 42.6962,-2.0743 L 42.492,-1.82213 L 42.3153,-1.54999 L 42.168,-1.26088 L 42.0517,-0.957947
 L 41.9677,-0.644516 L 41.917,-0.324036 L 41.9,-0 L 41.917,0.324036 L 41.9677,0.644516 L 42.0517,0.957947
 L 42.168,1.26088 L 42.3153,1.54999 L 42.492,1.82213 L 42.6962,2.0743 L 42.9257,2.30374 L 43.1779,2.50795
 L 43.45,2.68468 L 43.7391,2.83199 L 44.042,2.94827 L 44.3555,3.03226 L 44.6759,3.08301 L 45,3.09999
 z
M 110.324,3.08301 L 110.645,3.03226 L 110.958,2.94827 L 111.261,2.83199 L 111.55,2.68468 L 111.822,2.50795
 L 112.074,2.30374 L 112.304,2.0743 L 112.508,1.82213 L 112.685,1.54999 L 112.832,1.26088 L 112.948,0.957947
 L 113.032,0.644516 L 113.083,0.324036 L 113.1,-0 L 113.083,-0.324036 L 113.032,-0.644516 L 112.948,-0.957947
 L 112.832,-1.26088 L 112.685,-1.54999 L 112.508,-1.82213 L 112.304,-2.0743 L 112.074,-2.30374 L 111.822,-2.50795
 L 111.55,-2.68468 L 111.261,-2.83199 L 110.958,-2.94827 L 110.645,-3.03226 L 110.324,-3.08301 L 110,-3.09999
 L 109.676,-3.08301 L 109.355,-3.03226 L 109.042,-2.94827 L 108.739,-2.83199 L 108.45,-2.68468 L 108.178,-2.50795
 L 107.926,-2.30374 L 107.696,-2.0743 L 107.492,-1.82213 L 107.315,-1.54999 L 107.168,-1.26088 L 107.052,-0.957947
 L 106.968,-0.644516 L 106.917,-0.324036 L 106.9,-0 L 106.917,0.324036 L 106.968,0.644516 L 107.052,0.957947
 L 107.168,1.26088 L 107.315,1.54999 L 107.492,1.82213 L 107.696,2.0743 L 107.926,2.30374 L 108.178,2.50795
 L 108.45,2.68468 L 108.739,2.83199 L 109.042,2.94827 L 109.355,3.03226 L 109.676,3.08301 L 110,3.09999
 z
M 135.324,3.08301 L 135.645,3.03226 L 135.958,2.94827 L 136.261,2.83199 L 136.55,2.68468 L 136.822,2.50795
 L 137.074,2.30374 L 137.304,2.0743 L 137.508,1.82213 L 137.685,1.54999 L 137.832,1.26088 L 137.948,0.957947
 L 138.032,0.644516 L 138.083,0.324036 L 138.1,-0 L 138.083,-0.324036 L 138.032,-0.644516 L 137.948,-0.957947
 L 137.832,-1.26088 L 137.685,-1.54999 L 137.508,-1.82213 L 137.304,-2.0743 L 137.074,-2.30374 L 136.822,-2.50795
 L 136.55,-2.68468 L 136.261,-2.83199 L 135.958,-2.94827 L 135.645,-3.03226 L 135.324,-3.08301 L 135,-3.09999
 L 134.676,-3.08301 L 134.355,-3.03226 L 134.042,-2.94827 L 133.739,-2.83199 L 133.45,-2.68468 L 133.178,-2.50795
 L 132.926,-2.30374 L 132.696,-2.0743 L 132.492,-1.82213 L 132.315,-1.54999 L 132.168,-1.26088 L 132.052,-0.957947
 L 131.968,-0.644516 L 131.917,-0.324036 L 131.9,-0 L 131.917,0.324036 L 131.968,0.644516 L 132.052,0.957947
 L 132.168,1.26088 L 132.315,1.54999 L 132.492,1.82213 L 132.696,2.0743 L 132.926,2.30374 L 133.178,2.50795
 L 133.45,2.68468 L 133.739,2.83199 L 134.042,2.94827 L 134.355,3.03226 L 134.676,3.08301 L 135,3.09999
 z
" stroke="black" fill="lightgray" stroke-width="0.5"/>
</svg>
