  0
SECTION
  2
BLOCKS
  0
ENDSEC
  0
SECTION
  2
ENTITIES
  0
LINE
  8
0
 10
6.66667
 20
150
 11
10
 21
150
  0
LINE
  8
0
 10
10
 20
150
 11
10
 21
148.758
  0
LINE
  8
0
 10
10
 20
148.758
 11
9.96762
 21
148.758
  0
LINE
  8
0
 10
9.96762
 20
148.758
 11
9.90422
 21
148.745
  0
LINE
  8
0
 10
9.90422
 20
148.745
 11
9.84502
 21
148.718
  0
LINE
  8
0
 10
9.84502
 20
148.718
 11
9.79259
 21
148.68
  0
LINE
  8
0
 10
9.79259
 20
148.68
 11
9.74922
 21
148.632
  0
LINE
  8
0
 10
9.74922
 20
148.632
 11
9.71681
 21
148.576
  0
LINE
  8
0
 10
9.71681
 20
148.576
 11
9.69679
 21
148.514
  0
LINE
  8
0
 10
9.69679
 20
148.514
 11
9.69002
 21
148.45
  0
LINE
  8
0
 10
9.69002
 20
148.45
 11
9.69679
 21
148.386
  0
LINE
  8
0
 10
9.69679
 20
148.386
 11
9.71681
 21
148.324
  0
LINE
  8
0
 10
9.71681
 20
148.324
 11
9.74922
 21
148.268
  0
LINE
  8
0
 10
9.74922
 20
148.268
 11
9.79259
 21
148.22
  0
LINE
  8
0
 10
9.79259
 20
148.22
 11
9.84502
 21
148.182
  0
LINE
  8
0
 10
9.84502
 20
148.182
 11
9.90422
 21
148.155
  0
LINE
  8
0
 10
9.90422
 20
148.155
 11
9.96762
 21
148.142
  0
LINE
  8
0
 10
9.96762
 20
148.142
 11
10
 21
148.142
  0
LINE
  8
0
 10
10
 20
148.142
 11
10
 21
146.9
  0
LINE
  8
0
 10
10
 20
146.9
 11
13.3333
 21
146.9
  0
LINE
  8
0
 10
13.3333
 20
146.9
 11
13.3333
 21
150
  0
LINE
  8
0
 10
13.3333
 20
150
 11
16.6667
 21
150
  0
LINE
  8
0
 10
16.6667
 20
150
 11
16.6667
 21
148.758
  0
LINE
  8
0
 10
16.6667
 20
148.758
 11
16.6343
 21
148.758
  0
LINE
  8
0
 10
16.6343
 20
148.758
 11
16.5709
 21
148.745
  0
LINE
  8
0
 10
16.5709
 20
148.745
 11
16.5117
 21
148.718
  0
LINE
  8
0
 10
16.5117
 20
148.718
 11
16.4592
 21
148.68
  0
LINE
  8
0
 10
16.4592
 20
148.68
 11
16.4159
 21
148.632
  0
LINE
  8
0
 10
16.4159
 20
148.632
 11
16.3835
 21
148.576
  0
LINE
  8
0
 10
16.3835
 20
148.576
 11
16.3634
 21
148.514
  0
LINE
  8
0
 10
16.3634
 20
148.514
 11
16.3567
 21
148.45
  0
LINE
  8
0
 10
16.3567
 20
148.45
 11
16.3634
 21
148.386
  0
LINE
  8
0
 10
16.3634
 20
148.386
 11
16.3835
 21
148.324
  0
LINE
  8
0
 10
16.3835
 20
148.324
 11
16.4159
 21
148.268
  0
LINE
  8
0
 10
16.4159
 20
148.268
 11
16.4592
 21
148.22
  0
LINE
  8
0
 10
16.4592
 20
148.22
 11
16.5117
 21
148.182
  0
LINE
  8
0
 10
16.5117
 20
148.182
 11
16.5709
 21
148.155
  0
LINE
  8
0
 10
16.5709
 20
148.155
 11
16.6343
 21
148.142
  0
LINE
  8
0
 10
16.6343
 20
148.142
 11
16.6667
 21
148.142
  0
LINE
  8
0
 10
16.6667
 20
148.142
 11
16.6667
 21
146.9
  0
LINE
  8
0
 10
16.6667
 20
146.9
 11
20
 21
146.9
  0
LINE
  8
0
 10
20
 20
146.9
 11
20
 21
153.333
  0
LINE
  8
0
 10
20
 20
153.333
 11
21.2417
 21
153.333
  0
LINE
  8
0
 10
21.2417
 20
153.333
 11
21.2417
 21
153.301
  0
LINE
  8
0
 10
21.2417
 20
153.301
 11
21.2552
 21
153.238
  0
LINE
  8
0
 10
21.2552
 20
153.238
 11
21.2815
 21
153.178
  0
LINE
  8
0
 10
21.2815
 20
153.178
 11
21.3196
 21
153.126
  0
LINE
  8
0
 10
21.3196
 20
153.126
 11
21.3678
 21
153.083
  0
LINE
  8
0
 10
21.3678
 20
153.083
 11
21.4239
 21
153.05
  0
LINE
  8
0
 10
21.4239
 20
153.05
 11
21.4855
 21
153.03
  0
LINE
  8
0
 10
21.4855
 20
153.03
 11
21.55
 21
153.023
  0
LINE
  8
0
 10
21.55
 20
153.023
 11
21.6144
 21
153.03
  0
LINE
  8
0
 10
21.6144
 20
153.03
 11
21.6761
 21
153.05
  0
LINE
  8
0
 10
21.6761
 20
153.05
 11
21.7322
 21
153.083
  0
LINE
  8
0
 10
21.7322
 20
153.083
 11
21.7804
 21
153.126
  0
LINE
  8
0
 10
21.7804
 20
153.126
 11
21.8185
 21
153.178
  0
LINE
  8
0
 10
21.8185
 20
153.178
 11
21.8448
 21
153.238
  0
LINE
  8
0
 10
21.8448
 20
153.238
 11
21.8583
 21
153.301
  0
LINE
  8
0
 10
21.8583
 20
153.301
 11
21.8583
 21
153.333
  0
LINE
  8
0
 10
21.8583
 20
153.333
 11
23.1
 21
153.333
  0
LINE
  8
0
 10
23.1
 20
153.333
 11
23.1
 21
156.667
  0
LINE
  8
0
 10
23.1
 20
156.667
 11
20
 21
156.667
  0
LINE
  8
0
 10
20
 20
156.667
 11
20
 21
160
  0
LINE
  8
0
 10
20
 20
160
 11
21.2417
 21
160
  0
LINE
  8
0
 10
21.2417
 20
160
 11
21.2417
 21
159.968
  0
LINE
  8
0
 10
21.2417
 20
159.968
 11
21.2552
 21
159.904
  0
LINE
  8
0
 10
21.2552
 20
159.904
 11
21.2815
 21
159.845
  0
LINE
  8
0
 10
21.2815
 20
159.845
 11
21.3196
 21
159.793
  0
LINE
  8
0
 10
21.3196
 20
159.793
 11
21.3678
 21
159.749
  0
LINE
  8
0
 10
21.3678
 20
159.749
 11
21.4239
 21
159.717
  0
LINE
  8
0
 10
21.4239
 20
159.717
 11
21.4855
 21
159.697
  0
LINE
  8
0
 10
21.4855
 20
159.697
 11
21.55
 21
159.69
  0
LINE
  8
0
 10
21.55
 20
159.69
 11
21.6144
 21
159.697
  0
LINE
  8
0
 10
21.6144
 20
159.697
 11
21.6761
 21
159.717
  0
LINE
  8
0
 10
21.6761
 20
159.717
 11
21.7322
 21
159.749
  0
LINE
  8
0
 10
21.7322
 20
159.749
 11
21.7804
 21
159.793
  0
LINE
  8
0
 10
21.7804
 20
159.793
 11
21.8185
 21
159.845
  0
LINE
  8
0
 10
21.8185
 20
159.845
 11
21.8448
 21
159.904
  0
LINE
  8
0
 10
21.8448
 20
159.904
 11
21.8583
 21
159.968
  0
LINE
  8
0
 10
21.8583
 20
159.968
 11
21.8583
 21
160
  0
LINE
  8
0
 10
21.8583
 20
160
 11
23.1
 21
160
  0
LINE
  8
0
 10
23.1
 20
160
 11
23.1
 21
163.333
  0
LINE
  8
0
 10
23.1
 20
163.333
 11
20
 21
163.333
  0
LINE
  8
0
 10
20
 20
163.333
 11
20
 21
166.667
  0
LINE
  8
0
 10
20
 20
166.667
 11
21.2417
 21
166.667
  0
LINE
  8
0
 10
21.2417
 20
166.667
 11
21.2417
 21
166.634
  0
LINE
  8
0
 10
21.2417
 20
166.634
 11
21.2552
 21
166.571
  0
LINE
  8
0
 10
21.2552
 20
166.571
 11
21.2815
 21
166.512
  0
LINE
  8
0
 10
21.2815
 20
166.512
 11
21.3196
 21
166.459
  0
LINE
  8
0
 10
21.3196
 20
166.459
 11
21.3678
 21
166.416
  0
LINE
  8
0
 10
21.3678
 20
166.416
 11
21.4239
 21
166.383
  0
LINE
  8
0
 10
21.4239
 20
166.383
 11
21.4855
 21
166.363
  0
LINE
  8
0
 10
21.4855
 20
166.363
 11
21.55
 21
166.357
  0
LINE
  8
0
 10
21.55
 20
166.357
 11
21.6144
 21
166.363
  0
LINE
  8
0
 10
21.6144
 20
166.363
 11
21.6761
 21
166.383
  0
LINE
  8
0
 10
21.6761
 20
166.383
 11
21.7322
 21
166.416
  0
LINE
  8
0
 10
21.7322
 20
166.416
 11
21.7804
 21
166.459
  0
LINE
  8
0
 10
21.7804
 20
166.459
 11
21.8185
 21
166.512
  0
LINE
  8
0
 10
21.8185
 20
166.512
 11
21.8448
 21
166.571
  0
LINE
  8
0
 10
21.8448
 20
166.571
 11
21.8583
 21
166.634
  0
LINE
  8
0
 10
21.8583
 20
166.634
 11
21.8583
 21
166.667
  0
LINE
  8
0
 10
21.8583
 20
166.667
 11
23.1
 21
166.667
  0
LINE
  8
0
 10
23.1
 20
166.667
 11
23.1
 21
170
  0
LINE
  8
0
 10
23.1
 20
170
 11
16.6667
 21
170
  0
LINE
  8
0
 10
16.6667
 20
170
 11
16.6667
 21
171.242
  0
LINE
  8
0
 10
16.6667
 20
171.242
 11
16.6991
 21
171.242
  0
LINE
  8
0
 10
16.6991
 20
171.242
 11
16.7625
 21
171.255
  0
LINE
  8
0
 10
16.7625
 20
171.255
 11
16.8217
 21
171.282
  0
LINE
  8
0
 10
16.8217
 20
171.282
 11
16.8741
 21
171.32
  0
LINE
  8
0
 10
16.8741
 20
171.32
 11
16.9174
 21
171.368
  0
LINE
  8
0
 10
16.9174
 20
171.368
 11
16.9499
 21
171.424
  0
LINE
  8
0
 10
16.9499
 20
171.424
 11
16.9699
 21
171.486
  0
LINE
  8
0
 10
16.9699
 20
171.486
 11
16.9767
 21
171.55
  0
LINE
  8
0
 10
16.9767
 20
171.55
 11
16.9699
 21
171.614
  0
LINE
  8
0
 10
16.9699
 20
171.614
 11
16.9499
 21
171.676
  0
LINE
  8
0
 10
16.9499
 20
171.676
 11
16.9174
 21
171.732
  0
LINE
  8
0
 10
16.9174
 20
171.732
 11
16.8741
 21
171.78
  0
LINE
  8
0
 10
16.8741
 20
171.78
 11
16.8217
 21
171.818
  0
LINE
  8
0
 10
16.8217
 20
171.818
 11
16.7625
 21
171.845
  0
LINE
  8
0
 10
16.7625
 20
171.845
 11
16.6991
 21
171.858
  0
LINE
  8
0
 10
16.6991
 20
171.858
 11
16.6667
 21
171.858
  0
LINE
  8
0
 10
16.6667
 20
171.858
 11
16.6667
 21
173.1
  0
LINE
  8
0
 10
16.6667
 20
173.1
 11
13.3333
 21
173.1
  0
LINE
  8
0
 10
13.3333
 20
173.1
 11
13.3333
 21
170
  0
LINE
  8
0
 10
13.3333
 20
170
 11
9.99998
 21
170
  0
LINE
  8
0
 10
9.99998
 20
170
 11
9.99998
 21
171.242
  0
LINE
  8
0
 10
9.99998
 20
171.242
 11
10.0324
 21
171.242
  0
LINE
  8
0
 10
10.0324
 20
171.242
 11
10.0958
 21
171.255
  0
LINE
  8
0
 10
10.0958
 20
171.255
 11
10.155
 21
171.282
  0
LINE
  8
0
 10
10.155
 20
171.282
 11
10.2074
 21
171.32
  0
LINE
  8
0
 10
10.2074
 20
171.32
 11
10.2508
 21
171.368
  0
LINE
  8
0
 10
10.2508
 20
171.368
 11
10.2832
 21
171.424
  0
LINE
  8
0
 10
10.2832
 20
171.424
 11
10.3032
 21
171.486
  0
LINE
  8
0
 10
10.3032
 20
171.486
 11
10.31
 21
171.55
  0
LINE
  8
0
 10
10.31
 20
171.55
 11
10.3032
 21
171.614
  0
LINE
  8
0
 10
10.3032
 20
171.614
 11
10.2832
 21
171.676
  0
LINE
  8
0
 10
10.2832
 20
171.676
 11
10.2508
 21
171.732
  0
LINE
  8
0
 10
10.2508
 20
171.732
 11
10.2074
 21
171.78
  0
LINE
  8
0
 10
10.2074
 20
171.78
 11
10.155
 21
171.818
  0
LINE
  8
0
 10
10.155
 20
171.818
 11
10.0958
 21
171.845
  0
LINE
  8
0
 10
10.0958
 20
171.845
 11
10.0324
 21
171.858
  0
LINE
  8
0
 10
10.0324
 20
171.858
 11
9.99998
 21
171.858
  0
LINE
  8
0
 10
9.99998
 20
171.858
 11
9.99998
 21
173.1
  0
LINE
  8
0
 10
9.99998
 20
173.1
 11
6.66666
 21
173.1
  0
LINE
  8
0
 10
6.66666
 20
173.1
 11
6.66666
 21
170
  0
LINE
  8
0
 10
6.66666
 20
170
 11
3.33333
 21
170
  0
LINE
  8
0
 10
3.33333
 20
170
 11
3.33333
 21
171.242
  0
LINE
  8
0
 10
3.33333
 20
171.242
 11
3.36572
 21
171.242
  0
LINE
  8
0
 10
3.36572
 20
171.242
 11
3.42912
 21
171.255
  0
LINE
  8
0
 10
3.42912
 20
171.255
 11
3.48833
 21
171.282
  0
LINE
  8
0
 10
3.48833
 20
171.282
 11
3.54076
 21
171.32
  0
LINE
  8
0
 10
3.54076
 20
171.32
 11
3.58412
 21
171.368
  0
LINE
  8
0
 10
3.58412
 20
171.368
 11
3.61653
 21
171.424
  0
LINE
  8
0
 10
3.61653
 20
171.424
 11
3.63655
 21
171.486
  0
LINE
  8
0
 10
3.63655
 20
171.486
 11
3.64333
 21
171.55
  0
LINE
  8
0
 10
3.64333
 20
171.55
 11
3.63655
 21
171.614
  0
LINE
  8
0
 10
3.63655
 20
171.614
 11
3.61653
 21
171.676
  0
LINE
  8
0
 10
3.61653
 20
171.676
 11
3.58412
 21
171.732
  0
LINE
  8
0
 10
3.58412
 20
171.732
 11
3.54076
 21
171.78
  0
LINE
  8
0
 10
3.54076
 20
171.78
 11
3.48833
 21
171.818
  0
LINE
  8
0
 10
3.48833
 20
171.818
 11
3.42912
 21
171.845
  0
LINE
  8
0
 10
3.42912
 20
171.845
 11
3.36572
 21
171.858
  0
LINE
  8
0
 10
3.36572
 20
171.858
 11
3.33333
 21
171.858
  0
LINE
  8
0
 10
3.33333
 20
171.858
 11
3.33333
 21
173.1
  0
LINE
  8
0
 10
3.33333
 20
173.1
 11
0
 21
173.1
  0
LINE
  8
0
 10
0
 20
173.1
 11
0
 21
166.667
  0
LINE
  8
0
 10
0
 20
166.667
 11
-1.24168
 21
166.667
  0
LINE
  8
0
 10
-1.24168
 20
166.667
 11
-1.24168
 21
166.699
  0
LINE
  8
0
 10
-1.24168
 20
166.699
 11
-1.25516
 21
166.762
  0
LINE
  8
0
 10
-1.25516
 20
166.762
 11
-1.28152
 21
166.822
  0
LINE
  8
0
 10
-1.28152
 20
166.822
 11
-1.31961
 21
166.874
  0
LINE
  8
0
 10
-1.31961
 20
166.874
 11
-1.36777
 21
166.917
  0
LINE
  8
0
 10
-1.36777
 20
166.917
 11
-1.4239
 21
166.95
  0
LINE
  8
0
 10
-1.4239
 20
166.95
 11
-1.48553
 21
166.97
  0
LINE
  8
0
 10
-1.48553
 20
166.97
 11
-1.54999
 21
166.977
  0
LINE
  8
0
 10
-1.54999
 20
166.977
 11
-1.61444
 21
166.97
  0
LINE
  8
0
 10
-1.61444
 20
166.97
 11
-1.67607
 21
166.95
  0
LINE
  8
0
 10
-1.67607
 20
166.95
 11
-1.73219
 21
166.917
  0
LINE
  8
0
 10
-1.73219
 20
166.917
 11
-1.78036
 21
166.874
  0
LINE
  8
0
 10
-1.78036
 20
166.874
 11
-1.81845
 21
166.822
  0
LINE
  8
0
 10
-1.81845
 20
166.822
 11
-1.84482
 21
166.762
  0
LINE
  8
0
 10
-1.84482
 20
166.762
 11
-1.85829
 21
166.699
  0
LINE
  8
0
 10
-1.85829
 20
166.699
 11
-1.85829
 21
166.667
  0
LINE
  8
0
 10
-1.85829
 20
166.667
 11
-3.09999
 21
166.667
  0
LINE
  8
0
 10
-3.09999
 20
166.667
 11
-3.09999
 21
163.333
  0
LINE
  8
0
 10
-3.09999
 20
163.333
 11
0
 21
163.333
  0
LINE
  8
0
 10
0
 20
163.333
 11
0
 21
160
  0
LINE
  8
0
 10
0
 20
160
 11
-1.24168
 21
160
  0
LINE
  8
0
 10
-1.24168
 20
160
 11
-1.24168
 21
160.032
  0
LINE
  8
0
 10
-1.24168
 20
160.032
 11
-1.25516
 21
160.096
  0
LINE
  8
0
 10
-1.25516
 20
160.096
 11
-1.28152
 21
160.155
  0
LINE
  8
0
 10
-1.28152
 20
160.155
 11
-1.31961
 21
160.207
  0
LINE
  8
0
 10
-1.31961
 20
160.207
 11
-1.36777
 21
160.251
  0
LINE
  8
0
 10
-1.36777
 20
160.251
 11
-1.4239
 21
160.283
  0
LINE
  8
0
 10
-1.4239
 20
160.283
 11
-1.48553
 21
160.303
  0
LINE
  8
0
 10
-1.48553
 20
160.303
 11
-1.54999
 21
160.31
  0
LINE
  8
0
 10
-1.54999
 20
160.31
 11
-1.61444
 21
160.303
  0
LINE
  8
0
 10
-1.61444
 20
160.303
 11
-1.67607
 21
160.283
  0
LINE
  8
0
 10
-1.67607
 20
160.283
 11
-1.73219
 21
160.251
  0
LINE
  8
0
 10
-1.73219
 20
160.251
 11
-1.78036
 21
160.207
  0
LINE
  8
0
 10
-1.78036
 20
160.207
 11
-1.81845
 21
160.155
  0
LINE
  8
0
 10
-1.81845
 20
160.155
 11
-1.84482
 21
160.096
  0
LINE
  8
0
 10
-1.84482
 20
160.096
 11
-1.85829
 21
160.032
  0
LINE
  8
0
 10
-1.85829
 20
160.032
 11
-1.85829
 21
160
  0
LINE
  8
0
 10
-1.85829
 20
160
 11
-3.09999
 21
160
  0
LINE
  8
0
 10
-3.09999
 20
160
 11
-3.09999
 21
156.667
  0
LINE
  8
0
 10
-3.09999
 20
156.667
 11
0
 21
156.667
  0
LINE
  8
0
 10
0
 20
156.667
 11
0
 21
153.333
  0
LINE
  8
0
 10
0
 20
153.333
 11
-1.24168
 21
153.333
  0
LINE
  8
0
 10
-1.24168
 20
153.333
 11
-1.24168
 21
153.366
  0
LINE
  8
0
 10
-1.24168
 20
153.366
 11
-1.25516
 21
153.429
  0
LINE
  8
0
 10
-1.25516
 20
153.429
 11
-1.28152
 21
153.488
  0
LINE
  8
0
 10
-1.28152
 20
153.488
 11
-1.31961
 21
153.541
  0
LINE
  8
0
 10
-1.31961
 20
153.541
 11
-1.36777
 21
153.584
  0
LINE
  8
0
 10
-1.36777
 20
153.584
 11
-1.4239
 21
153.617
  0
LINE
  8
0
 10
-1.4239
 20
153.617
 11
-1.48553
 21
153.637
  0
LINE
  8
0
 10
-1.48553
 20
153.637
 11
-1.54999
 21
153.643
  0
LINE
  8
0
 10
-1.54999
 20
153.643
 11
-1.61444
 21
153.637
  0
LINE
  8
0
 10
-1.61444
 20
153.637
 11
-1.67607
 21
153.617
  0
LINE
  8
0
 10
-1.67607
 20
153.617
 11
-1.73219
 21
153.584
  0
LINE
  8
0
 10
-1.73219
 20
153.584
 11
-1.78036
 21
153.541
  0
LINE
  8
0
 10
-1.78036
 20
153.541
 11
-1.81845
 21
153.488
  0
LINE
  8
0
 10
-1.81845
 20
153.488
 11
-1.84482
 21
153.429
  0
LINE
  8
0
 10
-1.84482
 20
153.429
 11
-1.85829
 21
153.366
  0
LINE
  8
0
 10
-1.85829
 20
153.366
 11
-1.85829
 21
153.333
  0
LINE
  8
0
 10
-1.85829
 20
153.333
 11
-3.09999
 21
153.333
  0
LINE
  8
0
 10
-3.09999
 20
153.333
 11
-3.09999
 21
150
  0
LINE
  8
0
 10
-3.09999
 20
150
 11
3.33334
 21
150
  0
LINE
  8
0
 10
3.33334
 20
150
 11
3.33334
 21
148.758
  0
LINE
  8
0
 10
3.33334
 20
148.758
 11
3.30095
 21
148.758
  0
LINE
  8
0
 10
3.30095
 20
148.758
 11
3.23755
 21
148.745
  0
LINE
  8
0
 10
3.23755
 20
148.745
 11
3.17834
 21
148.718
  0
LINE
  8
0
 10
3.17834
 20
148.718
 11
3.12592
 21
148.68
  0
LINE
  8
0
 10
3.12592
 20
148.68
 11
3.08255
 21
148.632
  0
LINE
  8
0
 10
3.08255
 20
148.632
 11
3.05014
 21
148.576
  0
LINE
  8
0
 10
3.05014
 20
148.576
 11
3.03012
 21
148.514
  0
LINE
  8
0
 10
3.03012
 20
148.514
 11
3.02335
 21
148.45
  0
LINE
  8
0
 10
3.02335
 20
148.45
 11
3.03012
 21
148.386
  0
LINE
  8
0
 10
3.03012
 20
148.386
 11
3.05014
 21
148.324
  0
LINE
  8
0
 10
3.05014
 20
148.324
 11
3.08255
 21
148.268
  0
LINE
  8
0
 10
3.08255
 20
148.268
 11
3.12592
 21
148.22
  0
LINE
  8
0
 10
3.12592
 20
148.22
 11
3.17834
 21
148.182
  0
LINE
  8
0
 10
3.17834
 20
148.182
 11
3.23755
 21
148.155
  0
LINE
  8
0
 10
3.23755
 20
148.155
 11
3.30095
 21
148.142
  0
LINE
  8
0
 10
3.30095
 20
148.142
 11
3.33334
 21
148.142
  0
LINE
  8
0
 10
3.33334
 20
148.142
 11
3.33334
 21
146.9
  0
LINE
  8
0
 10
3.33334
 20
146.9
 11
6.66667
 21
146.9
  0
LINE
  8
0
 10
6.66667
 20
146.9
 11
6.66667
 21
150
  0
LINE
  8
0
 10
14.8118
 20
163.21
 11
14.4438
 21
163.288
  0
LINE
  8
0
 10
14.4438
 20
163.288
 11
14.1
 21
163.441
  0
LINE
  8
0
 10
14.1
 20
163.441
 11
13.7956
 21
163.662
  0
LINE
  8
0
 10
13.7956
 20
163.662
 11
13.5438
 21
163.942
  0
LINE
  8
0
 10
13.5438
 20
163.942
 11
13.3556
 21
164.268
  0
LINE
  8
0
 10
13.3556
 20
164.268
 11
13.2393
 21
164.626
  0
LINE
  8
0
 10
13.2393
 20
164.626
 11
13.2
 21
165
  0
LINE
  8
0
 10
13.2
 20
165
 11
13.2393
 21
165.374
  0
LINE
  8
0
 10
13.2393
 20
165.374
 11
13.3556
 21
165.732
  0
LINE
  8
0
 10
13.3556
 20
165.732
 11
13.5438
 21
166.058
  0
LINE
  8
0
 10
13.5438
 20
166.058
 11
13.7956
 21
166.338
  0
LINE
  8
0
 10
13.7956
 20
166.338
 11
14.1
 21
166.559
  0
LINE
  8
0
 10
14.1
 20
166.559
 11
14.4438
 21
166.712
  0
LINE
  8
0
 10
14.4438
 20
166.712
 11
14.8118
 21
166.79
  0
LINE
  8
0
 10
14.8118
 20
166.79
 11
15.1881
 21
166.79
  0
LINE
  8
0
 10
15.1881
 20
166.79
 11
15.5562
 21
166.712
  0
LINE
  8
0
 10
15.5562
 20
166.712
 11
15.9
 21
166.559
  0
LINE
  8
0
 10
15.9
 20
166.559
 11
16.2044
 21
166.338
  0
LINE
  8
0
 10
16.2044
 20
166.338
 11
16.4562
 21
166.058
  0
LINE
  8
0
 10
16.4562
 20
166.058
 11
16.6444
 21
165.732
  0
LINE
  8
0
 10
16.6444
 20
165.732
 11
16.7607
 21
165.374
  0
LINE
  8
0
 10
16.7607
 20
165.374
 11
16.8
 21
165
  0
LINE
  8
0
 10
16.8
 20
165
 11
16.7607
 21
164.626
  0
LINE
  8
0
 10
16.7607
 20
164.626
 11
16.6444
 21
164.268
  0
LINE
  8
0
 10
16.6444
 20
164.268
 11
16.4562
 21
163.942
  0
LINE
  8
0
 10
16.4562
 20
163.942
 11
16.2044
 21
163.662
  0
LINE
  8
0
 10
16.2044
 20
163.662
 11
15.9
 21
163.441
  0
LINE
  8
0
 10
15.9
 20
163.441
 11
15.5562
 21
163.288
  0
LINE
  8
0
 10
15.5562
 20
163.288
 11
15.1881
 21
163.21
  0
LINE
  8
0
 10
15.1881
 20
163.21
 11
14.8118
 21
163.21
  0
LINE
  8
0
 10
4.81184
 20
163.21
 11
4.44376
 21
163.288
  0
LINE
  8
0
 10
4.44376
 20
163.288
 11
4.09999
 21
163.441
  0
LINE
  8
0
 10
4.09999
 20
163.441
 11
3.79556
 21
163.662
  0
LINE
  8
0
 10
3.79556
 20
163.662
 11
3.54376
 21
163.942
  0
LINE
  8
0
 10
3.54376
 20
163.942
 11
3.35561
 21
164.268
  0
LINE
  8
0
 10
3.35561
 20
164.268
 11
3.23933
 21
164.626
  0
LINE
  8
0
 10
3.23933
 20
164.626
 11
3.2
 21
165
  0
LINE
  8
0
 10
3.2
 20
165
 11
3.23933
 21
165.374
  0
LINE
  8
0
 10
3.23933
 20
165.374
 11
3.35561
 21
165.732
  0
LINE
  8
0
 10
3.35561
 20
165.732
 11
3.54376
 21
166.058
  0
LINE
  8
0
 10
3.54376
 20
166.058
 11
3.79556
 21
166.338
  0
LINE
  8
0
 10
3.79556
 20
166.338
 11
4.09999
 21
166.559
  0
LINE
  8
0
 10
4.09999
 20
166.559
 11
4.44376
 21
166.712
  0
LINE
  8
0
 10
4.44376
 20
166.712
 11
4.81184
 21
166.79
  0
LINE
  8
0
 10
4.81184
 20
166.79
 11
5.18814
 21
166.79
  0
LINE
  8
0
 10
5.18814
 20
166.79
 11
5.55623
 21
166.712
  0
LINE
  8
0
 10
5.55623
 20
166.712
 11
5.89999
 21
166.559
  0
LINE
  8
0
 10
5.89999
 20
166.559
 11
6.20442
 21
166.338
  0
LINE
  8
0
 10
6.20442
 20
166.338
 11
6.45622
 21
166.058
  0
LINE
  8
0
 10
6.45622
 20
166.058
 11
6.64438
 21
165.732
  0
LINE
  8
0
 10
6.64438
 20
165.732
 11
6.76065
 21
165.374
  0
LINE
  8
0
 10
6.76065
 20
165.374
 11
6.79999
 21
165
  0
LINE
  8
0
 10
6.79999
 20
165
 11
6.76065
 21
164.626
  0
LINE
  8
0
 10
6.76065
 20
164.626
 11
6.64438
 21
164.268
  0
LINE
  8
0
 10
6.64438
 20
164.268
 11
6.45622
 21
163.942
  0
LINE
  8
0
 10
6.45622
 20
163.942
 11
6.20442
 21
163.662
  0
LINE
  8
0
 10
6.20442
 20
163.662
 11
5.89999
 21
163.441
  0
LINE
  8
0
 10
5.89999
 20
163.441
 11
5.55623
 21
163.288
  0
LINE
  8
0
 10
5.55623
 20
163.288
 11
5.18814
 21
163.21
  0
LINE
  8
0
 10
5.18814
 20
163.21
 11
4.81184
 21
163.21
  0
LINE
  8
0
 10
14.8118
 20
158.21
 11
14.4438
 21
158.288
  0
LINE
  8
0
 10
14.4438
 20
158.288
 11
14.1
 21
158.441
  0
LINE
  8
0
 10
14.1
 20
158.441
 11
13.7956
 21
158.662
  0
LINE
  8
0
 10
13.7956
 20
158.662
 11
13.5438
 21
158.942
  0
LINE
  8
0
 10
13.5438
 20
158.942
 11
13.3556
 21
159.268
  0
LINE
  8
0
 10
13.3556
 20
159.268
 11
13.2393
 21
159.626
  0
LINE
  8
0
 10
13.2393
 20
159.626
 11
13.2
 21
160
  0
LINE
  8
0
 10
13.2
 20
160
 11
13.2393
 21
160.374
  0
LINE
  8
0
 10
13.2393
 20
160.374
 11
13.3556
 21
160.732
  0
LINE
  8
0
 10
13.3556
 20
160.732
 11
13.5438
 21
161.058
  0
LINE
  8
0
 10
13.5438
 20
161.058
 11
13.7956
 21
161.338
  0
LINE
  8
0
 10
13.7956
 20
161.338
 11
14.1
 21
161.559
  0
LINE
  8
0
 10
14.1
 20
161.559
 11
14.4438
 21
161.712
  0
LINE
  8
0
 10
14.4438
 20
161.712
 11
14.8118
 21
161.79
  0
LINE
  8
0
 10
14.8118
 20
161.79
 11
15.1881
 21
161.79
  0
LINE
  8
0
 10
15.1881
 20
161.79
 11
15.5562
 21
161.712
  0
LINE
  8
0
 10
15.5562
 20
161.712
 11
15.9
 21
161.559
  0
LINE
  8
0
 10
15.9
 20
161.559
 11
16.2044
 21
161.338
  0
LINE
  8
0
 10
16.2044
 20
161.338
 11
16.4562
 21
161.058
  0
LINE
  8
0
 10
16.4562
 20
161.058
 11
16.6444
 21
160.732
  0
LINE
  8
0
 10
16.6444
 20
160.732
 11
16.7607
 21
160.374
  0
LINE
  8
0
 10
16.7607
 20
160.374
 11
16.8
 21
160
  0
LINE
  8
0
 10
16.8
 20
160
 11
16.7607
 21
159.626
  0
LINE
  8
0
 10
16.7607
 20
159.626
 11
16.6444
 21
159.268
  0
LINE
  8
0
 10
16.6444
 20
159.268
 11
16.4562
 21
158.942
  0
LINE
  8
0
 10
16.4562
 20
158.942
 11
16.2044
 21
158.662
  0
LINE
  8
0
 10
16.2044
 20
158.662
 11
15.9
 21
158.441
  0
LINE
  8
0
 10
15.9
 20
158.441
 11
15.5562
 21
158.288
  0
LINE
  8
0
 10
15.5562
 20
158.288
 11
15.1881
 21
158.21
  0
LINE
  8
0
 10
15.1881
 20
158.21
 11
14.8118
 21
158.21
  0
LINE
  8
0
 10
4.81184
 20
158.21
 11
4.44376
 21
158.288
  0
LINE
  8
0
 10
4.44376
 20
158.288
 11
4.09999
 21
158.441
  0
LINE
  8
0
 10
4.09999
 20
158.441
 11
3.79556
 21
158.662
  0
LINE
  8
0
 10
3.79556
 20
158.662
 11
3.54376
 21
158.942
  0
LINE
  8
0
 10
3.54376
 20
158.942
 11
3.35561
 21
159.268
  0
LINE
  8
0
 10
3.35561
 20
159.268
 11
3.23933
 21
159.626
  0
LINE
  8
0
 10
3.23933
 20
159.626
 11
3.2
 21
160
  0
LINE
  8
0
 10
3.2
 20
160
 11
3.23933
 21
160.374
  0
LINE
  8
0
 10
3.23933
 20
160.374
 11
3.35561
 21
160.732
  0
LINE
  8
0
 10
3.35561
 20
160.732
 11
3.54376
 21
161.058
  0
LINE
  8
0
 10
3.54376
 20
161.058
 11
3.79556
 21
161.338
  0
LINE
  8
0
 10
3.79556
 20
161.338
 11
4.09999
 21
161.559
  0
LINE
  8
0
 10
4.09999
 20
161.559
 11
4.44376
 21
161.712
  0
LINE
  8
0
 10
4.44376
 20
161.712
 11
4.81184
 21
161.79
  0
LINE
  8
0
 10
4.81184
 20
161.79
 11
5.18814
 21
161.79
  0
LINE
  8
0
 10
5.18814
 20
161.79
 11
5.55623
 21
161.712
  0
LINE
  8
0
 10
5.55623
 20
161.712
 11
5.89999
 21
161.559
  0
LINE
  8
0
 10
5.89999
 20
161.559
 11
6.20442
 21
161.338
  0
LINE
  8
0
 10
6.20442
 20
161.338
 11
6.45622
 21
161.058
  0
LINE
  8
0
 10
6.45622
 20
161.058
 11
6.64438
 21
160.732
  0
LINE
  8
0
 10
6.64438
 20
160.732
 11
6.76065
 21
160.374
  0
LINE
  8
0
 10
6.76065
 20
160.374
 11
6.79999
 21
160
  0
LINE
  8
0
 10
6.79999
 20
160
 11
6.76065
 21
159.626
  0
LINE
  8
0
 10
6.76065
 20
159.626
 11
6.64438
 21
159.268
  0
LINE
  8
0
 10
6.64438
 20
159.268
 11
6.45622
 21
158.942
  0
LINE
  8
0
 10
6.45622
 20
158.942
 11
6.20442
 21
158.662
  0
LINE
  8
0
 10
6.20442
 20
158.662
 11
5.89999
 21
158.441
  0
LINE
  8
0
 10
5.89999
 20
158.441
 11
5.55623
 21
158.288
  0
LINE
  8
0
 10
5.55623
 20
158.288
 11
5.18814
 21
158.21
  0
LINE
  8
0
 10
5.18814
 20
158.21
 11
4.81184
 21
158.21
  0
LINE
  8
0
 10
14.8118
 20
153.21
 11
14.4438
 21
153.288
  0
LINE
  8
0
 10
14.4438
 20
153.288
 11
14.1
 21
153.441
  0
LINE
  8
0
 10
14.1
 20
153.441
 11
13.7956
 21
153.662
  0
LINE
  8
0
 10
13.7956
 20
153.662
 11
13.5438
 21
153.942
  0
LINE
  8
0
 10
13.5438
 20
153.942
 11
13.3556
 21
154.268
  0
LINE
  8
0
 10
13.3556
 20
154.268
 11
13.2393
 21
154.626
  0
LINE
  8
0
 10
13.2393
 20
154.626
 11
13.2
 21
155
  0
LINE
  8
0
 10
13.2
 20
155
 11
13.2393
 21
155.374
  0
LINE
  8
0
 10
13.2393
 20
155.374
 11
13.3556
 21
155.732
  0
LINE
  8
0
 10
13.3556
 20
155.732
 11
13.5438
 21
156.058
  0
LINE
  8
0
 10
13.5438
 20
156.058
 11
13.7956
 21
156.338
  0
LINE
  8
0
 10
13.7956
 20
156.338
 11
14.1
 21
156.559
  0
LINE
  8
0
 10
14.1
 20
156.559
 11
14.4438
 21
156.712
  0
LINE
  8
0
 10
14.4438
 20
156.712
 11
14.8118
 21
156.79
  0
LINE
  8
0
 10
14.8118
 20
156.79
 11
15.1881
 21
156.79
  0
LINE
  8
0
 10
15.1881
 20
156.79
 11
15.5562
 21
156.712
  0
LINE
  8
0
 10
15.5562
 20
156.712
 11
15.9
 21
156.559
  0
LINE
  8
0
 10
15.9
 20
156.559
 11
16.2044
 21
156.338
  0
LINE
  8
0
 10
16.2044
 20
156.338
 11
16.4562
 21
156.058
  0
LINE
  8
0
 10
16.4562
 20
156.058
 11
16.6444
 21
155.732
  0
LINE
  8
0
 10
16.6444
 20
155.732
 11
16.7607
 21
155.374
  0
LINE
  8
0
 10
16.7607
 20
155.374
 11
16.8
 21
155
  0
LINE
  8
0
 10
16.8
 20
155
 11
16.7607
 21
154.626
  0
LINE
  8
0
 10
16.7607
 20
154.626
 11
16.6444
 21
154.268
  0
LINE
  8
0
 10
16.6444
 20
154.268
 11
16.4562
 21
153.942
  0
LINE
  8
0
 10
16.4562
 20
153.942
 11
16.2044
 21
153.662
  0
LINE
  8
0
 10
16.2044
 20
153.662
 11
15.9
 21
153.441
  0
LINE
  8
0
 10
15.9
 20
153.441
 11
15.5562
 21
153.288
  0
LINE
  8
0
 10
15.5562
 20
153.288
 11
15.1881
 21
153.21
  0
LINE
  8
0
 10
15.1881
 20
153.21
 11
14.8118
 21
153.21
  0
LINE
  8
0
 10
4.81184
 20
153.21
 11
4.44376
 21
153.288
  0
LINE
  8
0
 10
4.44376
 20
153.288
 11
4.09999
 21
153.441
  0
LINE
  8
0
 10
4.09999
 20
153.441
 11
3.79556
 21
153.662
  0
LINE
  8
0
 10
3.79556
 20
153.662
 11
3.54376
 21
153.942
  0
LINE
  8
0
 10
3.54376
 20
153.942
 11
3.35561
 21
154.268
  0
LINE
  8
0
 10
3.35561
 20
154.268
 11
3.23933
 21
154.626
  0
LINE
  8
0
 10
3.23933
 20
154.626
 11
3.2
 21
155
  0
LINE
  8
0
 10
3.2
 20
155
 11
3.23933
 21
155.374
  0
LINE
  8
0
 10
3.23933
 20
155.374
 11
3.35561
 21
155.732
  0
LINE
  8
0
 10
3.35561
 20
155.732
 11
3.54376
 21
156.058
  0
LINE
  8
0
 10
3.54376
 20
156.058
 11
3.79556
 21
156.338
  0
LINE
  8
0
 10
3.79556
 20
156.338
 11
4.09999
 21
156.559
  0
LINE
  8
0
 10
4.09999
 20
156.559
 11
4.44376
 21
156.712
  0
LINE
  8
0
 10
4.44376
 20
156.712
 11
4.81184
 21
156.79
  0
LINE
  8
0
 10
4.81184
 20
156.79
 11
5.18814
 21
156.79
  0
LINE
  8
0
 10
5.18814
 20
156.79
 11
5.55623
 21
156.712
  0
LINE
  8
0
 10
5.55623
 20
156.712
 11
5.89999
 21
156.559
  0
LINE
  8
0
 10
5.89999
 20
156.559
 11
6.20442
 21
156.338
  0
LINE
  8
0
 10
6.20442
 20
156.338
 11
6.45622
 21
156.058
  0
LINE
  8
0
 10
6.45622
 20
156.058
 11
6.64438
 21
155.732
  0
LINE
  8
0
 10
6.64438
 20
155.732
 11
6.76065
 21
155.374
  0
LINE
  8
0
 10
6.76065
 20
155.374
 11
6.79999
 21
155
  0
LINE
  8
0
 10
6.79999
 20
155
 11
6.76065
 21
154.626
  0
LINE
  8
0
 10
6.76065
 20
154.626
 11
6.64438
 21
154.268
  0
LINE
  8
0
 10
6.64438
 20
154.268
 11
6.45622
 21
153.942
  0
LINE
  8
0
 10
6.45622
 20
153.942
 11
6.20442
 21
153.662
  0
LINE
  8
0
 10
6.20442
 20
153.662
 11
5.89999
 21
153.441
  0
LINE
  8
0
 10
5.89999
 20
153.441
 11
5.55623
 21
153.288
  0
LINE
  8
0
 10
5.55623
 20
153.288
 11
5.18814
 21
153.21
  0
LINE
  8
0
 10
5.18814
 20
153.21
 11
4.81184
 21
153.21
  0
LINE
  8
0
 10
6.66667
 20
120
 11
10
 21
120
  0
LINE
  8
0
 10
10
 20
120
 11
10
 21
118.758
  0
LINE
  8
0
 10
10
 20
118.758
 11
9.96762
 21
118.758
  0
LINE
  8
0
 10
9.96762
 20
118.758
 11
9.90422
 21
118.745
  0
LINE
  8
0
 10
9.90422
 20
118.745
 11
9.84502
 21
118.718
  0
LINE
  8
0
 10
9.84502
 20
118.718
 11
9.79259
 21
118.68
  0
LINE
  8
0
 10
9.79259
 20
118.68
 11
9.74922
 21
118.632
  0
LINE
  8
0
 10
9.74922
 20
118.632
 11
9.71681
 21
118.576
  0
LINE
  8
0
 10
9.71681
 20
118.576
 11
9.69679
 21
118.514
  0
LINE
  8
0
 10
9.69679
 20
118.514
 11
9.69002
 21
118.45
  0
LINE
  8
0
 10
9.69002
 20
118.45
 11
9.69679
 21
118.386
  0
LINE
  8
0
 10
9.69679
 20
118.386
 11
9.71681
 21
118.324
  0
LINE
  8
0
 10
9.71681
 20
118.324
 11
9.74922
 21
118.268
  0
LINE
  8
0
 10
9.74922
 20
118.268
 11
9.79259
 21
118.22
  0
LINE
  8
0
 10
9.79259
 20
118.22
 11
9.84502
 21
118.182
  0
LINE
  8
0
 10
9.84502
 20
118.182
 11
9.90422
 21
118.155
  0
LINE
  8
0
 10
9.90422
 20
118.155
 11
9.96762
 21
118.142
  0
LINE
  8
0
 10
9.96762
 20
118.142
 11
10
 21
118.142
  0
LINE
  8
0
 10
10
 20
118.142
 11
10
 21
116.9
  0
LINE
  8
0
 10
10
 20
116.9
 11
13.3333
 21
116.9
  0
LINE
  8
0
 10
13.3333
 20
116.9
 11
13.3333
 21
120
  0
LINE
  8
0
 10
13.3333
 20
120
 11
16.6667
 21
120
  0
LINE
  8
0
 10
16.6667
 20
120
 11
16.6667
 21
118.758
  0
LINE
  8
0
 10
16.6667
 20
118.758
 11
16.6343
 21
118.758
  0
LINE
  8
0
 10
16.6343
 20
118.758
 11
16.5709
 21
118.745
  0
LINE
  8
0
 10
16.5709
 20
118.745
 11
16.5117
 21
118.718
  0
LINE
  8
0
 10
16.5117
 20
118.718
 11
16.4592
 21
118.68
  0
LINE
  8
0
 10
16.4592
 20
118.68
 11
16.4159
 21
118.632
  0
LINE
  8
0
 10
16.4159
 20
118.632
 11
16.3835
 21
118.576
  0
LINE
  8
0
 10
16.3835
 20
118.576
 11
16.3634
 21
118.514
  0
LINE
  8
0
 10
16.3634
 20
118.514
 11
16.3567
 21
118.45
  0
LINE
  8
0
 10
16.3567
 20
118.45
 11
16.3634
 21
118.386
  0
LINE
  8
0
 10
16.3634
 20
118.386
 11
16.3835
 21
118.324
  0
LINE
  8
0
 10
16.3835
 20
118.324
 11
16.4159
 21
118.268
  0
LINE
  8
0
 10
16.4159
 20
118.268
 11
16.4592
 21
118.22
  0
LINE
  8
0
 10
16.4592
 20
118.22
 11
16.5117
 21
118.182
  0
LINE
  8
0
 10
16.5117
 20
118.182
 11
16.5709
 21
118.155
  0
LINE
  8
0
 10
16.5709
 20
118.155
 11
16.6343
 21
118.142
  0
LINE
  8
0
 10
16.6343
 20
118.142
 11
16.6667
 21
118.142
  0
LINE
  8
0
 10
16.6667
 20
118.142
 11
16.6667
 21
116.9
  0
LINE
  8
0
 10
16.6667
 20
116.9
 11
20
 21
116.9
  0
LINE
  8
0
 10
20
 20
116.9
 11
20
 21
123.333
  0
LINE
  8
0
 10
20
 20
123.333
 11
21.2417
 21
123.333
  0
LINE
  8
0
 10
21.2417
 20
123.333
 11
21.2417
 21
123.301
  0
LINE
  8
0
 10
21.2417
 20
123.301
 11
21.2552
 21
123.238
  0
LINE
  8
0
 10
21.2552
 20
123.238
 11
21.2815
 21
123.178
  0
LINE
  8
0
 10
21.2815
 20
123.178
 11
21.3196
 21
123.126
  0
LINE
  8
0
 10
21.3196
 20
123.126
 11
21.3678
 21
123.083
  0
LINE
  8
0
 10
21.3678
 20
123.083
 11
21.4239
 21
123.05
  0
LINE
  8
0
 10
21.4239
 20
123.05
 11
21.4855
 21
123.03
  0
LINE
  8
0
 10
21.4855
 20
123.03
 11
21.55
 21
123.023
  0
LINE
  8
0
 10
21.55
 20
123.023
 11
21.6144
 21
123.03
  0
LINE
  8
0
 10
21.6144
 20
123.03
 11
21.6761
 21
123.05
  0
LINE
  8
0
 10
21.6761
 20
123.05
 11
21.7322
 21
123.083
  0
LINE
  8
0
 10
21.7322
 20
123.083
 11
21.7804
 21
123.126
  0
LINE
  8
0
 10
21.7804
 20
123.126
 11
21.8185
 21
123.178
  0
LINE
  8
0
 10
21.8185
 20
123.178
 11
21.8448
 21
123.238
  0
LINE
  8
0
 10
21.8448
 20
123.238
 11
21.8583
 21
123.301
  0
LINE
  8
0
 10
21.8583
 20
123.301
 11
21.8583
 21
123.333
  0
LINE
  8
0
 10
21.8583
 20
123.333
 11
23.1
 21
123.333
  0
LINE
  8
0
 10
23.1
 20
123.333
 11
23.1
 21
126.667
  0
LINE
  8
0
 10
23.1
 20
126.667
 11
20
 21
126.667
  0
LINE
  8
0
 10
20
 20
126.667
 11
20
 21
130
  0
LINE
  8
0
 10
20
 20
130
 11
21.2417
 21
130
  0
LINE
  8
0
 10
21.2417
 20
130
 11
21.2417
 21
129.968
  0
LINE
  8
0
 10
21.2417
 20
129.968
 11
21.2552
 21
129.904
  0
LINE
  8
0
 10
21.2552
 20
129.904
 11
21.2815
 21
129.845
  0
LINE
  8
0
 10
21.2815
 20
129.845
 11
21.3196
 21
129.793
  0
LINE
  8
0
 10
21.3196
 20
129.793
 11
21.3678
 21
129.749
  0
LINE
  8
0
 10
21.3678
 20
129.749
 11
21.4239
 21
129.717
  0
LINE
  8
0
 10
21.4239
 20
129.717
 11
21.4855
 21
129.697
  0
LINE
  8
0
 10
21.4855
 20
129.697
 11
21.55
 21
129.69
  0
LINE
  8
0
 10
21.55
 20
129.69
 11
21.6144
 21
129.697
  0
LINE
  8
0
 10
21.6144
 20
129.697
 11
21.6761
 21
129.717
  0
LINE
  8
0
 10
21.6761
 20
129.717
 11
21.7322
 21
129.749
  0
LINE
  8
0
 10
21.7322
 20
129.749
 11
21.7804
 21
129.793
  0
LINE
  8
0
 10
21.7804
 20
129.793
 11
21.8185
 21
129.845
  0
LINE
  8
0
 10
21.8185
 20
129.845
 11
21.8448
 21
129.904
  0
LINE
  8
0
 10
21.8448
 20
129.904
 11
21.8583
 21
129.968
  0
LINE
  8
0
 10
21.8583
 20
129.968
 11
21.8583
 21
130
  0
LINE
  8
0
 10
21.8583
 20
130
 11
23.1
 21
130
  0
LINE
  8
0
 10
23.1
 20
130
 11
23.1
 21
133.333
  0
LINE
  8
0
 10
23.1
 20
133.333
 11
20
 21
133.333
  0
LINE
  8
0
 10
20
 20
133.333
 11
20
 21
136.667
  0
LINE
  8
0
 10
20
 20
136.667
 11
21.2417
 21
136.667
  0
LINE
  8
0
 10
21.2417
 20
136.667
 11
21.2417
 21
136.634
  0
LINE
  8
0
 10
21.2417
 20
136.634
 11
21.2552
 21
136.571
  0
LINE
  8
0
 10
21.2552
 20
136.571
 11
21.2815
 21
136.512
  0
LINE
  8
0
 10
21.2815
 20
136.512
 11
21.3196
 21
136.459
  0
LINE
  8
0
 10
21.3196
 20
136.459
 11
21.3678
 21
136.416
  0
LINE
  8
0
 10
21.3678
 20
136.416
 11
21.4239
 21
136.383
  0
LINE
  8
0
 10
21.4239
 20
136.383
 11
21.4855
 21
136.363
  0
LINE
  8
0
 10
21.4855
 20
136.363
 11
21.55
 21
136.357
  0
LINE
  8
0
 10
21.55
 20
136.357
 11
21.6144
 21
136.363
  0
LINE
  8
0
 10
21.6144
 20
136.363
 11
21.6761
 21
136.383
  0
LINE
  8
0
 10
21.6761
 20
136.383
 11
21.7322
 21
136.416
  0
LINE
  8
0
 10
21.7322
 20
136.416
 11
21.7804
 21
136.459
  0
LINE
  8
0
 10
21.7804
 20
136.459
 11
21.8185
 21
136.512
  0
LINE
  8
0
 10
21.8185
 20
136.512
 11
21.8448
 21
136.571
  0
LINE
  8
0
 10
21.8448
 20
136.571
 11
21.8583
 21
136.634
  0
LINE
  8
0
 10
21.8583
 20
136.634
 11
21.8583
 21
136.667
  0
LINE
  8
0
 10
21.8583
 20
136.667
 11
23.1
 21
136.667
  0
LINE
  8
0
 10
23.1
 20
136.667
 11
23.1
 21
140
  0
LINE
  8
0
 10
23.1
 20
140
 11
16.6667
 21
140
  0
LINE
  8
0
 10
16.6667
 20
140
 11
16.6667
 21
141.242
  0
LINE
  8
0
 10
16.6667
 20
141.242
 11
16.6991
 21
141.242
  0
LINE
  8
0
 10
16.6991
 20
141.242
 11
16.7625
 21
141.255
  0
LINE
  8
0
 10
16.7625
 20
141.255
 11
16.8217
 21
141.282
  0
LINE
  8
0
 10
16.8217
 20
141.282
 11
16.8741
 21
141.32
  0
LINE
  8
0
 10
16.8741
 20
141.32
 11
16.9174
 21
141.368
  0
LINE
  8
0
 10
16.9174
 20
141.368
 11
16.9499
 21
141.424
  0
LINE
  8
0
 10
16.9499
 20
141.424
 11
16.9699
 21
141.486
  0
LINE
  8
0
 10
16.9699
 20
141.486
 11
16.9767
 21
141.55
  0
LINE
  8
0
 10
16.9767
 20
141.55
 11
16.9699
 21
141.614
  0
LINE
  8
0
 10
16.9699
 20
141.614
 11
16.9499
 21
141.676
  0
LINE
  8
0
 10
16.9499
 20
141.676
 11
16.9174
 21
141.732
  0
LINE
  8
0
 10
16.9174
 20
141.732
 11
16.8741
 21
141.78
  0
LINE
  8
0
 10
16.8741
 20
141.78
 11
16.8217
 21
141.818
  0
LINE
  8
0
 10
16.8217
 20
141.818
 11
16.7625
 21
141.845
  0
LINE
  8
0
 10
16.7625
 20
141.845
 11
16.6991
 21
141.858
  0
LINE
  8
0
 10
16.6991
 20
141.858
 11
16.6667
 21
141.858
  0
LINE
  8
0
 10
16.6667
 20
141.858
 11
16.6667
 21
143.1
  0
LINE
  8
0
 10
16.6667
 20
143.1
 11
13.3333
 21
143.1
  0
LINE
  8
0
 10
13.3333
 20
143.1
 11
13.3333
 21
140
  0
LINE
  8
0
 10
13.3333
 20
140
 11
9.99998
 21
140
  0
LINE
  8
0
 10
9.99998
 20
140
 11
9.99998
 21
141.242
  0
LINE
  8
0
 10
9.99998
 20
141.242
 11
10.0324
 21
141.242
  0
LINE
  8
0
 10
10.0324
 20
141.242
 11
10.0958
 21
141.255
  0
LINE
  8
0
 10
10.0958
 20
141.255
 11
10.155
 21
141.282
  0
LINE
  8
0
 10
10.155
 20
141.282
 11
10.2074
 21
141.32
  0
LINE
  8
0
 10
10.2074
 20
141.32
 11
10.2508
 21
141.368
  0
LINE
  8
0
 10
10.2508
 20
141.368
 11
10.2832
 21
141.424
  0
LINE
  8
0
 10
10.2832
 20
141.424
 11
10.3032
 21
141.486
  0
LINE
  8
0
 10
10.3032
 20
141.486
 11
10.31
 21
141.55
  0
LINE
  8
0
 10
10.31
 20
141.55
 11
10.3032
 21
141.614
  0
LINE
  8
0
 10
10.3032
 20
141.614
 11
10.2832
 21
141.676
  0
LINE
  8
0
 10
10.2832
 20
141.676
 11
10.2508
 21
141.732
  0
LINE
  8
0
 10
10.2508
 20
141.732
 11
10.2074
 21
141.78
  0
LINE
  8
0
 10
10.2074
 20
141.78
 11
10.155
 21
141.818
  0
LINE
  8
0
 10
10.155
 20
141.818
 11
10.0958
 21
141.845
  0
LINE
  8
0
 10
10.0958
 20
141.845
 11
10.0324
 21
141.858
  0
LINE
  8
0
 10
10.0324
 20
141.858
 11
9.99998
 21
141.858
  0
LINE
  8
0
 10
9.99998
 20
141.858
 11
9.99998
 21
143.1
  0
LINE
  8
0
 10
9.99998
 20
143.1
 11
6.66666
 21
143.1
  0
LINE
  8
0
 10
6.66666
 20
143.1
 11
6.66666
 21
140
  0
LINE
  8
0
 10
6.66666
 20
140
 11
3.33333
 21
140
  0
LINE
  8
0
 10
3.33333
 20
140
 11
3.33333
 21
141.242
  0
LINE
  8
0
 10
3.33333
 20
141.242
 11
3.36572
 21
141.242
  0
LINE
  8
0
 10
3.36572
 20
141.242
 11
3.42912
 21
141.255
  0
LINE
  8
0
 10
3.42912
 20
141.255
 11
3.48833
 21
141.282
  0
LINE
  8
0
 10
3.48833
 20
141.282
 11
3.54076
 21
141.32
  0
LINE
  8
0
 10
3.54076
 20
141.32
 11
3.58412
 21
141.368
  0
LINE
  8
0
 10
3.58412
 20
141.368
 11
3.61653
 21
141.424
  0
LINE
  8
0
 10
3.61653
 20
141.424
 11
3.63655
 21
141.486
  0
LINE
  8
0
 10
3.63655
 20
141.486
 11
3.64333
 21
141.55
  0
LINE
  8
0
 10
3.64333
 20
141.55
 11
3.63655
 21
141.614
  0
LINE
  8
0
 10
3.63655
 20
141.614
 11
3.61653
 21
141.676
  0
LINE
  8
0
 10
3.61653
 20
141.676
 11
3.58412
 21
141.732
  0
LINE
  8
0
 10
3.58412
 20
141.732
 11
3.54076
 21
141.78
  0
LINE
  8
0
 10
3.54076
 20
141.78
 11
3.48833
 21
141.818
  0
LINE
  8
0
 10
3.48833
 20
141.818
 11
3.42912
 21
141.845
  0
LINE
  8
0
 10
3.42912
 20
141.845
 11
3.36572
 21
141.858
  0
LINE
  8
0
 10
3.36572
 20
141.858
 11
3.33333
 21
141.858
  0
LINE
  8
0
 10
3.33333
 20
141.858
 11
3.33333
 21
143.1
  0
LINE
  8
0
 10
3.33333
 20
143.1
 11
0
 21
143.1
  0
LINE
  8
0
 10
0
 20
143.1
 11
0
 21
136.667
  0
LINE
  8
0
 10
0
 20
136.667
 11
-1.24168
 21
136.667
  0
LINE
  8
0
 10
-1.24168
 20
136.667
 11
-1.24168
 21
136.699
  0
LINE
  8
0
 10
-1.24168
 20
136.699
 11
-1.25516
 21
136.762
  0
LINE
  8
0
 10
-1.25516
 20
136.762
 11
-1.28152
 21
136.822
  0
LINE
  8
0
 10
-1.28152
 20
136.822
 11
-1.31961
 21
136.874
  0
LINE
  8
0
 10
-1.31961
 20
136.874
 11
-1.36777
 21
136.917
  0
LINE
  8
0
 10
-1.36777
 20
136.917
 11
-1.4239
 21
136.95
  0
LINE
  8
0
 10
-1.4239
 20
136.95
 11
-1.48553
 21
136.97
  0
LINE
  8
0
 10
-1.48553
 20
136.97
 11
-1.54999
 21
136.977
  0
LINE
  8
0
 10
-1.54999
 20
136.977
 11
-1.61444
 21
136.97
  0
LINE
  8
0
 10
-1.61444
 20
136.97
 11
-1.67607
 21
136.95
  0
LINE
  8
0
 10
-1.67607
 20
136.95
 11
-1.73219
 21
136.917
  0
LINE
  8
0
 10
-1.73219
 20
136.917
 11
-1.78036
 21
136.874
  0
LINE
  8
0
 10
-1.78036
 20
136.874
 11
-1.81845
 21
136.822
  0
LINE
  8
0
 10
-1.81845
 20
136.822
 11
-1.84482
 21
136.762
  0
LINE
  8
0
 10
-1.84482
 20
136.762
 11
-1.85829
 21
136.699
  0
LINE
  8
0
 10
-1.85829
 20
136.699
 11
-1.85829
 21
136.667
  0
LINE
  8
0
 10
-1.85829
 20
136.667
 11
-3.09999
 21
136.667
  0
LINE
  8
0
 10
-3.09999
 20
136.667
 11
-3.09999
 21
133.333
  0
LINE
  8
0
 10
-3.09999
 20
133.333
 11
0
 21
133.333
  0
LINE
  8
0
 10
0
 20
133.333
 11
0
 21
130
  0
LINE
  8
0
 10
0
 20
130
 11
-1.24168
 21
130
  0
LINE
  8
0
 10
-1.24168
 20
130
 11
-1.24168
 21
130.032
  0
LINE
  8
0
 10
-1.24168
 20
130.032
 11
-1.25516
 21
130.096
  0
LINE
  8
0
 10
-1.25516
 20
130.096
 11
-1.28152
 21
130.155
  0
LINE
  8
0
 10
-1.28152
 20
130.155
 11
-1.31961
 21
130.207
  0
LINE
  8
0
 10
-1.31961
 20
130.207
 11
-1.36777
 21
130.251
  0
LINE
  8
0
 10
-1.36777
 20
130.251
 11
-1.4239
 21
130.283
  0
LINE
  8
0
 10
-1.4239
 20
130.283
 11
-1.48553
 21
130.303
  0
LINE
  8
0
 10
-1.48553
 20
130.303
 11
-1.54999
 21
130.31
  0
LINE
  8
0
 10
-1.54999
 20
130.31
 11
-1.61444
 21
130.303
  0
LINE
  8
0
 10
-1.61444
 20
130.303
 11
-1.67607
 21
130.283
  0
LINE
  8
0
 10
-1.67607
 20
130.283
 11
-1.73219
 21
130.251
  0
LINE
  8
0
 10
-1.73219
 20
130.251
 11
-1.78036
 21
130.207
  0
LINE
  8
0
 10
-1.78036
 20
130.207
 11
-1.81845
 21
130.155
  0
LINE
  8
0
 10
-1.81845
 20
130.155
 11
-1.84482
 21
130.096
  0
LINE
  8
0
 10
-1.84482
 20
130.096
 11
-1.85829
 21
130.032
  0
LINE
  8
0
 10
-1.85829
 20
130.032
 11
-1.85829
 21
130
  0
LINE
  8
0
 10
-1.85829
 20
130
 11
-3.09999
 21
130
  0
LINE
  8
0
 10
-3.09999
 20
130
 11
-3.09999
 21
126.667
  0
LINE
  8
0
 10
-3.09999
 20
126.667
 11
0
 21
126.667
  0
LINE
  8
0
 10
0
 20
126.667
 11
0
 21
123.333
  0
LINE
  8
0
 10
0
 20
123.333
 11
-1.24168
 21
123.333
  0
LINE
  8
0
 10
-1.24168
 20
123.333
 11
-1.24168
 21
123.366
  0
LINE
  8
0
 10
-1.24168
 20
123.366
 11
-1.25516
 21
123.429
  0
LINE
  8
0
 10
-1.25516
 20
123.429
 11
-1.28152
 21
123.488
  0
LINE
  8
0
 10
-1.28152
 20
123.488
 11
-1.31961
 21
123.541
  0
LINE
  8
0
 10
-1.31961
 20
123.541
 11
-1.36777
 21
123.584
  0
LINE
  8
0
 10
-1.36777
 20
123.584
 11
-1.4239
 21
123.617
  0
LINE
  8
0
 10
-1.4239
 20
123.617
 11
-1.48553
 21
123.637
  0
LINE
  8
0
 10
-1.48553
 20
123.637
 11
-1.54999
 21
123.643
  0
LINE
  8
0
 10
-1.54999
 20
123.643
 11
-1.61444
 21
123.637
  0
LINE
  8
0
 10
-1.61444
 20
123.637
 11
-1.67607
 21
123.617
  0
LINE
  8
0
 10
-1.67607
 20
123.617
 11
-1.73219
 21
123.584
  0
LINE
  8
0
 10
-1.73219
 20
123.584
 11
-1.78036
 21
123.541
  0
LINE
  8
0
 10
-1.78036
 20
123.541
 11
-1.81845
 21
123.488
  0
LINE
  8
0
 10
-1.81845
 20
123.488
 11
-1.84482
 21
123.429
  0
LINE
  8
0
 10
-1.84482
 20
123.429
 11
-1.85829
 21
123.366
  0
LINE
  8
0
 10
-1.85829
 20
123.366
 11
-1.85829
 21
123.333
  0
LINE
  8
0
 10
-1.85829
 20
123.333
 11
-3.09999
 21
123.333
  0
LINE
  8
0
 10
-3.09999
 20
123.333
 11
-3.09999
 21
120
  0
LINE
  8
0
 10
-3.09999
 20
120
 11
3.33334
 21
120
  0
LINE
  8
0
 10
3.33334
 20
120
 11
3.33334
 21
118.758
  0
LINE
  8
0
 10
3.33334
 20
118.758
 11
3.30095
 21
118.758
  0
LINE
  8
0
 10
3.30095
 20
118.758
 11
3.23755
 21
118.745
  0
LINE
  8
0
 10
3.23755
 20
118.745
 11
3.17834
 21
118.718
  0
LINE
  8
0
 10
3.17834
 20
118.718
 11
3.12592
 21
118.68
  0
LINE
  8
0
 10
3.12592
 20
118.68
 11
3.08255
 21
118.632
  0
LINE
  8
0
 10
3.08255
 20
118.632
 11
3.05014
 21
118.576
  0
LINE
  8
0
 10
3.05014
 20
118.576
 11
3.03012
 21
118.514
  0
LINE
  8
0
 10
3.03012
 20
118.514
 11
3.02335
 21
118.45
  0
LINE
  8
0
 10
3.02335
 20
118.45
 11
3.03012
 21
118.386
  0
LINE
  8
0
 10
3.03012
 20
118.386
 11
3.05014
 21
118.324
  0
LINE
  8
0
 10
3.05014
 20
118.324
 11
3.08255
 21
118.268
  0
LINE
  8
0
 10
3.08255
 20
118.268
 11
3.12592
 21
118.22
  0
LINE
  8
0
 10
3.12592
 20
118.22
 11
3.17834
 21
118.182
  0
LINE
  8
0
 10
3.17834
 20
118.182
 11
3.23755
 21
118.155
  0
LINE
  8
0
 10
3.23755
 20
118.155
 11
3.30095
 21
118.142
  0
LINE
  8
0
 10
3.30095
 20
118.142
 11
3.33334
 21
118.142
  0
LINE
  8
0
 10
3.33334
 20
118.142
 11
3.33334
 21
116.9
  0
LINE
  8
0
 10
3.33334
 20
116.9
 11
6.66667
 21
116.9
  0
LINE
  8
0
 10
6.66667
 20
116.9
 11
6.66667
 21
120
  0
LINE
  8
0
 10
14.8118
 20
133.21
 11
14.4438
 21
133.288
  0
LINE
  8
0
 10
14.4438
 20
133.288
 11
14.1
 21
133.441
  0
LINE
  8
0
 10
14.1
 20
133.441
 11
13.7956
 21
133.662
  0
LINE
  8
0
 10
13.7956
 20
133.662
 11
13.5438
 21
133.942
  0
LINE
  8
0
 10
13.5438
 20
133.942
 11
13.3556
 21
134.268
  0
LINE
  8
0
 10
13.3556
 20
134.268
 11
13.2393
 21
134.626
  0
LINE
  8
0
 10
13.2393
 20
134.626
 11
13.2
 21
135
  0
LINE
  8
0
 10
13.2
 20
135
 11
13.2393
 21
135.374
  0
LINE
  8
0
 10
13.2393
 20
135.374
 11
13.3556
 21
135.732
  0
LINE
  8
0
 10
13.3556
 20
135.732
 11
13.5438
 21
136.058
  0
LINE
  8
0
 10
13.5438
 20
136.058
 11
13.7956
 21
136.338
  0
LINE
  8
0
 10
13.7956
 20
136.338
 11
14.1
 21
136.559
  0
LINE
  8
0
 10
14.1
 20
136.559
 11
14.4438
 21
136.712
  0
LINE
  8
0
 10
14.4438
 20
136.712
 11
14.8118
 21
136.79
  0
LINE
  8
0
 10
14.8118
 20
136.79
 11
15.1881
 21
136.79
  0
LINE
  8
0
 10
15.1881
 20
136.79
 11
15.5562
 21
136.712
  0
LINE
  8
0
 10
15.5562
 20
136.712
 11
15.9
 21
136.559
  0
LINE
  8
0
 10
15.9
 20
136.559
 11
16.2044
 21
136.338
  0
LINE
  8
0
 10
16.2044
 20
136.338
 11
16.4562
 21
136.058
  0
LINE
  8
0
 10
16.4562
 20
136.058
 11
16.6444
 21
135.732
  0
LINE
  8
0
 10
16.6444
 20
135.732
 11
16.7607
 21
135.374
  0
LINE
  8
0
 10
16.7607
 20
135.374
 11
16.8
 21
135
  0
LINE
  8
0
 10
16.8
 20
135
 11
16.7607
 21
134.626
  0
LINE
  8
0
 10
16.7607
 20
134.626
 11
16.6444
 21
134.268
  0
LINE
  8
0
 10
16.6444
 20
134.268
 11
16.4562
 21
133.942
  0
LINE
  8
0
 10
16.4562
 20
133.942
 11
16.2044
 21
133.662
  0
LINE
  8
0
 10
16.2044
 20
133.662
 11
15.9
 21
133.441
  0
LINE
  8
0
 10
15.9
 20
133.441
 11
15.5562
 21
133.288
  0
LINE
  8
0
 10
15.5562
 20
133.288
 11
15.1881
 21
133.21
  0
LINE
  8
0
 10
15.1881
 20
133.21
 11
14.8118
 21
133.21
  0
LINE
  8
0
 10
4.81184
 20
133.21
 11
4.44376
 21
133.288
  0
LINE
  8
0
 10
4.44376
 20
133.288
 11
4.09999
 21
133.441
  0
LINE
  8
0
 10
4.09999
 20
133.441
 11
3.79556
 21
133.662
  0
LINE
  8
0
 10
3.79556
 20
133.662
 11
3.54376
 21
133.942
  0
LINE
  8
0
 10
3.54376
 20
133.942
 11
3.35561
 21
134.268
  0
LINE
  8
0
 10
3.35561
 20
134.268
 11
3.23933
 21
134.626
  0
LINE
  8
0
 10
3.23933
 20
134.626
 11
3.2
 21
135
  0
LINE
  8
0
 10
3.2
 20
135
 11
3.23933
 21
135.374
  0
LINE
  8
0
 10
3.23933
 20
135.374
 11
3.35561
 21
135.732
  0
LINE
  8
0
 10
3.35561
 20
135.732
 11
3.54376
 21
136.058
  0
LINE
  8
0
 10
3.54376
 20
136.058
 11
3.79556
 21
136.338
  0
LINE
  8
0
 10
3.79556
 20
136.338
 11
4.09999
 21
136.559
  0
LINE
  8
0
 10
4.09999
 20
136.559
 11
4.44376
 21
136.712
  0
LINE
  8
0
 10
4.44376
 20
136.712
 11
4.81184
 21
136.79
  0
LINE
  8
0
 10
4.81184
 20
136.79
 11
5.18814
 21
136.79
  0
LINE
  8
0
 10
5.18814
 20
136.79
 11
5.55623
 21
136.712
  0
LINE
  8
0
 10
5.55623
 20
136.712
 11
5.89999
 21
136.559
  0
LINE
  8
0
 10
5.89999
 20
136.559
 11
6.20442
 21
136.338
  0
LINE
  8
0
 10
6.20442
 20
136.338
 11
6.45622
 21
136.058
  0
LINE
  8
0
 10
6.45622
 20
136.058
 11
6.64438
 21
135.732
  0
LINE
  8
0
 10
6.64438
 20
135.732
 11
6.76065
 21
135.374
  0
LINE
  8
0
 10
6.76065
 20
135.374
 11
6.79999
 21
135
  0
LINE
  8
0
 10
6.79999
 20
135
 11
6.76065
 21
134.626
  0
LINE
  8
0
 10
6.76065
 20
134.626
 11
6.64438
 21
134.268
  0
LINE
  8
0
 10
6.64438
 20
134.268
 11
6.45622
 21
133.942
  0
LINE
  8
0
 10
6.45622
 20
133.942
 11
6.20442
 21
133.662
  0
LINE
  8
0
 10
6.20442
 20
133.662
 11
5.89999
 21
133.441
  0
LINE
  8
0
 10
5.89999
 20
133.441
 11
5.55623
 21
133.288
  0
LINE
  8
0
 10
5.55623
 20
133.288
 11
5.18814
 21
133.21
  0
LINE
  8
0
 10
5.18814
 20
133.21
 11
4.81184
 21
133.21
  0
LINE
  8
0
 10
9.81184
 20
128.21
 11
9.44376
 21
128.288
  0
LINE
  8
0
 10
9.44376
 20
128.288
 11
9.09999
 21
128.441
  0
LINE
  8
0
 10
9.09999
 20
128.441
 11
8.79556
 21
128.662
  0
LINE
  8
0
 10
8.79556
 20
128.662
 11
8.54376
 21
128.942
  0
LINE
  8
0
 10
8.54376
 20
128.942
 11
8.35561
 21
129.268
  0
LINE
  8
0
 10
8.35561
 20
129.268
 11
8.23933
 21
129.626
  0
LINE
  8
0
 10
8.23933
 20
129.626
 11
8.2
 21
130
  0
LINE
  8
0
 10
8.2
 20
130
 11
8.23933
 21
130.374
  0
LINE
  8
0
 10
8.23933
 20
130.374
 11
8.35561
 21
130.732
  0
LINE
  8
0
 10
8.35561
 20
130.732
 11
8.54376
 21
131.058
  0
LINE
  8
0
 10
8.54376
 20
131.058
 11
8.79556
 21
131.338
  0
LINE
  8
0
 10
8.79556
 20
131.338
 11
9.09999
 21
131.559
  0
LINE
  8
0
 10
9.09999
 20
131.559
 11
9.44376
 21
131.712
  0
LINE
  8
0
 10
9.44376
 20
131.712
 11
9.81184
 21
131.79
  0
LINE
  8
0
 10
9.81184
 20
131.79
 11
10.1881
 21
131.79
  0
LINE
  8
0
 10
10.1881
 20
131.79
 11
10.5562
 21
131.712
  0
LINE
  8
0
 10
10.5562
 20
131.712
 11
10.9
 21
131.559
  0
LINE
  8
0
 10
10.9
 20
131.559
 11
11.2044
 21
131.338
  0
LINE
  8
0
 10
11.2044
 20
131.338
 11
11.4562
 21
131.058
  0
LINE
  8
0
 10
11.4562
 20
131.058
 11
11.6444
 21
130.732
  0
LINE
  8
0
 10
11.6444
 20
130.732
 11
11.7607
 21
130.374
  0
LINE
  8
0
 10
11.7607
 20
130.374
 11
11.8
 21
130
  0
LINE
  8
0
 10
11.8
 20
130
 11
11.7607
 21
129.626
  0
LINE
  8
0
 10
11.7607
 20
129.626
 11
11.6444
 21
129.268
  0
LINE
  8
0
 10
11.6444
 20
129.268
 11
11.4562
 21
128.942
  0
LINE
  8
0
 10
11.4562
 20
128.942
 11
11.2044
 21
128.662
  0
LINE
  8
0
 10
11.2044
 20
128.662
 11
10.9
 21
128.441
  0
LINE
  8
0
 10
10.9
 20
128.441
 11
10.5562
 21
128.288
  0
LINE
  8
0
 10
10.5562
 20
128.288
 11
10.1881
 21
128.21
  0
LINE
  8
0
 10
10.1881
 20
128.21
 11
9.81184
 21
128.21
  0
LINE
  8
0
 10
4.81184
 20
123.21
 11
4.44376
 21
123.288
  0
LINE
  8
0
 10
4.44376
 20
123.288
 11
4.09999
 21
123.441
  0
LINE
  8
0
 10
4.09999
 20
123.441
 11
3.79556
 21
123.662
  0
LINE
  8
0
 10
3.79556
 20
123.662
 11
3.54376
 21
123.942
  0
LINE
  8
0
 10
3.54376
 20
123.942
 11
3.35561
 21
124.268
  0
LINE
  8
0
 10
3.35561
 20
124.268
 11
3.23933
 21
124.626
  0
LINE
  8
0
 10
3.23933
 20
124.626
 11
3.2
 21
125
  0
LINE
  8
0
 10
3.2
 20
125
 11
3.23933
 21
125.374
  0
LINE
  8
0
 10
3.23933
 20
125.374
 11
3.35561
 21
125.732
  0
LINE
  8
0
 10
3.35561
 20
125.732
 11
3.54376
 21
126.058
  0
LINE
  8
0
 10
3.54376
 20
126.058
 11
3.79556
 21
126.338
  0
LINE
  8
0
 10
3.79556
 20
126.338
 11
4.09999
 21
126.559
  0
LINE
  8
0
 10
4.09999
 20
126.559
 11
4.44376
 21
126.712
  0
LINE
  8
0
 10
4.44376
 20
126.712
 11
4.81184
 21
126.79
  0
LINE
  8
0
 10
4.81184
 20
126.79
 11
5.18814
 21
126.79
  0
LINE
  8
0
 10
5.18814
 20
126.79
 11
5.55623
 21
126.712
  0
LINE
  8
0
 10
5.55623
 20
126.712
 11
5.89999
 21
126.559
  0
LINE
  8
0
 10
5.89999
 20
126.559
 11
6.20442
 21
126.338
  0
LINE
  8
0
 10
6.20442
 20
126.338
 11
6.45622
 21
126.058
  0
LINE
  8
0
 10
6.45622
 20
126.058
 11
6.64438
 21
125.732
  0
LINE
  8
0
 10
6.64438
 20
125.732
 11
6.76065
 21
125.374
  0
LINE
  8
0
 10
6.76065
 20
125.374
 11
6.79999
 21
125
  0
LINE
  8
0
 10
6.79999
 20
125
 11
6.76065
 21
124.626
  0
LINE
  8
0
 10
6.76065
 20
124.626
 11
6.64438
 21
124.268
  0
LINE
  8
0
 10
6.64438
 20
124.268
 11
6.45622
 21
123.942
  0
LINE
  8
0
 10
6.45622
 20
123.942
 11
6.20442
 21
123.662
  0
LINE
  8
0
 10
6.20442
 20
123.662
 11
5.89999
 21
123.441
  0
LINE
  8
0
 10
5.89999
 20
123.441
 11
5.55623
 21
123.288
  0
LINE
  8
0
 10
5.55623
 20
123.288
 11
5.18814
 21
123.21
  0
LINE
  8
0
 10
5.18814
 20
123.21
 11
4.81184
 21
123.21
  0
LINE
  8
0
 10
14.8118
 20
123.21
 11
14.4438
 21
123.288
  0
LINE
  8
0
 10
14.4438
 20
123.288
 11
14.1
 21
123.441
  0
LINE
  8
0
 10
14.1
 20
123.441
 11
13.7956
 21
123.662
  0
LINE
  8
0
 10
13.7956
 20
123.662
 11
13.5438
 21
123.942
  0
LINE
  8
0
 10
13.5438
 20
123.942
 11
13.3556
 21
124.268
  0
LINE
  8
0
 10
13.3556
 20
124.268
 11
13.2393
 21
124.626
  0
LINE
  8
0
 10
13.2393
 20
124.626
 11
13.2
 21
125
  0
LINE
  8
0
 10
13.2
 20
125
 11
13.2393
 21
125.374
  0
LINE
  8
0
 10
13.2393
 20
125.374
 11
13.3556
 21
125.732
  0
LINE
  8
0
 10
13.3556
 20
125.732
 11
13.5438
 21
126.058
  0
LINE
  8
0
 10
13.5438
 20
126.058
 11
13.7956
 21
126.338
  0
LINE
  8
0
 10
13.7956
 20
126.338
 11
14.1
 21
126.559
  0
LINE
  8
0
 10
14.1
 20
126.559
 11
14.4438
 21
126.712
  0
LINE
  8
0
 10
14.4438
 20
126.712
 11
14.8118
 21
126.79
  0
LINE
  8
0
 10
14.8118
 20
126.79
 11
15.1881
 21
126.79
  0
LINE
  8
0
 10
15.1881
 20
126.79
 11
15.5562
 21
126.712
  0
LINE
  8
0
 10
15.5562
 20
126.712
 11
15.9
 21
126.559
  0
LINE
  8
0
 10
15.9
 20
126.559
 11
16.2044
 21
126.338
  0
LINE
  8
0
 10
16.2044
 20
126.338
 11
16.4562
 21
126.058
  0
LINE
  8
0
 10
16.4562
 20
126.058
 11
16.6444
 21
125.732
  0
LINE
  8
0
 10
16.6444
 20
125.732
 11
16.7607
 21
125.374
  0
LINE
  8
0
 10
16.7607
 20
125.374
 11
16.8
 21
125
  0
LINE
  8
0
 10
16.8
 20
125
 11
16.7607
 21
124.626
  0
LINE
  8
0
 10
16.7607
 20
124.626
 11
16.6444
 21
124.268
  0
LINE
  8
0
 10
16.6444
 20
124.268
 11
16.4562
 21
123.942
  0
LINE
  8
0
 10
16.4562
 20
123.942
 11
16.2044
 21
123.662
  0
LINE
  8
0
 10
16.2044
 20
123.662
 11
15.9
 21
123.441
  0
LINE
  8
0
 10
15.9
 20
123.441
 11
15.5562
 21
123.288
  0
LINE
  8
0
 10
15.5562
 20
123.288
 11
15.1881
 21
123.21
  0
LINE
  8
0
 10
15.1881
 20
123.21
 11
14.8118
 21
123.21
  0
LINE
  8
0
 10
6.66667
 20
90
 11
10
 21
90
  0
LINE
  8
0
 10
10
 20
90
 11
10
 21
88.7583
  0
LINE
  8
0
 10
10
 20
88.7583
 11
9.96762
 21
88.7583
  0
LINE
  8
0
 10
9.96762
 20
88.7583
 11
9.90422
 21
88.7448
  0
LINE
  8
0
 10
9.90422
 20
88.7448
 11
9.84502
 21
88.7185
  0
LINE
  8
0
 10
9.84502
 20
88.7185
 11
9.79259
 21
88.6804
  0
LINE
  8
0
 10
9.79259
 20
88.6804
 11
9.74922
 21
88.6322
  0
LINE
  8
0
 10
9.74922
 20
88.6322
 11
9.71681
 21
88.5761
  0
LINE
  8
0
 10
9.71681
 20
88.5761
 11
9.69679
 21
88.5145
  0
LINE
  8
0
 10
9.69679
 20
88.5145
 11
9.69002
 21
88.45
  0
LINE
  8
0
 10
9.69002
 20
88.45
 11
9.69679
 21
88.3856
  0
LINE
  8
0
 10
9.69679
 20
88.3856
 11
9.71681
 21
88.3239
  0
LINE
  8
0
 10
9.71681
 20
88.3239
 11
9.74922
 21
88.2678
  0
LINE
  8
0
 10
9.74922
 20
88.2678
 11
9.79259
 21
88.2196
  0
LINE
  8
0
 10
9.79259
 20
88.2196
 11
9.84502
 21
88.1815
  0
LINE
  8
0
 10
9.84502
 20
88.1815
 11
9.90422
 21
88.1552
  0
LINE
  8
0
 10
9.90422
 20
88.1552
 11
9.96762
 21
88.1417
  0
LINE
  8
0
 10
9.96762
 20
88.1417
 11
10
 21
88.1417
  0
LINE
  8
0
 10
10
 20
88.1417
 11
10
 21
86.9
  0
LINE
  8
0
 10
10
 20
86.9
 11
13.3333
 21
86.9
  0
LINE
  8
0
 10
13.3333
 20
86.9
 11
13.3333
 21
90
  0
LINE
  8
0
 10
13.3333
 20
90
 11
16.6667
 21
90
  0
LINE
  8
0
 10
16.6667
 20
90
 11
16.6667
 21
88.7583
  0
LINE
  8
0
 10
16.6667
 20
88.7583
 11
16.6343
 21
88.7583
  0
LINE
  8
0
 10
16.6343
 20
88.7583
 11
16.5709
 21
88.7448
  0
LINE
  8
0
 10
16.5709
 20
88.7448
 11
16.5117
 21
88.7185
  0
LINE
  8
0
 10
16.5117
 20
88.7185
 11
16.4592
 21
88.6804
  0
LINE
  8
0
 10
16.4592
 20
88.6804
 11
16.4159
 21
88.6322
  0
LINE
  8
0
 10
16.4159
 20
88.6322
 11
16.3835
 21
88.5761
  0
LINE
  8
0
 10
16.3835
 20
88.5761
 11
16.3634
 21
88.5145
  0
LINE
  8
0
 10
16.3634
 20
88.5145
 11
16.3567
 21
88.45
  0
LINE
  8
0
 10
16.3567
 20
88.45
 11
16.3634
 21
88.3856
  0
LINE
  8
0
 10
16.3634
 20
88.3856
 11
16.3835
 21
88.3239
  0
LINE
  8
0
 10
16.3835
 20
88.3239
 11
16.4159
 21
88.2678
  0
LINE
  8
0
 10
16.4159
 20
88.2678
 11
16.4592
 21
88.2196
  0
LINE
  8
0
 10
16.4592
 20
88.2196
 11
16.5117
 21
88.1815
  0
LINE
  8
0
 10
16.5117
 20
88.1815
 11
16.5709
 21
88.1552
  0
LINE
  8
0
 10
16.5709
 20
88.1552
 11
16.6343
 21
88.1417
  0
LINE
  8
0
 10
16.6343
 20
88.1417
 11
16.6667
 21
88.1417
  0
LINE
  8
0
 10
16.6667
 20
88.1417
 11
16.6667
 21
86.9
  0
LINE
  8
0
 10
16.6667
 20
86.9
 11
20
 21
86.9
  0
LINE
  8
0
 10
20
 20
86.9
 11
20
 21
93.3333
  0
LINE
  8
0
 10
20
 20
93.3333
 11
21.2417
 21
93.3333
  0
LINE
  8
0
 10
21.2417
 20
93.3333
 11
21.2417
 21
93.3009
  0
LINE
  8
0
 10
21.2417
 20
93.3009
 11
21.2552
 21
93.2375
  0
LINE
  8
0
 10
21.2552
 20
93.2375
 11
21.2815
 21
93.1783
  0
LINE
  8
0
 10
21.2815
 20
93.1783
 11
21.3196
 21
93.1259
  0
LINE
  8
0
 10
21.3196
 20
93.1259
 11
21.3678
 21
93.0826
  0
LINE
  8
0
 10
21.3678
 20
93.0826
 11
21.4239
 21
93.0501
  0
LINE
  8
0
 10
21.4239
 20
93.0501
 11
21.4855
 21
93.0301
  0
LINE
  8
0
 10
21.4855
 20
93.0301
 11
21.55
 21
93.0233
  0
LINE
  8
0
 10
21.55
 20
93.0233
 11
21.6144
 21
93.0301
  0
LINE
  8
0
 10
21.6144
 20
93.0301
 11
21.6761
 21
93.0501
  0
LINE
  8
0
 10
21.6761
 20
93.0501
 11
21.7322
 21
93.0826
  0
LINE
  8
0
 10
21.7322
 20
93.0826
 11
21.7804
 21
93.1259
  0
LINE
  8
0
 10
21.7804
 20
93.1259
 11
21.8185
 21
93.1783
  0
LINE
  8
0
 10
21.8185
 20
93.1783
 11
21.8448
 21
93.2375
  0
LINE
  8
0
 10
21.8448
 20
93.2375
 11
21.8583
 21
93.3009
  0
LINE
  8
0
 10
21.8583
 20
93.3009
 11
21.8583
 21
93.3333
  0
LINE
  8
0
 10
21.8583
 20
93.3333
 11
23.1
 21
93.3333
  0
LINE
  8
0
 10
23.1
 20
93.3333
 11
23.1
 21
96.6667
  0
LINE
  8
0
 10
23.1
 20
96.6667
 11
20
 21
96.6667
  0
LINE
  8
0
 10
20
 20
96.6667
 11
20
 21
100
  0
LINE
  8
0
 10
20
 20
100
 11
21.2417
 21
100
  0
LINE
  8
0
 10
21.2417
 20
100
 11
21.2417
 21
99.9676
  0
LINE
  8
0
 10
21.2417
 20
99.9676
 11
21.2552
 21
99.9042
  0
LINE
  8
0
 10
21.2552
 20
99.9042
 11
21.2815
 21
99.845
  0
LINE
  8
0
 10
21.2815
 20
99.845
 11
21.3196
 21
99.7926
  0
LINE
  8
0
 10
21.3196
 20
99.7926
 11
21.3678
 21
99.7492
  0
LINE
  8
0
 10
21.3678
 20
99.7492
 11
21.4239
 21
99.7168
  0
LINE
  8
0
 10
21.4239
 20
99.7168
 11
21.4855
 21
99.6968
  0
LINE
  8
0
 10
21.4855
 20
99.6968
 11
21.55
 21
99.69
  0
LINE
  8
0
 10
21.55
 20
99.69
 11
21.6144
 21
99.6968
  0
LINE
  8
0
 10
21.6144
 20
99.6968
 11
21.6761
 21
99.7168
  0
LINE
  8
0
 10
21.6761
 20
99.7168
 11
21.7322
 21
99.7492
  0
LINE
  8
0
 10
21.7322
 20
99.7492
 11
21.7804
 21
99.7926
  0
LINE
  8
0
 10
21.7804
 20
99.7926
 11
21.8185
 21
99.845
  0
LINE
  8
0
 10
21.8185
 20
99.845
 11
21.8448
 21
99.9042
  0
LINE
  8
0
 10
21.8448
 20
99.9042
 11
21.8583
 21
99.9676
  0
LINE
  8
0
 10
21.8583
 20
99.9676
 11
21.8583
 21
100
  0
LINE
  8
0
 10
21.8583
 20
100
 11
23.1
 21
100
  0
LINE
  8
0
 10
23.1
 20
100
 11
23.1
 21
103.333
  0
LINE
  8
0
 10
23.1
 20
103.333
 11
20
 21
103.333
  0
LINE
  8
0
 10
20
 20
103.333
 11
20
 21
106.667
  0
LINE
  8
0
 10
20
 20
106.667
 11
21.2417
 21
106.667
  0
LINE
  8
0
 10
21.2417
 20
106.667
 11
21.2417
 21
106.634
  0
LINE
  8
0
 10
21.2417
 20
106.634
 11
21.2552
 21
106.571
  0
LINE
  8
0
 10
21.2552
 20
106.571
 11
21.2815
 21
106.512
  0
LINE
  8
0
 10
21.2815
 20
106.512
 11
21.3196
 21
106.459
  0
LINE
  8
0
 10
21.3196
 20
106.459
 11
21.3678
 21
106.416
  0
LINE
  8
0
 10
21.3678
 20
106.416
 11
21.4239
 21
106.383
  0
LINE
  8
0
 10
21.4239
 20
106.383
 11
21.4855
 21
106.363
  0
LINE
  8
0
 10
21.4855
 20
106.363
 11
21.55
 21
106.357
  0
LINE
  8
0
 10
21.55
 20
106.357
 11
21.6144
 21
106.363
  0
LINE
  8
0
 10
21.6144
 20
106.363
 11
21.6761
 21
106.383
  0
LINE
  8
0
 10
21.6761
 20
106.383
 11
21.7322
 21
106.416
  0
LINE
  8
0
 10
21.7322
 20
106.416
 11
21.7804
 21
106.459
  0
LINE
  8
0
 10
21.7804
 20
106.459
 11
21.8185
 21
106.512
  0
LINE
  8
0
 10
21.8185
 20
106.512
 11
21.8448
 21
106.571
  0
LINE
  8
0
 10
21.8448
 20
106.571
 11
21.8583
 21
106.634
  0
LINE
  8
0
 10
21.8583
 20
106.634
 11
21.8583
 21
106.667
  0
LINE
  8
0
 10
21.8583
 20
106.667
 11
23.1
 21
106.667
  0
LINE
  8
0
 10
23.1
 20
106.667
 11
23.1
 21
110
  0
LINE
  8
0
 10
23.1
 20
110
 11
16.6667
 21
110
  0
LINE
  8
0
 10
16.6667
 20
110
 11
16.6667
 21
111.242
  0
LINE
  8
0
 10
16.6667
 20
111.242
 11
16.6991
 21
111.242
  0
LINE
  8
0
 10
16.6991
 20
111.242
 11
16.7625
 21
111.255
  0
LINE
  8
0
 10
16.7625
 20
111.255
 11
16.8217
 21
111.282
  0
LINE
  8
0
 10
16.8217
 20
111.282
 11
16.8741
 21
111.32
  0
LINE
  8
0
 10
16.8741
 20
111.32
 11
16.9174
 21
111.368
  0
LINE
  8
0
 10
16.9174
 20
111.368
 11
16.9499
 21
111.424
  0
LINE
  8
0
 10
16.9499
 20
111.424
 11
16.9699
 21
111.486
  0
LINE
  8
0
 10
16.9699
 20
111.486
 11
16.9767
 21
111.55
  0
LINE
  8
0
 10
16.9767
 20
111.55
 11
16.9699
 21
111.614
  0
LINE
  8
0
 10
16.9699
 20
111.614
 11
16.9499
 21
111.676
  0
LINE
  8
0
 10
16.9499
 20
111.676
 11
16.9174
 21
111.732
  0
LINE
  8
0
 10
16.9174
 20
111.732
 11
16.8741
 21
111.78
  0
LINE
  8
0
 10
16.8741
 20
111.78
 11
16.8217
 21
111.818
  0
LINE
  8
0
 10
16.8217
 20
111.818
 11
16.7625
 21
111.845
  0
LINE
  8
0
 10
16.7625
 20
111.845
 11
16.6991
 21
111.858
  0
LINE
  8
0
 10
16.6991
 20
111.858
 11
16.6667
 21
111.858
  0
LINE
  8
0
 10
16.6667
 20
111.858
 11
16.6667
 21
113.1
  0
LINE
  8
0
 10
16.6667
 20
113.1
 11
13.3333
 21
113.1
  0
LINE
  8
0
 10
13.3333
 20
113.1
 11
13.3333
 21
110
  0
LINE
  8
0
 10
13.3333
 20
110
 11
9.99998
 21
110
  0
LINE
  8
0
 10
9.99998
 20
110
 11
9.99998
 21
111.242
  0
LINE
  8
0
 10
9.99998
 20
111.242
 11
10.0324
 21
111.242
  0
LINE
  8
0
 10
10.0324
 20
111.242
 11
10.0958
 21
111.255
  0
LINE
  8
0
 10
10.0958
 20
111.255
 11
10.155
 21
111.282
  0
LINE
  8
0
 10
10.155
 20
111.282
 11
10.2074
 21
111.32
  0
LINE
  8
0
 10
10.2074
 20
111.32
 11
10.2508
 21
111.368
  0
LINE
  8
0
 10
10.2508
 20
111.368
 11
10.2832
 21
111.424
  0
LINE
  8
0
 10
10.2832
 20
111.424
 11
10.3032
 21
111.486
  0
LINE
  8
0
 10
10.3032
 20
111.486
 11
10.31
 21
111.55
  0
LINE
  8
0
 10
10.31
 20
111.55
 11
10.3032
 21
111.614
  0
LINE
  8
0
 10
10.3032
 20
111.614
 11
10.2832
 21
111.676
  0
LINE
  8
0
 10
10.2832
 20
111.676
 11
10.2508
 21
111.732
  0
LINE
  8
0
 10
10.2508
 20
111.732
 11
10.2074
 21
111.78
  0
LINE
  8
0
 10
10.2074
 20
111.78
 11
10.155
 21
111.818
  0
LINE
  8
0
 10
10.155
 20
111.818
 11
10.0958
 21
111.845
  0
LINE
  8
0
 10
10.0958
 20
111.845
 11
10.0324
 21
111.858
  0
LINE
  8
0
 10
10.0324
 20
111.858
 11
9.99998
 21
111.858
  0
LINE
  8
0
 10
9.99998
 20
111.858
 11
9.99998
 21
113.1
  0
LINE
  8
0
 10
9.99998
 20
113.1
 11
6.66666
 21
113.1
  0
LINE
  8
0
 10
6.66666
 20
113.1
 11
6.66666
 21
110
  0
LINE
  8
0
 10
6.66666
 20
110
 11
3.33333
 21
110
  0
LINE
  8
0
 10
3.33333
 20
110
 11
3.33333
 21
111.242
  0
LINE
  8
0
 10
3.33333
 20
111.242
 11
3.36572
 21
111.242
  0
LINE
  8
0
 10
3.36572
 20
111.242
 11
3.42912
 21
111.255
  0
LINE
  8
0
 10
3.42912
 20
111.255
 11
3.48833
 21
111.282
  0
LINE
  8
0
 10
3.48833
 20
111.282
 11
3.54076
 21
111.32
  0
LINE
  8
0
 10
3.54076
 20
111.32
 11
3.58412
 21
111.368
  0
LINE
  8
0
 10
3.58412
 20
111.368
 11
3.61653
 21
111.424
  0
LINE
  8
0
 10
3.61653
 20
111.424
 11
3.63655
 21
111.486
  0
LINE
  8
0
 10
3.63655
 20
111.486
 11
3.64333
 21
111.55
  0
LINE
  8
0
 10
3.64333
 20
111.55
 11
3.63655
 21
111.614
  0
LINE
  8
0
 10
3.63655
 20
111.614
 11
3.61653
 21
111.676
  0
LINE
  8
0
 10
3.61653
 20
111.676
 11
3.58412
 21
111.732
  0
LINE
  8
0
 10
3.58412
 20
111.732
 11
3.54076
 21
111.78
  0
LINE
  8
0
 10
3.54076
 20
111.78
 11
3.48833
 21
111.818
  0
LINE
  8
0
 10
3.48833
 20
111.818
 11
3.42912
 21
111.845
  0
LINE
  8
0
 10
3.42912
 20
111.845
 11
3.36572
 21
111.858
  0
LINE
  8
0
 10
3.36572
 20
111.858
 11
3.33333
 21
111.858
  0
LINE
  8
0
 10
3.33333
 20
111.858
 11
3.33333
 21
113.1
  0
LINE
  8
0
 10
3.33333
 20
113.1
 11
0
 21
113.1
  0
LINE
  8
0
 10
0
 20
113.1
 11
0
 21
106.667
  0
LINE
  8
0
 10
0
 20
106.667
 11
-1.24168
 21
106.667
  0
LINE
  8
0
 10
-1.24168
 20
106.667
 11
-1.24168
 21
106.699
  0
LINE
  8
0
 10
-1.24168
 20
106.699
 11
-1.25516
 21
106.762
  0
LINE
  8
0
 10
-1.25516
 20
106.762
 11
-1.28152
 21
106.822
  0
LINE
  8
0
 10
-1.28152
 20
106.822
 11
-1.31961
 21
106.874
  0
LINE
  8
0
 10
-1.31961
 20
106.874
 11
-1.36777
 21
106.917
  0
LINE
  8
0
 10
-1.36777
 20
106.917
 11
-1.4239
 21
106.95
  0
LINE
  8
0
 10
-1.4239
 20
106.95
 11
-1.48553
 21
106.97
  0
LINE
  8
0
 10
-1.48553
 20
106.97
 11
-1.54999
 21
106.977
  0
LINE
  8
0
 10
-1.54999
 20
106.977
 11
-1.61444
 21
106.97
  0
LINE
  8
0
 10
-1.61444
 20
106.97
 11
-1.67607
 21
106.95
  0
LINE
  8
0
 10
-1.67607
 20
106.95
 11
-1.73219
 21
106.917
  0
LINE
  8
0
 10
-1.73219
 20
106.917
 11
-1.78036
 21
106.874
  0
LINE
  8
0
 10
-1.78036
 20
106.874
 11
-1.81845
 21
106.822
  0
LINE
  8
0
 10
-1.81845
 20
106.822
 11
-1.84482
 21
106.762
  0
LINE
  8
0
 10
-1.84482
 20
106.762
 11
-1.85829
 21
106.699
  0
LINE
  8
0
 10
-1.85829
 20
106.699
 11
-1.85829
 21
106.667
  0
LINE
  8
0
 10
-1.85829
 20
106.667
 11
-3.09999
 21
106.667
  0
LINE
  8
0
 10
-3.09999
 20
106.667
 11
-3.09999
 21
103.333
  0
LINE
  8
0
 10
-3.09999
 20
103.333
 11
0
 21
103.333
  0
LINE
  8
0
 10
0
 20
103.333
 11
0
 21
100
  0
LINE
  8
0
 10
0
 20
100
 11
-1.24168
 21
100
  0
LINE
  8
0
 10
-1.24168
 20
100
 11
-1.24168
 21
100.032
  0
LINE
  8
0
 10
-1.24168
 20
100.032
 11
-1.25516
 21
100.096
  0
LINE
  8
0
 10
-1.25516
 20
100.096
 11
-1.28152
 21
100.155
  0
LINE
  8
0
 10
-1.28152
 20
100.155
 11
-1.31961
 21
100.207
  0
LINE
  8
0
 10
-1.31961
 20
100.207
 11
-1.36777
 21
100.251
  0
LINE
  8
0
 10
-1.36777
 20
100.251
 11
-1.4239
 21
100.283
  0
LINE
  8
0
 10
-1.4239
 20
100.283
 11
-1.48553
 21
100.303
  0
LINE
  8
0
 10
-1.48553
 20
100.303
 11
-1.54999
 21
100.31
  0
LINE
  8
0
 10
-1.54999
 20
100.31
 11
-1.61444
 21
100.303
  0
LINE
  8
0
 10
-1.61444
 20
100.303
 11
-1.67607
 21
100.283
  0
LINE
  8
0
 10
-1.67607
 20
100.283
 11
-1.73219
 21
100.251
  0
LINE
  8
0
 10
-1.73219
 20
100.251
 11
-1.78036
 21
100.207
  0
LINE
  8
0
 10
-1.78036
 20
100.207
 11
-1.81845
 21
100.155
  0
LINE
  8
0
 10
-1.81845
 20
100.155
 11
-1.84482
 21
100.096
  0
LINE
  8
0
 10
-1.84482
 20
100.096
 11
-1.85829
 21
100.032
  0
LINE
  8
0
 10
-1.85829
 20
100.032
 11
-1.85829
 21
100
  0
LINE
  8
0
 10
-1.85829
 20
100
 11
-3.09999
 21
100
  0
LINE
  8
0
 10
-3.09999
 20
100
 11
-3.09999
 21
96.6667
  0
LINE
  8
0
 10
-3.09999
 20
96.6667
 11
0
 21
96.6667
  0
LINE
  8
0
 10
0
 20
96.6667
 11
0
 21
93.3333
  0
LINE
  8
0
 10
0
 20
93.3333
 11
-1.24168
 21
93.3333
  0
LINE
  8
0
 10
-1.24168
 20
93.3333
 11
-1.24168
 21
93.3657
  0
LINE
  8
0
 10
-1.24168
 20
93.3657
 11
-1.25516
 21
93.4291
  0
LINE
  8
0
 10
-1.25516
 20
93.4291
 11
-1.28152
 21
93.4883
  0
LINE
  8
0
 10
-1.28152
 20
93.4883
 11
-1.31961
 21
93.5408
  0
LINE
  8
0
 10
-1.31961
 20
93.5408
 11
-1.36777
 21
93.5841
  0
LINE
  8
0
 10
-1.36777
 20
93.5841
 11
-1.4239
 21
93.6165
  0
LINE
  8
0
 10
-1.4239
 20
93.6165
 11
-1.48553
 21
93.6366
  0
LINE
  8
0
 10
-1.48553
 20
93.6366
 11
-1.54999
 21
93.6433
  0
LINE
  8
0
 10
-1.54999
 20
93.6433
 11
-1.61444
 21
93.6366
  0
LINE
  8
0
 10
-1.61444
 20
93.6366
 11
-1.67607
 21
93.6165
  0
LINE
  8
0
 10
-1.67607
 20
93.6165
 11
-1.73219
 21
93.5841
  0
LINE
  8
0
 10
-1.73219
 20
93.5841
 11
-1.78036
 21
93.5408
  0
LINE
  8
0
 10
-1.78036
 20
93.5408
 11
-1.81845
 21
93.4883
  0
LINE
  8
0
 10
-1.81845
 20
93.4883
 11
-1.84482
 21
93.4291
  0
LINE
  8
0
 10
-1.84482
 20
93.4291
 11
-1.85829
 21
93.3657
  0
LINE
  8
0
 10
-1.85829
 20
93.3657
 11
-1.85829
 21
93.3333
  0
LINE
  8
0
 10
-1.85829
 20
93.3333
 11
-3.09999
 21
93.3333
  0
LINE
  8
0
 10
-3.09999
 20
93.3333
 11
-3.09999
 21
90
  0
LINE
  8
0
 10
-3.09999
 20
90
 11
3.33334
 21
90
  0
LINE
  8
0
 10
3.33334
 20
90
 11
3.33334
 21
88.7583
  0
LINE
  8
0
 10
3.33334
 20
88.7583
 11
3.30095
 21
88.7583
  0
LINE
  8
0
 10
3.30095
 20
88.7583
 11
3.23755
 21
88.7448
  0
LINE
  8
0
 10
3.23755
 20
88.7448
 11
3.17834
 21
88.7185
  0
LINE
  8
0
 10
3.17834
 20
88.7185
 11
3.12592
 21
88.6804
  0
LINE
  8
0
 10
3.12592
 20
88.6804
 11
3.08255
 21
88.6322
  0
LINE
  8
0
 10
3.08255
 20
88.6322
 11
3.05014
 21
88.5761
  0
LINE
  8
0
 10
3.05014
 20
88.5761
 11
3.03012
 21
88.5145
  0
LINE
  8
0
 10
3.03012
 20
88.5145
 11
3.02335
 21
88.45
  0
LINE
  8
0
 10
3.02335
 20
88.45
 11
3.03012
 21
88.3856
  0
LINE
  8
0
 10
3.03012
 20
88.3856
 11
3.05014
 21
88.3239
  0
LINE
  8
0
 10
3.05014
 20
88.3239
 11
3.08255
 21
88.2678
  0
LINE
  8
0
 10
3.08255
 20
88.2678
 11
3.12592
 21
88.2196
  0
LINE
  8
0
 10
3.12592
 20
88.2196
 11
3.17834
 21
88.1815
  0
LINE
  8
0
 10
3.17834
 20
88.1815
 11
3.23755
 21
88.1552
  0
LINE
  8
0
 10
3.23755
 20
88.1552
 11
3.30095
 21
88.1417
  0
LINE
  8
0
 10
3.30095
 20
88.1417
 11
3.33334
 21
88.1417
  0
LINE
  8
0
 10
3.33334
 20
88.1417
 11
3.33334
 21
86.9
  0
LINE
  8
0
 10
3.33334
 20
86.9
 11
6.66667
 21
86.9
  0
LINE
  8
0
 10
6.66667
 20
86.9
 11
6.66667
 21
90
  0
LINE
  8
0
 10
4.81184
 20
103.21
 11
4.44376
 21
103.288
  0
LINE
  8
0
 10
4.44376
 20
103.288
 11
4.09999
 21
103.441
  0
LINE
  8
0
 10
4.09999
 20
103.441
 11
3.79556
 21
103.662
  0
LINE
  8
0
 10
3.79556
 20
103.662
 11
3.54376
 21
103.942
  0
LINE
  8
0
 10
3.54376
 20
103.942
 11
3.35561
 21
104.268
  0
LINE
  8
0
 10
3.35561
 20
104.268
 11
3.23933
 21
104.626
  0
LINE
  8
0
 10
3.23933
 20
104.626
 11
3.2
 21
105
  0
LINE
  8
0
 10
3.2
 20
105
 11
3.23933
 21
105.374
  0
LINE
  8
0
 10
3.23933
 20
105.374
 11
3.35561
 21
105.732
  0
LINE
  8
0
 10
3.35561
 20
105.732
 11
3.54376
 21
106.058
  0
LINE
  8
0
 10
3.54376
 20
106.058
 11
3.79556
 21
106.338
  0
LINE
  8
0
 10
3.79556
 20
106.338
 11
4.09999
 21
106.559
  0
LINE
  8
0
 10
4.09999
 20
106.559
 11
4.44376
 21
106.712
  0
LINE
  8
0
 10
4.44376
 20
106.712
 11
4.81184
 21
106.79
  0
LINE
  8
0
 10
4.81184
 20
106.79
 11
5.18814
 21
106.79
  0
LINE
  8
0
 10
5.18814
 20
106.79
 11
5.55623
 21
106.712
  0
LINE
  8
0
 10
5.55623
 20
106.712
 11
5.89999
 21
106.559
  0
LINE
  8
0
 10
5.89999
 20
106.559
 11
6.20442
 21
106.338
  0
LINE
  8
0
 10
6.20442
 20
106.338
 11
6.45622
 21
106.058
  0
LINE
  8
0
 10
6.45622
 20
106.058
 11
6.64438
 21
105.732
  0
LINE
  8
0
 10
6.64438
 20
105.732
 11
6.76065
 21
105.374
  0
LINE
  8
0
 10
6.76065
 20
105.374
 11
6.79999
 21
105
  0
LINE
  8
0
 10
6.79999
 20
105
 11
6.76065
 21
104.626
  0
LINE
  8
0
 10
6.76065
 20
104.626
 11
6.64438
 21
104.268
  0
LINE
  8
0
 10
6.64438
 20
104.268
 11
6.45622
 21
103.942
  0
LINE
  8
0
 10
6.45622
 20
103.942
 11
6.20442
 21
103.662
  0
LINE
  8
0
 10
6.20442
 20
103.662
 11
5.89999
 21
103.441
  0
LINE
  8
0
 10
5.89999
 20
103.441
 11
5.55623
 21
103.288
  0
LINE
  8
0
 10
5.55623
 20
103.288
 11
5.18814
 21
103.21
  0
LINE
  8
0
 10
5.18814
 20
103.21
 11
4.81184
 21
103.21
  0
LINE
  8
0
 10
14.8118
 20
103.21
 11
14.4438
 21
103.288
  0
LINE
  8
0
 10
14.4438
 20
103.288
 11
14.1
 21
103.441
  0
LINE
  8
0
 10
14.1
 20
103.441
 11
13.7956
 21
103.662
  0
LINE
  8
0
 10
13.7956
 20
103.662
 11
13.5438
 21
103.942
  0
LINE
  8
0
 10
13.5438
 20
103.942
 11
13.3556
 21
104.268
  0
LINE
  8
0
 10
13.3556
 20
104.268
 11
13.2393
 21
104.626
  0
LINE
  8
0
 10
13.2393
 20
104.626
 11
13.2
 21
105
  0
LINE
  8
0
 10
13.2
 20
105
 11
13.2393
 21
105.374
  0
LINE
  8
0
 10
13.2393
 20
105.374
 11
13.3556
 21
105.732
  0
LINE
  8
0
 10
13.3556
 20
105.732
 11
13.5438
 21
106.058
  0
LINE
  8
0
 10
13.5438
 20
106.058
 11
13.7956
 21
106.338
  0
LINE
  8
0
 10
13.7956
 20
106.338
 11
14.1
 21
106.559
  0
LINE
  8
0
 10
14.1
 20
106.559
 11
14.4438
 21
106.712
  0
LINE
  8
0
 10
14.4438
 20
106.712
 11
14.8118
 21
106.79
  0
LINE
  8
0
 10
14.8118
 20
106.79
 11
15.1881
 21
106.79
  0
LINE
  8
0
 10
15.1881
 20
106.79
 11
15.5562
 21
106.712
  0
LINE
  8
0
 10
15.5562
 20
106.712
 11
15.9
 21
106.559
  0
LINE
  8
0
 10
15.9
 20
106.559
 11
16.2044
 21
106.338
  0
LINE
  8
0
 10
16.2044
 20
106.338
 11
16.4562
 21
106.058
  0
LINE
  8
0
 10
16.4562
 20
106.058
 11
16.6444
 21
105.732
  0
LINE
  8
0
 10
16.6444
 20
105.732
 11
16.7607
 21
105.374
  0
LINE
  8
0
 10
16.7607
 20
105.374
 11
16.8
 21
105
  0
LINE
  8
0
 10
16.8
 20
105
 11
16.7607
 21
104.626
  0
LINE
  8
0
 10
16.7607
 20
104.626
 11
16.6444
 21
104.268
  0
LINE
  8
0
 10
16.6444
 20
104.268
 11
16.4562
 21
103.942
  0
LINE
  8
0
 10
16.4562
 20
103.942
 11
16.2044
 21
103.662
  0
LINE
  8
0
 10
16.2044
 20
103.662
 11
15.9
 21
103.441
  0
LINE
  8
0
 10
15.9
 20
103.441
 11
15.5562
 21
103.288
  0
LINE
  8
0
 10
15.5562
 20
103.288
 11
15.1881
 21
103.21
  0
LINE
  8
0
 10
15.1881
 20
103.21
 11
14.8118
 21
103.21
  0
LINE
  8
0
 10
14.8118
 20
93.2099
 11
14.4438
 21
93.2881
  0
LINE
  8
0
 10
14.4438
 20
93.2881
 11
14.1
 21
93.4411
  0
LINE
  8
0
 10
14.1
 20
93.4411
 11
13.7956
 21
93.6623
  0
LINE
  8
0
 10
13.7956
 20
93.6623
 11
13.5438
 21
93.942
  0
LINE
  8
0
 10
13.5438
 20
93.942
 11
13.3556
 21
94.2679
  0
LINE
  8
0
 10
13.3556
 20
94.2679
 11
13.2393
 21
94.6257
  0
LINE
  8
0
 10
13.2393
 20
94.6257
 11
13.2
 21
95
  0
LINE
  8
0
 10
13.2
 20
95
 11
13.2393
 21
95.3742
  0
LINE
  8
0
 10
13.2393
 20
95.3742
 11
13.3556
 21
95.7321
  0
LINE
  8
0
 10
13.3556
 20
95.7321
 11
13.5438
 21
96.058
  0
LINE
  8
0
 10
13.5438
 20
96.058
 11
13.7956
 21
96.3376
  0
LINE
  8
0
 10
13.7956
 20
96.3376
 11
14.1
 21
96.5588
  0
LINE
  8
0
 10
14.1
 20
96.5588
 11
14.4438
 21
96.7119
  0
LINE
  8
0
 10
14.4438
 20
96.7119
 11
14.8118
 21
96.7901
  0
LINE
  8
0
 10
14.8118
 20
96.7901
 11
15.1881
 21
96.7901
  0
LINE
  8
0
 10
15.1881
 20
96.7901
 11
15.5562
 21
96.7119
  0
LINE
  8
0
 10
15.5562
 20
96.7119
 11
15.9
 21
96.5588
  0
LINE
  8
0
 10
15.9
 20
96.5588
 11
16.2044
 21
96.3376
  0
LINE
  8
0
 10
16.2044
 20
96.3376
 11
16.4562
 21
96.058
  0
LINE
  8
0
 10
16.4562
 20
96.058
 11
16.6444
 21
95.7321
  0
LINE
  8
0
 10
16.6444
 20
95.7321
 11
16.7607
 21
95.3742
  0
LINE
  8
0
 10
16.7607
 20
95.3742
 11
16.8
 21
95
  0
LINE
  8
0
 10
16.8
 20
95
 11
16.7607
 21
94.6257
  0
LINE
  8
0
 10
16.7607
 20
94.6257
 11
16.6444
 21
94.2679
  0
LINE
  8
0
 10
16.6444
 20
94.2679
 11
16.4562
 21
93.942
  0
LINE
  8
0
 10
16.4562
 20
93.942
 11
16.2044
 21
93.6623
  0
LINE
  8
0
 10
16.2044
 20
93.6623
 11
15.9
 21
93.4411
  0
LINE
  8
0
 10
15.9
 20
93.4411
 11
15.5562
 21
93.2881
  0
LINE
  8
0
 10
15.5562
 20
93.2881
 11
15.1881
 21
93.2099
  0
LINE
  8
0
 10
15.1881
 20
93.2099
 11
14.8118
 21
93.2099
  0
LINE
  8
0
 10
4.81184
 20
93.2099
 11
4.44376
 21
93.2881
  0
LINE
  8
0
 10
4.44376
 20
93.2881
 11
4.09999
 21
93.4411
  0
LINE
  8
0
 10
4.09999
 20
93.4411
 11
3.79556
 21
93.6623
  0
LINE
  8
0
 10
3.79556
 20
93.6623
 11
3.54376
 21
93.942
  0
LINE
  8
0
 10
3.54376
 20
93.942
 11
3.35561
 21
94.2679
  0
LINE
  8
0
 10
3.35561
 20
94.2679
 11
3.23933
 21
94.6257
  0
LINE
  8
0
 10
3.23933
 20
94.6257
 11
3.2
 21
95
  0
LINE
  8
0
 10
3.2
 20
95
 11
3.23933
 21
95.3742
  0
LINE
  8
0
 10
3.23933
 20
95.3742
 11
3.35561
 21
95.7321
  0
LINE
  8
0
 10
3.35561
 20
95.7321
 11
3.54376
 21
96.058
  0
LINE
  8
0
 10
3.54376
 20
96.058
 11
3.79556
 21
96.3376
  0
LINE
  8
0
 10
3.79556
 20
96.3376
 11
4.09999
 21
96.5588
  0
LINE
  8
0
 10
4.09999
 20
96.5588
 11
4.44376
 21
96.7119
  0
LINE
  8
0
 10
4.44376
 20
96.7119
 11
4.81184
 21
96.7901
  0
LINE
  8
0
 10
4.81184
 20
96.7901
 11
5.18814
 21
96.7901
  0
LINE
  8
0
 10
5.18814
 20
96.7901
 11
5.55623
 21
96.7119
  0
LINE
  8
0
 10
5.55623
 20
96.7119
 11
5.89999
 21
96.5588
  0
LINE
  8
0
 10
5.89999
 20
96.5588
 11
6.20442
 21
96.3376
  0
LINE
  8
0
 10
6.20442
 20
96.3376
 11
6.45622
 21
96.058
  0
LINE
  8
0
 10
6.45622
 20
96.058
 11
6.64438
 21
95.7321
  0
LINE
  8
0
 10
6.64438
 20
95.7321
 11
6.76065
 21
95.3742
  0
LINE
  8
0
 10
6.76065
 20
95.3742
 11
6.79999
 21
95
  0
LINE
  8
0
 10
6.79999
 20
95
 11
6.76065
 21
94.6257
  0
LINE
  8
0
 10
6.76065
 20
94.6257
 11
6.64438
 21
94.2679
  0
LINE
  8
0
 10
6.64438
 20
94.2679
 11
6.45622
 21
93.942
  0
LINE
  8
0
 10
6.45622
 20
93.942
 11
6.20442
 21
93.6623
  0
LINE
  8
0
 10
6.20442
 20
93.6623
 11
5.89999
 21
93.4411
  0
LINE
  8
0
 10
5.89999
 20
93.4411
 11
5.55623
 21
93.2881
  0
LINE
  8
0
 10
5.55623
 20
93.2881
 11
5.18814
 21
93.2099
  0
LINE
  8
0
 10
5.18814
 20
93.2099
 11
4.81184
 21
93.2099
  0
LINE
  8
0
 10
6.66667
 20
60
 11
10
 21
60
  0
LINE
  8
0
 10
10
 20
60
 11
10
 21
58.7583
  0
LINE
  8
0
 10
10
 20
58.7583
 11
9.96762
 21
58.7583
  0
LINE
  8
0
 10
9.96762
 20
58.7583
 11
9.90422
 21
58.7448
  0
LINE
  8
0
 10
9.90422
 20
58.7448
 11
9.84502
 21
58.7185
  0
LINE
  8
0
 10
9.84502
 20
58.7185
 11
9.79259
 21
58.6804
  0
LINE
  8
0
 10
9.79259
 20
58.6804
 11
9.74922
 21
58.6322
  0
LINE
  8
0
 10
9.74922
 20
58.6322
 11
9.71681
 21
58.5761
  0
LINE
  8
0
 10
9.71681
 20
58.5761
 11
9.69679
 21
58.5145
  0
LINE
  8
0
 10
9.69679
 20
58.5145
 11
9.69002
 21
58.45
  0
LINE
  8
0
 10
9.69002
 20
58.45
 11
9.69679
 21
58.3856
  0
LINE
  8
0
 10
9.69679
 20
58.3856
 11
9.71681
 21
58.3239
  0
LINE
  8
0
 10
9.71681
 20
58.3239
 11
9.74922
 21
58.2678
  0
LINE
  8
0
 10
9.74922
 20
58.2678
 11
9.79259
 21
58.2196
  0
LINE
  8
0
 10
9.79259
 20
58.2196
 11
9.84502
 21
58.1815
  0
LINE
  8
0
 10
9.84502
 20
58.1815
 11
9.90422
 21
58.1552
  0
LINE
  8
0
 10
9.90422
 20
58.1552
 11
9.96762
 21
58.1417
  0
LINE
  8
0
 10
9.96762
 20
58.1417
 11
10
 21
58.1417
  0
LINE
  8
0
 10
10
 20
58.1417
 11
10
 21
56.9
  0
LINE
  8
0
 10
10
 20
56.9
 11
13.3333
 21
56.9
  0
LINE
  8
0
 10
13.3333
 20
56.9
 11
13.3333
 21
60
  0
LINE
  8
0
 10
13.3333
 20
60
 11
16.6667
 21
60
  0
LINE
  8
0
 10
16.6667
 20
60
 11
16.6667
 21
58.7583
  0
LINE
  8
0
 10
16.6667
 20
58.7583
 11
16.6343
 21
58.7583
  0
LINE
  8
0
 10
16.6343
 20
58.7583
 11
16.5709
 21
58.7448
  0
LINE
  8
0
 10
16.5709
 20
58.7448
 11
16.5117
 21
58.7185
  0
LINE
  8
0
 10
16.5117
 20
58.7185
 11
16.4592
 21
58.6804
  0
LINE
  8
0
 10
16.4592
 20
58.6804
 11
16.4159
 21
58.6322
  0
LINE
  8
0
 10
16.4159
 20
58.6322
 11
16.3835
 21
58.5761
  0
LINE
  8
0
 10
16.3835
 20
58.5761
 11
16.3634
 21
58.5145
  0
LINE
  8
0
 10
16.3634
 20
58.5145
 11
16.3567
 21
58.45
  0
LINE
  8
0
 10
16.3567
 20
58.45
 11
16.3634
 21
58.3856
  0
LINE
  8
0
 10
16.3634
 20
58.3856
 11
16.3835
 21
58.3239
  0
LINE
  8
0
 10
16.3835
 20
58.3239
 11
16.4159
 21
58.2678
  0
LINE
  8
0
 10
16.4159
 20
58.2678
 11
16.4592
 21
58.2196
  0
LINE
  8
0
 10
16.4592
 20
58.2196
 11
16.5117
 21
58.1815
  0
LINE
  8
0
 10
16.5117
 20
58.1815
 11
16.5709
 21
58.1552
  0
LINE
  8
0
 10
16.5709
 20
58.1552
 11
16.6343
 21
58.1417
  0
LINE
  8
0
 10
16.6343
 20
58.1417
 11
16.6667
 21
58.1417
  0
LINE
  8
0
 10
16.6667
 20
58.1417
 11
16.6667
 21
56.9
  0
LINE
  8
0
 10
16.6667
 20
56.9
 11
20
 21
56.9
  0
LINE
  8
0
 10
20
 20
56.9
 11
20
 21
63.3333
  0
LINE
  8
0
 10
20
 20
63.3333
 11
21.2417
 21
63.3333
  0
LINE
  8
0
 10
21.2417
 20
63.3333
 11
21.2417
 21
63.3009
  0
LINE
  8
0
 10
21.2417
 20
63.3009
 11
21.2552
 21
63.2375
  0
LINE
  8
0
 10
21.2552
 20
63.2375
 11
21.2815
 21
63.1783
  0
LINE
  8
0
 10
21.2815
 20
63.1783
 11
21.3196
 21
63.1259
  0
LINE
  8
0
 10
21.3196
 20
63.1259
 11
21.3678
 21
63.0826
  0
LINE
  8
0
 10
21.3678
 20
63.0826
 11
21.4239
 21
63.0501
  0
LINE
  8
0
 10
21.4239
 20
63.0501
 11
21.4855
 21
63.0301
  0
LINE
  8
0
 10
21.4855
 20
63.0301
 11
21.55
 21
63.0233
  0
LINE
  8
0
 10
21.55
 20
63.0233
 11
21.6144
 21
63.0301
  0
LINE
  8
0
 10
21.6144
 20
63.0301
 11
21.6761
 21
63.0501
  0
LINE
  8
0
 10
21.6761
 20
63.0501
 11
21.7322
 21
63.0826
  0
LINE
  8
0
 10
21.7322
 20
63.0826
 11
21.7804
 21
63.1259
  0
LINE
  8
0
 10
21.7804
 20
63.1259
 11
21.8185
 21
63.1783
  0
LINE
  8
0
 10
21.8185
 20
63.1783
 11
21.8448
 21
63.2375
  0
LINE
  8
0
 10
21.8448
 20
63.2375
 11
21.8583
 21
63.3009
  0
LINE
  8
0
 10
21.8583
 20
63.3009
 11
21.8583
 21
63.3333
  0
LINE
  8
0
 10
21.8583
 20
63.3333
 11
23.1
 21
63.3333
  0
LINE
  8
0
 10
23.1
 20
63.3333
 11
23.1
 21
66.6667
  0
LINE
  8
0
 10
23.1
 20
66.6667
 11
20
 21
66.6667
  0
LINE
  8
0
 10
20
 20
66.6667
 11
20
 21
70
  0
LINE
  8
0
 10
20
 20
70
 11
21.2417
 21
70
  0
LINE
  8
0
 10
21.2417
 20
70
 11
21.2417
 21
69.9676
  0
LINE
  8
0
 10
21.2417
 20
69.9676
 11
21.2552
 21
69.9042
  0
LINE
  8
0
 10
21.2552
 20
69.9042
 11
21.2815
 21
69.845
  0
LINE
  8
0
 10
21.2815
 20
69.845
 11
21.3196
 21
69.7926
  0
LINE
  8
0
 10
21.3196
 20
69.7926
 11
21.3678
 21
69.7492
  0
LINE
  8
0
 10
21.3678
 20
69.7492
 11
21.4239
 21
69.7168
  0
LINE
  8
0
 10
21.4239
 20
69.7168
 11
21.4855
 21
69.6968
  0
LINE
  8
0
 10
21.4855
 20
69.6968
 11
21.55
 21
69.69
  0
LINE
  8
0
 10
21.55
 20
69.69
 11
21.6144
 21
69.6968
  0
LINE
  8
0
 10
21.6144
 20
69.6968
 11
21.6761
 21
69.7168
  0
LINE
  8
0
 10
21.6761
 20
69.7168
 11
21.7322
 21
69.7492
  0
LINE
  8
0
 10
21.7322
 20
69.7492
 11
21.7804
 21
69.7926
  0
LINE
  8
0
 10
21.7804
 20
69.7926
 11
21.8185
 21
69.845
  0
LINE
  8
0
 10
21.8185
 20
69.845
 11
21.8448
 21
69.9042
  0
LINE
  8
0
 10
21.8448
 20
69.9042
 11
21.8583
 21
69.9676
  0
LINE
  8
0
 10
21.8583
 20
69.9676
 11
21.8583
 21
70
  0
LINE
  8
0
 10
21.8583
 20
70
 11
23.1
 21
70
  0
LINE
  8
0
 10
23.1
 20
70
 11
23.1
 21
73.3333
  0
LINE
  8
0
 10
23.1
 20
73.3333
 11
20
 21
73.3333
  0
LINE
  8
0
 10
20
 20
73.3333
 11
20
 21
76.6667
  0
LINE
  8
0
 10
20
 20
76.6667
 11
21.2417
 21
76.6667
  0
LINE
  8
0
 10
21.2417
 20
76.6667
 11
21.2417
 21
76.6343
  0
LINE
  8
0
 10
21.2417
 20
76.6343
 11
21.2552
 21
76.5709
  0
LINE
  8
0
 10
21.2552
 20
76.5709
 11
21.2815
 21
76.5117
  0
LINE
  8
0
 10
21.2815
 20
76.5117
 11
21.3196
 21
76.4592
  0
LINE
  8
0
 10
21.3196
 20
76.4592
 11
21.3678
 21
76.4159
  0
LINE
  8
0
 10
21.3678
 20
76.4159
 11
21.4239
 21
76.3835
  0
LINE
  8
0
 10
21.4239
 20
76.3835
 11
21.4855
 21
76.3634
  0
LINE
  8
0
 10
21.4855
 20
76.3634
 11
21.55
 21
76.3567
  0
LINE
  8
0
 10
21.55
 20
76.3567
 11
21.6144
 21
76.3634
  0
LINE
  8
0
 10
21.6144
 20
76.3634
 11
21.6761
 21
76.3835
  0
LINE
  8
0
 10
21.6761
 20
76.3835
 11
21.7322
 21
76.4159
  0
LINE
  8
0
 10
21.7322
 20
76.4159
 11
21.7804
 21
76.4592
  0
LINE
  8
0
 10
21.7804
 20
76.4592
 11
21.8185
 21
76.5117
  0
LINE
  8
0
 10
21.8185
 20
76.5117
 11
21.8448
 21
76.5709
  0
LINE
  8
0
 10
21.8448
 20
76.5709
 11
21.8583
 21
76.6343
  0
LINE
  8
0
 10
21.8583
 20
76.6343
 11
21.8583
 21
76.6667
  0
LINE
  8
0
 10
21.8583
 20
76.6667
 11
23.1
 21
76.6667
  0
LINE
  8
0
 10
23.1
 20
76.6667
 11
23.1
 21
80
  0
LINE
  8
0
 10
23.1
 20
80
 11
16.6667
 21
80
  0
LINE
  8
0
 10
16.6667
 20
80
 11
16.6667
 21
81.2417
  0
LINE
  8
0
 10
16.6667
 20
81.2417
 11
16.6991
 21
81.2417
  0
LINE
  8
0
 10
16.6991
 20
81.2417
 11
16.7625
 21
81.2552
  0
LINE
  8
0
 10
16.7625
 20
81.2552
 11
16.8217
 21
81.2815
  0
LINE
  8
0
 10
16.8217
 20
81.2815
 11
16.8741
 21
81.3196
  0
LINE
  8
0
 10
16.8741
 20
81.3196
 11
16.9174
 21
81.3678
  0
LINE
  8
0
 10
16.9174
 20
81.3678
 11
16.9499
 21
81.4239
  0
LINE
  8
0
 10
16.9499
 20
81.4239
 11
16.9699
 21
81.4855
  0
LINE
  8
0
 10
16.9699
 20
81.4855
 11
16.9767
 21
81.55
  0
LINE
  8
0
 10
16.9767
 20
81.55
 11
16.9699
 21
81.6144
  0
LINE
  8
0
 10
16.9699
 20
81.6144
 11
16.9499
 21
81.6761
  0
LINE
  8
0
 10
16.9499
 20
81.6761
 11
16.9174
 21
81.7322
  0
LINE
  8
0
 10
16.9174
 20
81.7322
 11
16.8741
 21
81.7804
  0
LINE
  8
0
 10
16.8741
 20
81.7804
 11
16.8217
 21
81.8185
  0
LINE
  8
0
 10
16.8217
 20
81.8185
 11
16.7625
 21
81.8448
  0
LINE
  8
0
 10
16.7625
 20
81.8448
 11
16.6991
 21
81.8583
  0
LINE
  8
0
 10
16.6991
 20
81.8583
 11
16.6667
 21
81.8583
  0
LINE
  8
0
 10
16.6667
 20
81.8583
 11
16.6667
 21
83.1
  0
LINE
  8
0
 10
16.6667
 20
83.1
 11
13.3333
 21
83.1
  0
LINE
  8
0
 10
13.3333
 20
83.1
 11
13.3333
 21
80
  0
LINE
  8
0
 10
13.3333
 20
80
 11
9.99998
 21
80
  0
LINE
  8
0
 10
9.99998
 20
80
 11
9.99998
 21
81.2417
  0
LINE
  8
0
 10
9.99998
 20
81.2417
 11
10.0324
 21
81.2417
  0
LINE
  8
0
 10
10.0324
 20
81.2417
 11
10.0958
 21
81.2552
  0
LINE
  8
0
 10
10.0958
 20
81.2552
 11
10.155
 21
81.2815
  0
LINE
  8
0
 10
10.155
 20
81.2815
 11
10.2074
 21
81.3196
  0
LINE
  8
0
 10
10.2074
 20
81.3196
 11
10.2508
 21
81.3678
  0
LINE
  8
0
 10
10.2508
 20
81.3678
 11
10.2832
 21
81.4239
  0
LINE
  8
0
 10
10.2832
 20
81.4239
 11
10.3032
 21
81.4855
  0
LINE
  8
0
 10
10.3032
 20
81.4855
 11
10.31
 21
81.55
  0
LINE
  8
0
 10
10.31
 20
81.55
 11
10.3032
 21
81.6144
  0
LINE
  8
0
 10
10.3032
 20
81.6144
 11
10.2832
 21
81.6761
  0
LINE
  8
0
 10
10.2832
 20
81.6761
 11
10.2508
 21
81.7322
  0
LINE
  8
0
 10
10.2508
 20
81.7322
 11
10.2074
 21
81.7804
  0
LINE
  8
0
 10
10.2074
 20
81.7804
 11
10.155
 21
81.8185
  0
LINE
  8
0
 10
10.155
 20
81.8185
 11
10.0958
 21
81.8448
  0
LINE
  8
0
 10
10.0958
 20
81.8448
 11
10.0324
 21
81.8583
  0
LINE
  8
0
 10
10.0324
 20
81.8583
 11
9.99998
 21
81.8583
  0
LINE
  8
0
 10
9.99998
 20
81.8583
 11
9.99998
 21
83.1
  0
LINE
  8
0
 10
9.99998
 20
83.1
 11
6.66666
 21
83.1
  0
LINE
  8
0
 10
6.66666
 20
83.1
 11
6.66666
 21
80
  0
LINE
  8
0
 10
6.66666
 20
80
 11
3.33333
 21
80
  0
LINE
  8
0
 10
3.33333
 20
80
 11
3.33333
 21
81.2417
  0
LINE
  8
0
 10
3.33333
 20
81.2417
 11
3.36572
 21
81.2417
  0
LINE
  8
0
 10
3.36572
 20
81.2417
 11
3.42912
 21
81.2552
  0
LINE
  8
0
 10
3.42912
 20
81.2552
 11
3.48833
 21
81.2815
  0
LINE
  8
0
 10
3.48833
 20
81.2815
 11
3.54076
 21
81.3196
  0
LINE
  8
0
 10
3.54076
 20
81.3196
 11
3.58412
 21
81.3678
  0
LINE
  8
0
 10
3.58412
 20
81.3678
 11
3.61653
 21
81.4239
  0
LINE
  8
0
 10
3.61653
 20
81.4239
 11
3.63655
 21
81.4855
  0
LINE
  8
0
 10
3.63655
 20
81.4855
 11
3.64333
 21
81.55
  0
LINE
  8
0
 10
3.64333
 20
81.55
 11
3.63655
 21
81.6144
  0
LINE
  8
0
 10
3.63655
 20
81.6144
 11
3.61653
 21
81.6761
  0
LINE
  8
0
 10
3.61653
 20
81.6761
 11
3.58412
 21
81.7322
  0
LINE
  8
0
 10
3.58412
 20
81.7322
 11
3.54076
 21
81.7804
  0
LINE
  8
0
 10
3.54076
 20
81.7804
 11
3.48833
 21
81.8185
  0
LINE
  8
0
 10
3.48833
 20
81.8185
 11
3.42912
 21
81.8448
  0
LINE
  8
0
 10
3.42912
 20
81.8448
 11
3.36572
 21
81.8583
  0
LINE
  8
0
 10
3.36572
 20
81.8583
 11
3.33333
 21
81.8583
  0
LINE
  8
0
 10
3.33333
 20
81.8583
 11
3.33333
 21
83.1
  0
LINE
  8
0
 10
3.33333
 20
83.1
 11
0
 21
83.1
  0
LINE
  8
0
 10
0
 20
83.1
 11
0
 21
76.6667
  0
LINE
  8
0
 10
0
 20
76.6667
 11
-1.24168
 21
76.6667
  0
LINE
  8
0
 10
-1.24168
 20
76.6667
 11
-1.24168
 21
76.6991
  0
LINE
  8
0
 10
-1.24168
 20
76.6991
 11
-1.25516
 21
76.7625
  0
LINE
  8
0
 10
-1.25516
 20
76.7625
 11
-1.28152
 21
76.8217
  0
LINE
  8
0
 10
-1.28152
 20
76.8217
 11
-1.31961
 21
76.8741
  0
LINE
  8
0
 10
-1.31961
 20
76.8741
 11
-1.36777
 21
76.9174
  0
LINE
  8
0
 10
-1.36777
 20
76.9174
 11
-1.4239
 21
76.9499
  0
LINE
  8
0
 10
-1.4239
 20
76.9499
 11
-1.48553
 21
76.9699
  0
LINE
  8
0
 10
-1.48553
 20
76.9699
 11
-1.54999
 21
76.9767
  0
LINE
  8
0
 10
-1.54999
 20
76.9767
 11
-1.61444
 21
76.9699
  0
LINE
  8
0
 10
-1.61444
 20
76.9699
 11
-1.67607
 21
76.9499
  0
LINE
  8
0
 10
-1.67607
 20
76.9499
 11
-1.73219
 21
76.9174
  0
LINE
  8
0
 10
-1.73219
 20
76.9174
 11
-1.78036
 21
76.8741
  0
LINE
  8
0
 10
-1.78036
 20
76.8741
 11
-1.81845
 21
76.8217
  0
LINE
  8
0
 10
-1.81845
 20
76.8217
 11
-1.84482
 21
76.7625
  0
LINE
  8
0
 10
-1.84482
 20
76.7625
 11
-1.85829
 21
76.6991
  0
LINE
  8
0
 10
-1.85829
 20
76.6991
 11
-1.85829
 21
76.6667
  0
LINE
  8
0
 10
-1.85829
 20
76.6667
 11
-3.09999
 21
76.6667
  0
LINE
  8
0
 10
-3.09999
 20
76.6667
 11
-3.09999
 21
73.3333
  0
LINE
  8
0
 10
-3.09999
 20
73.3333
 11
0
 21
73.3333
  0
LINE
  8
0
 10
0
 20
73.3333
 11
0
 21
70
  0
LINE
  8
0
 10
0
 20
70
 11
-1.24168
 21
70
  0
LINE
  8
0
 10
-1.24168
 20
70
 11
-1.24168
 21
70.0324
  0
LINE
  8
0
 10
-1.24168
 20
70.0324
 11
-1.25516
 21
70.0958
  0
LINE
  8
0
 10
-1.25516
 20
70.0958
 11
-1.28152
 21
70.155
  0
LINE
  8
0
 10
-1.28152
 20
70.155
 11
-1.31961
 21
70.2074
  0
LINE
  8
0
 10
-1.31961
 20
70.2074
 11
-1.36777
 21
70.2508
  0
LINE
  8
0
 10
-1.36777
 20
70.2508
 11
-1.4239
 21
70.2832
  0
LINE
  8
0
 10
-1.4239
 20
70.2832
 11
-1.48553
 21
70.3032
  0
LINE
  8
0
 10
-1.48553
 20
70.3032
 11
-1.54999
 21
70.31
  0
LINE
  8
0
 10
-1.54999
 20
70.31
 11
-1.61444
 21
70.3032
  0
LINE
  8
0
 10
-1.61444
 20
70.3032
 11
-1.67607
 21
70.2832
  0
LINE
  8
0
 10
-1.67607
 20
70.2832
 11
-1.73219
 21
70.2508
  0
LINE
  8
0
 10
-1.73219
 20
70.2508
 11
-1.78036
 21
70.2074
  0
LINE
  8
0
 10
-1.78036
 20
70.2074
 11
-1.81845
 21
70.155
  0
LINE
  8
0
 10
-1.81845
 20
70.155
 11
-1.84482
 21
70.0958
  0
LINE
  8
0
 10
-1.84482
 20
70.0958
 11
-1.85829
 21
70.0324
  0
LINE
  8
0
 10
-1.85829
 20
70.0324
 11
-1.85829
 21
70
  0
LINE
  8
0
 10
-1.85829
 20
70
 11
-3.09999
 21
70
  0
LINE
  8
0
 10
-3.09999
 20
70
 11
-3.09999
 21
66.6667
  0
LINE
  8
0
 10
-3.09999
 20
66.6667
 11
0
 21
66.6667
  0
LINE
  8
0
 10
0
 20
66.6667
 11
0
 21
63.3333
  0
LINE
  8
0
 10
0
 20
63.3333
 11
-1.24168
 21
63.3333
  0
LINE
  8
0
 10
-1.24168
 20
63.3333
 11
-1.24168
 21
63.3657
  0
LINE
  8
0
 10
-1.24168
 20
63.3657
 11
-1.25516
 21
63.4291
  0
LINE
  8
0
 10
-1.25516
 20
63.4291
 11
-1.28152
 21
63.4883
  0
LINE
  8
0
 10
-1.28152
 20
63.4883
 11
-1.31961
 21
63.5408
  0
LINE
  8
0
 10
-1.31961
 20
63.5408
 11
-1.36777
 21
63.5841
  0
LINE
  8
0
 10
-1.36777
 20
63.5841
 11
-1.4239
 21
63.6165
  0
LINE
  8
0
 10
-1.4239
 20
63.6165
 11
-1.48553
 21
63.6366
  0
LINE
  8
0
 10
-1.48553
 20
63.6366
 11
-1.54999
 21
63.6433
  0
LINE
  8
0
 10
-1.54999
 20
63.6433
 11
-1.61444
 21
63.6366
  0
LINE
  8
0
 10
-1.61444
 20
63.6366
 11
-1.67607
 21
63.6165
  0
LINE
  8
0
 10
-1.67607
 20
63.6165
 11
-1.73219
 21
63.5841
  0
LINE
  8
0
 10
-1.73219
 20
63.5841
 11
-1.78036
 21
63.5408
  0
LINE
  8
0
 10
-1.78036
 20
63.5408
 11
-1.81845
 21
63.4883
  0
LINE
  8
0
 10
-1.81845
 20
63.4883
 11
-1.84482
 21
63.4291
  0
LINE
  8
0
 10
-1.84482
 20
63.4291
 11
-1.85829
 21
63.3657
  0
LINE
  8
0
 10
-1.85829
 20
63.3657
 11
-1.85829
 21
63.3333
  0
LINE
  8
0
 10
-1.85829
 20
63.3333
 11
-3.09999
 21
63.3333
  0
LINE
  8
0
 10
-3.09999
 20
63.3333
 11
-3.09999
 21
60
  0
LINE
  8
0
 10
-3.09999
 20
60
 11
3.33334
 21
60
  0
LINE
  8
0
 10
3.33334
 20
60
 11
3.33334
 21
58.7583
  0
LINE
  8
0
 10
3.33334
 20
58.7583
 11
3.30095
 21
58.7583
  0
LINE
  8
0
 10
3.30095
 20
58.7583
 11
3.23755
 21
58.7448
  0
LINE
  8
0
 10
3.23755
 20
58.7448
 11
3.17834
 21
58.7185
  0
LINE
  8
0
 10
3.17834
 20
58.7185
 11
3.12592
 21
58.6804
  0
LINE
  8
0
 10
3.12592
 20
58.6804
 11
3.08255
 21
58.6322
  0
LINE
  8
0
 10
3.08255
 20
58.6322
 11
3.05014
 21
58.5761
  0
LINE
  8
0
 10
3.05014
 20
58.5761
 11
3.03012
 21
58.5145
  0
LINE
  8
0
 10
3.03012
 20
58.5145
 11
3.02335
 21
58.45
  0
LINE
  8
0
 10
3.02335
 20
58.45
 11
3.03012
 21
58.3856
  0
LINE
  8
0
 10
3.03012
 20
58.3856
 11
3.05014
 21
58.3239
  0
LINE
  8
0
 10
3.05014
 20
58.3239
 11
3.08255
 21
58.2678
  0
LINE
  8
0
 10
3.08255
 20
58.2678
 11
3.12592
 21
58.2196
  0
LINE
  8
0
 10
3.12592
 20
58.2196
 11
3.17834
 21
58.1815
  0
LINE
  8
0
 10
3.17834
 20
58.1815
 11
3.23755
 21
58.1552
  0
LINE
  8
0
 10
3.23755
 20
58.1552
 11
3.30095
 21
58.1417
  0
LINE
  8
0
 10
3.30095
 20
58.1417
 11
3.33334
 21
58.1417
  0
LINE
  8
0
 10
3.33334
 20
58.1417
 11
3.33334
 21
56.9
  0
LINE
  8
0
 10
3.33334
 20
56.9
 11
6.66667
 21
56.9
  0
LINE
  8
0
 10
6.66667
 20
56.9
 11
6.66667
 21
60
  0
LINE
  8
0
 10
14.8118
 20
73.2099
 11
14.4438
 21
73.2881
  0
LINE
  8
0
 10
14.4438
 20
73.2881
 11
14.1
 21
73.4411
  0
LINE
  8
0
 10
14.1
 20
73.4411
 11
13.7956
 21
73.6623
  0
LINE
  8
0
 10
13.7956
 20
73.6623
 11
13.5438
 21
73.942
  0
LINE
  8
0
 10
13.5438
 20
73.942
 11
13.3556
 21
74.2679
  0
LINE
  8
0
 10
13.3556
 20
74.2679
 11
13.2393
 21
74.6257
  0
LINE
  8
0
 10
13.2393
 20
74.6257
 11
13.2
 21
75
  0
LINE
  8
0
 10
13.2
 20
75
 11
13.2393
 21
75.3742
  0
LINE
  8
0
 10
13.2393
 20
75.3742
 11
13.3556
 21
75.7321
  0
LINE
  8
0
 10
13.3556
 20
75.7321
 11
13.5438
 21
76.058
  0
LINE
  8
0
 10
13.5438
 20
76.058
 11
13.7956
 21
76.3376
  0
LINE
  8
0
 10
13.7956
 20
76.3376
 11
14.1
 21
76.5588
  0
LINE
  8
0
 10
14.1
 20
76.5588
 11
14.4438
 21
76.7119
  0
LINE
  8
0
 10
14.4438
 20
76.7119
 11
14.8118
 21
76.7901
  0
LINE
  8
0
 10
14.8118
 20
76.7901
 11
15.1881
 21
76.7901
  0
LINE
  8
0
 10
15.1881
 20
76.7901
 11
15.5562
 21
76.7119
  0
LINE
  8
0
 10
15.5562
 20
76.7119
 11
15.9
 21
76.5588
  0
LINE
  8
0
 10
15.9
 20
76.5588
 11
16.2044
 21
76.3376
  0
LINE
  8
0
 10
16.2044
 20
76.3376
 11
16.4562
 21
76.058
  0
LINE
  8
0
 10
16.4562
 20
76.058
 11
16.6444
 21
75.7321
  0
LINE
  8
0
 10
16.6444
 20
75.7321
 11
16.7607
 21
75.3742
  0
LINE
  8
0
 10
16.7607
 20
75.3742
 11
16.8
 21
75
  0
LINE
  8
0
 10
16.8
 20
75
 11
16.7607
 21
74.6257
  0
LINE
  8
0
 10
16.7607
 20
74.6257
 11
16.6444
 21
74.2679
  0
LINE
  8
0
 10
16.6444
 20
74.2679
 11
16.4562
 21
73.942
  0
LINE
  8
0
 10
16.4562
 20
73.942
 11
16.2044
 21
73.6623
  0
LINE
  8
0
 10
16.2044
 20
73.6623
 11
15.9
 21
73.4411
  0
LINE
  8
0
 10
15.9
 20
73.4411
 11
15.5562
 21
73.2881
  0
LINE
  8
0
 10
15.5562
 20
73.2881
 11
15.1881
 21
73.2099
  0
LINE
  8
0
 10
15.1881
 20
73.2099
 11
14.8118
 21
73.2099
  0
LINE
  8
0
 10
9.81184
 20
68.2099
 11
9.44376
 21
68.2881
  0
LINE
  8
0
 10
9.44376
 20
68.2881
 11
9.09999
 21
68.4411
  0
LINE
  8
0
 10
9.09999
 20
68.4411
 11
8.79556
 21
68.6623
  0
LINE
  8
0
 10
8.79556
 20
68.6623
 11
8.54376
 21
68.942
  0
LINE
  8
0
 10
8.54376
 20
68.942
 11
8.35561
 21
69.2679
  0
LINE
  8
0
 10
8.35561
 20
69.2679
 11
8.23933
 21
69.6257
  0
LINE
  8
0
 10
8.23933
 20
69.6257
 11
8.2
 21
70
  0
LINE
  8
0
 10
8.2
 20
70
 11
8.23933
 21
70.3742
  0
LINE
  8
0
 10
8.23933
 20
70.3742
 11
8.35561
 21
70.7321
  0
LINE
  8
0
 10
8.35561
 20
70.7321
 11
8.54376
 21
71.058
  0
LINE
  8
0
 10
8.54376
 20
71.058
 11
8.79556
 21
71.3376
  0
LINE
  8
0
 10
8.79556
 20
71.3376
 11
9.09999
 21
71.5588
  0
LINE
  8
0
 10
9.09999
 20
71.5588
 11
9.44376
 21
71.7119
  0
LINE
  8
0
 10
9.44376
 20
71.7119
 11
9.81184
 21
71.7901
  0
LINE
  8
0
 10
9.81184
 20
71.7901
 11
10.1881
 21
71.7901
  0
LINE
  8
0
 10
10.1881
 20
71.7901
 11
10.5562
 21
71.7119
  0
LINE
  8
0
 10
10.5562
 20
71.7119
 11
10.9
 21
71.5588
  0
LINE
  8
0
 10
10.9
 20
71.5588
 11
11.2044
 21
71.3376
  0
LINE
  8
0
 10
11.2044
 20
71.3376
 11
11.4562
 21
71.058
  0
LINE
  8
0
 10
11.4562
 20
71.058
 11
11.6444
 21
70.7321
  0
LINE
  8
0
 10
11.6444
 20
70.7321
 11
11.7607
 21
70.3742
  0
LINE
  8
0
 10
11.7607
 20
70.3742
 11
11.8
 21
70
  0
LINE
  8
0
 10
11.8
 20
70
 11
11.7607
 21
69.6257
  0
LINE
  8
0
 10
11.7607
 20
69.6257
 11
11.6444
 21
69.2679
  0
LINE
  8
0
 10
11.6444
 20
69.2679
 11
11.4562
 21
68.942
  0
LINE
  8
0
 10
11.4562
 20
68.942
 11
11.2044
 21
68.6623
  0
LINE
  8
0
 10
11.2044
 20
68.6623
 11
10.9
 21
68.4411
  0
LINE
  8
0
 10
10.9
 20
68.4411
 11
10.5562
 21
68.2881
  0
LINE
  8
0
 10
10.5562
 20
68.2881
 11
10.1881
 21
68.2099
  0
LINE
  8
0
 10
10.1881
 20
68.2099
 11
9.81184
 21
68.2099
  0
LINE
  8
0
 10
4.81184
 20
63.2099
 11
4.44376
 21
63.2881
  0
LINE
  8
0
 10
4.44376
 20
63.2881
 11
4.09999
 21
63.4411
  0
LINE
  8
0
 10
4.09999
 20
63.4411
 11
3.79556
 21
63.6623
  0
LINE
  8
0
 10
3.79556
 20
63.6623
 11
3.54376
 21
63.942
  0
LINE
  8
0
 10
3.54376
 20
63.942
 11
3.35561
 21
64.2679
  0
LINE
  8
0
 10
3.35561
 20
64.2679
 11
3.23933
 21
64.6257
  0
LINE
  8
0
 10
3.23933
 20
64.6257
 11
3.2
 21
65
  0
LINE
  8
0
 10
3.2
 20
65
 11
3.23933
 21
65.3742
  0
LINE
  8
0
 10
3.23933
 20
65.3742
 11
3.35561
 21
65.7321
  0
LINE
  8
0
 10
3.35561
 20
65.7321
 11
3.54376
 21
66.058
  0
LINE
  8
0
 10
3.54376
 20
66.058
 11
3.79556
 21
66.3376
  0
LINE
  8
0
 10
3.79556
 20
66.3376
 11
4.09999
 21
66.5588
  0
LINE
  8
0
 10
4.09999
 20
66.5588
 11
4.44376
 21
66.7119
  0
LINE
  8
0
 10
4.44376
 20
66.7119
 11
4.81184
 21
66.7901
  0
LINE
  8
0
 10
4.81184
 20
66.7901
 11
5.18814
 21
66.7901
  0
LINE
  8
0
 10
5.18814
 20
66.7901
 11
5.55623
 21
66.7119
  0
LINE
  8
0
 10
5.55623
 20
66.7119
 11
5.89999
 21
66.5588
  0
LINE
  8
0
 10
5.89999
 20
66.5588
 11
6.20442
 21
66.3376
  0
LINE
  8
0
 10
6.20442
 20
66.3376
 11
6.45622
 21
66.058
  0
LINE
  8
0
 10
6.45622
 20
66.058
 11
6.64438
 21
65.7321
  0
LINE
  8
0
 10
6.64438
 20
65.7321
 11
6.76065
 21
65.3742
  0
LINE
  8
0
 10
6.76065
 20
65.3742
 11
6.79999
 21
65
  0
LINE
  8
0
 10
6.79999
 20
65
 11
6.76065
 21
64.6257
  0
LINE
  8
0
 10
6.76065
 20
64.6257
 11
6.64438
 21
64.2679
  0
LINE
  8
0
 10
6.64438
 20
64.2679
 11
6.45622
 21
63.942
  0
LINE
  8
0
 10
6.45622
 20
63.942
 11
6.20442
 21
63.6623
  0
LINE
  8
0
 10
6.20442
 20
63.6623
 11
5.89999
 21
63.4411
  0
LINE
  8
0
 10
5.89999
 20
63.4411
 11
5.55623
 21
63.2881
  0
LINE
  8
0
 10
5.55623
 20
63.2881
 11
5.18814
 21
63.2099
  0
LINE
  8
0
 10
5.18814
 20
63.2099
 11
4.81184
 21
63.2099
  0
LINE
  8
0
 10
6.66667
 20
30
 11
10
 21
30
  0
LINE
  8
0
 10
10
 20
30
 11
10
 21
28.7583
  0
LINE
  8
0
 10
10
 20
28.7583
 11
9.96762
 21
28.7583
  0
LINE
  8
0
 10
9.96762
 20
28.7583
 11
9.90422
 21
28.7448
  0
LINE
  8
0
 10
9.90422
 20
28.7448
 11
9.84502
 21
28.7185
  0
LINE
  8
0
 10
9.84502
 20
28.7185
 11
9.79259
 21
28.6804
  0
LINE
  8
0
 10
9.79259
 20
28.6804
 11
9.74922
 21
28.6322
  0
LINE
  8
0
 10
9.74922
 20
28.6322
 11
9.71681
 21
28.5761
  0
LINE
  8
0
 10
9.71681
 20
28.5761
 11
9.69679
 21
28.5145
  0
LINE
  8
0
 10
9.69679
 20
28.5145
 11
9.69002
 21
28.45
  0
LINE
  8
0
 10
9.69002
 20
28.45
 11
9.69679
 21
28.3856
  0
LINE
  8
0
 10
9.69679
 20
28.3856
 11
9.71681
 21
28.3239
  0
LINE
  8
0
 10
9.71681
 20
28.3239
 11
9.74922
 21
28.2678
  0
LINE
  8
0
 10
9.74922
 20
28.2678
 11
9.79259
 21
28.2196
  0
LINE
  8
0
 10
9.79259
 20
28.2196
 11
9.84502
 21
28.1815
  0
LINE
  8
0
 10
9.84502
 20
28.1815
 11
9.90422
 21
28.1552
  0
LINE
  8
0
 10
9.90422
 20
28.1552
 11
9.96762
 21
28.1417
  0
LINE
  8
0
 10
9.96762
 20
28.1417
 11
10
 21
28.1417
  0
LINE
  8
0
 10
10
 20
28.1417
 11
10
 21
26.9
  0
LINE
  8
0
 10
10
 20
26.9
 11
13.3333
 21
26.9
  0
LINE
  8
0
 10
13.3333
 20
26.9
 11
13.3333
 21
30
  0
LINE
  8
0
 10
13.3333
 20
30
 11
16.6667
 21
30
  0
LINE
  8
0
 10
16.6667
 20
30
 11
16.6667
 21
28.7583
  0
LINE
  8
0
 10
16.6667
 20
28.7583
 11
16.6343
 21
28.7583
  0
LINE
  8
0
 10
16.6343
 20
28.7583
 11
16.5709
 21
28.7448
  0
LINE
  8
0
 10
16.5709
 20
28.7448
 11
16.5117
 21
28.7185
  0
LINE
  8
0
 10
16.5117
 20
28.7185
 11
16.4592
 21
28.6804
  0
LINE
  8
0
 10
16.4592
 20
28.6804
 11
16.4159
 21
28.6322
  0
LINE
  8
0
 10
16.4159
 20
28.6322
 11
16.3835
 21
28.5761
  0
LINE
  8
0
 10
16.3835
 20
28.5761
 11
16.3634
 21
28.5145
  0
LINE
  8
0
 10
16.3634
 20
28.5145
 11
16.3567
 21
28.45
  0
LINE
  8
0
 10
16.3567
 20
28.45
 11
16.3634
 21
28.3856
  0
LINE
  8
0
 10
16.3634
 20
28.3856
 11
16.3835
 21
28.3239
  0
LINE
  8
0
 10
16.3835
 20
28.3239
 11
16.4159
 21
28.2678
  0
LINE
  8
0
 10
16.4159
 20
28.2678
 11
16.4592
 21
28.2196
  0
LINE
  8
0
 10
16.4592
 20
28.2196
 11
16.5117
 21
28.1815
  0
LINE
  8
0
 10
16.5117
 20
28.1815
 11
16.5709
 21
28.1552
  0
LINE
  8
0
 10
16.5709
 20
28.1552
 11
16.6343
 21
28.1417
  0
LINE
  8
0
 10
16.6343
 20
28.1417
 11
16.6667
 21
28.1417
  0
LINE
  8
0
 10
16.6667
 20
28.1417
 11
16.6667
 21
26.9
  0
LINE
  8
0
 10
16.6667
 20
26.9
 11
20
 21
26.9
  0
LINE
  8
0
 10
20
 20
26.9
 11
20
 21
33.3333
  0
LINE
  8
0
 10
20
 20
33.3333
 11
21.2417
 21
33.3333
  0
LINE
  8
0
 10
21.2417
 20
33.3333
 11
21.2417
 21
33.3009
  0
LINE
  8
0
 10
21.2417
 20
33.3009
 11
21.2552
 21
33.2375
  0
LINE
  8
0
 10
21.2552
 20
33.2375
 11
21.2815
 21
33.1783
  0
LINE
  8
0
 10
21.2815
 20
33.1783
 11
21.3196
 21
33.1259
  0
LINE
  8
0
 10
21.3196
 20
33.1259
 11
21.3678
 21
33.0826
  0
LINE
  8
0
 10
21.3678
 20
33.0826
 11
21.4239
 21
33.0501
  0
LINE
  8
0
 10
21.4239
 20
33.0501
 11
21.4855
 21
33.0301
  0
LINE
  8
0
 10
21.4855
 20
33.0301
 11
21.55
 21
33.0233
  0
LINE
  8
0
 10
21.55
 20
33.0233
 11
21.6144
 21
33.0301
  0
LINE
  8
0
 10
21.6144
 20
33.0301
 11
21.6761
 21
33.0501
  0
LINE
  8
0
 10
21.6761
 20
33.0501
 11
21.7322
 21
33.0826
  0
LINE
  8
0
 10
21.7322
 20
33.0826
 11
21.7804
 21
33.1259
  0
LINE
  8
0
 10
21.7804
 20
33.1259
 11
21.8185
 21
33.1783
  0
LINE
  8
0
 10
21.8185
 20
33.1783
 11
21.8448
 21
33.2375
  0
LINE
  8
0
 10
21.8448
 20
33.2375
 11
21.8583
 21
33.3009
  0
LINE
  8
0
 10
21.8583
 20
33.3009
 11
21.8583
 21
33.3333
  0
LINE
  8
0
 10
21.8583
 20
33.3333
 11
23.1
 21
33.3333
  0
LINE
  8
0
 10
23.1
 20
33.3333
 11
23.1
 21
36.6667
  0
LINE
  8
0
 10
23.1
 20
36.6667
 11
20
 21
36.6667
  0
LINE
  8
0
 10
20
 20
36.6667
 11
20
 21
40
  0
LINE
  8
0
 10
20
 20
40
 11
21.2417
 21
40
  0
LINE
  8
0
 10
21.2417
 20
40
 11
21.2417
 21
39.9676
  0
LINE
  8
0
 10
21.2417
 20
39.9676
 11
21.2552
 21
39.9042
  0
LINE
  8
0
 10
21.2552
 20
39.9042
 11
21.2815
 21
39.845
  0
LINE
  8
0
 10
21.2815
 20
39.845
 11
21.3196
 21
39.7926
  0
LINE
  8
0
 10
21.3196
 20
39.7926
 11
21.3678
 21
39.7492
  0
LINE
  8
0
 10
21.3678
 20
39.7492
 11
21.4239
 21
39.7168
  0
LINE
  8
0
 10
21.4239
 20
39.7168
 11
21.4855
 21
39.6968
  0
LINE
  8
0
 10
21.4855
 20
39.6968
 11
21.55
 21
39.69
  0
LINE
  8
0
 10
21.55
 20
39.69
 11
21.6144
 21
39.6968
  0
LINE
  8
0
 10
21.6144
 20
39.6968
 11
21.6761
 21
39.7168
  0
LINE
  8
0
 10
21.6761
 20
39.7168
 11
21.7322
 21
39.7492
  0
LINE
  8
0
 10
21.7322
 20
39.7492
 11
21.7804
 21
39.7926
  0
LINE
  8
0
 10
21.7804
 20
39.7926
 11
21.8185
 21
39.845
  0
LINE
  8
0
 10
21.8185
 20
39.845
 11
21.8448
 21
39.9042
  0
LINE
  8
0
 10
21.8448
 20
39.9042
 11
21.8583
 21
39.9676
  0
LINE
  8
0
 10
21.8583
 20
39.9676
 11
21.8583
 21
40
  0
LINE
  8
0
 10
21.8583
 20
40
 11
23.1
 21
40
  0
LINE
  8
0
 10
23.1
 20
40
 11
23.1
 21
43.3333
  0
LINE
  8
0
 10
23.1
 20
43.3333
 11
20
 21
43.3333
  0
LINE
  8
0
 10
20
 20
43.3333
 11
20
 21
46.6667
  0
LINE
  8
0
 10
20
 20
46.6667
 11
21.2417
 21
46.6667
  0
LINE
  8
0
 10
21.2417
 20
46.6667
 11
21.2417
 21
46.6343
  0
LINE
  8
0
 10
21.2417
 20
46.6343
 11
21.2552
 21
46.5709
  0
LINE
  8
0
 10
21.2552
 20
46.5709
 11
21.2815
 21
46.5117
  0
LINE
  8
0
 10
21.2815
 20
46.5117
 11
21.3196
 21
46.4592
  0
LINE
  8
0
 10
21.3196
 20
46.4592
 11
21.3678
 21
46.4159
  0
LINE
  8
0
 10
21.3678
 20
46.4159
 11
21.4239
 21
46.3835
  0
LINE
  8
0
 10
21.4239
 20
46.3835
 11
21.4855
 21
46.3634
  0
LINE
  8
0
 10
21.4855
 20
46.3634
 11
21.55
 21
46.3567
  0
LINE
  8
0
 10
21.55
 20
46.3567
 11
21.6144
 21
46.3634
  0
LINE
  8
0
 10
21.6144
 20
46.3634
 11
21.6761
 21
46.3835
  0
LINE
  8
0
 10
21.6761
 20
46.3835
 11
21.7322
 21
46.4159
  0
LINE
  8
0
 10
21.7322
 20
46.4159
 11
21.7804
 21
46.4592
  0
LINE
  8
0
 10
21.7804
 20
46.4592
 11
21.8185
 21
46.5117
  0
LINE
  8
0
 10
21.8185
 20
46.5117
 11
21.8448
 21
46.5709
  0
LINE
  8
0
 10
21.8448
 20
46.5709
 11
21.8583
 21
46.6343
  0
LINE
  8
0
 10
21.8583
 20
46.6343
 11
21.8583
 21
46.6667
  0
LINE
  8
0
 10
21.8583
 20
46.6667
 11
23.1
 21
46.6667
  0
LINE
  8
0
 10
23.1
 20
46.6667
 11
23.1
 21
50
  0
LINE
  8
0
 10
23.1
 20
50
 11
16.6667
 21
50
  0
LINE
  8
0
 10
16.6667
 20
50
 11
16.6667
 21
51.2417
  0
LINE
  8
0
 10
16.6667
 20
51.2417
 11
16.6991
 21
51.2417
  0
LINE
  8
0
 10
16.6991
 20
51.2417
 11
16.7625
 21
51.2552
  0
LINE
  8
0
 10
16.7625
 20
51.2552
 11
16.8217
 21
51.2815
  0
LINE
  8
0
 10
16.8217
 20
51.2815
 11
16.8741
 21
51.3196
  0
LINE
  8
0
 10
16.8741
 20
51.3196
 11
16.9174
 21
51.3678
  0
LINE
  8
0
 10
16.9174
 20
51.3678
 11
16.9499
 21
51.4239
  0
LINE
  8
0
 10
16.9499
 20
51.4239
 11
16.9699
 21
51.4855
  0
LINE
  8
0
 10
16.9699
 20
51.4855
 11
16.9767
 21
51.55
  0
LINE
  8
0
 10
16.9767
 20
51.55
 11
16.9699
 21
51.6144
  0
LINE
  8
0
 10
16.9699
 20
51.6144
 11
16.9499
 21
51.6761
  0
LINE
  8
0
 10
16.9499
 20
51.6761
 11
16.9174
 21
51.7322
  0
LINE
  8
0
 10
16.9174
 20
51.7322
 11
16.8741
 21
51.7804
  0
LINE
  8
0
 10
16.8741
 20
51.7804
 11
16.8217
 21
51.8185
  0
LINE
  8
0
 10
16.8217
 20
51.8185
 11
16.7625
 21
51.8448
  0
LINE
  8
0
 10
16.7625
 20
51.8448
 11
16.6991
 21
51.8583
  0
LINE
  8
0
 10
16.6991
 20
51.8583
 11
16.6667
 21
51.8583
  0
LINE
  8
0
 10
16.6667
 20
51.8583
 11
16.6667
 21
53.1
  0
LINE
  8
0
 10
16.6667
 20
53.1
 11
13.3333
 21
53.1
  0
LINE
  8
0
 10
13.3333
 20
53.1
 11
13.3333
 21
50
  0
LINE
  8
0
 10
13.3333
 20
50
 11
9.99998
 21
50
  0
LINE
  8
0
 10
9.99998
 20
50
 11
9.99998
 21
51.2417
  0
LINE
  8
0
 10
9.99998
 20
51.2417
 11
10.0324
 21
51.2417
  0
LINE
  8
0
 10
10.0324
 20
51.2417
 11
10.0958
 21
51.2552
  0
LINE
  8
0
 10
10.0958
 20
51.2552
 11
10.155
 21
51.2815
  0
LINE
  8
0
 10
10.155
 20
51.2815
 11
10.2074
 21
51.3196
  0
LINE
  8
0
 10
10.2074
 20
51.3196
 11
10.2508
 21
51.3678
  0
LINE
  8
0
 10
10.2508
 20
51.3678
 11
10.2832
 21
51.4239
  0
LINE
  8
0
 10
10.2832
 20
51.4239
 11
10.3032
 21
51.4855
  0
LINE
  8
0
 10
10.3032
 20
51.4855
 11
10.31
 21
51.55
  0
LINE
  8
0
 10
10.31
 20
51.55
 11
10.3032
 21
51.6144
  0
LINE
  8
0
 10
10.3032
 20
51.6144
 11
10.2832
 21
51.6761
  0
LINE
  8
0
 10
10.2832
 20
51.6761
 11
10.2508
 21
51.7322
  0
LINE
  8
0
 10
10.2508
 20
51.7322
 11
10.2074
 21
51.7804
  0
LINE
  8
0
 10
10.2074
 20
51.7804
 11
10.155
 21
51.8185
  0
LINE
  8
0
 10
10.155
 20
51.8185
 11
10.0958
 21
51.8448
  0
LINE
  8
0
 10
10.0958
 20
51.8448
 11
10.0324
 21
51.8583
  0
LINE
  8
0
 10
10.0324
 20
51.8583
 11
9.99998
 21
51.8583
  0
LINE
  8
0
 10
9.99998
 20
51.8583
 11
9.99998
 21
53.1
  0
LINE
  8
0
 10
9.99998
 20
53.1
 11
6.66666
 21
53.1
  0
LINE
  8
0
 10
6.66666
 20
53.1
 11
6.66666
 21
50
  0
LINE
  8
0
 10
6.66666
 20
50
 11
3.33333
 21
50
  0
LINE
  8
0
 10
3.33333
 20
50
 11
3.33333
 21
51.2417
  0
LINE
  8
0
 10
3.33333
 20
51.2417
 11
3.36572
 21
51.2417
  0
LINE
  8
0
 10
3.36572
 20
51.2417
 11
3.42912
 21
51.2552
  0
LINE
  8
0
 10
3.42912
 20
51.2552
 11
3.48833
 21
51.2815
  0
LINE
  8
0
 10
3.48833
 20
51.2815
 11
3.54076
 21
51.3196
  0
LINE
  8
0
 10
3.54076
 20
51.3196
 11
3.58412
 21
51.3678
  0
LINE
  8
0
 10
3.58412
 20
51.3678
 11
3.61653
 21
51.4239
  0
LINE
  8
0
 10
3.61653
 20
51.4239
 11
3.63655
 21
51.4855
  0
LINE
  8
0
 10
3.63655
 20
51.4855
 11
3.64333
 21
51.55
  0
LINE
  8
0
 10
3.64333
 20
51.55
 11
3.63655
 21
51.6144
  0
LINE
  8
0
 10
3.63655
 20
51.6144
 11
3.61653
 21
51.6761
  0
LINE
  8
0
 10
3.61653
 20
51.6761
 11
3.58412
 21
51.7322
  0
LINE
  8
0
 10
3.58412
 20
51.7322
 11
3.54076
 21
51.7804
  0
LINE
  8
0
 10
3.54076
 20
51.7804
 11
3.48833
 21
51.8185
  0
LINE
  8
0
 10
3.48833
 20
51.8185
 11
3.42912
 21
51.8448
  0
LINE
  8
0
 10
3.42912
 20
51.8448
 11
3.36572
 21
51.8583
  0
LINE
  8
0
 10
3.36572
 20
51.8583
 11
3.33333
 21
51.8583
  0
LINE
  8
0
 10
3.33333
 20
51.8583
 11
3.33333
 21
53.1
  0
LINE
  8
0
 10
3.33333
 20
53.1
 11
0
 21
53.1
  0
LINE
  8
0
 10
0
 20
53.1
 11
0
 21
46.6667
  0
LINE
  8
0
 10
0
 20
46.6667
 11
-1.24168
 21
46.6667
  0
LINE
  8
0
 10
-1.24168
 20
46.6667
 11
-1.24168
 21
46.6991
  0
LINE
  8
0
 10
-1.24168
 20
46.6991
 11
-1.25516
 21
46.7625
  0
LINE
  8
0
 10
-1.25516
 20
46.7625
 11
-1.28152
 21
46.8217
  0
LINE
  8
0
 10
-1.28152
 20
46.8217
 11
-1.31961
 21
46.8741
  0
LINE
  8
0
 10
-1.31961
 20
46.8741
 11
-1.36777
 21
46.9174
  0
LINE
  8
0
 10
-1.36777
 20
46.9174
 11
-1.4239
 21
46.9499
  0
LINE
  8
0
 10
-1.4239
 20
46.9499
 11
-1.48553
 21
46.9699
  0
LINE
  8
0
 10
-1.48553
 20
46.9699
 11
-1.54999
 21
46.9767
  0
LINE
  8
0
 10
-1.54999
 20
46.9767
 11
-1.61444
 21
46.9699
  0
LINE
  8
0
 10
-1.61444
 20
46.9699
 11
-1.67607
 21
46.9499
  0
LINE
  8
0
 10
-1.67607
 20
46.9499
 11
-1.73219
 21
46.9174
  0
LINE
  8
0
 10
-1.73219
 20
46.9174
 11
-1.78036
 21
46.8741
  0
LINE
  8
0
 10
-1.78036
 20
46.8741
 11
-1.81845
 21
46.8217
  0
LINE
  8
0
 10
-1.81845
 20
46.8217
 11
-1.84482
 21
46.7625
  0
LINE
  8
0
 10
-1.84482
 20
46.7625
 11
-1.85829
 21
46.6991
  0
LINE
  8
0
 10
-1.85829
 20
46.6991
 11
-1.85829
 21
46.6667
  0
LINE
  8
0
 10
-1.85829
 20
46.6667
 11
-3.09999
 21
46.6667
  0
LINE
  8
0
 10
-3.09999
 20
46.6667
 11
-3.09999
 21
43.3333
  0
LINE
  8
0
 10
-3.09999
 20
43.3333
 11
0
 21
43.3333
  0
LINE
  8
0
 10
0
 20
43.3333
 11
0
 21
40
  0
LINE
  8
0
 10
0
 20
40
 11
-1.24168
 21
40
  0
LINE
  8
0
 10
-1.24168
 20
40
 11
-1.24168
 21
40.0324
  0
LINE
  8
0
 10
-1.24168
 20
40.0324
 11
-1.25516
 21
40.0958
  0
LINE
  8
0
 10
-1.25516
 20
40.0958
 11
-1.28152
 21
40.155
  0
LINE
  8
0
 10
-1.28152
 20
40.155
 11
-1.31961
 21
40.2074
  0
LINE
  8
0
 10
-1.31961
 20
40.2074
 11
-1.36777
 21
40.2508
  0
LINE
  8
0
 10
-1.36777
 20
40.2508
 11
-1.4239
 21
40.2832
  0
LINE
  8
0
 10
-1.4239
 20
40.2832
 11
-1.48553
 21
40.3032
  0
LINE
  8
0
 10
-1.48553
 20
40.3032
 11
-1.54999
 21
40.31
  0
LINE
  8
0
 10
-1.54999
 20
40.31
 11
-1.61444
 21
40.3032
  0
LINE
  8
0
 10
-1.61444
 20
40.3032
 11
-1.67607
 21
40.2832
  0
LINE
  8
0
 10
-1.67607
 20
40.2832
 11
-1.73219
 21
40.2508
  0
LINE
  8
0
 10
-1.73219
 20
40.2508
 11
-1.78036
 21
40.2074
  0
LINE
  8
0
 10
-1.78036
 20
40.2074
 11
-1.81845
 21
40.155
  0
LINE
  8
0
 10
-1.81845
 20
40.155
 11
-1.84482
 21
40.0958
  0
LINE
  8
0
 10
-1.84482
 20
40.0958
 11
-1.85829
 21
40.0324
  0
LINE
  8
0
 10
-1.85829
 20
40.0324
 11
-1.85829
 21
40
  0
LINE
  8
0
 10
-1.85829
 20
40
 11
-3.09999
 21
40
  0
LINE
  8
0
 10
-3.09999
 20
40
 11
-3.09999
 21
36.6667
  0
LINE
  8
0
 10
-3.09999
 20
36.6667
 11
0
 21
36.6667
  0
LINE
  8
0
 10
0
 20
36.6667
 11
0
 21
33.3333
  0
LINE
  8
0
 10
0
 20
33.3333
 11
-1.24168
 21
33.3333
  0
LINE
  8
0
 10
-1.24168
 20
33.3333
 11
-1.24168
 21
33.3657
  0
LINE
  8
0
 10
-1.24168
 20
33.3657
 11
-1.25516
 21
33.4291
  0
LINE
  8
0
 10
-1.25516
 20
33.4291
 11
-1.28152
 21
33.4883
  0
LINE
  8
0
 10
-1.28152
 20
33.4883
 11
-1.31961
 21
33.5408
  0
LINE
  8
0
 10
-1.31961
 20
33.5408
 11
-1.36777
 21
33.5841
  0
LINE
  8
0
 10
-1.36777
 20
33.5841
 11
-1.4239
 21
33.6165
  0
LINE
  8
0
 10
-1.4239
 20
33.6165
 11
-1.48553
 21
33.6366
  0
LINE
  8
0
 10
-1.48553
 20
33.6366
 11
-1.54999
 21
33.6433
  0
LINE
  8
0
 10
-1.54999
 20
33.6433
 11
-1.61444
 21
33.6366
  0
LINE
  8
0
 10
-1.61444
 20
33.6366
 11
-1.67607
 21
33.6165
  0
LINE
  8
0
 10
-1.67607
 20
33.6165
 11
-1.73219
 21
33.5841
  0
LINE
  8
0
 10
-1.73219
 20
33.5841
 11
-1.78036
 21
33.5408
  0
LINE
  8
0
 10
-1.78036
 20
33.5408
 11
-1.81845
 21
33.4883
  0
LINE
  8
0
 10
-1.81845
 20
33.4883
 11
-1.84482
 21
33.4291
  0
LINE
  8
0
 10
-1.84482
 20
33.4291
 11
-1.85829
 21
33.3657
  0
LINE
  8
0
 10
-1.85829
 20
33.3657
 11
-1.85829
 21
33.3333
  0
LINE
  8
0
 10
-1.85829
 20
33.3333
 11
-3.09999
 21
33.3333
  0
LINE
  8
0
 10
-3.09999
 20
33.3333
 11
-3.09999
 21
30
  0
LINE
  8
0
 10
-3.09999
 20
30
 11
3.33334
 21
30
  0
LINE
  8
0
 10
3.33334
 20
30
 11
3.33334
 21
28.7583
  0
LINE
  8
0
 10
3.33334
 20
28.7583
 11
3.30095
 21
28.7583
  0
LINE
  8
0
 10
3.30095
 20
28.7583
 11
3.23755
 21
28.7448
  0
LINE
  8
0
 10
3.23755
 20
28.7448
 11
3.17834
 21
28.7185
  0
LINE
  8
0
 10
3.17834
 20
28.7185
 11
3.12592
 21
28.6804
  0
LINE
  8
0
 10
3.12592
 20
28.6804
 11
3.08255
 21
28.6322
  0
LINE
  8
0
 10
3.08255
 20
28.6322
 11
3.05014
 21
28.5761
  0
LINE
  8
0
 10
3.05014
 20
28.5761
 11
3.03012
 21
28.5145
  0
LINE
  8
0
 10
3.03012
 20
28.5145
 11
3.02335
 21
28.45
  0
LINE
  8
0
 10
3.02335
 20
28.45
 11
3.03012
 21
28.3856
  0
LINE
  8
0
 10
3.03012
 20
28.3856
 11
3.05014
 21
28.3239
  0
LINE
  8
0
 10
3.05014
 20
28.3239
 11
3.08255
 21
28.2678
  0
LINE
  8
0
 10
3.08255
 20
28.2678
 11
3.12592
 21
28.2196
  0
LINE
  8
0
 10
3.12592
 20
28.2196
 11
3.17834
 21
28.1815
  0
LINE
  8
0
 10
3.17834
 20
28.1815
 11
3.23755
 21
28.1552
  0
LINE
  8
0
 10
3.23755
 20
28.1552
 11
3.30095
 21
28.1417
  0
LINE
  8
0
 10
3.30095
 20
28.1417
 11
3.33334
 21
28.1417
  0
LINE
  8
0
 10
3.33334
 20
28.1417
 11
3.33334
 21
26.9
  0
LINE
  8
0
 10
3.33334
 20
26.9
 11
6.66667
 21
26.9
  0
LINE
  8
0
 10
6.66667
 20
26.9
 11
6.66667
 21
30
  0
LINE
  8
0
 10
14.8118
 20
43.2099
 11
14.4438
 21
43.2881
  0
LINE
  8
0
 10
14.4438
 20
43.2881
 11
14.1
 21
43.4411
  0
LINE
  8
0
 10
14.1
 20
43.4411
 11
13.7956
 21
43.6623
  0
LINE
  8
0
 10
13.7956
 20
43.6623
 11
13.5438
 21
43.942
  0
LINE
  8
0
 10
13.5438
 20
43.942
 11
13.3556
 21
44.2679
  0
LINE
  8
0
 10
13.3556
 20
44.2679
 11
13.2393
 21
44.6257
  0
LINE
  8
0
 10
13.2393
 20
44.6257
 11
13.2
 21
45
  0
LINE
  8
0
 10
13.2
 20
45
 11
13.2393
 21
45.3742
  0
LINE
  8
0
 10
13.2393
 20
45.3742
 11
13.3556
 21
45.7321
  0
LINE
  8
0
 10
13.3556
 20
45.7321
 11
13.5438
 21
46.058
  0
LINE
  8
0
 10
13.5438
 20
46.058
 11
13.7956
 21
46.3376
  0
LINE
  8
0
 10
13.7956
 20
46.3376
 11
14.1
 21
46.5588
  0
LINE
  8
0
 10
14.1
 20
46.5588
 11
14.4438
 21
46.7119
  0
LINE
  8
0
 10
14.4438
 20
46.7119
 11
14.8118
 21
46.7901
  0
LINE
  8
0
 10
14.8118
 20
46.7901
 11
15.1881
 21
46.7901
  0
LINE
  8
0
 10
15.1881
 20
46.7901
 11
15.5562
 21
46.7119
  0
LINE
  8
0
 10
15.5562
 20
46.7119
 11
15.9
 21
46.5588
  0
LINE
  8
0
 10
15.9
 20
46.5588
 11
16.2044
 21
46.3376
  0
LINE
  8
0
 10
16.2044
 20
46.3376
 11
16.4562
 21
46.058
  0
LINE
  8
0
 10
16.4562
 20
46.058
 11
16.6444
 21
45.7321
  0
LINE
  8
0
 10
16.6444
 20
45.7321
 11
16.7607
 21
45.3742
  0
LINE
  8
0
 10
16.7607
 20
45.3742
 11
16.8
 21
45
  0
LINE
  8
0
 10
16.8
 20
45
 11
16.7607
 21
44.6257
  0
LINE
  8
0
 10
16.7607
 20
44.6257
 11
16.6444
 21
44.2679
  0
LINE
  8
0
 10
16.6444
 20
44.2679
 11
16.4562
 21
43.942
  0
LINE
  8
0
 10
16.4562
 20
43.942
 11
16.2044
 21
43.6623
  0
LINE
  8
0
 10
16.2044
 20
43.6623
 11
15.9
 21
43.4411
  0
LINE
  8
0
 10
15.9
 20
43.4411
 11
15.5562
 21
43.2881
  0
LINE
  8
0
 10
15.5562
 20
43.2881
 11
15.1881
 21
43.2099
  0
LINE
  8
0
 10
15.1881
 20
43.2099
 11
14.8118
 21
43.2099
  0
LINE
  8
0
 10
4.81184
 20
33.2099
 11
4.44376
 21
33.2881
  0
LINE
  8
0
 10
4.44376
 20
33.2881
 11
4.09999
 21
33.4411
  0
LINE
  8
0
 10
4.09999
 20
33.4411
 11
3.79556
 21
33.6623
  0
LINE
  8
0
 10
3.79556
 20
33.6623
 11
3.54376
 21
33.942
  0
LINE
  8
0
 10
3.54376
 20
33.942
 11
3.35561
 21
34.2679
  0
LINE
  8
0
 10
3.35561
 20
34.2679
 11
3.23933
 21
34.6257
  0
LINE
  8
0
 10
3.23933
 20
34.6257
 11
3.2
 21
35
  0
LINE
  8
0
 10
3.2
 20
35
 11
3.23933
 21
35.3742
  0
LINE
  8
0
 10
3.23933
 20
35.3742
 11
3.35561
 21
35.7321
  0
LINE
  8
0
 10
3.35561
 20
35.7321
 11
3.54376
 21
36.058
  0
LINE
  8
0
 10
3.54376
 20
36.058
 11
3.79556
 21
36.3376
  0
LINE
  8
0
 10
3.79556
 20
36.3376
 11
4.09999
 21
36.5588
  0
LINE
  8
0
 10
4.09999
 20
36.5588
 11
4.44376
 21
36.7119
  0
LINE
  8
0
 10
4.44376
 20
36.7119
 11
4.81184
 21
36.7901
  0
LINE
  8
0
 10
4.81184
 20
36.7901
 11
5.18814
 21
36.7901
  0
LINE
  8
0
 10
5.18814
 20
36.7901
 11
5.55623
 21
36.7119
  0
LINE
  8
0
 10
5.55623
 20
36.7119
 11
5.89999
 21
36.5588
  0
LINE
  8
0
 10
5.89999
 20
36.5588
 11
6.20442
 21
36.3376
  0
LINE
  8
0
 10
6.20442
 20
36.3376
 11
6.45622
 21
36.058
  0
LINE
  8
0
 10
6.45622
 20
36.058
 11
6.64438
 21
35.7321
  0
LINE
  8
0
 10
6.64438
 20
35.7321
 11
6.76065
 21
35.3742
  0
LINE
  8
0
 10
6.76065
 20
35.3742
 11
6.79999
 21
35
  0
LINE
  8
0
 10
6.79999
 20
35
 11
6.76065
 21
34.6257
  0
LINE
  8
0
 10
6.76065
 20
34.6257
 11
6.64438
 21
34.2679
  0
LINE
  8
0
 10
6.64438
 20
34.2679
 11
6.45622
 21
33.942
  0
LINE
  8
0
 10
6.45622
 20
33.942
 11
6.20442
 21
33.6623
  0
LINE
  8
0
 10
6.20442
 20
33.6623
 11
5.89999
 21
33.4411
  0
LINE
  8
0
 10
5.89999
 20
33.4411
 11
5.55623
 21
33.2881
  0
LINE
  8
0
 10
5.55623
 20
33.2881
 11
5.18814
 21
33.2099
  0
LINE
  8
0
 10
5.18814
 20
33.2099
 11
4.81184
 21
33.2099
  0
LINE
  8
0
 10
6.66667
 20
0
 11
10
 21
0
  0
LINE
  8
0
 10
10
 20
0
 11
10
 21
-1.24168
  0
LINE
  8
0
 10
10
 20
-1.24168
 11
9.96762
 21
-1.24168
  0
LINE
  8
0
 10
9.96762
 20
-1.24168
 11
9.90422
 21
-1.25516
  0
LINE
  8
0
 10
9.90422
 20
-1.25516
 11
9.84502
 21
-1.28152
  0
LINE
  8
0
 10
9.84502
 20
-1.28152
 11
9.79259
 21
-1.31961
  0
LINE
  8
0
 10
9.79259
 20
-1.31961
 11
9.74922
 21
-1.36777
  0
LINE
  8
0
 10
9.74922
 20
-1.36777
 11
9.71681
 21
-1.4239
  0
LINE
  8
0
 10
9.71681
 20
-1.4239
 11
9.69679
 21
-1.48553
  0
LINE
  8
0
 10
9.69679
 20
-1.48553
 11
9.69002
 21
-1.54999
  0
LINE
  8
0
 10
9.69002
 20
-1.54999
 11
9.69679
 21
-1.61444
  0
LINE
  8
0
 10
9.69679
 20
-1.61444
 11
9.71681
 21
-1.67607
  0
LINE
  8
0
 10
9.71681
 20
-1.67607
 11
9.74922
 21
-1.73219
  0
LINE
  8
0
 10
9.74922
 20
-1.73219
 11
9.79259
 21
-1.78036
  0
LINE
  8
0
 10
9.79259
 20
-1.78036
 11
9.84502
 21
-1.81845
  0
LINE
  8
0
 10
9.84502
 20
-1.81845
 11
9.90422
 21
-1.84482
  0
LINE
  8
0
 10
9.90422
 20
-1.84482
 11
9.96762
 21
-1.85829
  0
LINE
  8
0
 10
9.96762
 20
-1.85829
 11
10
 21
-1.85829
  0
LINE
  8
0
 10
10
 20
-1.85829
 11
10
 21
-3.09999
  0
LINE
  8
0
 10
10
 20
-3.09999
 11
13.3333
 21
-3.09999
  0
LINE
  8
0
 10
13.3333
 20
-3.09999
 11
13.3333
 21
0
  0
LINE
  8
0
 10
13.3333
 20
0
 11
16.6667
 21
0
  0
LINE
  8
0
 10
16.6667
 20
0
 11
16.6667
 21
-1.24168
  0
LINE
  8
0
 10
16.6667
 20
-1.24168
 11
16.6343
 21
-1.24168
  0
LINE
  8
0
 10
16.6343
 20
-1.24168
 11
16.5709
 21
-1.25516
  0
LINE
  8
0
 10
16.5709
 20
-1.25516
 11
16.5117
 21
-1.28152
  0
LINE
  8
0
 10
16.5117
 20
-1.28152
 11
16.4592
 21
-1.31961
  0
LINE
  8
0
 10
16.4592
 20
-1.31961
 11
16.4159
 21
-1.36777
  0
LINE
  8
0
 10
16.4159
 20
-1.36777
 11
16.3835
 21
-1.4239
  0
LINE
  8
0
 10
16.3835
 20
-1.4239
 11
16.3634
 21
-1.48553
  0
LINE
  8
0
 10
16.3634
 20
-1.48553
 11
16.3567
 21
-1.54999
  0
LINE
  8
0
 10
16.3567
 20
-1.54999
 11
16.3634
 21
-1.61444
  0
LINE
  8
0
 10
16.3634
 20
-1.61444
 11
16.3835
 21
-1.67607
  0
LINE
  8
0
 10
16.3835
 20
-1.67607
 11
16.4159
 21
-1.73219
  0
LINE
  8
0
 10
16.4159
 20
-1.73219
 11
16.4592
 21
-1.78036
  0
LINE
  8
0
 10
16.4592
 20
-1.78036
 11
16.5117
 21
-1.81845
  0
LINE
  8
0
 10
16.5117
 20
-1.81845
 11
16.5709
 21
-1.84482
  0
LINE
  8
0
 10
16.5709
 20
-1.84482
 11
16.6343
 21
-1.85829
  0
LINE
  8
0
 10
16.6343
 20
-1.85829
 11
16.6667
 21
-1.85829
  0
LINE
  8
0
 10
16.6667
 20
-1.85829
 11
16.6667
 21
-3.09999
  0
LINE
  8
0
 10
16.6667
 20
-3.09999
 11
20
 21
-3.09999
  0
LINE
  8
0
 10
20
 20
-3.09999
 11
20
 21
3.33334
  0
LINE
  8
0
 10
20
 20
3.33334
 11
21.2417
 21
3.33334
  0
LINE
  8
0
 10
21.2417
 20
3.33334
 11
21.2417
 21
3.30095
  0
LINE
  8
0
 10
21.2417
 20
3.30095
 11
21.2552
 21
3.23755
  0
LINE
  8
0
 10
21.2552
 20
3.23755
 11
21.2815
 21
3.17834
  0
LINE
  8
0
 10
21.2815
 20
3.17834
 11
21.3196
 21
3.12592
  0
LINE
  8
0
 10
21.3196
 20
3.12592
 11
21.3678
 21
3.08255
  0
LINE
  8
0
 10
21.3678
 20
3.08255
 11
21.4239
 21
3.05014
  0
LINE
  8
0
 10
21.4239
 20
3.05014
 11
21.4855
 21
3.03012
  0
LINE
  8
0
 10
21.4855
 20
3.03012
 11
21.55
 21
3.02335
  0
LINE
  8
0
 10
21.55
 20
3.02335
 11
21.6144
 21
3.03012
  0
LINE
  8
0
 10
21.6144
 20
3.03012
 11
21.6761
 21
3.05014
  0
LINE
  8
0
 10
21.6761
 20
3.05014
 11
21.7322
 21
3.08255
  0
LINE
  8
0
 10
21.7322
 20
3.08255
 11
21.7804
 21
3.12592
  0
LINE
  8
0
 10
21.7804
 20
3.12592
 11
21.8185
 21
3.17834
  0
LINE
  8
0
 10
21.8185
 20
3.17834
 11
21.8448
 21
3.23755
  0
LINE
  8
0
 10
21.8448
 20
3.23755
 11
21.8583
 21
3.30095
  0
LINE
  8
0
 10
21.8583
 20
3.30095
 11
21.8583
 21
3.33334
  0
LINE
  8
0
 10
21.8583
 20
3.33334
 11
23.1
 21
3.33334
  0
LINE
  8
0
 10
23.1
 20
3.33334
 11
23.1
 21
6.66667
  0
LINE
  8
0
 10
23.1
 20
6.66667
 11
20
 21
6.66667
  0
LINE
  8
0
 10
20
 20
6.66667
 11
20
 21
10
  0
LINE
  8
0
 10
20
 20
10
 11
21.2417
 21
10
  0
LINE
  8
0
 10
21.2417
 20
10
 11
21.2417
 21
9.96762
  0
LINE
  8
0
 10
21.2417
 20
9.96762
 11
21.2552
 21
9.90422
  0
LINE
  8
0
 10
21.2552
 20
9.90422
 11
21.2815
 21
9.84502
  0
LINE
  8
0
 10
21.2815
 20
9.84502
 11
21.3196
 21
9.79259
  0
LINE
  8
0
 10
21.3196
 20
9.79259
 11
21.3678
 21
9.74922
  0
LINE
  8
0
 10
21.3678
 20
9.74922
 11
21.4239
 21
9.71681
  0
LINE
  8
0
 10
21.4239
 20
9.71681
 11
21.4855
 21
9.69679
  0
LINE
  8
0
 10
21.4855
 20
9.69679
 11
21.55
 21
9.69002
  0
LINE
  8
0
 10
21.55
 20
9.69002
 11
21.6144
 21
9.69679
  0
LINE
  8
0
 10
21.6144
 20
9.69679
 11
21.6761
 21
9.71681
  0
LINE
  8
0
 10
21.6761
 20
9.71681
 11
21.7322
 21
9.74922
  0
LINE
  8
0
 10
21.7322
 20
9.74922
 11
21.7804
 21
9.79259
  0
LINE
  8
0
 10
21.7804
 20
9.79259
 11
21.8185
 21
9.84502
  0
LINE
  8
0
 10
21.8185
 20
9.84502
 11
21.8448
 21
9.90422
  0
LINE
  8
0
 10
21.8448
 20
9.90422
 11
21.8583
 21
9.96762
  0
LINE
  8
0
 10
21.8583
 20
9.96762
 11
21.8583
 21
10
  0
LINE
  8
0
 10
21.8583
 20
10
 11
23.1
 21
10
  0
LINE
  8
0
 10
23.1
 20
10
 11
23.1
 21
13.3333
  0
LINE
  8
0
 10
23.1
 20
13.3333
 11
20
 21
13.3333
  0
LINE
  8
0
 10
20
 20
13.3333
 11
20
 21
16.6667
  0
LINE
  8
0
 10
20
 20
16.6667
 11
21.2417
 21
16.6667
  0
LINE
  8
0
 10
21.2417
 20
16.6667
 11
21.2417
 21
16.6343
  0
LINE
  8
0
 10
21.2417
 20
16.6343
 11
21.2552
 21
16.5709
  0
LINE
  8
0
 10
21.2552
 20
16.5709
 11
21.2815
 21
16.5117
  0
LINE
  8
0
 10
21.2815
 20
16.5117
 11
21.3196
 21
16.4592
  0
LINE
  8
0
 10
21.3196
 20
16.4592
 11
21.3678
 21
16.4159
  0
LINE
  8
0
 10
21.3678
 20
16.4159
 11
21.4239
 21
16.3835
  0
LINE
  8
0
 10
21.4239
 20
16.3835
 11
21.4855
 21
16.3634
  0
LINE
  8
0
 10
21.4855
 20
16.3634
 11
21.55
 21
16.3567
  0
LINE
  8
0
 10
21.55
 20
16.3567
 11
21.6144
 21
16.3634
  0
LINE
  8
0
 10
21.6144
 20
16.3634
 11
21.6761
 21
16.3835
  0
LINE
  8
0
 10
21.6761
 20
16.3835
 11
21.7322
 21
16.4159
  0
LINE
  8
0
 10
21.7322
 20
16.4159
 11
21.7804
 21
16.4592
  0
LINE
  8
0
 10
21.7804
 20
16.4592
 11
21.8185
 21
16.5117
  0
LINE
  8
0
 10
21.8185
 20
16.5117
 11
21.8448
 21
16.5709
  0
LINE
  8
0
 10
21.8448
 20
16.5709
 11
21.8583
 21
16.6343
  0
LINE
  8
0
 10
21.8583
 20
16.6343
 11
21.8583
 21
16.6667
  0
LINE
  8
0
 10
21.8583
 20
16.6667
 11
23.1
 21
16.6667
  0
LINE
  8
0
 10
23.1
 20
16.6667
 11
23.1
 21
20
  0
LINE
  8
0
 10
23.1
 20
20
 11
16.6667
 21
20
  0
LINE
  8
0
 10
16.6667
 20
20
 11
16.6667
 21
21.2417
  0
LINE
  8
0
 10
16.6667
 20
21.2417
 11
16.6991
 21
21.2417
  0
LINE
  8
0
 10
16.6991
 20
21.2417
 11
16.7625
 21
21.2552
  0
LINE
  8
0
 10
16.7625
 20
21.2552
 11
16.8217
 21
21.2815
  0
LINE
  8
0
 10
16.8217
 20
21.2815
 11
16.8741
 21
21.3196
  0
LINE
  8
0
 10
16.8741
 20
21.3196
 11
16.9174
 21
21.3678
  0
LINE
  8
0
 10
16.9174
 20
21.3678
 11
16.9499
 21
21.4239
  0
LINE
  8
0
 10
16.9499
 20
21.4239
 11
16.9699
 21
21.4855
  0
LINE
  8
0
 10
16.9699
 20
21.4855
 11
16.9767
 21
21.55
  0
LINE
  8
0
 10
16.9767
 20
21.55
 11
16.9699
 21
21.6144
  0
LINE
  8
0
 10
16.9699
 20
21.6144
 11
16.9499
 21
21.6761
  0
LINE
  8
0
 10
16.9499
 20
21.6761
 11
16.9174
 21
21.7322
  0
LINE
  8
0
 10
16.9174
 20
21.7322
 11
16.8741
 21
21.7804
  0
LINE
  8
0
 10
16.8741
 20
21.7804
 11
16.8217
 21
21.8185
  0
LINE
  8
0
 10
16.8217
 20
21.8185
 11
16.7625
 21
21.8448
  0
LINE
  8
0
 10
16.7625
 20
21.8448
 11
16.6991
 21
21.8583
  0
LINE
  8
0
 10
16.6991
 20
21.8583
 11
16.6667
 21
21.8583
  0
LINE
  8
0
 10
16.6667
 20
21.8583
 11
16.6667
 21
23.1
  0
LINE
  8
0
 10
16.6667
 20
23.1
 11
13.3333
 21
23.1
  0
LINE
  8
0
 10
13.3333
 20
23.1
 11
13.3333
 21
20
  0
LINE
  8
0
 10
13.3333
 20
20
 11
9.99998
 21
20
  0
LINE
  8
0
 10
9.99998
 20
20
 11
9.99998
 21
21.2417
  0
LINE
  8
0
 10
9.99998
 20
21.2417
 11
10.0324
 21
21.2417
  0
LINE
  8
0
 10
10.0324
 20
21.2417
 11
10.0958
 21
21.2552
  0
LINE
  8
0
 10
10.0958
 20
21.2552
 11
10.155
 21
21.2815
  0
LINE
  8
0
 10
10.155
 20
21.2815
 11
10.2074
 21
21.3196
  0
LINE
  8
0
 10
10.2074
 20
21.3196
 11
10.2508
 21
21.3678
  0
LINE
  8
0
 10
10.2508
 20
21.3678
 11
10.2832
 21
21.4239
  0
LINE
  8
0
 10
10.2832
 20
21.4239
 11
10.3032
 21
21.4855
  0
LINE
  8
0
 10
10.3032
 20
21.4855
 11
10.31
 21
21.55
  0
LINE
  8
0
 10
10.31
 20
21.55
 11
10.3032
 21
21.6144
  0
LINE
  8
0
 10
10.3032
 20
21.6144
 11
10.2832
 21
21.6761
  0
LINE
  8
0
 10
10.2832
 20
21.6761
 11
10.2508
 21
21.7322
  0
LINE
  8
0
 10
10.2508
 20
21.7322
 11
10.2074
 21
21.7804
  0
LINE
  8
0
 10
10.2074
 20
21.7804
 11
10.155
 21
21.8185
  0
LINE
  8
0
 10
10.155
 20
21.8185
 11
10.0958
 21
21.8448
  0
LINE
  8
0
 10
10.0958
 20
21.8448
 11
10.0324
 21
21.8583
  0
LINE
  8
0
 10
10.0324
 20
21.8583
 11
9.99998
 21
21.8583
  0
LINE
  8
0
 10
9.99998
 20
21.8583
 11
9.99998
 21
23.1
  0
LINE
  8
0
 10
9.99998
 20
23.1
 11
6.66666
 21
23.1
  0
LINE
  8
0
 10
6.66666
 20
23.1
 11
6.66666
 21
20
  0
LINE
  8
0
 10
6.66666
 20
20
 11
3.33333
 21
20
  0
LINE
  8
0
 10
3.33333
 20
20
 11
3.33333
 21
21.2417
  0
LINE
  8
0
 10
3.33333
 20
21.2417
 11
3.36572
 21
21.2417
  0
LINE
  8
0
 10
3.36572
 20
21.2417
 11
3.42912
 21
21.2552
  0
LINE
  8
0
 10
3.42912
 20
21.2552
 11
3.48833
 21
21.2815
  0
LINE
  8
0
 10
3.48833
 20
21.2815
 11
3.54076
 21
21.3196
  0
LINE
  8
0
 10
3.54076
 20
21.3196
 11
3.58412
 21
21.3678
  0
LINE
  8
0
 10
3.58412
 20
21.3678
 11
3.61653
 21
21.4239
  0
LINE
  8
0
 10
3.61653
 20
21.4239
 11
3.63655
 21
21.4855
  0
LINE
  8
0
 10
3.63655
 20
21.4855
 11
3.64333
 21
21.55
  0
LINE
  8
0
 10
3.64333
 20
21.55
 11
3.63655
 21
21.6144
  0
LINE
  8
0
 10
3.63655
 20
21.6144
 11
3.61653
 21
21.6761
  0
LINE
  8
0
 10
3.61653
 20
21.6761
 11
3.58412
 21
21.7322
  0
LINE
  8
0
 10
3.58412
 20
21.7322
 11
3.54076
 21
21.7804
  0
LINE
  8
0
 10
3.54076
 20
21.7804
 11
3.48833
 21
21.8185
  0
LINE
  8
0
 10
3.48833
 20
21.8185
 11
3.42912
 21
21.8448
  0
LINE
  8
0
 10
3.42912
 20
21.8448
 11
3.36572
 21
21.8583
  0
LINE
  8
0
 10
3.36572
 20
21.8583
 11
3.33333
 21
21.8583
  0
LINE
  8
0
 10
3.33333
 20
21.8583
 11
3.33333
 21
23.1
  0
LINE
  8
0
 10
3.33333
 20
23.1
 11
0
 21
23.1
  0
LINE
  8
0
 10
0
 20
23.1
 11
0
 21
16.6667
  0
LINE
  8
0
 10
0
 20
16.6667
 11
-1.24168
 21
16.6667
  0
LINE
  8
0
 10
-1.24168
 20
16.6667
 11
-1.24168
 21
16.6991
  0
LINE
  8
0
 10
-1.24168
 20
16.6991
 11
-1.25516
 21
16.7625
  0
LINE
  8
0
 10
-1.25516
 20
16.7625
 11
-1.28152
 21
16.8217
  0
LINE
  8
0
 10
-1.28152
 20
16.8217
 11
-1.31961
 21
16.8741
  0
LINE
  8
0
 10
-1.31961
 20
16.8741
 11
-1.36777
 21
16.9174
  0
LINE
  8
0
 10
-1.36777
 20
16.9174
 11
-1.4239
 21
16.9499
  0
LINE
  8
0
 10
-1.4239
 20
16.9499
 11
-1.48553
 21
16.9699
  0
LINE
  8
0
 10
-1.48553
 20
16.9699
 11
-1.54999
 21
16.9767
  0
LINE
  8
0
 10
-1.54999
 20
16.9767
 11
-1.61444
 21
16.9699
  0
LINE
  8
0
 10
-1.61444
 20
16.9699
 11
-1.67607
 21
16.9499
  0
LINE
  8
0
 10
-1.67607
 20
16.9499
 11
-1.73219
 21
16.9174
  0
LINE
  8
0
 10
-1.73219
 20
16.9174
 11
-1.78036
 21
16.8741
  0
LINE
  8
0
 10
-1.78036
 20
16.8741
 11
-1.81845
 21
16.8217
  0
LINE
  8
0
 10
-1.81845
 20
16.8217
 11
-1.84482
 21
16.7625
  0
LINE
  8
0
 10
-1.84482
 20
16.7625
 11
-1.85829
 21
16.6991
  0
LINE
  8
0
 10
-1.85829
 20
16.6991
 11
-1.85829
 21
16.6667
  0
LINE
  8
0
 10
-1.85829
 20
16.6667
 11
-3.09999
 21
16.6667
  0
LINE
  8
0
 10
-3.09999
 20
16.6667
 11
-3.09999
 21
13.3333
  0
LINE
  8
0
 10
-3.09999
 20
13.3333
 11
0
 21
13.3333
  0
LINE
  8
0
 10
0
 20
13.3333
 11
0
 21
9.99998
  0
LINE
  8
0
 10
0
 20
9.99998
 11
-1.24168
 21
9.99998
  0
LINE
  8
0
 10
-1.24168
 20
9.99998
 11
-1.24168
 21
10.0324
  0
LINE
  8
0
 10
-1.24168
 20
10.0324
 11
-1.25516
 21
10.0958
  0
LINE
  8
0
 10
-1.25516
 20
10.0958
 11
-1.28152
 21
10.155
  0
LINE
  8
0
 10
-1.28152
 20
10.155
 11
-1.31961
 21
10.2074
  0
LINE
  8
0
 10
-1.31961
 20
10.2074
 11
-1.36777
 21
10.2508
  0
LINE
  8
0
 10
-1.36777
 20
10.2508
 11
-1.4239
 21
10.2832
  0
LINE
  8
0
 10
-1.4239
 20
10.2832
 11
-1.48553
 21
10.3032
  0
LINE
  8
0
 10
-1.48553
 20
10.3032
 11
-1.54999
 21
10.31
  0
LINE
  8
0
 10
-1.54999
 20
10.31
 11
-1.61444
 21
10.3032
  0
LINE
  8
0
 10
-1.61444
 20
10.3032
 11
-1.67607
 21
10.2832
  0
LINE
  8
0
 10
-1.67607
 20
10.2832
 11
-1.73219
 21
10.2508
  0
LINE
  8
0
 10
-1.73219
 20
10.2508
 11
-1.78036
 21
10.2074
  0
LINE
  8
0
 10
-1.78036
 20
10.2074
 11
-1.81845
 21
10.155
  0
LINE
  8
0
 10
-1.81845
 20
10.155
 11
-1.84482
 21
10.0958
  0
LINE
  8
0
 10
-1.84482
 20
10.0958
 11
-1.85829
 21
10.0324
  0
LINE
  8
0
 10
-1.85829
 20
10.0324
 11
-1.85829
 21
9.99998
  0
LINE
  8
0
 10
-1.85829
 20
9.99998
 11
-3.09999
 21
9.99998
  0
LINE
  8
0
 10
-3.09999
 20
9.99998
 11
-3.09999
 21
6.66666
  0
LINE
  8
0
 10
-3.09999
 20
6.66666
 11
0
 21
6.66666
  0
LINE
  8
0
 10
0
 20
6.66666
 11
0
 21
3.33333
  0
LINE
  8
0
 10
0
 20
3.33333
 11
-1.24168
 21
3.33333
  0
LINE
  8
0
 10
-1.24168
 20
3.33333
 11
-1.24168
 21
3.36572
  0
LINE
  8
0
 10
-1.24168
 20
3.36572
 11
-1.25516
 21
3.42912
  0
LINE
  8
0
 10
-1.25516
 20
3.42912
 11
-1.28152
 21
3.48833
  0
LINE
  8
0
 10
-1.28152
 20
3.48833
 11
-1.31961
 21
3.54076
  0
LINE
  8
0
 10
-1.31961
 20
3.54076
 11
-1.36777
 21
3.58412
  0
LINE
  8
0
 10
-1.36777
 20
3.58412
 11
-1.4239
 21
3.61653
  0
LINE
  8
0
 10
-1.4239
 20
3.61653
 11
-1.48553
 21
3.63655
  0
LINE
  8
0
 10
-1.48553
 20
3.63655
 11
-1.54999
 21
3.64333
  0
LINE
  8
0
 10
-1.54999
 20
3.64333
 11
-1.61444
 21
3.63655
  0
LINE
  8
0
 10
-1.61444
 20
3.63655
 11
-1.67607
 21
3.61653
  0
LINE
  8
0
 10
-1.67607
 20
3.61653
 11
-1.73219
 21
3.58412
  0
LINE
  8
0
 10
-1.73219
 20
3.58412
 11
-1.78036
 21
3.54076
  0
LINE
  8
0
 10
-1.78036
 20
3.54076
 11
-1.81845
 21
3.48833
  0
LINE
  8
0
 10
-1.81845
 20
3.48833
 11
-1.84482
 21
3.42912
  0
LINE
  8
0
 10
-1.84482
 20
3.42912
 11
-1.85829
 21
3.36572
  0
LINE
  8
0
 10
-1.85829
 20
3.36572
 11
-1.85829
 21
3.33333
  0
LINE
  8
0
 10
-1.85829
 20
3.33333
 11
-3.09999
 21
3.33333
  0
LINE
  8
0
 10
-3.09999
 20
3.33333
 11
-3.09999
 21
0
  0
LINE
  8
0
 10
-3.09999
 20
0
 11
3.33334
 21
0
  0
LINE
  8
0
 10
3.33334
 20
0
 11
3.33334
 21
-1.24168
  0
LINE
  8
0
 10
3.33334
 20
-1.24168
 11
3.30095
 21
-1.24168
  0
LINE
  8
0
 10
3.30095
 20
-1.24168
 11
3.23755
 21
-1.25516
  0
LINE
  8
0
 10
3.23755
 20
-1.25516
 11
3.17834
 21
-1.28152
  0
LINE
  8
0
 10
3.17834
 20
-1.28152
 11
3.12592
 21
-1.31961
  0
LINE
  8
0
 10
3.12592
 20
-1.31961
 11
3.08255
 21
-1.36777
  0
LINE
  8
0
 10
3.08255
 20
-1.36777
 11
3.05014
 21
-1.4239
  0
LINE
  8
0
 10
3.05014
 20
-1.4239
 11
3.03012
 21
-1.48553
  0
LINE
  8
0
 10
3.03012
 20
-1.48553
 11
3.02335
 21
-1.54999
  0
LINE
  8
0
 10
3.02335
 20
-1.54999
 11
3.03012
 21
-1.61444
  0
LINE
  8
0
 10
3.03012
 20
-1.61444
 11
3.05014
 21
-1.67607
  0
LINE
  8
0
 10
3.05014
 20
-1.67607
 11
3.08255
 21
-1.73219
  0
LINE
  8
0
 10
3.08255
 20
-1.73219
 11
3.12592
 21
-1.78036
  0
LINE
  8
0
 10
3.12592
 20
-1.78036
 11
3.17834
 21
-1.81845
  0
LINE
  8
0
 10
3.17834
 20
-1.81845
 11
3.23755
 21
-1.84482
  0
LINE
  8
0
 10
3.23755
 20
-1.84482
 11
3.30095
 21
-1.85829
  0
LINE
  8
0
 10
3.30095
 20
-1.85829
 11
3.33334
 21
-1.85829
  0
LINE
  8
0
 10
3.33334
 20
-1.85829
 11
3.33334
 21
-3.09999
  0
LINE
  8
0
 10
3.33334
 20
-3.09999
 11
6.66667
 21
-3.09999
  0
LINE
  8
0
 10
6.66667
 20
-3.09999
 11
6.66667
 21
0
  0
LINE
  8
0
 10
9.81184
 20
8.20985
 11
9.44376
 21
8.28809
  0
LINE
  8
0
 10
9.44376
 20
8.28809
 11
9.09999
 21
8.44115
  0
LINE
  8
0
 10
9.09999
 20
8.44115
 11
8.79556
 21
8.66234
  0
LINE
  8
0
 10
8.79556
 20
8.66234
 11
8.54376
 21
8.94199
  0
LINE
  8
0
 10
8.54376
 20
8.94199
 11
8.35561
 21
9.26787
  0
LINE
  8
0
 10
8.35561
 20
9.26787
 11
8.23933
 21
9.62575
  0
LINE
  8
0
 10
8.23933
 20
9.62575
 11
8.2
 21
10
  0
LINE
  8
0
 10
8.2
 20
10
 11
8.23933
 21
10.3742
  0
LINE
  8
0
 10
8.23933
 20
10.3742
 11
8.35561
 21
10.7321
  0
LINE
  8
0
 10
8.35561
 20
10.7321
 11
8.54376
 21
11.058
  0
LINE
  8
0
 10
8.54376
 20
11.058
 11
8.79556
 21
11.3376
  0
LINE
  8
0
 10
8.79556
 20
11.3376
 11
9.09999
 21
11.5588
  0
LINE
  8
0
 10
9.09999
 20
11.5588
 11
9.44376
 21
11.7119
  0
LINE
  8
0
 10
9.44376
 20
11.7119
 11
9.81184
 21
11.7901
  0
LINE
  8
0
 10
9.81184
 20
11.7901
 11
10.1881
 21
11.7901
  0
LINE
  8
0
 10
10.1881
 20
11.7901
 11
10.5562
 21
11.7119
  0
LINE
  8
0
 10
10.5562
 20
11.7119
 11
10.9
 21
11.5588
  0
LINE
  8
0
 10
10.9
 20
11.5588
 11
11.2044
 21
11.3376
  0
LINE
  8
0
 10
11.2044
 20
11.3376
 11
11.4562
 21
11.058
  0
LINE
  8
0
 10
11.4562
 20
11.058
 11
11.6444
 21
10.7321
  0
LINE
  8
0
 10
11.6444
 20
10.7321
 11
11.7607
 21
10.3742
  0
LINE
  8
0
 10
11.7607
 20
10.3742
 11
11.8
 21
10
  0
LINE
  8
0
 10
11.8
 20
10
 11
11.7607
 21
9.62575
  0
LINE
  8
0
 10
11.7607
 20
9.62575
 11
11.6444
 21
9.26787
  0
LINE
  8
0
 10
11.6444
 20
9.26787
 11
11.4562
 21
8.94199
  0
LINE
  8
0
 10
11.4562
 20
8.94199
 11
11.2044
 21
8.66234
  0
LINE
  8
0
 10
11.2044
 20
8.66234
 11
10.9
 21
8.44115
  0
LINE
  8
0
 10
10.9
 20
8.44115
 11
10.5562
 21
8.28809
  0
LINE
  8
0
 10
10.5562
 20
8.28809
 11
10.1881
 21
8.20985
  0
LINE
  8
0
 10
10.1881
 20
8.20985
 11
9.81184
 21
8.20985
  0
ENDSEC
  0
SECTION
  2
OBJECTS
  0
DICTIONARY
  0
ENDSEC
  0
EOF
