  0
SECTION
  2
BLOCKS
  0
ENDSEC
  0
SECTION
  2
ENTITIES
  0
LINE
  8
0
 10
10
 20
150
 11
15
 21
150
  0
LINE
  8
0
 10
15
 20
150
 11
15
 21
148.714
  0
LINE
  8
0
 10
15
 20
148.714
 11
14.9042
 21
148.745
  0
LINE
  8
0
 10
14.9042
 20
148.745
 11
14.69
 21
148.45
  0
LINE
  8
0
 10
14.69
 20
148.45
 11
14.9042
 21
148.155
  0
LINE
  8
0
 10
14.9042
 20
148.155
 11
15
 21
148.186
  0
LINE
  8
0
 10
15
 20
148.186
 11
15
 21
146.9
  0
LINE
  8
0
 10
15
 20
146.9
 11
20
 21
146.9
  0
LINE
  8
0
 10
20
 20
146.9
 11
20
 21
150
  0
LINE
  8
0
 10
20
 20
150
 11
25
 21
150
  0
LINE
  8
0
 10
25
 20
150
 11
25
 21
148.714
  0
LINE
  8
0
 10
25
 20
148.714
 11
24.9042
 21
148.745
  0
LINE
  8
0
 10
24.9042
 20
148.745
 11
24.69
 21
148.45
  0
LINE
  8
0
 10
24.69
 20
148.45
 11
24.9042
 21
148.155
  0
LINE
  8
0
 10
24.9042
 20
148.155
 11
25
 21
148.186
  0
LINE
  8
0
 10
25
 20
148.186
 11
25
 21
146.9
  0
LINE
  8
0
 10
25
 20
146.9
 11
30
 21
146.9
  0
LINE
  8
0
 10
30
 20
146.9
 11
30
 21
150
  0
LINE
  8
0
 10
30
 20
150
 11
35
 21
150
  0
LINE
  8
0
 10
35
 20
150
 11
35
 21
148.714
  0
LINE
  8
0
 10
35
 20
148.714
 11
34.9042
 21
148.745
  0
LINE
  8
0
 10
34.9042
 20
148.745
 11
34.69
 21
148.45
  0
LINE
  8
0
 10
34.69
 20
148.45
 11
34.9042
 21
148.155
  0
LINE
  8
0
 10
34.9042
 20
148.155
 11
35
 21
148.186
  0
LINE
  8
0
 10
35
 20
148.186
 11
35
 21
146.9
  0
LINE
  8
0
 10
35
 20
146.9
 11
40
 21
146.9
  0
LINE
  8
0
 10
40
 20
146.9
 11
40
 21
150
  0
LINE
  8
0
 10
40
 20
150
 11
45
 21
150
  0
LINE
  8
0
 10
45
 20
150
 11
45
 21
148.714
  0
LINE
  8
0
 10
45
 20
148.714
 11
44.9042
 21
148.745
  0
LINE
  8
0
 10
44.9042
 20
148.745
 11
44.69
 21
148.45
  0
LINE
  8
0
 10
44.69
 20
148.45
 11
44.9042
 21
148.155
  0
LINE
  8
0
 10
44.9042
 20
148.155
 11
45
 21
148.186
  0
LINE
  8
0
 10
45
 20
148.186
 11
45
 21
146.9
  0
LINE
  8
0
 10
45
 20
146.9
 11
50
 21
146.9
  0
LINE
  8
0
 10
50
 20
146.9
 11
50
 21
150
  0
LINE
  8
0
 10
50
 20
150
 11
55
 21
150
  0
LINE
  8
0
 10
55
 20
150
 11
55
 21
148.714
  0
LINE
  8
0
 10
55
 20
148.714
 11
54.9042
 21
148.745
  0
LINE
  8
0
 10
54.9042
 20
148.745
 11
54.69
 21
148.45
  0
LINE
  8
0
 10
54.69
 20
148.45
 11
54.9042
 21
148.155
  0
LINE
  8
0
 10
54.9042
 20
148.155
 11
55
 21
148.186
  0
LINE
  8
0
 10
55
 20
148.186
 11
55
 21
146.9
  0
LINE
  8
0
 10
55
 20
146.9
 11
60
 21
146.9
  0
LINE
  8
0
 10
60
 20
146.9
 11
60
 21
155
  0
LINE
  8
0
 10
60
 20
155
 11
61.2863
 21
155
  0
LINE
  8
0
 10
61.2863
 20
155
 11
61.2552
 21
154.904
  0
LINE
  8
0
 10
61.2552
 20
154.904
 11
61.55
 21
154.69
  0
LINE
  8
0
 10
61.55
 20
154.69
 11
61.8448
 21
154.904
  0
LINE
  8
0
 10
61.8448
 20
154.904
 11
61.8137
 21
155
  0
LINE
  8
0
 10
61.8137
 20
155
 11
63.1
 21
155
  0
LINE
  8
0
 10
63.1
 20
155
 11
63.1
 21
160
  0
LINE
  8
0
 10
63.1
 20
160
 11
60
 21
160
  0
LINE
  8
0
 10
60
 20
160
 11
60
 21
165
  0
LINE
  8
0
 10
60
 20
165
 11
61.2863
 21
165
  0
LINE
  8
0
 10
61.2863
 20
165
 11
61.2552
 21
164.904
  0
LINE
  8
0
 10
61.2552
 20
164.904
 11
61.55
 21
164.69
  0
LINE
  8
0
 10
61.55
 20
164.69
 11
61.8448
 21
164.904
  0
LINE
  8
0
 10
61.8448
 20
164.904
 11
61.8137
 21
165
  0
LINE
  8
0
 10
61.8137
 20
165
 11
63.1
 21
165
  0
LINE
  8
0
 10
63.1
 20
165
 11
63.1
 21
170
  0
LINE
  8
0
 10
63.1
 20
170
 11
60
 21
170
  0
LINE
  8
0
 10
60
 20
170
 11
60
 21
175
  0
LINE
  8
0
 10
60
 20
175
 11
61.2863
 21
175
  0
LINE
  8
0
 10
61.2863
 20
175
 11
61.2552
 21
174.904
  0
LINE
  8
0
 10
61.2552
 20
174.904
 11
61.55
 21
174.69
  0
LINE
  8
0
 10
61.55
 20
174.69
 11
61.8448
 21
174.904
  0
LINE
  8
0
 10
61.8448
 20
174.904
 11
61.8137
 21
175
  0
LINE
  8
0
 10
61.8137
 20
175
 11
63.1
 21
175
  0
LINE
  8
0
 10
63.1
 20
175
 11
63.1
 21
180
  0
LINE
  8
0
 10
63.1
 20
180
 11
60
 21
180
  0
LINE
  8
0
 10
60
 20
180
 11
60
 21
185
  0
LINE
  8
0
 10
60
 20
185
 11
61.2863
 21
185
  0
LINE
  8
0
 10
61.2863
 20
185
 11
61.2552
 21
184.904
  0
LINE
  8
0
 10
61.2552
 20
184.904
 11
61.55
 21
184.69
  0
LINE
  8
0
 10
61.55
 20
184.69
 11
61.8448
 21
184.904
  0
LINE
  8
0
 10
61.8448
 20
184.904
 11
61.8137
 21
185
  0
LINE
  8
0
 10
61.8137
 20
185
 11
63.1
 21
185
  0
LINE
  8
0
 10
63.1
 20
185
 11
63.1
 21
190
  0
LINE
  8
0
 10
63.1
 20
190
 11
60
 21
190
  0
LINE
  8
0
 10
60
 20
190
 11
60
 21
195
  0
LINE
  8
0
 10
60
 20
195
 11
61.2863
 21
195
  0
LINE
  8
0
 10
61.2863
 20
195
 11
61.2552
 21
194.904
  0
LINE
  8
0
 10
61.2552
 20
194.904
 11
61.55
 21
194.69
  0
LINE
  8
0
 10
61.55
 20
194.69
 11
61.8448
 21
194.904
  0
LINE
  8
0
 10
61.8448
 20
194.904
 11
61.8137
 21
195
  0
LINE
  8
0
 10
61.8137
 20
195
 11
63.1
 21
195
  0
LINE
  8
0
 10
63.1
 20
195
 11
63.1
 21
200
  0
LINE
  8
0
 10
63.1
 20
200
 11
60
 21
200
  0
LINE
  8
0
 10
60
 20
200
 11
60
 21
205
  0
LINE
  8
0
 10
60
 20
205
 11
61.2863
 21
205
  0
LINE
  8
0
 10
61.2863
 20
205
 11
61.2552
 21
204.904
  0
LINE
  8
0
 10
61.2552
 20
204.904
 11
61.55
 21
204.69
  0
LINE
  8
0
 10
61.55
 20
204.69
 11
61.8448
 21
204.904
  0
LINE
  8
0
 10
61.8448
 20
204.904
 11
61.8137
 21
205
  0
LINE
  8
0
 10
61.8137
 20
205
 11
63.1
 21
205
  0
LINE
  8
0
 10
63.1
 20
205
 11
63.1
 21
210
  0
LINE
  8
0
 10
63.1
 20
210
 11
60
 21
210
  0
LINE
  8
0
 10
60
 20
210
 11
60
 21
215
  0
LINE
  8
0
 10
60
 20
215
 11
61.2863
 21
215
  0
LINE
  8
0
 10
61.2863
 20
215
 11
61.2552
 21
214.904
  0
LINE
  8
0
 10
61.2552
 20
214.904
 11
61.55
 21
214.69
  0
LINE
  8
0
 10
61.55
 20
214.69
 11
61.8448
 21
214.904
  0
LINE
  8
0
 10
61.8448
 20
214.904
 11
61.8137
 21
215
  0
LINE
  8
0
 10
61.8137
 20
215
 11
63.1
 21
215
  0
LINE
  8
0
 10
63.1
 20
215
 11
63.1
 21
220
  0
LINE
  8
0
 10
63.1
 20
220
 11
60
 21
220
  0
LINE
  8
0
 10
60
 20
220
 11
60
 21
225
  0
LINE
  8
0
 10
60
 20
225
 11
61.2863
 21
225
  0
LINE
  8
0
 10
61.2863
 20
225
 11
61.2552
 21
224.904
  0
LINE
  8
0
 10
61.2552
 20
224.904
 11
61.55
 21
224.69
  0
LINE
  8
0
 10
61.55
 20
224.69
 11
61.8448
 21
224.904
  0
LINE
  8
0
 10
61.8448
 20
224.904
 11
61.8137
 21
225
  0
LINE
  8
0
 10
61.8137
 20
225
 11
63.1
 21
225
  0
LINE
  8
0
 10
63.1
 20
225
 11
63.1
 21
230
  0
LINE
  8
0
 10
63.1
 20
230
 11
55
 21
230
  0
LINE
  8
0
 10
55
 20
230
 11
55
 21
231.286
  0
LINE
  8
0
 10
55
 20
231.286
 11
55.0958
 21
231.255
  0
LINE
  8
0
 10
55.0958
 20
231.255
 11
55.31
 21
231.55
  0
LINE
  8
0
 10
55.31
 20
231.55
 11
55.0958
 21
231.845
  0
LINE
  8
0
 10
55.0958
 20
231.845
 11
55
 21
231.814
  0
LINE
  8
0
 10
55
 20
231.814
 11
55
 21
233.1
  0
LINE
  8
0
 10
55
 20
233.1
 11
50
 21
233.1
  0
LINE
  8
0
 10
50
 20
233.1
 11
50
 21
230
  0
LINE
  8
0
 10
50
 20
230
 11
45
 21
230
  0
LINE
  8
0
 10
45
 20
230
 11
45
 21
231.286
  0
LINE
  8
0
 10
45
 20
231.286
 11
45.0958
 21
231.255
  0
LINE
  8
0
 10
45.0958
 20
231.255
 11
45.31
 21
231.55
  0
LINE
  8
0
 10
45.31
 20
231.55
 11
45.0958
 21
231.845
  0
LINE
  8
0
 10
45.0958
 20
231.845
 11
45
 21
231.814
  0
LINE
  8
0
 10
45
 20
231.814
 11
45
 21
233.1
  0
LINE
  8
0
 10
45
 20
233.1
 11
40
 21
233.1
  0
LINE
  8
0
 10
40
 20
233.1
 11
40
 21
230
  0
LINE
  8
0
 10
40
 20
230
 11
35
 21
230
  0
LINE
  8
0
 10
35
 20
230
 11
35
 21
231.286
  0
LINE
  8
0
 10
35
 20
231.286
 11
35.0958
 21
231.255
  0
LINE
  8
0
 10
35.0958
 20
231.255
 11
35.31
 21
231.55
  0
LINE
  8
0
 10
35.31
 20
231.55
 11
35.0958
 21
231.845
  0
LINE
  8
0
 10
35.0958
 20
231.845
 11
35
 21
231.814
  0
LINE
  8
0
 10
35
 20
231.814
 11
35
 21
233.1
  0
LINE
  8
0
 10
35
 20
233.1
 11
30
 21
233.1
  0
LINE
  8
0
 10
30
 20
233.1
 11
30
 21
230
  0
LINE
  8
0
 10
30
 20
230
 11
25
 21
230
  0
LINE
  8
0
 10
25
 20
230
 11
25
 21
231.286
  0
LINE
  8
0
 10
25
 20
231.286
 11
25.0958
 21
231.255
  0
LINE
  8
0
 10
25.0958
 20
231.255
 11
25.31
 21
231.55
  0
LINE
  8
0
 10
25.31
 20
231.55
 11
25.0958
 21
231.845
  0
LINE
  8
0
 10
25.0958
 20
231.845
 11
25
 21
231.814
  0
LINE
  8
0
 10
25
 20
231.814
 11
25
 21
233.1
  0
LINE
  8
0
 10
25
 20
233.1
 11
20
 21
233.1
  0
LINE
  8
0
 10
20
 20
233.1
 11
20
 21
230
  0
LINE
  8
0
 10
20
 20
230
 11
15
 21
230
  0
LINE
  8
0
 10
15
 20
230
 11
15
 21
231.286
  0
LINE
  8
0
 10
15
 20
231.286
 11
15.0958
 21
231.255
  0
LINE
  8
0
 10
15.0958
 20
231.255
 11
15.31
 21
231.55
  0
LINE
  8
0
 10
15.31
 20
231.55
 11
15.0958
 21
231.845
  0
LINE
  8
0
 10
15.0958
 20
231.845
 11
15
 21
231.814
  0
LINE
  8
0
 10
15
 20
231.814
 11
15
 21
233.1
  0
LINE
  8
0
 10
15
 20
233.1
 11
10
 21
233.1
  0
LINE
  8
0
 10
10
 20
233.1
 11
10
 21
230
  0
LINE
  8
0
 10
10
 20
230
 11
5
 21
230
  0
LINE
  8
0
 10
5
 20
230
 11
5
 21
231.286
  0
LINE
  8
0
 10
5
 20
231.286
 11
5.09579
 21
231.255
  0
LINE
  8
0
 10
5.09579
 20
231.255
 11
5.31
 21
231.55
  0
LINE
  8
0
 10
5.31
 20
231.55
 11
5.09579
 21
231.845
  0
LINE
  8
0
 10
5.09579
 20
231.845
 11
5
 21
231.814
  0
LINE
  8
0
 10
5
 20
231.814
 11
5
 21
233.1
  0
LINE
  8
0
 10
5
 20
233.1
 11
0
 21
233.1
  0
LINE
  8
0
 10
0
 20
233.1
 11
0
 21
225
  0
LINE
  8
0
 10
0
 20
225
 11
-1.28629
 21
225
  0
LINE
  8
0
 10
-1.28629
 20
225
 11
-1.25516
 21
225.096
  0
LINE
  8
0
 10
-1.25516
 20
225.096
 11
-1.54999
 21
225.31
  0
LINE
  8
0
 10
-1.54999
 20
225.31
 11
-1.84482
 21
225.096
  0
LINE
  8
0
 10
-1.84482
 20
225.096
 11
-1.81369
 21
225
  0
LINE
  8
0
 10
-1.81369
 20
225
 11
-3.09999
 21
225
  0
LINE
  8
0
 10
-3.09999
 20
225
 11
-3.09999
 21
220
  0
LINE
  8
0
 10
-3.09999
 20
220
 11
0
 21
220
  0
LINE
  8
0
 10
0
 20
220
 11
0
 21
215
  0
LINE
  8
0
 10
0
 20
215
 11
-1.28629
 21
215
  0
LINE
  8
0
 10
-1.28629
 20
215
 11
-1.25516
 21
215.096
  0
LINE
  8
0
 10
-1.25516
 20
215.096
 11
-1.54999
 21
215.31
  0
LINE
  8
0
 10
-1.54999
 20
215.31
 11
-1.84482
 21
215.096
  0
LINE
  8
0
 10
-1.84482
 20
215.096
 11
-1.81369
 21
215
  0
LINE
  8
0
 10
-1.81369
 20
215
 11
-3.09999
 21
215
  0
LINE
  8
0
 10
-3.09999
 20
215
 11
-3.09999
 21
210
  0
LINE
  8
0
 10
-3.09999
 20
210
 11
0
 21
210
  0
LINE
  8
0
 10
0
 20
210
 11
0
 21
205
  0
LINE
  8
0
 10
0
 20
205
 11
-1.28629
 21
205
  0
LINE
  8
0
 10
-1.28629
 20
205
 11
-1.25516
 21
205.096
  0
LINE
  8
0
 10
-1.25516
 20
205.096
 11
-1.54999
 21
205.31
  0
LINE
  8
0
 10
-1.54999
 20
205.31
 11
-1.84482
 21
205.096
  0
LINE
  8
0
 10
-1.84482
 20
205.096
 11
-1.81369
 21
205
  0
LINE
  8
0
 10
-1.81369
 20
205
 11
-3.09999
 21
205
  0
LINE
  8
0
 10
-3.09999
 20
205
 11
-3.09999
 21
200
  0
LINE
  8
0
 10
-3.09999
 20
200
 11
0
 21
200
  0
LINE
  8
0
 10
0
 20
200
 11
0
 21
195
  0
LINE
  8
0
 10
0
 20
195
 11
-1.28629
 21
195
  0
LINE
  8
0
 10
-1.28629
 20
195
 11
-1.25516
 21
195.096
  0
LINE
  8
0
 10
-1.25516
 20
195.096
 11
-1.54999
 21
195.31
  0
LINE
  8
0
 10
-1.54999
 20
195.31
 11
-1.84482
 21
195.096
  0
LINE
  8
0
 10
-1.84482
 20
195.096
 11
-1.81369
 21
195
  0
LINE
  8
0
 10
-1.81369
 20
195
 11
-3.09999
 21
195
  0
LINE
  8
0
 10
-3.09999
 20
195
 11
-3.09999
 21
190
  0
LINE
  8
0
 10
-3.09999
 20
190
 11
0
 21
190
  0
LINE
  8
0
 10
0
 20
190
 11
0
 21
185
  0
LINE
  8
0
 10
0
 20
185
 11
-1.28629
 21
185
  0
LINE
  8
0
 10
-1.28629
 20
185
 11
-1.25516
 21
185.096
  0
LINE
  8
0
 10
-1.25516
 20
185.096
 11
-1.54999
 21
185.31
  0
LINE
  8
0
 10
-1.54999
 20
185.31
 11
-1.84482
 21
185.096
  0
LINE
  8
0
 10
-1.84482
 20
185.096
 11
-1.81369
 21
185
  0
LINE
  8
0
 10
-1.81369
 20
185
 11
-3.09999
 21
185
  0
LINE
  8
0
 10
-3.09999
 20
185
 11
-3.09999
 21
180
  0
LINE
  8
0
 10
-3.09999
 20
180
 11
0
 21
180
  0
LINE
  8
0
 10
0
 20
180
 11
0
 21
175
  0
LINE
  8
0
 10
0
 20
175
 11
-1.28629
 21
175
  0
LINE
  8
0
 10
-1.28629
 20
175
 11
-1.25516
 21
175.096
  0
LINE
  8
0
 10
-1.25516
 20
175.096
 11
-1.54999
 21
175.31
  0
LINE
  8
0
 10
-1.54999
 20
175.31
 11
-1.84482
 21
175.096
  0
LINE
  8
0
 10
-1.84482
 20
175.096
 11
-1.81369
 21
175
  0
LINE
  8
0
 10
-1.81369
 20
175
 11
-3.09999
 21
175
  0
LINE
  8
0
 10
-3.09999
 20
175
 11
-3.09999
 21
170
  0
LINE
  8
0
 10
-3.09999
 20
170
 11
0
 21
170
  0
LINE
  8
0
 10
0
 20
170
 11
0
 21
165
  0
LINE
  8
0
 10
0
 20
165
 11
-1.28629
 21
165
  0
LINE
  8
0
 10
-1.28629
 20
165
 11
-1.25516
 21
165.096
  0
LINE
  8
0
 10
-1.25516
 20
165.096
 11
-1.54999
 21
165.31
  0
LINE
  8
0
 10
-1.54999
 20
165.31
 11
-1.84482
 21
165.096
  0
LINE
  8
0
 10
-1.84482
 20
165.096
 11
-1.81369
 21
165
  0
LINE
  8
0
 10
-1.81369
 20
165
 11
-3.09999
 21
165
  0
LINE
  8
0
 10
-3.09999
 20
165
 11
-3.09999
 21
160
  0
LINE
  8
0
 10
-3.09999
 20
160
 11
0
 21
160
  0
LINE
  8
0
 10
0
 20
160
 11
0
 21
155
  0
LINE
  8
0
 10
0
 20
155
 11
-1.28629
 21
155
  0
LINE
  8
0
 10
-1.28629
 20
155
 11
-1.25516
 21
155.096
  0
LINE
  8
0
 10
-1.25516
 20
155.096
 11
-1.54999
 21
155.31
  0
LINE
  8
0
 10
-1.54999
 20
155.31
 11
-1.84482
 21
155.096
  0
LINE
  8
0
 10
-1.84482
 20
155.096
 11
-1.81369
 21
155
  0
LINE
  8
0
 10
-1.81369
 20
155
 11
-3.09999
 21
155
  0
LINE
  8
0
 10
-3.09999
 20
155
 11
-3.09999
 21
150
  0
LINE
  8
0
 10
-3.09999
 20
150
 11
5
 21
150
  0
LINE
  8
0
 10
5
 20
150
 11
5
 21
148.714
  0
LINE
  8
0
 10
5
 20
148.714
 11
4.90421
 21
148.745
  0
LINE
  8
0
 10
4.90421
 20
148.745
 11
4.69
 21
148.45
  0
LINE
  8
0
 10
4.69
 20
148.45
 11
4.90421
 21
148.155
  0
LINE
  8
0
 10
4.90421
 20
148.155
 11
5
 21
148.186
  0
LINE
  8
0
 10
5
 20
148.186
 11
5
 21
146.9
  0
LINE
  8
0
 10
5
 20
146.9
 11
10
 21
146.9
  0
LINE
  8
0
 10
10
 20
146.9
 11
10
 21
150
  0
LINE
  8
0
 10
10
 20
120
 11
15
 21
120
  0
LINE
  8
0
 10
15
 20
120
 11
15
 21
118.714
  0
LINE
  8
0
 10
15
 20
118.714
 11
14.9042
 21
118.745
  0
LINE
  8
0
 10
14.9042
 20
118.745
 11
14.69
 21
118.45
  0
LINE
  8
0
 10
14.69
 20
118.45
 11
14.9042
 21
118.155
  0
LINE
  8
0
 10
14.9042
 20
118.155
 11
15
 21
118.186
  0
LINE
  8
0
 10
15
 20
118.186
 11
15
 21
116.9
  0
LINE
  8
0
 10
15
 20
116.9
 11
20
 21
116.9
  0
LINE
  8
0
 10
20
 20
116.9
 11
20
 21
120
  0
LINE
  8
0
 10
20
 20
120
 11
25
 21
120
  0
LINE
  8
0
 10
25
 20
120
 11
25
 21
118.714
  0
LINE
  8
0
 10
25
 20
118.714
 11
24.9042
 21
118.745
  0
LINE
  8
0
 10
24.9042
 20
118.745
 11
24.69
 21
118.45
  0
LINE
  8
0
 10
24.69
 20
118.45
 11
24.9042
 21
118.155
  0
LINE
  8
0
 10
24.9042
 20
118.155
 11
25
 21
118.186
  0
LINE
  8
0
 10
25
 20
118.186
 11
25
 21
116.9
  0
LINE
  8
0
 10
25
 20
116.9
 11
30
 21
116.9
  0
LINE
  8
0
 10
30
 20
116.9
 11
30
 21
120
  0
LINE
  8
0
 10
30
 20
120
 11
35
 21
120
  0
LINE
  8
0
 10
35
 20
120
 11
35
 21
118.714
  0
LINE
  8
0
 10
35
 20
118.714
 11
34.9042
 21
118.745
  0
LINE
  8
0
 10
34.9042
 20
118.745
 11
34.69
 21
118.45
  0
LINE
  8
0
 10
34.69
 20
118.45
 11
34.9042
 21
118.155
  0
LINE
  8
0
 10
34.9042
 20
118.155
 11
35
 21
118.186
  0
LINE
  8
0
 10
35
 20
118.186
 11
35
 21
116.9
  0
LINE
  8
0
 10
35
 20
116.9
 11
40
 21
116.9
  0
LINE
  8
0
 10
40
 20
116.9
 11
40
 21
120
  0
LINE
  8
0
 10
40
 20
120
 11
45
 21
120
  0
LINE
  8
0
 10
45
 20
120
 11
45
 21
118.714
  0
LINE
  8
0
 10
45
 20
118.714
 11
44.9042
 21
118.745
  0
LINE
  8
0
 10
44.9042
 20
118.745
 11
44.69
 21
118.45
  0
LINE
  8
0
 10
44.69
 20
118.45
 11
44.9042
 21
118.155
  0
LINE
  8
0
 10
44.9042
 20
118.155
 11
45
 21
118.186
  0
LINE
  8
0
 10
45
 20
118.186
 11
45
 21
116.9
  0
LINE
  8
0
 10
45
 20
116.9
 11
50
 21
116.9
  0
LINE
  8
0
 10
50
 20
116.9
 11
50
 21
120
  0
LINE
  8
0
 10
50
 20
120
 11
55
 21
120
  0
LINE
  8
0
 10
55
 20
120
 11
55
 21
118.714
  0
LINE
  8
0
 10
55
 20
118.714
 11
54.9042
 21
118.745
  0
LINE
  8
0
 10
54.9042
 20
118.745
 11
54.69
 21
118.45
  0
LINE
  8
0
 10
54.69
 20
118.45
 11
54.9042
 21
118.155
  0
LINE
  8
0
 10
54.9042
 20
118.155
 11
55
 21
118.186
  0
LINE
  8
0
 10
55
 20
118.186
 11
55
 21
116.9
  0
LINE
  8
0
 10
55
 20
116.9
 11
60
 21
116.9
  0
LINE
  8
0
 10
60
 20
116.9
 11
60
 21
125
  0
LINE
  8
0
 10
60
 20
125
 11
61.2863
 21
125
  0
LINE
  8
0
 10
61.2863
 20
125
 11
61.2552
 21
124.904
  0
LINE
  8
0
 10
61.2552
 20
124.904
 11
61.55
 21
124.69
  0
LINE
  8
0
 10
61.55
 20
124.69
 11
61.8448
 21
124.904
  0
LINE
  8
0
 10
61.8448
 20
124.904
 11
61.8137
 21
125
  0
LINE
  8
0
 10
61.8137
 20
125
 11
63.1
 21
125
  0
LINE
  8
0
 10
63.1
 20
125
 11
63.1
 21
130
  0
LINE
  8
0
 10
63.1
 20
130
 11
60
 21
130
  0
LINE
  8
0
 10
60
 20
130
 11
60
 21
135
  0
LINE
  8
0
 10
60
 20
135
 11
61.2863
 21
135
  0
LINE
  8
0
 10
61.2863
 20
135
 11
61.2552
 21
134.904
  0
LINE
  8
0
 10
61.2552
 20
134.904
 11
61.55
 21
134.69
  0
LINE
  8
0
 10
61.55
 20
134.69
 11
61.8448
 21
134.904
  0
LINE
  8
0
 10
61.8448
 20
134.904
 11
61.8137
 21
135
  0
LINE
  8
0
 10
61.8137
 20
135
 11
63.1
 21
135
  0
LINE
  8
0
 10
63.1
 20
135
 11
63.1
 21
140
  0
LINE
  8
0
 10
63.1
 20
140
 11
55
 21
140
  0
LINE
  8
0
 10
55
 20
140
 11
55
 21
141.286
  0
LINE
  8
0
 10
55
 20
141.286
 11
55.0958
 21
141.255
  0
LINE
  8
0
 10
55.0958
 20
141.255
 11
55.31
 21
141.55
  0
LINE
  8
0
 10
55.31
 20
141.55
 11
55.0958
 21
141.845
  0
LINE
  8
0
 10
55.0958
 20
141.845
 11
55
 21
141.814
  0
LINE
  8
0
 10
55
 20
141.814
 11
55
 21
143.1
  0
LINE
  8
0
 10
55
 20
143.1
 11
50
 21
143.1
  0
LINE
  8
0
 10
50
 20
143.1
 11
50
 21
140
  0
LINE
  8
0
 10
50
 20
140
 11
45
 21
140
  0
LINE
  8
0
 10
45
 20
140
 11
45
 21
141.286
  0
LINE
  8
0
 10
45
 20
141.286
 11
45.0958
 21
141.255
  0
LINE
  8
0
 10
45.0958
 20
141.255
 11
45.31
 21
141.55
  0
LINE
  8
0
 10
45.31
 20
141.55
 11
45.0958
 21
141.845
  0
LINE
  8
0
 10
45.0958
 20
141.845
 11
45
 21
141.814
  0
LINE
  8
0
 10
45
 20
141.814
 11
45
 21
143.1
  0
LINE
  8
0
 10
45
 20
143.1
 11
40
 21
143.1
  0
LINE
  8
0
 10
40
 20
143.1
 11
40
 21
140
  0
LINE
  8
0
 10
40
 20
140
 11
35
 21
140
  0
LINE
  8
0
 10
35
 20
140
 11
35
 21
141.286
  0
LINE
  8
0
 10
35
 20
141.286
 11
35.0958
 21
141.255
  0
LINE
  8
0
 10
35.0958
 20
141.255
 11
35.31
 21
141.55
  0
LINE
  8
0
 10
35.31
 20
141.55
 11
35.0958
 21
141.845
  0
LINE
  8
0
 10
35.0958
 20
141.845
 11
35
 21
141.814
  0
LINE
  8
0
 10
35
 20
141.814
 11
35
 21
143.1
  0
LINE
  8
0
 10
35
 20
143.1
 11
30
 21
143.1
  0
LINE
  8
0
 10
30
 20
143.1
 11
30
 21
140
  0
LINE
  8
0
 10
30
 20
140
 11
25
 21
140
  0
LINE
  8
0
 10
25
 20
140
 11
25
 21
141.286
  0
LINE
  8
0
 10
25
 20
141.286
 11
25.0958
 21
141.255
  0
LINE
  8
0
 10
25.0958
 20
141.255
 11
25.31
 21
141.55
  0
LINE
  8
0
 10
25.31
 20
141.55
 11
25.0958
 21
141.845
  0
LINE
  8
0
 10
25.0958
 20
141.845
 11
25
 21
141.814
  0
LINE
  8
0
 10
25
 20
141.814
 11
25
 21
143.1
  0
LINE
  8
0
 10
25
 20
143.1
 11
20
 21
143.1
  0
LINE
  8
0
 10
20
 20
143.1
 11
20
 21
140
  0
LINE
  8
0
 10
20
 20
140
 11
15
 21
140
  0
LINE
  8
0
 10
15
 20
140
 11
15
 21
141.286
  0
LINE
  8
0
 10
15
 20
141.286
 11
15.0958
 21
141.255
  0
LINE
  8
0
 10
15.0958
 20
141.255
 11
15.31
 21
141.55
  0
LINE
  8
0
 10
15.31
 20
141.55
 11
15.0958
 21
141.845
  0
LINE
  8
0
 10
15.0958
 20
141.845
 11
15
 21
141.814
  0
LINE
  8
0
 10
15
 20
141.814
 11
15
 21
143.1
  0
LINE
  8
0
 10
15
 20
143.1
 11
10
 21
143.1
  0
LINE
  8
0
 10
10
 20
143.1
 11
10
 21
140
  0
LINE
  8
0
 10
10
 20
140
 11
5
 21
140
  0
LINE
  8
0
 10
5
 20
140
 11
5
 21
141.286
  0
LINE
  8
0
 10
5
 20
141.286
 11
5.09579
 21
141.255
  0
LINE
  8
0
 10
5.09579
 20
141.255
 11
5.31
 21
141.55
  0
LINE
  8
0
 10
5.31
 20
141.55
 11
5.09579
 21
141.845
  0
LINE
  8
0
 10
5.09579
 20
141.845
 11
5
 21
141.814
  0
LINE
  8
0
 10
5
 20
141.814
 11
5
 21
143.1
  0
LINE
  8
0
 10
5
 20
143.1
 11
0
 21
143.1
  0
LINE
  8
0
 10
0
 20
143.1
 11
0
 21
135
  0
LINE
  8
0
 10
0
 20
135
 11
-1.28629
 21
135
  0
LINE
  8
0
 10
-1.28629
 20
135
 11
-1.25516
 21
135.096
  0
LINE
  8
0
 10
-1.25516
 20
135.096
 11
-1.54999
 21
135.31
  0
LINE
  8
0
 10
-1.54999
 20
135.31
 11
-1.84482
 21
135.096
  0
LINE
  8
0
 10
-1.84482
 20
135.096
 11
-1.81369
 21
135
  0
LINE
  8
0
 10
-1.81369
 20
135
 11
-3.09999
 21
135
  0
LINE
  8
0
 10
-3.09999
 20
135
 11
-3.09999
 21
130
  0
LINE
  8
0
 10
-3.09999
 20
130
 11
0
 21
130
  0
LINE
  8
0
 10
0
 20
130
 11
0
 21
125
  0
LINE
  8
0
 10
0
 20
125
 11
-1.28629
 21
125
  0
LINE
  8
0
 10
-1.28629
 20
125
 11
-1.25516
 21
125.096
  0
LINE
  8
0
 10
-1.25516
 20
125.096
 11
-1.54999
 21
125.31
  0
LINE
  8
0
 10
-1.54999
 20
125.31
 11
-1.84482
 21
125.096
  0
LINE
  8
0
 10
-1.84482
 20
125.096
 11
-1.81369
 21
125
  0
LINE
  8
0
 10
-1.81369
 20
125
 11
-3.09999
 21
125
  0
LINE
  8
0
 10
-3.09999
 20
125
 11
-3.09999
 21
120
  0
LINE
  8
0
 10
-3.09999
 20
120
 11
5
 21
120
  0
LINE
  8
0
 10
5
 20
120
 11
5
 21
118.714
  0
LINE
  8
0
 10
5
 20
118.714
 11
4.90421
 21
118.745
  0
LINE
  8
0
 10
4.90421
 20
118.745
 11
4.69
 21
118.45
  0
LINE
  8
0
 10
4.69
 20
118.45
 11
4.90421
 21
118.155
  0
LINE
  8
0
 10
4.90421
 20
118.155
 11
5
 21
118.186
  0
LINE
  8
0
 10
5
 20
118.186
 11
5
 21
116.9
  0
LINE
  8
0
 10
5
 20
116.9
 11
10
 21
116.9
  0
LINE
  8
0
 10
10
 20
116.9
 11
10
 21
120
  0
LINE
  8
0
 10
10
 20
30
 11
15
 21
30
  0
LINE
  8
0
 10
15
 20
30
 11
15
 21
28.7137
  0
LINE
  8
0
 10
15
 20
28.7137
 11
14.9042
 21
28.7448
  0
LINE
  8
0
 10
14.9042
 20
28.7448
 11
14.69
 21
28.45
  0
LINE
  8
0
 10
14.69
 20
28.45
 11
14.9042
 21
28.1552
  0
LINE
  8
0
 10
14.9042
 20
28.1552
 11
15
 21
28.1863
  0
LINE
  8
0
 10
15
 20
28.1863
 11
15
 21
26.9
  0
LINE
  8
0
 10
15
 20
26.9
 11
20
 21
26.9
  0
LINE
  8
0
 10
20
 20
26.9
 11
20
 21
30
  0
LINE
  8
0
 10
20
 20
30
 11
25
 21
30
  0
LINE
  8
0
 10
25
 20
30
 11
25
 21
28.7137
  0
LINE
  8
0
 10
25
 20
28.7137
 11
24.9042
 21
28.7448
  0
LINE
  8
0
 10
24.9042
 20
28.7448
 11
24.69
 21
28.45
  0
LINE
  8
0
 10
24.69
 20
28.45
 11
24.9042
 21
28.1552
  0
LINE
  8
0
 10
24.9042
 20
28.1552
 11
25
 21
28.1863
  0
LINE
  8
0
 10
25
 20
28.1863
 11
25
 21
26.9
  0
LINE
  8
0
 10
25
 20
26.9
 11
30
 21
26.9
  0
LINE
  8
0
 10
30
 20
26.9
 11
30
 21
30
  0
LINE
  8
0
 10
30
 20
30
 11
35
 21
30
  0
LINE
  8
0
 10
35
 20
30
 11
35
 21
28.7137
  0
LINE
  8
0
 10
35
 20
28.7137
 11
34.9042
 21
28.7448
  0
LINE
  8
0
 10
34.9042
 20
28.7448
 11
34.69
 21
28.45
  0
LINE
  8
0
 10
34.69
 20
28.45
 11
34.9042
 21
28.1552
  0
LINE
  8
0
 10
34.9042
 20
28.1552
 11
35
 21
28.1863
  0
LINE
  8
0
 10
35
 20
28.1863
 11
35
 21
26.9
  0
LINE
  8
0
 10
35
 20
26.9
 11
40
 21
26.9
  0
LINE
  8
0
 10
40
 20
26.9
 11
40
 21
30
  0
LINE
  8
0
 10
40
 20
30
 11
45
 21
30
  0
LINE
  8
0
 10
45
 20
30
 11
45
 21
28.7137
  0
LINE
  8
0
 10
45
 20
28.7137
 11
44.9042
 21
28.7448
  0
LINE
  8
0
 10
44.9042
 20
28.7448
 11
44.69
 21
28.45
  0
LINE
  8
0
 10
44.69
 20
28.45
 11
44.9042
 21
28.1552
  0
LINE
  8
0
 10
44.9042
 20
28.1552
 11
45
 21
28.1863
  0
LINE
  8
0
 10
45
 20
28.1863
 11
45
 21
26.9
  0
LINE
  8
0
 10
45
 20
26.9
 11
50
 21
26.9
  0
LINE
  8
0
 10
50
 20
26.9
 11
50
 21
30
  0
LINE
  8
0
 10
50
 20
30
 11
55
 21
30
  0
LINE
  8
0
 10
55
 20
30
 11
55
 21
28.7137
  0
LINE
  8
0
 10
55
 20
28.7137
 11
54.9042
 21
28.7448
  0
LINE
  8
0
 10
54.9042
 20
28.7448
 11
54.69
 21
28.45
  0
LINE
  8
0
 10
54.69
 20
28.45
 11
54.9042
 21
28.1552
  0
LINE
  8
0
 10
54.9042
 20
28.1552
 11
55
 21
28.1863
  0
LINE
  8
0
 10
55
 20
28.1863
 11
55
 21
26.9
  0
LINE
  8
0
 10
55
 20
26.9
 11
60
 21
26.9
  0
LINE
  8
0
 10
60
 20
26.9
 11
60
 21
35
  0
LINE
  8
0
 10
60
 20
35
 11
61.2863
 21
35
  0
LINE
  8
0
 10
61.2863
 20
35
 11
61.2552
 21
34.9042
  0
LINE
  8
0
 10
61.2552
 20
34.9042
 11
61.55
 21
34.69
  0
LINE
  8
0
 10
61.55
 20
34.69
 11
61.8448
 21
34.9042
  0
LINE
  8
0
 10
61.8448
 20
34.9042
 11
61.8137
 21
35
  0
LINE
  8
0
 10
61.8137
 20
35
 11
63.1
 21
35
  0
LINE
  8
0
 10
63.1
 20
35
 11
63.1
 21
40
  0
LINE
  8
0
 10
63.1
 20
40
 11
60
 21
40
  0
LINE
  8
0
 10
60
 20
40
 11
60
 21
45
  0
LINE
  8
0
 10
60
 20
45
 11
61.2863
 21
45
  0
LINE
  8
0
 10
61.2863
 20
45
 11
61.2552
 21
44.9042
  0
LINE
  8
0
 10
61.2552
 20
44.9042
 11
61.55
 21
44.69
  0
LINE
  8
0
 10
61.55
 20
44.69
 11
61.8448
 21
44.9042
  0
LINE
  8
0
 10
61.8448
 20
44.9042
 11
61.8137
 21
45
  0
LINE
  8
0
 10
61.8137
 20
45
 11
63.1
 21
45
  0
LINE
  8
0
 10
63.1
 20
45
 11
63.1
 21
50
  0
LINE
  8
0
 10
63.1
 20
50
 11
60
 21
50
  0
LINE
  8
0
 10
60
 20
50
 11
60
 21
55
  0
LINE
  8
0
 10
60
 20
55
 11
61.2863
 21
55
  0
LINE
  8
0
 10
61.2863
 20
55
 11
61.2552
 21
54.9042
  0
LINE
  8
0
 10
61.2552
 20
54.9042
 11
61.55
 21
54.69
  0
LINE
  8
0
 10
61.55
 20
54.69
 11
61.8448
 21
54.9042
  0
LINE
  8
0
 10
61.8448
 20
54.9042
 11
61.8137
 21
55
  0
LINE
  8
0
 10
61.8137
 20
55
 11
63.1
 21
55
  0
LINE
  8
0
 10
63.1
 20
55
 11
63.1
 21
60
  0
LINE
  8
0
 10
63.1
 20
60
 11
60
 21
60
  0
LINE
  8
0
 10
60
 20
60
 11
60
 21
65
  0
LINE
  8
0
 10
60
 20
65
 11
61.2863
 21
65
  0
LINE
  8
0
 10
61.2863
 20
65
 11
61.2552
 21
64.9042
  0
LINE
  8
0
 10
61.2552
 20
64.9042
 11
61.55
 21
64.69
  0
LINE
  8
0
 10
61.55
 20
64.69
 11
61.8448
 21
64.9042
  0
LINE
  8
0
 10
61.8448
 20
64.9042
 11
61.8137
 21
65
  0
LINE
  8
0
 10
61.8137
 20
65
 11
63.1
 21
65
  0
LINE
  8
0
 10
63.1
 20
65
 11
63.1
 21
70
  0
LINE
  8
0
 10
63.1
 20
70
 11
60
 21
70
  0
LINE
  8
0
 10
60
 20
70
 11
60
 21
75
  0
LINE
  8
0
 10
60
 20
75
 11
61.2863
 21
75
  0
LINE
  8
0
 10
61.2863
 20
75
 11
61.2552
 21
74.9042
  0
LINE
  8
0
 10
61.2552
 20
74.9042
 11
61.55
 21
74.69
  0
LINE
  8
0
 10
61.55
 20
74.69
 11
61.8448
 21
74.9042
  0
LINE
  8
0
 10
61.8448
 20
74.9042
 11
61.8137
 21
75
  0
LINE
  8
0
 10
61.8137
 20
75
 11
63.1
 21
75
  0
LINE
  8
0
 10
63.1
 20
75
 11
63.1
 21
80
  0
LINE
  8
0
 10
63.1
 20
80
 11
60
 21
80
  0
LINE
  8
0
 10
60
 20
80
 11
60
 21
85
  0
LINE
  8
0
 10
60
 20
85
 11
61.2863
 21
85
  0
LINE
  8
0
 10
61.2863
 20
85
 11
61.2552
 21
84.9042
  0
LINE
  8
0
 10
61.2552
 20
84.9042
 11
61.55
 21
84.69
  0
LINE
  8
0
 10
61.55
 20
84.69
 11
61.8448
 21
84.9042
  0
LINE
  8
0
 10
61.8448
 20
84.9042
 11
61.8137
 21
85
  0
LINE
  8
0
 10
61.8137
 20
85
 11
63.1
 21
85
  0
LINE
  8
0
 10
63.1
 20
85
 11
63.1
 21
90
  0
LINE
  8
0
 10
63.1
 20
90
 11
60
 21
90
  0
LINE
  8
0
 10
60
 20
90
 11
60
 21
95
  0
LINE
  8
0
 10
60
 20
95
 11
61.2863
 21
95
  0
LINE
  8
0
 10
61.2863
 20
95
 11
61.2552
 21
94.9042
  0
LINE
  8
0
 10
61.2552
 20
94.9042
 11
61.55
 21
94.69
  0
LINE
  8
0
 10
61.55
 20
94.69
 11
61.8448
 21
94.9042
  0
LINE
  8
0
 10
61.8448
 20
94.9042
 11
61.8137
 21
95
  0
LINE
  8
0
 10
61.8137
 20
95
 11
63.1
 21
95
  0
LINE
  8
0
 10
63.1
 20
95
 11
63.1
 21
100
  0
LINE
  8
0
 10
63.1
 20
100
 11
60
 21
100
  0
LINE
  8
0
 10
60
 20
100
 11
60
 21
105
  0
LINE
  8
0
 10
60
 20
105
 11
61.2863
 21
105
  0
LINE
  8
0
 10
61.2863
 20
105
 11
61.2552
 21
104.904
  0
LINE
  8
0
 10
61.2552
 20
104.904
 11
61.55
 21
104.69
  0
LINE
  8
0
 10
61.55
 20
104.69
 11
61.8448
 21
104.904
  0
LINE
  8
0
 10
61.8448
 20
104.904
 11
61.8137
 21
105
  0
LINE
  8
0
 10
61.8137
 20
105
 11
63.1
 21
105
  0
LINE
  8
0
 10
63.1
 20
105
 11
63.1
 21
110
  0
LINE
  8
0
 10
63.1
 20
110
 11
55
 21
110
  0
LINE
  8
0
 10
55
 20
110
 11
55
 21
111.286
  0
LINE
  8
0
 10
55
 20
111.286
 11
55.0958
 21
111.255
  0
LINE
  8
0
 10
55.0958
 20
111.255
 11
55.31
 21
111.55
  0
LINE
  8
0
 10
55.31
 20
111.55
 11
55.0958
 21
111.845
  0
LINE
  8
0
 10
55.0958
 20
111.845
 11
55
 21
111.814
  0
LINE
  8
0
 10
55
 20
111.814
 11
55
 21
113.1
  0
LINE
  8
0
 10
55
 20
113.1
 11
50
 21
113.1
  0
LINE
  8
0
 10
50
 20
113.1
 11
50
 21
110
  0
LINE
  8
0
 10
50
 20
110
 11
45
 21
110
  0
LINE
  8
0
 10
45
 20
110
 11
45
 21
111.286
  0
LINE
  8
0
 10
45
 20
111.286
 11
45.0958
 21
111.255
  0
LINE
  8
0
 10
45.0958
 20
111.255
 11
45.31
 21
111.55
  0
LINE
  8
0
 10
45.31
 20
111.55
 11
45.0958
 21
111.845
  0
LINE
  8
0
 10
45.0958
 20
111.845
 11
45
 21
111.814
  0
LINE
  8
0
 10
45
 20
111.814
 11
45
 21
113.1
  0
LINE
  8
0
 10
45
 20
113.1
 11
40
 21
113.1
  0
LINE
  8
0
 10
40
 20
113.1
 11
40
 21
110
  0
LINE
  8
0
 10
40
 20
110
 11
35
 21
110
  0
LINE
  8
0
 10
35
 20
110
 11
35
 21
111.286
  0
LINE
  8
0
 10
35
 20
111.286
 11
35.0958
 21
111.255
  0
LINE
  8
0
 10
35.0958
 20
111.255
 11
35.31
 21
111.55
  0
LINE
  8
0
 10
35.31
 20
111.55
 11
35.0958
 21
111.845
  0
LINE
  8
0
 10
35.0958
 20
111.845
 11
35
 21
111.814
  0
LINE
  8
0
 10
35
 20
111.814
 11
35
 21
113.1
  0
LINE
  8
0
 10
35
 20
113.1
 11
30
 21
113.1
  0
LINE
  8
0
 10
30
 20
113.1
 11
30
 21
110
  0
LINE
  8
0
 10
30
 20
110
 11
25
 21
110
  0
LINE
  8
0
 10
25
 20
110
 11
25
 21
111.286
  0
LINE
  8
0
 10
25
 20
111.286
 11
25.0958
 21
111.255
  0
LINE
  8
0
 10
25.0958
 20
111.255
 11
25.31
 21
111.55
  0
LINE
  8
0
 10
25.31
 20
111.55
 11
25.0958
 21
111.845
  0
LINE
  8
0
 10
25.0958
 20
111.845
 11
25
 21
111.814
  0
LINE
  8
0
 10
25
 20
111.814
 11
25
 21
113.1
  0
LINE
  8
0
 10
25
 20
113.1
 11
20
 21
113.1
  0
LINE
  8
0
 10
20
 20
113.1
 11
20
 21
110
  0
LINE
  8
0
 10
20
 20
110
 11
15
 21
110
  0
LINE
  8
0
 10
15
 20
110
 11
15
 21
111.286
  0
LINE
  8
0
 10
15
 20
111.286
 11
15.0958
 21
111.255
  0
LINE
  8
0
 10
15.0958
 20
111.255
 11
15.31
 21
111.55
  0
LINE
  8
0
 10
15.31
 20
111.55
 11
15.0958
 21
111.845
  0
LINE
  8
0
 10
15.0958
 20
111.845
 11
15
 21
111.814
  0
LINE
  8
0
 10
15
 20
111.814
 11
15
 21
113.1
  0
LINE
  8
0
 10
15
 20
113.1
 11
10
 21
113.1
  0
LINE
  8
0
 10
10
 20
113.1
 11
10
 21
110
  0
LINE
  8
0
 10
10
 20
110
 11
5
 21
110
  0
LINE
  8
0
 10
5
 20
110
 11
5
 21
111.286
  0
LINE
  8
0
 10
5
 20
111.286
 11
5.09579
 21
111.255
  0
LINE
  8
0
 10
5.09579
 20
111.255
 11
5.31
 21
111.55
  0
LINE
  8
0
 10
5.31
 20
111.55
 11
5.09579
 21
111.845
  0
LINE
  8
0
 10
5.09579
 20
111.845
 11
5
 21
111.814
  0
LINE
  8
0
 10
5
 20
111.814
 11
5
 21
113.1
  0
LINE
  8
0
 10
5
 20
113.1
 11
0
 21
113.1
  0
LINE
  8
0
 10
0
 20
113.1
 11
0
 21
105
  0
LINE
  8
0
 10
0
 20
105
 11
-1.28629
 21
105
  0
LINE
  8
0
 10
-1.28629
 20
105
 11
-1.25516
 21
105.096
  0
LINE
  8
0
 10
-1.25516
 20
105.096
 11
-1.54999
 21
105.31
  0
LINE
  8
0
 10
-1.54999
 20
105.31
 11
-1.84482
 21
105.096
  0
LINE
  8
0
 10
-1.84482
 20
105.096
 11
-1.81369
 21
105
  0
LINE
  8
0
 10
-1.81369
 20
105
 11
-3.09999
 21
105
  0
LINE
  8
0
 10
-3.09999
 20
105
 11
-3.09999
 21
100
  0
LINE
  8
0
 10
-3.09999
 20
100
 11
0
 21
100
  0
LINE
  8
0
 10
0
 20
100
 11
0
 21
95
  0
LINE
  8
0
 10
0
 20
95
 11
-1.28629
 21
95
  0
LINE
  8
0
 10
-1.28629
 20
95
 11
-1.25516
 21
95.0958
  0
LINE
  8
0
 10
-1.25516
 20
95.0958
 11
-1.54999
 21
95.31
  0
LINE
  8
0
 10
-1.54999
 20
95.31
 11
-1.84482
 21
95.0958
  0
LINE
  8
0
 10
-1.84482
 20
95.0958
 11
-1.81369
 21
95
  0
LINE
  8
0
 10
-1.81369
 20
95
 11
-3.09999
 21
95
  0
LINE
  8
0
 10
-3.09999
 20
95
 11
-3.09999
 21
90
  0
LINE
  8
0
 10
-3.09999
 20
90
 11
0
 21
90
  0
LINE
  8
0
 10
0
 20
90
 11
0
 21
85
  0
LINE
  8
0
 10
0
 20
85
 11
-1.28629
 21
85
  0
LINE
  8
0
 10
-1.28629
 20
85
 11
-1.25516
 21
85.0958
  0
LINE
  8
0
 10
-1.25516
 20
85.0958
 11
-1.54999
 21
85.31
  0
LINE
  8
0
 10
-1.54999
 20
85.31
 11
-1.84482
 21
85.0958
  0
LINE
  8
0
 10
-1.84482
 20
85.0958
 11
-1.81369
 21
85
  0
LINE
  8
0
 10
-1.81369
 20
85
 11
-3.09999
 21
85
  0
LINE
  8
0
 10
-3.09999
 20
85
 11
-3.09999
 21
80
  0
LINE
  8
0
 10
-3.09999
 20
80
 11
0
 21
80
  0
LINE
  8
0
 10
0
 20
80
 11
0
 21
75
  0
LINE
  8
0
 10
0
 20
75
 11
-1.28629
 21
75
  0
LINE
  8
0
 10
-1.28629
 20
75
 11
-1.25516
 21
75.0958
  0
LINE
  8
0
 10
-1.25516
 20
75.0958
 11
-1.54999
 21
75.31
  0
LINE
  8
0
 10
-1.54999
 20
75.31
 11
-1.84482
 21
75.0958
  0
LINE
  8
0
 10
-1.84482
 20
75.0958
 11
-1.81369
 21
75
  0
LINE
  8
0
 10
-1.81369
 20
75
 11
-3.09999
 21
75
  0
LINE
  8
0
 10
-3.09999
 20
75
 11
-3.09999
 21
70
  0
LINE
  8
0
 10
-3.09999
 20
70
 11
0
 21
70
  0
LINE
  8
0
 10
0
 20
70
 11
0
 21
65
  0
LINE
  8
0
 10
0
 20
65
 11
-1.28629
 21
65
  0
LINE
  8
0
 10
-1.28629
 20
65
 11
-1.25516
 21
65.0958
  0
LINE
  8
0
 10
-1.25516
 20
65.0958
 11
-1.54999
 21
65.31
  0
LINE
  8
0
 10
-1.54999
 20
65.31
 11
-1.84482
 21
65.0958
  0
LINE
  8
0
 10
-1.84482
 20
65.0958
 11
-1.81369
 21
65
  0
LINE
  8
0
 10
-1.81369
 20
65
 11
-3.09999
 21
65
  0
LINE
  8
0
 10
-3.09999
 20
65
 11
-3.09999
 21
60
  0
LINE
  8
0
 10
-3.09999
 20
60
 11
0
 21
60
  0
LINE
  8
0
 10
0
 20
60
 11
0
 21
55
  0
LINE
  8
0
 10
0
 20
55
 11
-1.28629
 21
55
  0
LINE
  8
0
 10
-1.28629
 20
55
 11
-1.25516
 21
55.0958
  0
LINE
  8
0
 10
-1.25516
 20
55.0958
 11
-1.54999
 21
55.31
  0
LINE
  8
0
 10
-1.54999
 20
55.31
 11
-1.84482
 21
55.0958
  0
LINE
  8
0
 10
-1.84482
 20
55.0958
 11
-1.81369
 21
55
  0
LINE
  8
0
 10
-1.81369
 20
55
 11
-3.09999
 21
55
  0
LINE
  8
0
 10
-3.09999
 20
55
 11
-3.09999
 21
50
  0
LINE
  8
0
 10
-3.09999
 20
50
 11
0
 21
50
  0
LINE
  8
0
 10
0
 20
50
 11
0
 21
45
  0
LINE
  8
0
 10
0
 20
45
 11
-1.28629
 21
45
  0
LINE
  8
0
 10
-1.28629
 20
45
 11
-1.25516
 21
45.0958
  0
LINE
  8
0
 10
-1.25516
 20
45.0958
 11
-1.54999
 21
45.31
  0
LINE
  8
0
 10
-1.54999
 20
45.31
 11
-1.84482
 21
45.0958
  0
LINE
  8
0
 10
-1.84482
 20
45.0958
 11
-1.81369
 21
45
  0
LINE
  8
0
 10
-1.81369
 20
45
 11
-3.09999
 21
45
  0
LINE
  8
0
 10
-3.09999
 20
45
 11
-3.09999
 21
40
  0
LINE
  8
0
 10
-3.09999
 20
40
 11
0
 21
40
  0
LINE
  8
0
 10
0
 20
40
 11
0
 21
35
  0
LINE
  8
0
 10
0
 20
35
 11
-1.28629
 21
35
  0
LINE
  8
0
 10
-1.28629
 20
35
 11
-1.25516
 21
35.0958
  0
LINE
  8
0
 10
-1.25516
 20
35.0958
 11
-1.54999
 21
35.31
  0
LINE
  8
0
 10
-1.54999
 20
35.31
 11
-1.84482
 21
35.0958
  0
LINE
  8
0
 10
-1.84482
 20
35.0958
 11
-1.81369
 21
35
  0
LINE
  8
0
 10
-1.81369
 20
35
 11
-3.09999
 21
35
  0
LINE
  8
0
 10
-3.09999
 20
35
 11
-3.09999
 21
30
  0
LINE
  8
0
 10
-3.09999
 20
30
 11
5
 21
30
  0
LINE
  8
0
 10
5
 20
30
 11
5
 21
28.7137
  0
LINE
  8
0
 10
5
 20
28.7137
 11
4.90421
 21
28.7448
  0
LINE
  8
0
 10
4.90421
 20
28.7448
 11
4.69
 21
28.45
  0
LINE
  8
0
 10
4.69
 20
28.45
 11
4.90421
 21
28.1552
  0
LINE
  8
0
 10
4.90421
 20
28.1552
 11
5
 21
28.1863
  0
LINE
  8
0
 10
5
 20
28.1863
 11
5
 21
26.9
  0
LINE
  8
0
 10
5
 20
26.9
 11
10
 21
26.9
  0
LINE
  8
0
 10
10
 20
26.9
 11
10
 21
30
  0
LINE
  8
0
 10
-80
 20
0
 11
-78.8838
 21
0
  0
LINE
  8
0
 10
-78.8838
 20
0
 11
-78.8838
 21
0.95726
  0
LINE
  8
0
 10
-78.8838
 20
0.95726
 11
-77.994
 21
2.65248
  0
LINE
  8
0
 10
-77.994
 20
2.65248
 11
-76.4184
 21
3.74005
  0
LINE
  8
0
 10
-76.4184
 20
3.74005
 11
-74.5179
 21
3.97083
  0
LINE
  8
0
 10
-74.5179
 20
3.97083
 11
-72.7278
 21
3.29193
  0
LINE
  8
0
 10
-72.7278
 20
3.29193
 11
-71.4582
 21
1.85889
  0
LINE
  8
0
 10
-71.4582
 20
1.85889
 11
-71
 21
0
  0
LINE
  8
0
 10
-71
 20
0
 11
-71.4582
 21
-1.85889
  0
LINE
  8
0
 10
-71.4582
 20
-1.85889
 11
-72.5577
 21
-3.09999
  0
LINE
  8
0
 10
-72.5577
 20
-3.09999
 11
-70
 21
-3.09999
  0
LINE
  8
0
 10
-70
 20
-3.09999
 11
-70
 21
0
  0
LINE
  8
0
 10
-70
 20
0
 11
-65
 21
0
  0
LINE
  8
0
 10
-65
 20
0
 11
-65
 21
-1.28629
  0
LINE
  8
0
 10
-65
 20
-1.28629
 11
-65.0958
 21
-1.25516
  0
LINE
  8
0
 10
-65.0958
 20
-1.25516
 11
-65.31
 21
-1.54999
  0
LINE
  8
0
 10
-65.31
 20
-1.54999
 11
-65.0958
 21
-1.84482
  0
LINE
  8
0
 10
-65.0958
 20
-1.84482
 11
-65
 21
-1.81369
  0
LINE
  8
0
 10
-65
 20
-1.81369
 11
-65
 21
-3.09999
  0
LINE
  8
0
 10
-65
 20
-3.09999
 11
-60
 21
-3.09999
  0
LINE
  8
0
 10
-60
 20
-3.09999
 11
-60
 21
0
  0
LINE
  8
0
 10
-60
 20
0
 11
-55
 21
0
  0
LINE
  8
0
 10
-55
 20
0
 11
-55
 21
-1.28629
  0
LINE
  8
0
 10
-55
 20
-1.28629
 11
-55.0958
 21
-1.25516
  0
LINE
  8
0
 10
-55.0958
 20
-1.25516
 11
-55.31
 21
-1.54999
  0
LINE
  8
0
 10
-55.31
 20
-1.54999
 11
-55.0958
 21
-1.84482
  0
LINE
  8
0
 10
-55.0958
 20
-1.84482
 11
-55
 21
-1.81369
  0
LINE
  8
0
 10
-55
 20
-1.81369
 11
-55
 21
-3.09999
  0
LINE
  8
0
 10
-55
 20
-3.09999
 11
-50
 21
-3.09999
  0
LINE
  8
0
 10
-50
 20
-3.09999
 11
-50
 21
0
  0
LINE
  8
0
 10
-50
 20
0
 11
-45
 21
0
  0
LINE
  8
0
 10
-45
 20
0
 11
-45
 21
-1.28629
  0
LINE
  8
0
 10
-45
 20
-1.28629
 11
-45.0958
 21
-1.25516
  0
LINE
  8
0
 10
-45.0958
 20
-1.25516
 11
-45.31
 21
-1.54999
  0
LINE
  8
0
 10
-45.31
 20
-1.54999
 11
-45.0958
 21
-1.84482
  0
LINE
  8
0
 10
-45.0958
 20
-1.84482
 11
-45
 21
-1.81369
  0
LINE
  8
0
 10
-45
 20
-1.81369
 11
-45
 21
-3.09999
  0
LINE
  8
0
 10
-45
 20
-3.09999
 11
-40
 21
-3.09999
  0
LINE
  8
0
 10
-40
 20
-3.09999
 11
-40
 21
0
  0
LINE
  8
0
 10
-40
 20
0
 11
-35
 21
0
  0
LINE
  8
0
 10
-35
 20
0
 11
-35
 21
-1.28629
  0
LINE
  8
0
 10
-35
 20
-1.28629
 11
-35.0958
 21
-1.25516
  0
LINE
  8
0
 10
-35.0958
 20
-1.25516
 11
-35.31
 21
-1.54999
  0
LINE
  8
0
 10
-35.31
 20
-1.54999
 11
-35.0958
 21
-1.84482
  0
LINE
  8
0
 10
-35.0958
 20
-1.84482
 11
-35
 21
-1.81369
  0
LINE
  8
0
 10
-35
 20
-1.81369
 11
-35
 21
-3.09999
  0
LINE
  8
0
 10
-35
 20
-3.09999
 11
-30
 21
-3.09999
  0
LINE
  8
0
 10
-30
 20
-3.09999
 11
-30
 21
0
  0
LINE
  8
0
 10
-30
 20
0
 11
-28.8838
 21
0
  0
LINE
  8
0
 10
-28.8838
 20
0
 11
-28.8838
 21
0.95726
  0
LINE
  8
0
 10
-28.8838
 20
0.95726
 11
-27.994
 21
2.65248
  0
LINE
  8
0
 10
-27.994
 20
2.65248
 11
-26.4184
 21
3.74005
  0
LINE
  8
0
 10
-26.4184
 20
3.74005
 11
-24.5179
 21
3.97083
  0
LINE
  8
0
 10
-24.5179
 20
3.97083
 11
-22.7278
 21
3.29193
  0
LINE
  8
0
 10
-22.7278
 20
3.29193
 11
-21.4582
 21
1.85889
  0
LINE
  8
0
 10
-21.4582
 20
1.85889
 11
-21
 21
0
  0
LINE
  8
0
 10
-21
 20
0
 11
-21.4582
 21
-1.85889
  0
LINE
  8
0
 10
-21.4582
 20
-1.85889
 11
-22.5577
 21
-3.09999
  0
LINE
  8
0
 10
-22.5577
 20
-3.09999
 11
-20
 21
-3.09999
  0
LINE
  8
0
 10
-20
 20
-3.09999
 11
-20
 21
0
  0
LINE
  8
0
 10
-20
 20
0
 11
-15
 21
0
  0
LINE
  8
0
 10
-15
 20
0
 11
-15
 21
-1.28629
  0
LINE
  8
0
 10
-15
 20
-1.28629
 11
-15.0958
 21
-1.25516
  0
LINE
  8
0
 10
-15.0958
 20
-1.25516
 11
-15.31
 21
-1.54999
  0
LINE
  8
0
 10
-15.31
 20
-1.54999
 11
-15.0958
 21
-1.84482
  0
LINE
  8
0
 10
-15.0958
 20
-1.84482
 11
-15
 21
-1.81369
  0
LINE
  8
0
 10
-15
 20
-1.81369
 11
-15
 21
-3.09999
  0
LINE
  8
0
 10
-15
 20
-3.09999
 11
-10
 21
-3.09999
  0
LINE
  8
0
 10
-10
 20
-3.09999
 11
-10
 21
5
  0
LINE
  8
0
 10
-10
 20
5
 11
-8.71371
 21
5
  0
LINE
  8
0
 10
-8.71371
 20
5
 11
-8.74484
 21
4.90421
  0
LINE
  8
0
 10
-8.74484
 20
4.90421
 11
-8.45001
 21
4.69
  0
LINE
  8
0
 10
-8.45001
 20
4.69
 11
-8.15518
 21
4.90421
  0
LINE
  8
0
 10
-8.15518
 20
4.90421
 11
-8.18631
 21
5
  0
LINE
  8
0
 10
-8.18631
 20
5
 11
-6.90001
 21
5
  0
LINE
  8
0
 10
-6.90001
 20
5
 11
-6.90001
 21
10
  0
LINE
  8
0
 10
-6.90001
 20
10
 11
-10
 21
10
  0
LINE
  8
0
 10
-10
 20
10
 11
-10
 21
15
  0
LINE
  8
0
 10
-10
 20
15
 11
-8.71371
 21
15
  0
LINE
  8
0
 10
-8.71371
 20
15
 11
-8.74484
 21
14.9042
  0
LINE
  8
0
 10
-8.74484
 20
14.9042
 11
-8.45001
 21
14.69
  0
LINE
  8
0
 10
-8.45001
 20
14.69
 11
-8.15518
 21
14.9042
  0
LINE
  8
0
 10
-8.15518
 20
14.9042
 11
-8.18631
 21
15
  0
LINE
  8
0
 10
-8.18631
 20
15
 11
-6.90001
 21
15
  0
LINE
  8
0
 10
-6.90001
 20
15
 11
-6.90001
 21
20
  0
LINE
  8
0
 10
-6.90001
 20
20
 11
-15
 21
20
  0
LINE
  8
0
 10
-15
 20
20
 11
-15
 21
21.2863
  0
LINE
  8
0
 10
-15
 20
21.2863
 11
-14.9042
 21
21.2552
  0
LINE
  8
0
 10
-14.9042
 20
21.2552
 11
-14.69
 21
21.55
  0
LINE
  8
0
 10
-14.69
 20
21.55
 11
-14.9042
 21
21.8448
  0
LINE
  8
0
 10
-14.9042
 20
21.8448
 11
-15
 21
21.8137
  0
LINE
  8
0
 10
-15
 20
21.8137
 11
-15
 21
23.1
  0
LINE
  8
0
 10
-15
 20
23.1
 11
-20
 21
23.1
  0
LINE
  8
0
 10
-20
 20
23.1
 11
-20
 21
20
  0
LINE
  8
0
 10
-20
 20
20
 11
-25
 21
20
  0
LINE
  8
0
 10
-25
 20
20
 11
-25
 21
21.2863
  0
LINE
  8
0
 10
-25
 20
21.2863
 11
-24.9042
 21
21.2552
  0
LINE
  8
0
 10
-24.9042
 20
21.2552
 11
-24.69
 21
21.55
  0
LINE
  8
0
 10
-24.69
 20
21.55
 11
-24.9042
 21
21.8448
  0
LINE
  8
0
 10
-24.9042
 20
21.8448
 11
-25
 21
21.8137
  0
LINE
  8
0
 10
-25
 20
21.8137
 11
-25
 21
23.1
  0
LINE
  8
0
 10
-25
 20
23.1
 11
-30
 21
23.1
  0
LINE
  8
0
 10
-30
 20
23.1
 11
-30
 21
20
  0
LINE
  8
0
 10
-30
 20
20
 11
-35
 21
20
  0
LINE
  8
0
 10
-35
 20
20
 11
-35
 21
21.2863
  0
LINE
  8
0
 10
-35
 20
21.2863
 11
-34.9042
 21
21.2552
  0
LINE
  8
0
 10
-34.9042
 20
21.2552
 11
-34.69
 21
21.55
  0
LINE
  8
0
 10
-34.69
 20
21.55
 11
-34.9042
 21
21.8448
  0
LINE
  8
0
 10
-34.9042
 20
21.8448
 11
-35
 21
21.8137
  0
LINE
  8
0
 10
-35
 20
21.8137
 11
-35
 21
23.1
  0
LINE
  8
0
 10
-35
 20
23.1
 11
-40
 21
23.1
  0
LINE
  8
0
 10
-40
 20
23.1
 11
-40
 21
20
  0
LINE
  8
0
 10
-40
 20
20
 11
-45
 21
20
  0
LINE
  8
0
 10
-45
 20
20
 11
-45
 21
21.2863
  0
LINE
  8
0
 10
-45
 20
21.2863
 11
-44.9042
 21
21.2552
  0
LINE
  8
0
 10
-44.9042
 20
21.2552
 11
-44.69
 21
21.55
  0
LINE
  8
0
 10
-44.69
 20
21.55
 11
-44.9042
 21
21.8448
  0
LINE
  8
0
 10
-44.9042
 20
21.8448
 11
-45
 21
21.8137
  0
LINE
  8
0
 10
-45
 20
21.8137
 11
-45
 21
23.1
  0
LINE
  8
0
 10
-45
 20
23.1
 11
-50
 21
23.1
  0
LINE
  8
0
 10
-50
 20
23.1
 11
-50
 21
20
  0
LINE
  8
0
 10
-50
 20
20
 11
-55
 21
20
  0
LINE
  8
0
 10
-55
 20
20
 11
-55
 21
21.2863
  0
LINE
  8
0
 10
-55
 20
21.2863
 11
-54.9042
 21
21.2552
  0
LINE
  8
0
 10
-54.9042
 20
21.2552
 11
-54.69
 21
21.55
  0
LINE
  8
0
 10
-54.69
 20
21.55
 11
-54.9042
 21
21.8448
  0
LINE
  8
0
 10
-54.9042
 20
21.8448
 11
-55
 21
21.8137
  0
LINE
  8
0
 10
-55
 20
21.8137
 11
-55
 21
23.1
  0
LINE
  8
0
 10
-55
 20
23.1
 11
-60
 21
23.1
  0
LINE
  8
0
 10
-60
 20
23.1
 11
-60
 21
20
  0
LINE
  8
0
 10
-60
 20
20
 11
-65
 21
20
  0
LINE
  8
0
 10
-65
 20
20
 11
-65
 21
21.2863
  0
LINE
  8
0
 10
-65
 20
21.2863
 11
-64.9042
 21
21.2552
  0
LINE
  8
0
 10
-64.9042
 20
21.2552
 11
-64.69
 21
21.55
  0
LINE
  8
0
 10
-64.69
 20
21.55
 11
-64.9042
 21
21.8448
  0
LINE
  8
0
 10
-64.9042
 20
21.8448
 11
-65
 21
21.8137
  0
LINE
  8
0
 10
-65
 20
21.8137
 11
-65
 21
23.1
  0
LINE
  8
0
 10
-65
 20
23.1
 11
-70
 21
23.1
  0
LINE
  8
0
 10
-70
 20
23.1
 11
-70
 21
20
  0
LINE
  8
0
 10
-70
 20
20
 11
-75
 21
20
  0
LINE
  8
0
 10
-75
 20
20
 11
-75
 21
21.2863
  0
LINE
  8
0
 10
-75
 20
21.2863
 11
-74.9042
 21
21.2552
  0
LINE
  8
0
 10
-74.9042
 20
21.2552
 11
-74.69
 21
21.55
  0
LINE
  8
0
 10
-74.69
 20
21.55
 11
-74.9042
 21
21.8448
  0
LINE
  8
0
 10
-74.9042
 20
21.8448
 11
-75
 21
21.8137
  0
LINE
  8
0
 10
-75
 20
21.8137
 11
-75
 21
23.1
  0
LINE
  8
0
 10
-75
 20
23.1
 11
-80
 21
23.1
  0
LINE
  8
0
 10
-80
 20
23.1
 11
-80
 21
20
  0
LINE
  8
0
 10
-80
 20
20
 11
-85
 21
20
  0
LINE
  8
0
 10
-85
 20
20
 11
-85
 21
21.2863
  0
LINE
  8
0
 10
-85
 20
21.2863
 11
-84.9042
 21
21.2552
  0
LINE
  8
0
 10
-84.9042
 20
21.2552
 11
-84.69
 21
21.55
  0
LINE
  8
0
 10
-84.69
 20
21.55
 11
-84.9042
 21
21.8448
  0
LINE
  8
0
 10
-84.9042
 20
21.8448
 11
-85
 21
21.8137
  0
LINE
  8
0
 10
-85
 20
21.8137
 11
-85
 21
23.1
  0
LINE
  8
0
 10
-85
 20
23.1
 11
-90
 21
23.1
  0
LINE
  8
0
 10
-90
 20
23.1
 11
-90
 21
15
  0
LINE
  8
0
 10
-90
 20
15
 11
-91.2863
 21
15
  0
LINE
  8
0
 10
-91.2863
 20
15
 11
-91.2552
 21
15.0958
  0
LINE
  8
0
 10
-91.2552
 20
15.0958
 11
-91.55
 21
15.31
  0
LINE
  8
0
 10
-91.55
 20
15.31
 11
-91.8448
 21
15.0958
  0
LINE
  8
0
 10
-91.8448
 20
15.0958
 11
-91.8137
 21
15
  0
LINE
  8
0
 10
-91.8137
 20
15
 11
-93.1
 21
15
  0
LINE
  8
0
 10
-93.1
 20
15
 11
-93.1
 21
10
  0
LINE
  8
0
 10
-93.1
 20
10
 11
-90
 21
10
  0
LINE
  8
0
 10
-90
 20
10
 11
-90
 21
5
  0
LINE
  8
0
 10
-90
 20
5
 11
-91.2863
 21
5
  0
LINE
  8
0
 10
-91.2863
 20
5
 11
-91.2552
 21
5.09579
  0
LINE
  8
0
 10
-91.2552
 20
5.09579
 11
-91.55
 21
5.31
  0
LINE
  8
0
 10
-91.55
 20
5.31
 11
-91.8448
 21
5.09579
  0
LINE
  8
0
 10
-91.8448
 20
5.09579
 11
-91.8137
 21
5
  0
LINE
  8
0
 10
-91.8137
 20
5
 11
-93.1
 21
5
  0
LINE
  8
0
 10
-93.1
 20
5
 11
-93.1
 21
0
  0
LINE
  8
0
 10
-93.1
 20
0
 11
-85
 21
0
  0
LINE
  8
0
 10
-85
 20
0
 11
-85
 21
-1.28629
  0
LINE
  8
0
 10
-85
 20
-1.28629
 11
-85.0958
 21
-1.25516
  0
LINE
  8
0
 10
-85.0958
 20
-1.25516
 11
-85.31
 21
-1.54999
  0
LINE
  8
0
 10
-85.31
 20
-1.54999
 11
-85.0958
 21
-1.84482
  0
LINE
  8
0
 10
-85.0958
 20
-1.84482
 11
-85
 21
-1.81369
  0
LINE
  8
0
 10
-85
 20
-1.81369
 11
-85
 21
-3.09999
  0
LINE
  8
0
 10
-85
 20
-3.09999
 11
-80
 21
-3.09999
  0
LINE
  8
0
 10
-80
 20
-3.09999
 11
-80
 21
0
  0
LINE
  8
0
 10
77.006
 20
-2.65248
 11
76.1162
 21
-0.95726
  0
LINE
  8
0
 10
76.1162
 20
-0.95726
 11
76.1162
 21
0.95726
  0
LINE
  8
0
 10
76.1162
 20
0.95726
 11
77.006
 21
2.65248
  0
LINE
  8
0
 10
77.006
 20
2.65248
 11
78.5816
 21
3.74005
  0
LINE
  8
0
 10
78.5816
 20
3.74005
 11
80.4821
 21
3.97083
  0
LINE
  8
0
 10
80.4821
 20
3.97083
 11
82.2722
 21
3.29193
  0
LINE
  8
0
 10
82.2722
 20
3.29193
 11
83.5418
 21
1.85889
  0
LINE
  8
0
 10
83.5418
 20
1.85889
 11
84
 21
0
  0
LINE
  8
0
 10
84
 20
0
 11
85
 21
0
  0
LINE
  8
0
 10
85
 20
0
 11
85
 21
-1.28629
  0
LINE
  8
0
 10
85
 20
-1.28629
 11
84.9042
 21
-1.25516
  0
LINE
  8
0
 10
84.9042
 20
-1.25516
 11
84.69
 21
-1.54999
  0
LINE
  8
0
 10
84.69
 20
-1.54999
 11
84.9042
 21
-1.84482
  0
LINE
  8
0
 10
84.9042
 20
-1.84482
 11
85
 21
-1.81369
  0
LINE
  8
0
 10
85
 20
-1.81369
 11
85
 21
-3.09999
  0
LINE
  8
0
 10
85
 20
-3.09999
 11
90
 21
-3.09999
  0
LINE
  8
0
 10
90
 20
-3.09999
 11
90
 21
0
  0
LINE
  8
0
 10
90
 20
0
 11
91.1162
 21
0
  0
LINE
  8
0
 10
91.1162
 20
0
 11
91.1162
 21
0.95726
  0
LINE
  8
0
 10
91.1162
 20
0.95726
 11
92.006
 21
2.65248
  0
LINE
  8
0
 10
92.006
 20
2.65248
 11
93.5816
 21
3.74005
  0
LINE
  8
0
 10
93.5816
 20
3.74005
 11
95.4821
 21
3.97083
  0
LINE
  8
0
 10
95.4821
 20
3.97083
 11
97.2722
 21
3.29193
  0
LINE
  8
0
 10
97.2722
 20
3.29193
 11
98.5418
 21
1.85889
  0
LINE
  8
0
 10
98.5418
 20
1.85889
 11
99
 21
0
  0
LINE
  8
0
 10
99
 20
0
 11
98.5418
 21
-1.85889
  0
LINE
  8
0
 10
98.5418
 20
-1.85889
 11
97.4423
 21
-3.09999
  0
LINE
  8
0
 10
97.4423
 20
-3.09999
 11
100
 21
-3.09999
  0
LINE
  8
0
 10
100
 20
-3.09999
 11
100
 21
0
  0
LINE
  8
0
 10
100
 20
0
 11
105
 21
0
  0
LINE
  8
0
 10
105
 20
0
 11
105
 21
-1.28629
  0
LINE
  8
0
 10
105
 20
-1.28629
 11
104.904
 21
-1.25516
  0
LINE
  8
0
 10
104.904
 20
-1.25516
 11
104.69
 21
-1.54999
  0
LINE
  8
0
 10
104.69
 20
-1.54999
 11
104.904
 21
-1.84482
  0
LINE
  8
0
 10
104.904
 20
-1.84482
 11
105
 21
-1.81369
  0
LINE
  8
0
 10
105
 20
-1.81369
 11
105
 21
-3.09999
  0
LINE
  8
0
 10
105
 20
-3.09999
 11
110
 21
-3.09999
  0
LINE
  8
0
 10
110
 20
-3.09999
 11
110
 21
0
  0
LINE
  8
0
 10
110
 20
0
 11
115
 21
0
  0
LINE
  8
0
 10
115
 20
0
 11
115
 21
-1.28629
  0
LINE
  8
0
 10
115
 20
-1.28629
 11
114.904
 21
-1.25516
  0
LINE
  8
0
 10
114.904
 20
-1.25516
 11
114.69
 21
-1.54999
  0
LINE
  8
0
 10
114.69
 20
-1.54999
 11
114.904
 21
-1.84482
  0
LINE
  8
0
 10
114.904
 20
-1.84482
 11
115
 21
-1.81369
  0
LINE
  8
0
 10
115
 20
-1.81369
 11
115
 21
-3.09999
  0
LINE
  8
0
 10
115
 20
-3.09999
 11
120
 21
-3.09999
  0
LINE
  8
0
 10
120
 20
-3.09999
 11
120
 21
0
  0
LINE
  8
0
 10
120
 20
0
 11
121.116
 21
0
  0
LINE
  8
0
 10
121.116
 20
0
 11
121.116
 21
0.95726
  0
LINE
  8
0
 10
121.116
 20
0.95726
 11
122.006
 21
2.65248
  0
LINE
  8
0
 10
122.006
 20
2.65248
 11
123.582
 21
3.74005
  0
LINE
  8
0
 10
123.582
 20
3.74005
 11
125.482
 21
3.97083
  0
LINE
  8
0
 10
125.482
 20
3.97083
 11
127.272
 21
3.29193
  0
LINE
  8
0
 10
127.272
 20
3.29193
 11
128.542
 21
1.85889
  0
LINE
  8
0
 10
128.542
 20
1.85889
 11
129
 21
0
  0
LINE
  8
0
 10
129
 20
0
 11
128.542
 21
-1.85889
  0
LINE
  8
0
 10
128.542
 20
-1.85889
 11
127.442
 21
-3.09999
  0
LINE
  8
0
 10
127.442
 20
-3.09999
 11
130
 21
-3.09999
  0
LINE
  8
0
 10
130
 20
-3.09999
 11
130
 21
0
  0
LINE
  8
0
 10
130
 20
0
 11
135
 21
0
  0
LINE
  8
0
 10
135
 20
0
 11
135
 21
-1.28629
  0
LINE
  8
0
 10
135
 20
-1.28629
 11
134.904
 21
-1.25516
  0
LINE
  8
0
 10
134.904
 20
-1.25516
 11
134.69
 21
-1.54999
  0
LINE
  8
0
 10
134.69
 20
-1.54999
 11
134.904
 21
-1.84482
  0
LINE
  8
0
 10
134.904
 20
-1.84482
 11
135
 21
-1.81369
  0
LINE
  8
0
 10
135
 20
-1.81369
 11
135
 21
-3.09999
  0
LINE
  8
0
 10
135
 20
-3.09999
 11
137.654
 21
-3.09999
  0
LINE
  8
0
 10
137.654
 20
-3.09999
 11
137.006
 21
-2.65248
  0
LINE
  8
0
 10
137.006
 20
-2.65248
 11
136.116
 21
-0.95726
  0
LINE
  8
0
 10
136.116
 20
-0.95726
 11
136.116
 21
0.95726
  0
LINE
  8
0
 10
136.116
 20
0.95726
 11
137.006
 21
2.65248
  0
LINE
  8
0
 10
137.006
 20
2.65248
 11
138.582
 21
3.74005
  0
LINE
  8
0
 10
138.582
 20
3.74005
 11
140.482
 21
3.97083
  0
LINE
  8
0
 10
140.482
 20
3.97083
 11
142.272
 21
3.29193
  0
LINE
  8
0
 10
142.272
 20
3.29193
 11
143.542
 21
1.85889
  0
LINE
  8
0
 10
143.542
 20
1.85889
 11
144
 21
0
  0
LINE
  8
0
 10
144
 20
0
 11
145
 21
0
  0
LINE
  8
0
 10
145
 20
0
 11
145
 21
-1.28629
  0
LINE
  8
0
 10
145
 20
-1.28629
 11
144.904
 21
-1.25516
  0
LINE
  8
0
 10
144.904
 20
-1.25516
 11
144.69
 21
-1.54999
  0
LINE
  8
0
 10
144.69
 20
-1.54999
 11
144.904
 21
-1.84482
  0
LINE
  8
0
 10
144.904
 20
-1.84482
 11
145
 21
-1.81369
  0
LINE
  8
0
 10
145
 20
-1.81369
 11
145
 21
-3.09999
  0
LINE
  8
0
 10
145
 20
-3.09999
 11
150
 21
-3.09999
  0
LINE
  8
0
 10
150
 20
-3.09999
 11
150
 21
5
  0
LINE
  8
0
 10
150
 20
5
 11
151.286
 21
5
  0
LINE
  8
0
 10
151.286
 20
5
 11
151.255
 21
4.90421
  0
LINE
  8
0
 10
151.255
 20
4.90421
 11
151.55
 21
4.69
  0
LINE
  8
0
 10
151.55
 20
4.69
 11
151.845
 21
4.90421
  0
LINE
  8
0
 10
151.845
 20
4.90421
 11
151.814
 21
5
  0
LINE
  8
0
 10
151.814
 20
5
 11
153.1
 21
5
  0
LINE
  8
0
 10
153.1
 20
5
 11
153.1
 21
10
  0
LINE
  8
0
 10
153.1
 20
10
 11
150
 21
10
  0
LINE
  8
0
 10
150
 20
10
 11
150
 21
15
  0
LINE
  8
0
 10
150
 20
15
 11
151.286
 21
15
  0
LINE
  8
0
 10
151.286
 20
15
 11
151.255
 21
14.9042
  0
LINE
  8
0
 10
151.255
 20
14.9042
 11
151.55
 21
14.69
  0
LINE
  8
0
 10
151.55
 20
14.69
 11
151.845
 21
14.9042
  0
LINE
  8
0
 10
151.845
 20
14.9042
 11
151.814
 21
15
  0
LINE
  8
0
 10
151.814
 20
15
 11
153.1
 21
15
  0
LINE
  8
0
 10
153.1
 20
15
 11
153.1
 21
20
  0
LINE
  8
0
 10
153.1
 20
20
 11
145
 21
20
  0
LINE
  8
0
 10
145
 20
20
 11
145
 21
21.2863
  0
LINE
  8
0
 10
145
 20
21.2863
 11
145.096
 21
21.2552
  0
LINE
  8
0
 10
145.096
 20
21.2552
 11
145.31
 21
21.55
  0
LINE
  8
0
 10
145.31
 20
21.55
 11
145.096
 21
21.8448
  0
LINE
  8
0
 10
145.096
 20
21.8448
 11
145
 21
21.8137
  0
LINE
  8
0
 10
145
 20
21.8137
 11
145
 21
23.1
  0
LINE
  8
0
 10
145
 20
23.1
 11
140
 21
23.1
  0
LINE
  8
0
 10
140
 20
23.1
 11
140
 21
20
  0
LINE
  8
0
 10
140
 20
20
 11
135
 21
20
  0
LINE
  8
0
 10
135
 20
20
 11
135
 21
21.2863
  0
LINE
  8
0
 10
135
 20
21.2863
 11
135.096
 21
21.2552
  0
LINE
  8
0
 10
135.096
 20
21.2552
 11
135.31
 21
21.55
  0
LINE
  8
0
 10
135.31
 20
21.55
 11
135.096
 21
21.8448
  0
LINE
  8
0
 10
135.096
 20
21.8448
 11
135
 21
21.8137
  0
LINE
  8
0
 10
135
 20
21.8137
 11
135
 21
23.1
  0
LINE
  8
0
 10
135
 20
23.1
 11
130
 21
23.1
  0
LINE
  8
0
 10
130
 20
23.1
 11
130
 21
20
  0
LINE
  8
0
 10
130
 20
20
 11
125
 21
20
  0
LINE
  8
0
 10
125
 20
20
 11
125
 21
21.2863
  0
LINE
  8
0
 10
125
 20
21.2863
 11
125.096
 21
21.2552
  0
LINE
  8
0
 10
125.096
 20
21.2552
 11
125.31
 21
21.55
  0
LINE
  8
0
 10
125.31
 20
21.55
 11
125.096
 21
21.8448
  0
LINE
  8
0
 10
125.096
 20
21.8448
 11
125
 21
21.8137
  0
LINE
  8
0
 10
125
 20
21.8137
 11
125
 21
23.1
  0
LINE
  8
0
 10
125
 20
23.1
 11
120
 21
23.1
  0
LINE
  8
0
 10
120
 20
23.1
 11
120
 21
20
  0
LINE
  8
0
 10
120
 20
20
 11
115
 21
20
  0
LINE
  8
0
 10
115
 20
20
 11
115
 21
21.2863
  0
LINE
  8
0
 10
115
 20
21.2863
 11
115.096
 21
21.2552
  0
LINE
  8
0
 10
115.096
 20
21.2552
 11
115.31
 21
21.55
  0
LINE
  8
0
 10
115.31
 20
21.55
 11
115.096
 21
21.8448
  0
LINE
  8
0
 10
115.096
 20
21.8448
 11
115
 21
21.8137
  0
LINE
  8
0
 10
115
 20
21.8137
 11
115
 21
23.1
  0
LINE
  8
0
 10
115
 20
23.1
 11
110
 21
23.1
  0
LINE
  8
0
 10
110
 20
23.1
 11
110
 21
20
  0
LINE
  8
0
 10
110
 20
20
 11
105
 21
20
  0
LINE
  8
0
 10
105
 20
20
 11
105
 21
21.2863
  0
LINE
  8
0
 10
105
 20
21.2863
 11
105.096
 21
21.2552
  0
LINE
  8
0
 10
105.096
 20
21.2552
 11
105.31
 21
21.55
  0
LINE
  8
0
 10
105.31
 20
21.55
 11
105.096
 21
21.8448
  0
LINE
  8
0
 10
105.096
 20
21.8448
 11
105
 21
21.8137
  0
LINE
  8
0
 10
105
 20
21.8137
 11
105
 21
23.1
  0
LINE
  8
0
 10
105
 20
23.1
 11
100
 21
23.1
  0
LINE
  8
0
 10
100
 20
23.1
 11
100
 21
20
  0
LINE
  8
0
 10
100
 20
20
 11
95
 21
20
  0
LINE
  8
0
 10
95
 20
20
 11
95
 21
21.2863
  0
LINE
  8
0
 10
95
 20
21.2863
 11
95.0958
 21
21.2552
  0
LINE
  8
0
 10
95.0958
 20
21.2552
 11
95.31
 21
21.55
  0
LINE
  8
0
 10
95.31
 20
21.55
 11
95.0958
 21
21.8448
  0
LINE
  8
0
 10
95.0958
 20
21.8448
 11
95
 21
21.8137
  0
LINE
  8
0
 10
95
 20
21.8137
 11
95
 21
23.1
  0
LINE
  8
0
 10
95
 20
23.1
 11
90
 21
23.1
  0
LINE
  8
0
 10
90
 20
23.1
 11
90
 21
20
  0
LINE
  8
0
 10
90
 20
20
 11
85
 21
20
  0
LINE
  8
0
 10
85
 20
20
 11
85
 21
21.2863
  0
LINE
  8
0
 10
85
 20
21.2863
 11
85.0958
 21
21.2552
  0
LINE
  8
0
 10
85.0958
 20
21.2552
 11
85.31
 21
21.55
  0
LINE
  8
0
 10
85.31
 20
21.55
 11
85.0958
 21
21.8448
  0
LINE
  8
0
 10
85.0958
 20
21.8448
 11
85
 21
21.8137
  0
LINE
  8
0
 10
85
 20
21.8137
 11
85
 21
23.1
  0
LINE
  8
0
 10
85
 20
23.1
 11
80
 21
23.1
  0
LINE
  8
0
 10
80
 20
23.1
 11
80
 21
20
  0
LINE
  8
0
 10
80
 20
20
 11
75
 21
20
  0
LINE
  8
0
 10
75
 20
20
 11
75
 21
21.2863
  0
LINE
  8
0
 10
75
 20
21.2863
 11
75.0958
 21
21.2552
  0
LINE
  8
0
 10
75.0958
 20
21.2552
 11
75.31
 21
21.55
  0
LINE
  8
0
 10
75.31
 20
21.55
 11
75.0958
 21
21.8448
  0
LINE
  8
0
 10
75.0958
 20
21.8448
 11
75
 21
21.8137
  0
LINE
  8
0
 10
75
 20
21.8137
 11
75
 21
23.1
  0
LINE
  8
0
 10
75
 20
23.1
 11
70
 21
23.1
  0
LINE
  8
0
 10
70
 20
23.1
 11
70
 21
15
  0
LINE
  8
0
 10
70
 20
15
 11
68.7137
 21
15
  0
LINE
  8
0
 10
68.7137
 20
15
 11
68.7448
 21
15.0958
  0
LINE
  8
0
 10
68.7448
 20
15.0958
 11
68.45
 21
15.31
  0
LINE
  8
0
 10
68.45
 20
15.31
 11
68.1552
 21
15.0958
  0
LINE
  8
0
 10
68.1552
 20
15.0958
 11
68.1863
 21
15
  0
LINE
  8
0
 10
68.1863
 20
15
 11
66.9
 21
15
  0
LINE
  8
0
 10
66.9
 20
15
 11
66.9
 21
10
  0
LINE
  8
0
 10
66.9
 20
10
 11
70
 21
10
  0
LINE
  8
0
 10
70
 20
10
 11
70
 21
5
  0
LINE
  8
0
 10
70
 20
5
 11
68.7137
 21
5
  0
LINE
  8
0
 10
68.7137
 20
5
 11
68.7448
 21
5.09579
  0
LINE
  8
0
 10
68.7448
 20
5.09579
 11
68.45
 21
5.31
  0
LINE
  8
0
 10
68.45
 20
5.31
 11
68.1552
 21
5.09579
  0
LINE
  8
0
 10
68.1552
 20
5.09579
 11
68.1863
 21
5
  0
LINE
  8
0
 10
68.1863
 20
5
 11
66.9
 21
5
  0
LINE
  8
0
 10
66.9
 20
5
 11
66.9
 21
0
  0
LINE
  8
0
 10
66.9
 20
0
 11
75
 21
0
  0
LINE
  8
0
 10
75
 20
0
 11
75
 21
-1.28629
  0
LINE
  8
0
 10
75
 20
-1.28629
 11
74.9042
 21
-1.25516
  0
LINE
  8
0
 10
74.9042
 20
-1.25516
 11
74.69
 21
-1.54999
  0
LINE
  8
0
 10
74.69
 20
-1.54999
 11
74.9042
 21
-1.84482
  0
LINE
  8
0
 10
74.9042
 20
-1.84482
 11
75
 21
-1.81369
  0
LINE
  8
0
 10
75
 20
-1.81369
 11
75
 21
-3.09999
  0
LINE
  8
0
 10
75
 20
-3.09999
 11
77.6543
 21
-3.09999
  0
LINE
  8
0
 10
77.6543
 20
-3.09999
 11
77.006
 21
-2.65248
  0
LINE
  8
0
 10
10
 20
0
 11
15
 21
0
  0
LINE
  8
0
 10
15
 20
0
 11
15
 21
-1.28629
  0
LINE
  8
0
 10
15
 20
-1.28629
 11
14.9042
 21
-1.25516
  0
LINE
  8
0
 10
14.9042
 20
-1.25516
 11
14.69
 21
-1.54999
  0
LINE
  8
0
 10
14.69
 20
-1.54999
 11
14.9042
 21
-1.84482
  0
LINE
  8
0
 10
14.9042
 20
-1.84482
 11
15
 21
-1.81369
  0
LINE
  8
0
 10
15
 20
-1.81369
 11
15
 21
-3.09999
  0
LINE
  8
0
 10
15
 20
-3.09999
 11
20
 21
-3.09999
  0
LINE
  8
0
 10
20
 20
-3.09999
 11
20
 21
0
  0
LINE
  8
0
 10
20
 20
0
 11
25
 21
0
  0
LINE
  8
0
 10
25
 20
0
 11
25
 21
-1.28629
  0
LINE
  8
0
 10
25
 20
-1.28629
 11
24.9042
 21
-1.25516
  0
LINE
  8
0
 10
24.9042
 20
-1.25516
 11
24.69
 21
-1.54999
  0
LINE
  8
0
 10
24.69
 20
-1.54999
 11
24.9042
 21
-1.84482
  0
LINE
  8
0
 10
24.9042
 20
-1.84482
 11
25
 21
-1.81369
  0
LINE
  8
0
 10
25
 20
-1.81369
 11
25
 21
-3.09999
  0
LINE
  8
0
 10
25
 20
-3.09999
 11
30
 21
-3.09999
  0
LINE
  8
0
 10
30
 20
-3.09999
 11
30
 21
0
  0
LINE
  8
0
 10
30
 20
0
 11
35
 21
0
  0
LINE
  8
0
 10
35
 20
0
 11
35
 21
-1.28629
  0
LINE
  8
0
 10
35
 20
-1.28629
 11
34.9042
 21
-1.25516
  0
LINE
  8
0
 10
34.9042
 20
-1.25516
 11
34.69
 21
-1.54999
  0
LINE
  8
0
 10
34.69
 20
-1.54999
 11
34.9042
 21
-1.84482
  0
LINE
  8
0
 10
34.9042
 20
-1.84482
 11
35
 21
-1.81369
  0
LINE
  8
0
 10
35
 20
-1.81369
 11
35
 21
-3.09999
  0
LINE
  8
0
 10
35
 20
-3.09999
 11
40
 21
-3.09999
  0
LINE
  8
0
 10
40
 20
-3.09999
 11
40
 21
0
  0
LINE
  8
0
 10
40
 20
0
 11
45
 21
0
  0
LINE
  8
0
 10
45
 20
0
 11
45
 21
-1.28629
  0
LINE
  8
0
 10
45
 20
-1.28629
 11
44.9042
 21
-1.25516
  0
LINE
  8
0
 10
44.9042
 20
-1.25516
 11
44.69
 21
-1.54999
  0
LINE
  8
0
 10
44.69
 20
-1.54999
 11
44.9042
 21
-1.84482
  0
LINE
  8
0
 10
44.9042
 20
-1.84482
 11
45
 21
-1.81369
  0
LINE
  8
0
 10
45
 20
-1.81369
 11
45
 21
-3.09999
  0
LINE
  8
0
 10
45
 20
-3.09999
 11
50
 21
-3.09999
  0
LINE
  8
0
 10
50
 20
-3.09999
 11
50
 21
0
  0
LINE
  8
0
 10
50
 20
0
 11
55
 21
0
  0
LINE
  8
0
 10
55
 20
0
 11
55
 21
-1.28629
  0
LINE
  8
0
 10
55
 20
-1.28629
 11
54.9042
 21
-1.25516
  0
LINE
  8
0
 10
54.9042
 20
-1.25516
 11
54.69
 21
-1.54999
  0
LINE
  8
0
 10
54.69
 20
-1.54999
 11
54.9042
 21
-1.84482
  0
LINE
  8
0
 10
54.9042
 20
-1.84482
 11
55
 21
-1.81369
  0
LINE
  8
0
 10
55
 20
-1.81369
 11
55
 21
-3.09999
  0
LINE
  8
0
 10
55
 20
-3.09999
 11
60
 21
-3.09999
  0
LINE
  8
0
 10
60
 20
-3.09999
 11
60
 21
5
  0
LINE
  8
0
 10
60
 20
5
 11
61.2863
 21
5
  0
LINE
  8
0
 10
61.2863
 20
5
 11
61.2552
 21
4.90421
  0
LINE
  8
0
 10
61.2552
 20
4.90421
 11
61.55
 21
4.69
  0
LINE
  8
0
 10
61.55
 20
4.69
 11
61.8448
 21
4.90421
  0
LINE
  8
0
 10
61.8448
 20
4.90421
 11
61.8137
 21
5
  0
LINE
  8
0
 10
61.8137
 20
5
 11
63.1
 21
5
  0
LINE
  8
0
 10
63.1
 20
5
 11
63.1
 21
10
  0
LINE
  8
0
 10
63.1
 20
10
 11
60
 21
10
  0
LINE
  8
0
 10
60
 20
10
 11
60
 21
15
  0
LINE
  8
0
 10
60
 20
15
 11
61.2863
 21
15
  0
LINE
  8
0
 10
61.2863
 20
15
 11
61.2552
 21
14.9042
  0
LINE
  8
0
 10
61.2552
 20
14.9042
 11
61.55
 21
14.69
  0
LINE
  8
0
 10
61.55
 20
14.69
 11
61.8448
 21
14.9042
  0
LINE
  8
0
 10
61.8448
 20
14.9042
 11
61.8137
 21
15
  0
LINE
  8
0
 10
61.8137
 20
15
 11
63.1
 21
15
  0
LINE
  8
0
 10
63.1
 20
15
 11
63.1
 21
20
  0
LINE
  8
0
 10
63.1
 20
20
 11
55
 21
20
  0
LINE
  8
0
 10
55
 20
20
 11
55
 21
21.2863
  0
LINE
  8
0
 10
55
 20
21.2863
 11
55.0958
 21
21.2552
  0
LINE
  8
0
 10
55.0958
 20
21.2552
 11
55.31
 21
21.55
  0
LINE
  8
0
 10
55.31
 20
21.55
 11
55.0958
 21
21.8448
  0
LINE
  8
0
 10
55.0958
 20
21.8448
 11
55
 21
21.8137
  0
LINE
  8
0
 10
55
 20
21.8137
 11
55
 21
23.1
  0
LINE
  8
0
 10
55
 20
23.1
 11
50
 21
23.1
  0
LINE
  8
0
 10
50
 20
23.1
 11
50
 21
20
  0
LINE
  8
0
 10
50
 20
20
 11
45
 21
20
  0
LINE
  8
0
 10
45
 20
20
 11
45
 21
21.2863
  0
LINE
  8
0
 10
45
 20
21.2863
 11
45.0958
 21
21.2552
  0
LINE
  8
0
 10
45.0958
 20
21.2552
 11
45.31
 21
21.55
  0
LINE
  8
0
 10
45.31
 20
21.55
 11
45.0958
 21
21.8448
  0
LINE
  8
0
 10
45.0958
 20
21.8448
 11
45
 21
21.8137
  0
LINE
  8
0
 10
45
 20
21.8137
 11
45
 21
23.1
  0
LINE
  8
0
 10
45
 20
23.1
 11
40
 21
23.1
  0
LINE
  8
0
 10
40
 20
23.1
 11
40
 21
20
  0
LINE
  8
0
 10
40
 20
20
 11
35
 21
20
  0
LINE
  8
0
 10
35
 20
20
 11
35
 21
21.2863
  0
LINE
  8
0
 10
35
 20
21.2863
 11
35.0958
 21
21.2552
  0
LINE
  8
0
 10
35.0958
 20
21.2552
 11
35.31
 21
21.55
  0
LINE
  8
0
 10
35.31
 20
21.55
 11
35.0958
 21
21.8448
  0
LINE
  8
0
 10
35.0958
 20
21.8448
 11
35
 21
21.8137
  0
LINE
  8
0
 10
35
 20
21.8137
 11
35
 21
23.1
  0
LINE
  8
0
 10
35
 20
23.1
 11
30
 21
23.1
  0
LINE
  8
0
 10
30
 20
23.1
 11
30
 21
20
  0
LINE
  8
0
 10
30
 20
20
 11
25
 21
20
  0
LINE
  8
0
 10
25
 20
20
 11
25
 21
21.2863
  0
LINE
  8
0
 10
25
 20
21.2863
 11
25.0958
 21
21.2552
  0
LINE
  8
0
 10
25.0958
 20
21.2552
 11
25.31
 21
21.55
  0
LINE
  8
0
 10
25.31
 20
21.55
 11
25.0958
 21
21.8448
  0
LINE
  8
0
 10
25.0958
 20
21.8448
 11
25
 21
21.8137
  0
LINE
  8
0
 10
25
 20
21.8137
 11
25
 21
23.1
  0
LINE
  8
0
 10
25
 20
23.1
 11
20
 21
23.1
  0
LINE
  8
0
 10
20
 20
23.1
 11
20
 21
20
  0
LINE
  8
0
 10
20
 20
20
 11
15
 21
20
  0
LINE
  8
0
 10
15
 20
20
 11
15
 21
21.2863
  0
LINE
  8
0
 10
15
 20
21.2863
 11
15.0958
 21
21.2552
  0
LINE
  8
0
 10
15.0958
 20
21.2552
 11
15.31
 21
21.55
  0
LINE
  8
0
 10
15.31
 20
21.55
 11
15.0958
 21
21.8448
  0
LINE
  8
0
 10
15.0958
 20
21.8448
 11
15
 21
21.8137
  0
LINE
  8
0
 10
15
 20
21.8137
 11
15
 21
23.1
  0
LINE
  8
0
 10
15
 20
23.1
 11
10
 21
23.1
  0
LINE
  8
0
 10
10
 20
23.1
 11
10
 21
20
  0
LINE
  8
0
 10
10
 20
20
 11
5
 21
20
  0
LINE
  8
0
 10
5
 20
20
 11
5
 21
21.2863
  0
LINE
  8
0
 10
5
 20
21.2863
 11
5.09579
 21
21.2552
  0
LINE
  8
0
 10
5.09579
 20
21.2552
 11
5.31
 21
21.55
  0
LINE
  8
0
 10
5.31
 20
21.55
 11
5.09579
 21
21.8448
  0
LINE
  8
0
 10
5.09579
 20
21.8448
 11
5
 21
21.8137
  0
LINE
  8
0
 10
5
 20
21.8137
 11
5
 21
23.1
  0
LINE
  8
0
 10
5
 20
23.1
 11
0
 21
23.1
  0
LINE
  8
0
 10
0
 20
23.1
 11
0
 21
15
  0
LINE
  8
0
 10
0
 20
15
 11
-1.28629
 21
15
  0
LINE
  8
0
 10
-1.28629
 20
15
 11
-1.25516
 21
15.0958
  0
LINE
  8
0
 10
-1.25516
 20
15.0958
 11
-1.54999
 21
15.31
  0
LINE
  8
0
 10
-1.54999
 20
15.31
 11
-1.84482
 21
15.0958
  0
LINE
  8
0
 10
-1.84482
 20
15.0958
 11
-1.81369
 21
15
  0
LINE
  8
0
 10
-1.81369
 20
15
 11
-3.09999
 21
15
  0
LINE
  8
0
 10
-3.09999
 20
15
 11
-3.09999
 21
10
  0
LINE
  8
0
 10
-3.09999
 20
10
 11
0
 21
10
  0
LINE
  8
0
 10
0
 20
10
 11
0
 21
5
  0
LINE
  8
0
 10
0
 20
5
 11
-1.28629
 21
5
  0
LINE
  8
0
 10
-1.28629
 20
5
 11
-1.25516
 21
5.09579
  0
LINE
  8
0
 10
-1.25516
 20
5.09579
 11
-1.54999
 21
5.31
  0
LINE
  8
0
 10
-1.54999
 20
5.31
 11
-1.84482
 21
5.09579
  0
LINE
  8
0
 10
-1.84482
 20
5.09579
 11
-1.81369
 21
5
  0
LINE
  8
0
 10
-1.81369
 20
5
 11
-3.09999
 21
5
  0
LINE
  8
0
 10
-3.09999
 20
5
 11
-3.09999
 21
0
  0
LINE
  8
0
 10
-3.09999
 20
0
 11
5
 21
0
  0
LINE
  8
0
 10
5
 20
0
 11
5
 21
-1.28629
  0
LINE
  8
0
 10
5
 20
-1.28629
 11
4.90421
 21
-1.25516
  0
LINE
  8
0
 10
4.90421
 20
-1.25516
 11
4.69
 21
-1.54999
  0
LINE
  8
0
 10
4.69
 20
-1.54999
 11
4.90421
 21
-1.84482
  0
LINE
  8
0
 10
4.90421
 20
-1.84482
 11
5
 21
-1.81369
  0
LINE
  8
0
 10
5
 20
-1.81369
 11
5
 21
-3.09999
  0
LINE
  8
0
 10
5
 20
-3.09999
 11
10
 21
-3.09999
  0
LINE
  8
0
 10
10
 20
-3.09999
 11
10
 21
0
  0
LINE
  8
0
 10
60
 20
-5
 11
0
 21
-5
  0
LINE
  8
0
 10
0
 20
-5
 11
0
 21
-25
  0
LINE
  8
0
 10
0
 20
-25
 11
60
 21
-25
  0
LINE
  8
0
 10
60
 20
-25
 11
60
 21
-5
  0
ENDSEC
  0
SECTION
  2
OBJECTS
  0
DICTIONARY
  0
ENDSEC
  0
EOF
